<?xml version="1.0" encoding="utf-8"?>
<!-- Generator: Adobe Illustrator 26.0.3, SVG Export Plug-In . SVG Version: 6.00 Build 0)  -->
<svg version="1.1" id="OBJECTS" xmlns="http://www.w3.org/2000/svg" xmlns:xlink="http://www.w3.org/1999/xlink" x="0px" y="0px"
	 viewBox="0 0 1200 800" style="enable-background:new 0 0 1200 800;" xml:space="preserve">
<style type="text/css">
	.st0{opacity:0.1;}
	.st1{clip-path:url(#SVGID_00000071552517627023701680000004928659622111288255_);}
	.st2{fill:url(#SVGID_00000154420267970653473100000008890012300653218209_);}
	.st3{fill:url(#SVGID_00000093897294418989155980000018122893185211176077_);}
	.st4{fill:#16BEFC;}
	.st5{fill:#0068E5;}
</style>
<g class="st0">
	<defs>
		<rect id="SVGID_1_" x="400" y="0" class="st0" width="800" height="585.3"/>
	</defs>
	<clipPath id="SVGID_00000000202384211135855580000012420410202900790164_">
		<use xlink:href="#SVGID_1_"  style="overflow:visible;"/>
	</clipPath>
	<g style="clip-path:url(#SVGID_00000000202384211135855580000012420410202900790164_);">
		<g>
			
				<image style="overflow:visible;opacity:0.5;" width="3588" height="3588" xlink:href="19090193.png"  transform="matrix(0.24 0 0 0.24 473.16 -188.04)">
			</image>
			<g>
				<g>
					
						<linearGradient id="SVGID_00000117669232593697045100000004353945686411861133_" gradientUnits="userSpaceOnUse" x1="556.2714" y1="222.4516" x2="1291.214" y2="222.4516">
						<stop  offset="0" style="stop-color:#003DC6"/>
						<stop  offset="0.5961" style="stop-color:#005ADB"/>
						<stop  offset="1" style="stop-color:#0068E5"/>
					</linearGradient>
					<path style="fill:url(#SVGID_00000117669232593697045100000004353945686411861133_);" d="M1243.2,589.9
						c-12.3,0-24.6-4.7-33.9-14.1l-639-639c-18.7-18.7-18.7-49.1,0-67.8c18.7-18.7,49.1-18.7,67.8,0l639,639
						c18.7,18.7,18.7,49.1,0,67.8C1267.8,585.2,1255.5,589.9,1243.2,589.9z"/>
				</g>
			</g>
		</g>
		<g>
			
				<image style="overflow:visible;opacity:0.5;" width="2913" height="2913" xlink:href="19090196.png"  transform="matrix(0.24 0 0 0.24 495.48 -405.48)">
			</image>
			<g>
				<g>
					
						<linearGradient id="SVGID_00000001622187013924800120000015563381557363887512_" gradientUnits="userSpaceOnUse" x1="578.6931" y1="-75.9874" x2="1151.5286" y2="-75.9874">
						<stop  offset="0" style="stop-color:#003DC6"/>
						<stop  offset="0.3399" style="stop-color:#003BB8"/>
						<stop  offset="0.9847" style="stop-color:#003492"/>
						<stop  offset="1" style="stop-color:#003491"/>
					</linearGradient>
					<path style="fill:url(#SVGID_00000001622187013924800120000015563381557363887512_);" d="M1131.5,210.4c-5.1,0-10.2-2-14.1-5.9
						L584.6-328.3c-7.8-7.8-7.8-20.5,0-28.3c7.8-7.8,20.5-7.8,28.3,0l532.8,532.8c7.8,7.8,7.8,20.5,0,28.3
						C1141.8,208.5,1136.6,210.4,1131.5,210.4z"/>
				</g>
			</g>
		</g>
		<g>
			<path class="st4" d="M707.8,268.7c-1.3,0-2.6-0.5-3.5-1.5L171.4-265.6c-2-2-2-5.1,0-7.1c2-2,5.1-2,7.1,0l532.8,532.8
				c2,2,2,5.1,0,7.1C710.3,268.2,709.1,268.7,707.8,268.7z"/>
		</g>
		<g>
			<path class="st5" d="M1428.5,608.1c-1.3,0-2.6-0.5-3.5-1.5L892.2,73.8c-2-2-2-5.1,0-7.1c2-2,5.1-2,7.1,0l532.8,532.8
				c2,2,2,5.1,0,7.1C1431.1,607.6,1429.8,608.1,1428.5,608.1z"/>
		</g>
	</g>
</g>
</svg>
