<?xml version="1.0" encoding="utf-8"?>
<!-- Generator: Adobe Illustrator 26.0.3, SVG Export Plug-In . SVG Version: 6.00 Build 0)  -->
<svg version="1.1" xmlns="http://www.w3.org/2000/svg" xmlns:xlink="http://www.w3.org/1999/xlink" x="0px" y="0px"
	 viewBox="0 0 750 500" style="enable-background:new 0 0 750 500;" xml:space="preserve">
<style type="text/css">
	.st0{opacity:0.15;}
	.st1{clip-path:url(#SVGID_00000072992557340271767270000012541577046044034699_);}
	.st2{clip-path:url(#SVGID_00000081643512705277276260000001334788623868566204_);}
	.st3{clip-path:url(#SVGID_00000096057388331072961250000012116656134737701560_);}
	.st4{clip-path:url(#SVGID_00000011710744530279182620000017072165471503288705_);}
	.st5{clip-path:url(#SVGID_00000091718477613831631930000004001064684704585612_);}
	.st6{fill:#FFE1A0;}
	.st7{enable-background:new    ;}
	.st8{clip-path:url(#SVGID_00000150808199652645900610000011653274022124909718_);fill:#D8B661;}
	
		.st9{clip-path:url(#SVGID_00000144298369764377693700000006464987458621754801_);fill:url(#SVGID_00000009566958554783563100000018253282044979748998_);}
	.st10{fill:#C4A155;}
	.st11{fill:none;stroke:#D8B661;stroke-miterlimit:10;}
	.st12{clip-path:url(#SVGID_00000039121459622206241450000005476500278829026690_);}
	.st13{clip-path:url(#SVGID_00000008150264795054193630000017113154594493975943_);fill:#C4A155;}
	.st14{clip-path:url(#SVGID_00000176038380376924006910000016766116760193000077_);fill:#C4A155;}
	.st15{clip-path:url(#SVGID_00000049930070064355619920000009274498880088105879_);}
	.st16{clip-path:url(#SVGID_00000098203625400027353200000015671821371027167109_);fill:#C4A155;}
	
		.st17{clip-path:url(#SVGID_00000029745229116308742490000004219724624372648324_);fill:url(#SVGID_00000103224261031762520880000008165235170777578376_);}
	.st18{clip-path:url(#SVGID_00000134955076634133061870000011253017691920748732_);}
	.st19{clip-path:url(#SVGID_00000045580731174320909680000008763815381639216559_);fill:#C4A155;}
	.st20{clip-path:url(#SVGID_00000092440521796768503610000011252407139568358058_);fill:#C4A155;}
	.st21{clip-path:url(#SVGID_00000163759026551073066630000006589324565565279673_);}
	.st22{clip-path:url(#SVGID_00000151540529590596626940000006192091833273473175_);fill:#C4A155;}
	.st23{fill:#FFFFFF;}
	.st24{fill:none;stroke:#D8B661;stroke-width:0.5;stroke-miterlimit:10;}
	.st25{clip-path:url(#SVGID_00000096776588093181307330000004143722686170194847_);}
	.st26{clip-path:url(#SVGID_00000062870883087382165260000010241011499299414937_);}
	.st27{clip-path:url(#SVGID_00000003101017691274314970000002460581094251052212_);}
	.st28{clip-path:url(#SVGID_00000181060329047095711130000007047658574612883110_);}
	.st29{clip-path:url(#SVGID_00000072992557340271767270000012541577046044034699_);fill:#FFE1A0;}
	.st30{clip-path:url(#SVGID_00000072992557340271767270000012541577046044034699_);fill:#FFE397;}
	.st31{clip-path:url(#SVGID_00000180359157782280203280000006110422441799312046_);fill:#FFE1A0;}
	.st32{clip-path:url(#SVGID_00000180359157782280203280000006110422441799312046_);fill:none;}
	.st33{clip-path:url(#SVGID_00000180359157782280203280000006110422441799312046_);fill:#C4A155;}
	.st34{clip-path:url(#SVGID_00000180359157782280203280000006110422441799312046_);fill:none;stroke:#D8B661;stroke-miterlimit:10;}
	.st35{clip-path:url(#SVGID_00000180359157782280203280000006110422441799312046_);}
	.st36{clip-path:url(#SVGID_00000163063428522781496360000005355194767488561565_);fill:#C4A155;}
	.st37{clip-path:url(#SVGID_00000041288587502124355150000017471329724117900199_);}
	.st38{clip-path:url(#SVGID_00000133511419498379424380000013151810990103078307_);fill:#C4A155;}
	.st39{clip-path:url(#SVGID_00000177445277575075128850000016329024558758280363_);}
	.st40{clip-path:url(#SVGID_00000121999669956676691330000000804391157739928735_);}
	.st41{clip-path:url(#SVGID_00000116914743437888598940000012930734713604960411_);}
	.st42{clip-path:url(#SVGID_00000164482791827383349460000008602346419639908779_);fill:#C4A155;}
	
		.st43{clip-path:url(#SVGID_00000180359157782280203280000006110422441799312046_);fill:none;stroke:#D8B661;stroke-width:0.5;stroke-miterlimit:10;}
</style>
<g id="BACKGROUND">
</g>
<g id="OBJECTS">
	<g class="st0">
		<defs>
			<polygon id="SVGID_1_" class="st0" points="750,278.8 750,300.4 750,302.8 750,303.8 750,304.2 750,312.7 750,335.5 750,336.1 
				750,344 750,344 750,346.7 750,356.4 750,497.7 260.5,497.7 260.5,-2.3 750,-2.3 750,205.9 750,208.5 750,217.9 750,220.3 
				750,226.1 750,227.4 750,228.4 750,233.5 750,235.4 750,235.8 750,235.9 750,238.8 750,241.6 750,243.6 750,243.9 750,252.7 
				750,258 750,267.9 750,268.2 			"/>
		</defs>
		<clipPath id="SVGID_00000043437894728493235670000015853389160504565182_">
			<use xlink:href="#SVGID_1_"  style="overflow:visible;"/>
		</clipPath>
		<g style="clip-path:url(#SVGID_00000043437894728493235670000015853389160504565182_);">
			
				<image style="overflow:visible;opacity:0.3;" width="267" height="257" xlink:href="AF4E00A5.png"  transform="matrix(0.24 0 0 0.24 512.36 39.175)">
			</image>
			<g>
				<g>
					<g>
						<defs>
							<path id="SVGID_00000149380517507645308100000000396102468844790937_" d="M529.7,54.3l0.5-0.8c2.1-3.2,5.6-5.5,10.2-6.1
								c4.8-0.7,9.8,0.6,14.1,3.2c4.3,2.6,7.8,6.5,9.5,11.1c1.7,4.6,1.4,9-0.7,12.5l-0.5,0.8c2-3.5,2.4-7.9,0.7-12.5
								c-1.7-4.6-5.2-8.5-9.5-11.1c-4.3-2.6-9.3-3.8-14.1-3.2C535.3,48.8,531.8,51.1,529.7,54.3z"/>
						</defs>
						<clipPath id="SVGID_00000068637368037959144250000011572049575127140783_">
							<use xlink:href="#SVGID_00000149380517507645308100000000396102468844790937_"  style="overflow:visible;"/>
						</clipPath>
					</g>
					<g>
						<defs>
							<path id="SVGID_00000104670182500161904420000017423797164258797993_" d="M563.2,74.6l-0.5,0.8c0.1-0.2,0.2-0.3,0.3-0.5
								l0.5-0.8C563.4,74.3,563.3,74.4,563.2,74.6z"/>
						</defs>
						<clipPath id="SVGID_00000137833384175804851550000003506623389484430730_">
							<use xlink:href="#SVGID_00000104670182500161904420000017423797164258797993_"  style="overflow:visible;"/>
						</clipPath>
					</g>
					<g>
						<defs>
							<path id="SVGID_00000152247408408408618600000003420614130998092721_" d="M550.5,58.9l-0.5,0.8c-1.5-0.5-3-0.8-4.4-0.7
								l0.5-0.8C547.5,58.2,548.9,58.4,550.5,58.9z"/>
						</defs>
						<clipPath id="SVGID_00000036210781615289206630000001798054435651730090_">
							<use xlink:href="#SVGID_00000152247408408408618600000003420614130998092721_"  style="overflow:visible;"/>
						</clipPath>
						<g style="clip-path:url(#SVGID_00000036210781615289206630000001798054435651730090_);">
							<defs>
								<rect id="SVGID_00000071551668821735679960000001936044791294215866_" x="545.5" y="58.2" width="4.9" height="1.6"/>
							</defs>
							<clipPath id="SVGID_00000009565125754864255920000016627278118323816070_">
								<use xlink:href="#SVGID_00000071551668821735679960000001936044791294215866_"  style="overflow:visible;"/>
							</clipPath>
						</g>
					</g>
					<g>
						<defs>
							<path id="SVGID_00000060745309404730350630000001221734783642640813_" d="M541.9,60.3l0.5-0.8c0.2-0.3,0.6-0.6,1.1-0.8
								l-0.5,0.8C542.5,59.7,542.1,60,541.9,60.3z"/>
						</defs>
						<clipPath id="SVGID_00000006689339097435033470000007708691214071846316_">
							<use xlink:href="#SVGID_00000060745309404730350630000001221734783642640813_"  style="overflow:visible;"/>
						</clipPath>
					</g>
					<g>
						<defs>
							<path id="SVGID_00000149359290639558079090000011460201060210081958_" d="M551.4,68.5l-0.5,0.8c0.2-0.3,0.2-0.7,0.1-1.1
								c-0.2-0.4-0.4-0.7-0.9-0.9c-0.4-0.2-1-0.4-1.6-0.5L549,66c0.7,0.1,1.2,0.3,1.6,0.5c0.4,0.2,0.7,0.5,0.9,0.9
								C551.6,67.8,551.6,68.2,551.4,68.5z"/>
						</defs>
						<clipPath id="SVGID_00000172423132161891513020000006339598768822646688_">
							<use xlink:href="#SVGID_00000149359290639558079090000011460201060210081958_"  style="overflow:visible;"/>
						</clipPath>
						<g style="clip-path:url(#SVGID_00000172423132161891513020000006339598768822646688_);">
							<defs>
								<rect id="SVGID_00000061438922314569720500000008237228368353345152_" x="548.5" y="66" width="3.1" height="3.4"/>
							</defs>
							<clipPath id="SVGID_00000008117016336246077150000013919454768901979313_">
								<use xlink:href="#SVGID_00000061438922314569720500000008237228368353345152_"  style="overflow:visible;"/>
							</clipPath>
						</g>
					</g>
					<g>
						<defs>
							<polygon id="SVGID_00000054951088841875925630000015045773701503059841_" points="551.4,68.6 550.9,69.4 550.9,69.4 
								551.4,68.5 							"/>
						</defs>
						<clipPath id="SVGID_00000039127935967583490790000011228197057695493038_">
							<use xlink:href="#SVGID_00000054951088841875925630000015045773701503059841_"  style="overflow:visible;"/>
						</clipPath>
					</g>
					<g>
						<defs>
							<path id="SVGID_00000152965948278731243400000012888029818813213076_" d="M538,58.5l0.5-0.8c0,0,0,0.1-0.1,0.1
								c-0.7,1.1-0.7,2.4-0.2,3.7c0.4,1.1,1,1.9,1.8,2.5c0.8,0.6,1.7,1,2.7,1.2c1,0.2,2.1,0.4,3.4,0.5l-0.5,0.8
								c-1.3-0.1-2.5-0.3-3.4-0.5c-1-0.2-1.9-0.6-2.7-1.2c-0.8-0.6-1.4-1.4-1.8-2.5c-0.5-1.4-0.4-2.6,0.2-3.7
								C538,58.6,538,58.5,538,58.5z"/>
						</defs>
						<clipPath id="SVGID_00000116198245955010753970000001347942327414906800_">
							<use xlink:href="#SVGID_00000152965948278731243400000012888029818813213076_"  style="overflow:visible;"/>
						</clipPath>
						<g style="clip-path:url(#SVGID_00000116198245955010753970000001347942327414906800_);">
							<defs>
								<rect id="SVGID_00000163771859474349853170000017453736288601527740_" x="537.4" y="57.7" width="8.8" height="8.9"/>
							</defs>
							<clipPath id="SVGID_00000078010595724272912270000000324822119804436664_">
								<use xlink:href="#SVGID_00000163771859474349853170000017453736288601527740_"  style="overflow:visible;"/>
							</clipPath>
						</g>
					</g>
					<g>
						<defs>
							<path id="SVGID_00000150791890652723121400000003971065859158774417_" d="M555.2,70.3l-0.5,0.8c-0.7,1.1-1.9,1.8-3.7,2.3
								l0.5-0.8C553.3,72.1,554.5,71.4,555.2,70.3z"/>
						</defs>
						<clipPath id="SVGID_00000169549649154710765720000000052651175857173649_">
							<use xlink:href="#SVGID_00000150791890652723121400000003971065859158774417_"  style="overflow:visible;"/>
						</clipPath>
					</g>
					<g>
						<defs>
							<path id="SVGID_00000093893709521523721060000006765675509937755289_" d="M549,73.1l-0.5,0.8c-1.3,0.1-2.6,0.1-3.9-0.1
								c-1.3-0.2-2.4-0.5-3.3-0.9l0.5-0.8c0.9,0.4,2,0.7,3.3,0.9C546.4,73.1,547.7,73.2,549,73.1z"/>
						</defs>
						<clipPath id="SVGID_00000126304047863590762650000000872169176750360485_">
							<use xlink:href="#SVGID_00000093893709521523721060000006765675509937755289_"  style="overflow:visible;"/>
						</clipPath>
						<g style="clip-path:url(#SVGID_00000126304047863590762650000000872169176750360485_);">
							<defs>
								<rect id="SVGID_00000059276621298442684440000011146507299092715926_" x="541.3" y="72" width="7.7" height="2"/>
							</defs>
							<clipPath id="SVGID_00000041994932545486314840000016599680475437325227_">
								<use xlink:href="#SVGID_00000059276621298442684440000011146507299092715926_"  style="overflow:visible;"/>
							</clipPath>
						</g>
					</g>
				</g>
				<g>
					<path class="st6" d="M563.4,74.1c-2,3.5-5.7,5.9-10.5,6.6c-4.8,0.7-9.8-0.6-14.1-3.2c-4.3-2.6-7.8-6.5-9.5-11.1
						c-1.7-4.6-1.4-9,0.7-12.5c2-3.5,5.6-5.9,10.5-6.6c4.8-0.7,9.8,0.6,14.1,3.2c4.3,2.6,7.8,6.5,9.5,11.1
						C565.8,66.2,565.5,70.6,563.4,74.1z"/>
					<g class="st7">
						<defs>
							<path id="SVGID_00000021804897556534590070000004067036457679905691_" class="st7" d="M529.7,54.3l0.5-0.8
								c2.1-3.2,5.6-5.5,10.2-6.1c4.8-0.7,9.8,0.6,14.1,3.2c4.3,2.6,7.8,6.5,9.5,11.1c1.7,4.6,1.4,9-0.7,12.5l-0.5,0.8
								c2-3.5,2.4-7.9,0.7-12.5c-1.7-4.6-5.2-8.5-9.5-11.1c-4.3-2.6-9.3-3.8-14.1-3.2C535.3,48.8,531.8,51.1,529.7,54.3z"/>
						</defs>
						<clipPath id="SVGID_00000021120449025627062030000015425521999967985064_">
							<use xlink:href="#SVGID_00000021804897556534590070000004067036457679905691_"  style="overflow:visible;"/>
						</clipPath>
						<path style="clip-path:url(#SVGID_00000021120449025627062030000015425521999967985064_);fill:#D8B661;" d="M563.4,74.1
							l-0.5,0.8c2-3.5,2.4-7.9,0.7-12.5c-1.7-4.6-5.2-8.5-9.5-11.1c-4.3-2.6-9.3-3.8-14.1-3.2c-4.6,0.6-8.1,2.9-10.2,6.1l0.5-0.8
							c2.1-3.2,5.6-5.5,10.2-6.1c4.8-0.7,9.8,0.6,14.1,3.2c4.3,2.6,7.8,6.5,9.5,11.1C565.8,66.2,565.5,70.6,563.4,74.1"/>
					</g>
					<g class="st7">
						<defs>
							<path id="SVGID_00000034091645131129186820000006065527338978911893_" class="st7" d="M563.2,74.6l-0.5,0.8
								c0.1-0.2,0.2-0.3,0.3-0.5l0.5-0.8C563.4,74.3,563.3,74.4,563.2,74.6z"/>
						</defs>
						<clipPath id="SVGID_00000112607255525767515960000015961036487766561693_">
							<use xlink:href="#SVGID_00000034091645131129186820000006065527338978911893_"  style="overflow:visible;"/>
						</clipPath>
						
							<linearGradient id="SVGID_00000178922765958752889610000001432972148972400570_" gradientUnits="userSpaceOnUse" x1="562.6224" y1="74.7614" x2="563.4425" y2="74.7614">
							<stop  offset="0" style="stop-color:#A16C0C"/>
							<stop  offset="0.1816" style="stop-color:#C9BF70"/>
							<stop  offset="0.3268" style="stop-color:#BE9134"/>
							<stop  offset="0.433" style="stop-color:#A8700D"/>
							<stop  offset="0.7067" style="stop-color:#C09F46"/>
							<stop  offset="0.8492" style="stop-color:#A16C0C"/>
							<stop  offset="1" style="stop-color:#602400"/>
						</linearGradient>
						
							<path style="clip-path:url(#SVGID_00000112607255525767515960000015961036487766561693_);fill:url(#SVGID_00000178922765958752889610000001432972148972400570_);" d="
							M563.2,74.6l-0.5,0.8c0.1-0.2,0.2-0.3,0.3-0.5l0.5-0.8C563.4,74.3,563.3,74.4,563.2,74.6"/>
					</g>
					<path class="st10" d="M565.9,76.4l-2.5,3.9c-2.4,3.8-6.5,6.4-11.9,7.2c-5.6,0.8-11.5-0.7-16.5-3.7c-5-3-9.1-7.6-11.2-13
						c-2-5.4-1.6-10.6,0.8-14.6c0.1-0.2,2.2-3.4,2.3-3.6l0.5-0.8c-0.1,0.2-0.2,0.4-0.3,0.6c-2.3,4-2.8,9.3-0.8,14.6
						c2,5.4,6.1,10,11.2,13c5,3,10.9,4.5,16.5,3.7C559.4,82.8,563.5,80.1,565.9,76.4L565.9,76.4z"/>
					<path class="st6" d="M567,61.2c-2-5.4-6.1-10-11.1-13c-1.6-1-3.3-1.8-5-2.4c-0.3-0.1-0.6-0.2-0.9-0.3c0,0,0,0,0,0
						c-0.7-0.2-1.4-0.4-2.2-0.6c-0.1,0-0.2,0-0.2-0.1c-0.8-0.2-1.5-0.3-2.3-0.4c-0.2,0-0.5-0.1-0.8-0.1c-0.6-0.1-1.1-0.1-1.7-0.1
						c-0.3,0-0.5,0-0.8,0c-0.8,0-1.6,0.1-2.3,0.2c-0.1,0-0.2,0-0.2,0c0,0,0,0-0.1,0c-0.8,0.1-1.6,0.3-2.4,0.5c0,0,0,0,0,0
						c-0.3,0.1-0.6,0.2-0.9,0.2c-4,1.3-7.1,3.8-9,7c-0.2,0.3-0.3,0.6-0.5,0.9c-0.3,0.6-0.6,1.2-0.8,1.9c0,0.1,0,0.1-0.1,0.2
						c0,0,0,0.1,0,0.1c0,0,0,0.1,0,0.1c0,0.2-0.1,0.3-0.1,0.5c0,0.1,0,0.2-0.1,0.2c0,0,0,0.1,0,0.1c0,0.1,0,0.2-0.1,0.4
						c0,0,0,0.1,0,0.1c0,0.2-0.1,0.4-0.1,0.6c0,0.1,0,0.2,0,0.3v0c0,0.2-0.1,0.4-0.1,0.6v0c0,0.3-0.1,0.5-0.1,0.8v0c0,0.3,0,0.7,0,1
						c0,0.2,0,0.5,0,0.7c0,0.2,0,0.4,0,0.5c0,0.2,0,0.4,0,0.6c0,0.1,0,0.3,0,0.4c0,0.1,0,0.2,0,0.3c0,0.1,0,0.3,0.1,0.4
						c0,0,0,0,0,0.1c0,0,0,0,0,0c0,0.1,0,0.3,0.1,0.4c0.1,0.3,0.1,0.5,0.2,0.8c0,0.1,0.1,0.2,0.1,0.4c0,0.1,0.1,0.2,0.1,0.3
						c0,0.1,0,0.2,0.1,0.3v0c0.2,0.5,0.3,1.1,0.5,1.6v0c2,5.4,6.2,10,11.2,13c5,3,10.9,4.5,16.5,3.7c0.4-0.1,0.8-0.1,1.2-0.2
						c0.1,0,0.2,0,0.3-0.1c0.3-0.1,0.6-0.1,0.9-0.2c0,0,0.1,0,0.1,0c0.3-0.1,0.5-0.1,0.8-0.2c0.2,0,0.3-0.1,0.5-0.2
						c0.3-0.1,0.6-0.2,1-0.4c0.2-0.1,0.4-0.2,0.6-0.2c0.1-0.1,0.2-0.1,0.3-0.1c0.2-0.1,0.4-0.2,0.6-0.3c0.1,0,0.1-0.1,0.2-0.1
						c0.1-0.1,0.3-0.2,0.5-0.2c0.2-0.1,0.3-0.2,0.5-0.3c0.1,0,0.1-0.1,0.2-0.1c0.2-0.1,0.4-0.3,0.6-0.4s0.4-0.3,0.6-0.5
						c0.3-0.2,0.6-0.5,0.8-0.7c0.1-0.1,0.2-0.2,0.3-0.3c0.1-0.1,0.2-0.2,0.3-0.3l0,0c0,0,0,0,0.1-0.1c0,0,0,0,0,0
						c0.1-0.1,0.3-0.3,0.4-0.4c0.2-0.2,0.4-0.4,0.5-0.6c0,0,0,0,0-0.1c0.2-0.2,0.3-0.4,0.5-0.7c0,0,0.1-0.1,0.1-0.2
						c0-0.1,0.1-0.1,0.1-0.2c0.1-0.2,0.3-0.4,0.4-0.6C568.6,71.8,569.1,66.6,567,61.2z M563.4,74.1c-2,3.5-5.7,5.9-10.5,6.6
						c-4.8,0.7-9.8-0.6-14.1-3.2c-4.3-2.6-7.8-6.5-9.5-11.1c-1.7-4.6-1.4-9.1,0.7-12.5c0.5-0.9,1.1-1.7,1.8-2.4
						c0.2-0.2,0.4-0.4,0.5-0.5c0.4-0.4,0.8-0.7,1.3-1c0.2-0.1,0.3-0.2,0.5-0.3c0.2-0.1,0.4-0.3,0.6-0.4c0.2-0.2,0.5-0.3,0.8-0.4
						c0.2-0.1,0.3-0.2,0.5-0.3c0.6-0.3,1.1-0.5,1.7-0.7c0.1,0,0.3-0.1,0.4-0.1c0.3-0.1,0.6-0.2,0.9-0.2c0.1,0,0.2,0,0.2,0
						c0.3-0.1,0.6-0.1,0.8-0.2c0,0,0.1,0,0.1,0c0.1,0,0.1,0,0.2,0c0.1,0,0.2,0,0.4-0.1c0.4,0,0.8-0.1,1.2-0.1c0.2,0,0.5,0,0.7,0
						c0.5,0,1.1,0,1.6,0c0.2,0,0.5,0,0.7,0.1c0,0,0,0,0,0c0,0,0,0,0,0c0.1,0,0.3,0,0.4,0c0.2,0,0.5,0.1,0.7,0.1c0,0,0,0,0,0
						c0.2,0,0.4,0.1,0.6,0.1c0.3,0,0.6,0.1,0.8,0.2c0.2,0,0.4,0.1,0.6,0.1c0.2,0.1,0.5,0.1,0.7,0.2c0.6,0.2,1.2,0.4,1.8,0.6
						c0.3,0.1,0.6,0.2,1,0.4c0.6,0.3,1.2,0.6,1.8,0.9c0.3,0.2,0.6,0.3,1,0.5c4.3,2.6,7.8,6.5,9.5,11.1
						C565.8,66.2,565.4,70.6,563.4,74.1z"/>
					<path class="st11" d="M563.4,74.1c-2,3.5-5.7,5.9-10.5,6.6c-4.8,0.7-9.8-0.6-14.1-3.2c-4.3-2.6-7.8-6.5-9.5-11.1
						c-1.7-4.6-1.4-9,0.7-12.5c2-3.5,5.6-5.9,10.5-6.6c4.8-0.7,9.8,0.6,14.1,3.2c4.3,2.6,7.8,6.5,9.5,11.1
						C565.8,66.2,565.5,70.6,563.4,74.1z"/>
					<polygon class="st10" points="542.3,55.4 541.8,56.2 540.7,53.5 541.3,52.6 					"/>
					<g>
						<defs>
							<path id="SVGID_00000075862380437048591050000006544170867531161230_" d="M550.5,58.9l-0.5,0.8c-1.5-0.5-3-0.8-4.4-0.7
								l0.5-0.8C547.5,58.2,548.9,58.4,550.5,58.9z"/>
						</defs>
						<use xlink:href="#SVGID_00000075862380437048591050000006544170867531161230_"  style="overflow:visible;fill:#C4A155;"/>
						<clipPath id="SVGID_00000101080778773658223680000003420973622133822336_">
							<use xlink:href="#SVGID_00000075862380437048591050000006544170867531161230_"  style="overflow:visible;"/>
						</clipPath>
						<g style="clip-path:url(#SVGID_00000101080778773658223680000003420973622133822336_);">
							<defs>
								<rect id="SVGID_00000181046874736612172110000005605515980433377462_" x="545.5" y="58.2" width="4.9" height="1.6"/>
							</defs>
							<use xlink:href="#SVGID_00000181046874736612172110000005605515980433377462_"  style="overflow:visible;fill:#C4A155;"/>
							<clipPath id="SVGID_00000158012421157938032110000001478256696042510493_">
								<use xlink:href="#SVGID_00000181046874736612172110000005605515980433377462_"  style="overflow:visible;"/>
							</clipPath>
							<path style="clip-path:url(#SVGID_00000158012421157938032110000001478256696042510493_);fill:#C4A155;" d="M550.5,58.9
								l-0.5,0.8c-1.5-0.5-3-0.8-4.4-0.7l0.5-0.8C547.5,58.2,548.9,58.4,550.5,58.9"/>
						</g>
					</g>
					<g>
						<defs>
							<path id="SVGID_00000163758729972391595540000008429776296672213135_" d="M541.9,60.3l0.5-0.8c0.2-0.3,0.6-0.6,1.1-0.8
								l-0.5,0.8C542.5,59.7,542.1,60,541.9,60.3z"/>
						</defs>
						<clipPath id="SVGID_00000114045336235802760780000014413647416978767494_">
							<use xlink:href="#SVGID_00000163758729972391595540000008429776296672213135_"  style="overflow:visible;"/>
						</clipPath>
						<path style="clip-path:url(#SVGID_00000114045336235802760780000014413647416978767494_);fill:#C4A155;" d="M543.5,58.6
							l-0.5,0.8c-0.5,0.2-0.9,0.5-1.1,0.8l0.5-0.8C542.6,59.1,543,58.9,543.5,58.6"/>
					</g>
					<polygon class="st10" points="544.9,62.1 544.3,63 543,59.5 543.5,58.6 					"/>
					<g>
						<defs>
							<path id="SVGID_00000055669788551005891040000006652682955567815075_" d="M551.4,68.5l-0.5,0.8c0.2-0.3,0.2-0.7,0.1-1.1
								c-0.2-0.4-0.4-0.7-0.9-0.9c-0.4-0.2-1-0.4-1.6-0.5L549,66c0.7,0.1,1.2,0.3,1.6,0.5c0.4,0.2,0.7,0.5,0.9,0.9
								C551.6,67.8,551.6,68.2,551.4,68.5z"/>
						</defs>
						<use xlink:href="#SVGID_00000055669788551005891040000006652682955567815075_"  style="overflow:visible;fill:#C4A155;"/>
						<clipPath id="SVGID_00000005263290986531036390000002916784535829225103_">
							<use xlink:href="#SVGID_00000055669788551005891040000006652682955567815075_"  style="overflow:visible;"/>
						</clipPath>
						<g style="clip-path:url(#SVGID_00000005263290986531036390000002916784535829225103_);">
							<defs>
								<rect id="SVGID_00000156555976915225167410000016470662802223252625_" x="548.5" y="66" width="3.1" height="3.4"/>
							</defs>
							<use xlink:href="#SVGID_00000156555976915225167410000016470662802223252625_"  style="overflow:visible;fill:#C4A155;"/>
							<clipPath id="SVGID_00000078027621996300307150000009519725118636385181_">
								<use xlink:href="#SVGID_00000156555976915225167410000016470662802223252625_"  style="overflow:visible;"/>
							</clipPath>
							<path style="clip-path:url(#SVGID_00000078027621996300307150000009519725118636385181_);fill:#C4A155;" d="M551.4,68.5
								l-0.5,0.8c0.2-0.3,0.2-0.7,0.1-1.1c-0.2-0.4-0.4-0.7-0.9-0.9c-0.4-0.2-1-0.4-1.6-0.5L549,66c0.7,0.1,1.2,0.3,1.6,0.5
								c0.4,0.2,0.7,0.5,0.9,0.9C551.6,67.8,551.6,68.2,551.4,68.5"/>
						</g>
					</g>
					<g>
						<defs>
							<polygon id="SVGID_00000056419013522601370450000012451173584916075149_" points="551.4,68.6 550.9,69.4 550.9,69.4 
								551.4,68.5 							"/>
						</defs>
						<clipPath id="SVGID_00000166651013160590970770000016412497451915165085_">
							<use xlink:href="#SVGID_00000056419013522601370450000012451173584916075149_"  style="overflow:visible;"/>
						</clipPath>
						
							<linearGradient id="SVGID_00000106128865062212088300000013776078443442912670_" gradientUnits="userSpaceOnUse" x1="550.8557" y1="68.9928" x2="551.4223" y2="68.9928">
							<stop  offset="0" style="stop-color:#A16C0C"/>
							<stop  offset="0.1816" style="stop-color:#DBBF7D"/>
							<stop  offset="0.3268" style="stop-color:#BE9134"/>
							<stop  offset="0.433" style="stop-color:#A8700D"/>
							<stop  offset="0.7067" style="stop-color:#D9AA59"/>
							<stop  offset="0.8492" style="stop-color:#A16C0C"/>
							<stop  offset="1" style="stop-color:#602400"/>
						</linearGradient>
						
							<polyline style="clip-path:url(#SVGID_00000166651013160590970770000016412497451915165085_);fill:url(#SVGID_00000106128865062212088300000013776078443442912670_);" points="
							551.4,68.6 550.9,69.4 550.9,69.4 551.4,68.5 551.4,68.6 						"/>
					</g>
					<g>
						<defs>
							<path id="SVGID_00000152264559686444394780000016512734922214212514_" d="M538,58.5l0.5-0.8c0,0,0,0.1-0.1,0.1
								c-0.7,1.1-0.7,2.4-0.2,3.7c0.4,1.1,1,1.9,1.8,2.5c0.8,0.6,1.7,1,2.7,1.2c1,0.2,2.1,0.4,3.4,0.5l-0.5,0.8
								c-1.3-0.1-2.5-0.3-3.4-0.5c-1-0.2-1.9-0.6-2.7-1.2c-0.8-0.6-1.4-1.4-1.8-2.5c-0.5-1.4-0.4-2.6,0.2-3.7
								C538,58.6,538,58.5,538,58.5z"/>
						</defs>
						<use xlink:href="#SVGID_00000152264559686444394780000016512734922214212514_"  style="overflow:visible;fill:#C4A155;"/>
						<clipPath id="SVGID_00000044173692509085272370000009665767515522715031_">
							<use xlink:href="#SVGID_00000152264559686444394780000016512734922214212514_"  style="overflow:visible;"/>
						</clipPath>
						<g style="clip-path:url(#SVGID_00000044173692509085272370000009665767515522715031_);">
							<defs>
								<rect id="SVGID_00000163033056664550752010000011152208602351703442_" x="537.4" y="57.7" width="8.8" height="8.9"/>
							</defs>
							<use xlink:href="#SVGID_00000163033056664550752010000011152208602351703442_"  style="overflow:visible;fill:#C4A155;"/>
							<clipPath id="SVGID_00000088124288280478189140000013111063709240246448_">
								<use xlink:href="#SVGID_00000163033056664550752010000011152208602351703442_"  style="overflow:visible;"/>
							</clipPath>
							<path style="clip-path:url(#SVGID_00000088124288280478189140000013111063709240246448_);fill:#C4A155;" d="M546.2,65.7
								l-0.5,0.8c-1.3-0.1-2.5-0.3-3.4-0.5c-1-0.2-1.9-0.6-2.7-1.2c-0.8-0.6-1.4-1.4-1.8-2.5c-0.5-1.4-0.4-2.6,0.2-3.7
								c0,0,0-0.1,0.1-0.1l0.5-0.8c0,0,0,0.1-0.1,0.1c-0.7,1.1-0.7,2.4-0.2,3.7c0.4,1.1,1,1.9,1.8,2.5c0.8,0.6,1.7,1,2.7,1.2
								C543.8,65.5,544.9,65.6,546.2,65.7"/>
						</g>
					</g>
					<polygon class="st10" points="547.8,69.8 547.2,70.7 545.7,66.6 546.2,65.7 					"/>
					<g>
						<defs>
							<path id="SVGID_00000013884894936297276430000011151611238765197723_" d="M555.2,70.3l-0.5,0.8c-0.7,1.1-1.9,1.8-3.7,2.3
								l0.5-0.8C553.3,72.1,554.5,71.4,555.2,70.3z"/>
						</defs>
						<use xlink:href="#SVGID_00000013884894936297276430000011151611238765197723_"  style="overflow:visible;fill:#C4A155;"/>
						<clipPath id="SVGID_00000180339439134800262460000012365078159439239831_">
							<use xlink:href="#SVGID_00000013884894936297276430000011151611238765197723_"  style="overflow:visible;"/>
						</clipPath>
						<path style="clip-path:url(#SVGID_00000180339439134800262460000012365078159439239831_);fill:#C4A155;" d="M555.2,70.3
							l-0.5,0.8c-0.7,1.1-1.9,1.8-3.7,2.3l0.5-0.8C553.3,72.1,554.5,71.4,555.2,70.3"/>
					</g>
					<polygon class="st10" points="550,75.7 549.4,76.6 548.4,73.9 549,73.1 					"/>
					<polygon class="st10" points="552.5,75.4 552,76.2 549.4,76.6 550,75.7 					"/>
					<g>
						<defs>
							<path id="SVGID_00000042732379824244949340000014838577841194768021_" d="M549,73.1l-0.5,0.8c-1.3,0.1-2.6,0.1-3.9-0.1
								c-1.3-0.2-2.4-0.5-3.3-0.9l0.5-0.8c0.9,0.4,2,0.7,3.3,0.9C546.4,73.1,547.7,73.2,549,73.1z"/>
						</defs>
						<use xlink:href="#SVGID_00000042732379824244949340000014838577841194768021_"  style="overflow:visible;fill:#C4A155;"/>
						<clipPath id="SVGID_00000005230927196783952320000015174750676530615960_">
							<use xlink:href="#SVGID_00000042732379824244949340000014838577841194768021_"  style="overflow:visible;"/>
						</clipPath>
						<g style="clip-path:url(#SVGID_00000005230927196783952320000015174750676530615960_);">
							<defs>
								<rect id="SVGID_00000060020243444188965790000004995168198504889769_" x="541.3" y="72" width="7.7" height="2"/>
							</defs>
							<use xlink:href="#SVGID_00000060020243444188965790000004995168198504889769_"  style="overflow:visible;fill:#C4A155;"/>
							<clipPath id="SVGID_00000109739927556188627530000016686846361153123995_">
								<use xlink:href="#SVGID_00000060020243444188965790000004995168198504889769_"  style="overflow:visible;"/>
							</clipPath>
							<path style="clip-path:url(#SVGID_00000109739927556188627530000016686846361153123995_);fill:#C4A155;" d="M549,73.1
								l-0.5,0.8c-1.3,0.1-2.6,0.1-3.9-0.1c-1.3-0.2-2.4-0.5-3.3-0.9l0.5-0.8c0.9,0.4,2,0.7,3.3,0.9C546.4,73.1,547.7,73.2,549,73.1
								"/>
						</g>
					</g>
					<path class="st23" d="M555.5,66.6c-0.4-1.1-1-1.9-1.8-2.5c-0.8-0.6-1.7-1-2.6-1.2c-1-0.2-2.1-0.4-3.4-0.5l-1.6-4.2
						c1.4,0,2.9,0.2,4.4,0.7l0.1-3.2c-1.7-0.6-3.6-0.9-5.8-0.8l-0.9-2.4c0,0,0,0,0,0l-0.1-0.3l-0.2,0l-0.5,0.1l-0.4,0l-1.4,0.2
						l1,2.7c0,0-0.1,0-0.1,0c-0.1,0-0.1,0-0.2,0c0,0-0.1,0-0.1,0h0c-0.1,0-0.2,0-0.2,0.1c0,0,0,0-0.1,0c-1.5,0.5-2.5,1.2-3,2.2
						c-0.2,0.4-0.4,0.8-0.5,1.2c0,0.1,0,0.2,0,0.2c0,0.1,0,0.2,0,0.3c0,0.1,0,0.1,0,0.2v0c0,0.5,0.1,1.1,0.3,1.7
						c0.4,1.1,1,1.9,1.8,2.5c0.8,0.6,1.7,1,2.7,1.2c1,0.2,2.1,0.4,3.4,0.5l1.5,4.1c-0.3,0-0.6,0-0.8,0c-0.7,0-1.4-0.1-2.1-0.2
						c-1-0.2-1.9-0.5-2.7-0.8l-0.3,3.2c0.9,0.4,2,0.7,3.3,0.9c1.3,0.2,2.6,0.2,3.9,0.1l1,2.7l2.6-0.4l-1-2.8
						c1.8-0.5,3.1-1.3,3.8-2.4C555.9,69.1,556,67.9,555.5,66.6z M543.9,61.9c-0.3-0.1-0.5-0.2-0.7-0.3c-0.1,0-0.2-0.1-0.3-0.2
						c-0.1-0.1-0.2-0.2-0.3-0.2c0,0-0.1-0.1-0.1-0.1v0c-0.1-0.1-0.2-0.2-0.2-0.3c0-0.1-0.1-0.2-0.1-0.4c0-0.1,0-0.1,0-0.2
						c0,0,0-0.1,0-0.1c0,0,0,0,0-0.1c0-0.2,0.1-0.3,0.1-0.5c0.1-0.1,0.2-0.2,0.3-0.4h0c0,0,0,0,0,0c0.1-0.1,0.3-0.2,0.5-0.3
						c0.1-0.1,0.2-0.1,0.3-0.2l0.1,0.2l0.2,0.6v0l0,0l0.1,0.3L544,60l0.1,0.3l0.7,1.8C544.5,62.1,544.2,62,543.9,61.9z M551.4,68.6
						c-0.2,0.3-0.6,0.6-1.1,0.8L549,66c0.7,0.1,1.2,0.3,1.6,0.5c0.4,0.2,0.7,0.5,0.9,0.9C551.6,67.8,551.6,68.2,551.4,68.6z"/>
					<polygon class="st10" points="541.9,72 541.3,72.8 541.6,69.6 542.1,68.8 					"/>
					<path class="st24" d="M551.5,67.4c-0.2-0.4-0.4-0.7-0.9-0.9c-0.4-0.2-1-0.4-1.6-0.5l1.3,3.4c0.6-0.2,0.9-0.5,1.1-0.8
						C551.6,68.2,551.6,67.8,551.5,67.4z M544.2,60.3L544,60l-0.1-0.3l-0.1-0.3c0,0,0,0,0,0v0l-0.2-0.6l-0.1-0.2
						c-0.1,0-0.2,0.1-0.3,0.2c-0.2,0.1-0.4,0.2-0.5,0.3c0,0,0,0,0,0h0c-0.1,0.1-0.2,0.2-0.3,0.4c-0.1,0.1-0.1,0.3-0.1,0.5
						c0,0,0,0,0,0.1c0,0,0,0.1,0,0.1c0,0.1,0,0.1,0,0.2c0,0.1,0,0.2,0.1,0.4c0,0.1,0.1,0.2,0.2,0.3v0c0,0,0,0.1,0.1,0.1
						c0.1,0.1,0.2,0.2,0.3,0.2c0.1,0.1,0.2,0.1,0.3,0.2c0.2,0.1,0.5,0.2,0.7,0.3c0.3,0.1,0.6,0.1,0.9,0.2L544.2,60.3z M555.5,66.6
						c-0.4-1.1-1-1.9-1.8-2.5c-0.8-0.6-1.7-1-2.6-1.2c-1-0.2-2.1-0.4-3.4-0.5l-1.6-4.2c1.4,0,2.9,0.2,4.4,0.7l0.1-3.2
						c-1.7-0.6-3.6-0.9-5.8-0.8l-0.9-2.4c0,0,0,0,0,0l-0.1-0.3l-0.2,0l-0.5,0.1l-0.4,0l-1.4,0.2l1,2.7c0,0-0.1,0-0.1,0
						c-0.1,0-0.1,0-0.2,0c0,0-0.1,0-0.1,0h0c-0.1,0-0.2,0-0.2,0.1c0,0,0,0-0.1,0c-1.5,0.5-2.5,1.2-3,2.2c-0.2,0.4-0.4,0.8-0.5,1.2
						c0,0.1,0,0.2,0,0.2c0,0.1,0,0.2,0,0.3c0,0.1,0,0.1,0,0.2v0c0,0.5,0.1,1.1,0.3,1.7c0.4,1.1,1,1.9,1.8,2.5c0.8,0.6,1.7,1,2.7,1.2
						c1,0.2,2.1,0.4,3.4,0.5l1.5,4.1c-0.3,0-0.6,0-0.8,0c-0.7,0-1.4-0.1-2.1-0.2c-1-0.2-1.9-0.5-2.7-0.8l-0.3,3.2
						c0.9,0.4,2,0.7,3.3,0.9c1.3,0.2,2.6,0.2,3.9,0.1l1,2.7l2.6-0.4l-1-2.8c1.8-0.5,3.1-1.3,3.8-2.4C555.9,69.1,556,67.9,555.5,66.6
						z M543.9,61.9c0.3,0.1,0.6,0.1,0.9,0.2l-0.7-1.8L544,60l-0.1-0.3l-0.1-0.3c0,0,0,0,0,0v0l-0.1-0.2l-0.1-0.4l-0.1-0.2
						c-0.1,0-0.2,0.1-0.4,0.2c-0.2,0.1-0.4,0.2-0.5,0.3c0,0,0,0,0,0h0c-0.1,0.1-0.2,0.2-0.3,0.3c-0.1,0.2-0.1,0.3-0.1,0.5
						c0,0,0,0,0,0.1c0,0,0,0.1,0,0.1c0,0.1,0,0.1,0,0.2c0,0.1,0.1,0.2,0.1,0.3c0,0.1,0.1,0.2,0.2,0.4v0c0,0.1,0,0.1,0.1,0.1
						c0.1,0.1,0.2,0.2,0.3,0.2s0.2,0.1,0.3,0.2C543.4,61.8,543.6,61.9,543.9,61.9 M551.5,67.4c-0.2-0.4-0.4-0.7-0.9-0.9
						c-0.4-0.2-1-0.4-1.6-0.5l1.3,3.4c0.6-0.2,0.9-0.5,1.1-0.8C551.6,68.2,551.6,67.8,551.5,67.4z"/>
				</g>
				<g>
					<g>
						<defs>
							<path id="SVGID_00000029727644764691290550000018023538388064524478_" d="M529.7,54.3l0.5-0.8c2.1-3.2,5.6-5.5,10.2-6.1
								c4.8-0.7,9.8,0.6,14.1,3.2c4.3,2.6,7.8,6.5,9.5,11.1c1.7,4.6,1.4,9-0.7,12.5l-0.5,0.8c2-3.5,2.4-7.9,0.7-12.5
								c-1.7-4.6-5.2-8.5-9.5-11.1c-4.3-2.6-9.3-3.8-14.1-3.2C535.3,48.8,531.8,51.1,529.7,54.3z"/>
						</defs>
						<clipPath id="SVGID_00000062883905603213879820000006192184841198441915_">
							<use xlink:href="#SVGID_00000029727644764691290550000018023538388064524478_"  style="overflow:visible;"/>
						</clipPath>
					</g>
					<g>
						<defs>
							<path id="SVGID_00000067925448382965732190000008015767936865207194_" d="M563.2,74.6l-0.5,0.8c0.1-0.2,0.2-0.3,0.3-0.5
								l0.5-0.8C563.4,74.3,563.3,74.4,563.2,74.6z"/>
						</defs>
						<clipPath id="SVGID_00000097460311280761746970000004026926370748292782_">
							<use xlink:href="#SVGID_00000067925448382965732190000008015767936865207194_"  style="overflow:visible;"/>
						</clipPath>
					</g>
					<g>
						<defs>
							<path id="SVGID_00000070829804722232798470000002876454432381355394_" d="M550.5,58.9l-0.5,0.8c-1.5-0.5-3-0.8-4.4-0.7
								l0.5-0.8C547.5,58.2,548.9,58.4,550.5,58.9z"/>
						</defs>
						<clipPath id="SVGID_00000005964507785969876870000006766522139794278563_">
							<use xlink:href="#SVGID_00000070829804722232798470000002876454432381355394_"  style="overflow:visible;"/>
						</clipPath>
						<g style="clip-path:url(#SVGID_00000005964507785969876870000006766522139794278563_);">
							<defs>
								<rect id="SVGID_00000008127784701442837420000014028528134167561907_" x="545.5" y="58.2" width="4.9" height="1.6"/>
							</defs>
							<clipPath id="SVGID_00000159452852645396531650000002368060152444591755_">
								<use xlink:href="#SVGID_00000008127784701442837420000014028528134167561907_"  style="overflow:visible;"/>
							</clipPath>
						</g>
					</g>
					<g>
						<defs>
							<path id="SVGID_00000142137551141007859330000005515171303250373308_" d="M541.9,60.3l0.5-0.8c0.2-0.3,0.6-0.6,1.1-0.8
								l-0.5,0.8C542.5,59.7,542.1,60,541.9,60.3z"/>
						</defs>
						<clipPath id="SVGID_00000052078099622512196560000017497028265723194534_">
							<use xlink:href="#SVGID_00000142137551141007859330000005515171303250373308_"  style="overflow:visible;"/>
						</clipPath>
					</g>
					<g>
						<defs>
							<path id="SVGID_00000165926318517976567640000008005161100497769127_" d="M551.4,68.5l-0.5,0.8c0.2-0.3,0.2-0.7,0.1-1.1
								c-0.2-0.4-0.4-0.7-0.9-0.9c-0.4-0.2-1-0.4-1.6-0.5L549,66c0.7,0.1,1.2,0.3,1.6,0.5c0.4,0.2,0.7,0.5,0.9,0.9
								C551.6,67.8,551.6,68.2,551.4,68.5z"/>
						</defs>
						<clipPath id="SVGID_00000147194596831049765500000003520895914625070521_">
							<use xlink:href="#SVGID_00000165926318517976567640000008005161100497769127_"  style="overflow:visible;"/>
						</clipPath>
						<g style="clip-path:url(#SVGID_00000147194596831049765500000003520895914625070521_);">
							<defs>
								<rect id="SVGID_00000111910919138148036950000011461154778840501400_" x="548.5" y="66" width="3.1" height="3.4"/>
							</defs>
							<clipPath id="SVGID_00000149350640743986893710000008878485798134553758_">
								<use xlink:href="#SVGID_00000111910919138148036950000011461154778840501400_"  style="overflow:visible;"/>
							</clipPath>
						</g>
					</g>
					<g>
						<defs>
							<polygon id="SVGID_00000095326405963897189780000014702536153066483617_" points="551.4,68.6 550.9,69.4 550.9,69.4 
								551.4,68.5 							"/>
						</defs>
						<clipPath id="SVGID_00000084527789098242707850000000411863595324691371_">
							<use xlink:href="#SVGID_00000095326405963897189780000014702536153066483617_"  style="overflow:visible;"/>
						</clipPath>
					</g>
					<g>
						<defs>
							<path id="SVGID_00000165936511903454313700000009190702768047051670_" d="M538,58.5l0.5-0.8c0,0,0,0.1-0.1,0.1
								c-0.7,1.1-0.7,2.4-0.2,3.7c0.4,1.1,1,1.9,1.8,2.5c0.8,0.6,1.7,1,2.7,1.2c1,0.2,2.1,0.4,3.4,0.5l-0.5,0.8
								c-1.3-0.1-2.5-0.3-3.4-0.5c-1-0.2-1.9-0.6-2.7-1.2c-0.8-0.6-1.4-1.4-1.8-2.5c-0.5-1.4-0.4-2.6,0.2-3.7
								C538,58.6,538,58.5,538,58.5z"/>
						</defs>
						<clipPath id="SVGID_00000134222618695711595260000003524142392702636715_">
							<use xlink:href="#SVGID_00000165936511903454313700000009190702768047051670_"  style="overflow:visible;"/>
						</clipPath>
						<g style="clip-path:url(#SVGID_00000134222618695711595260000003524142392702636715_);">
							<defs>
								<rect id="SVGID_00000073700961179658095230000003544835281766141571_" x="537.4" y="57.7" width="8.8" height="8.9"/>
							</defs>
							<clipPath id="SVGID_00000026854529112159553990000013382519976667169203_">
								<use xlink:href="#SVGID_00000073700961179658095230000003544835281766141571_"  style="overflow:visible;"/>
							</clipPath>
						</g>
					</g>
					<g>
						<defs>
							<path id="SVGID_00000109731655727289690550000010671502090894754995_" d="M555.2,70.3l-0.5,0.8c-0.7,1.1-1.9,1.8-3.7,2.3
								l0.5-0.8C553.3,72.1,554.5,71.4,555.2,70.3z"/>
						</defs>
						<clipPath id="SVGID_00000105396454890452961330000005837098044589231509_">
							<use xlink:href="#SVGID_00000109731655727289690550000010671502090894754995_"  style="overflow:visible;"/>
						</clipPath>
					</g>
					<g>
						<defs>
							<path id="SVGID_00000044136072514420992870000002962955953166983313_" d="M549,73.1l-0.5,0.8c-1.3,0.1-2.6,0.1-3.9-0.1
								c-1.3-0.2-2.4-0.5-3.3-0.9l0.5-0.8c0.9,0.4,2,0.7,3.3,0.9C546.4,73.1,547.7,73.2,549,73.1z"/>
						</defs>
						<clipPath id="SVGID_00000178884726623629971990000004506815352015648157_">
							<use xlink:href="#SVGID_00000044136072514420992870000002962955953166983313_"  style="overflow:visible;"/>
						</clipPath>
						<g style="clip-path:url(#SVGID_00000178884726623629971990000004506815352015648157_);">
							<defs>
								<rect id="SVGID_00000165235789944504836050000017316306060465565840_" x="541.3" y="72" width="7.7" height="2"/>
							</defs>
							<clipPath id="SVGID_00000126293051000583032620000002903601003452704388_">
								<use xlink:href="#SVGID_00000165235789944504836050000017316306060465565840_"  style="overflow:visible;"/>
							</clipPath>
						</g>
					</g>
				</g>
			</g>
		</g>
		
			<rect x="591.8" y="16" transform="matrix(0.7071 -0.7071 0.7071 0.7071 158.9602 430.4654)" style="clip-path:url(#SVGID_00000043437894728493235670000015853389160504565182_);fill:#FFE1A0;" width="14.6" height="14.6"/>
		
			<rect x="639" y="159.5" transform="matrix(0.7071 -0.7071 0.7071 0.7071 70.9421 506.8131)" style="clip-path:url(#SVGID_00000043437894728493235670000015853389160504565182_);fill:#FFE1A0;" width="16.6" height="16.6"/>
		
			<circle style="clip-path:url(#SVGID_00000043437894728493235670000015853389160504565182_);fill:#FFE397;" cx="389" cy="29.5" r="14.1"/>
		
			<circle style="clip-path:url(#SVGID_00000043437894728493235670000015853389160504565182_);fill:#FFE397;" cx="458.9" cy="99.6" r="2.4"/>
		<g style="clip-path:url(#SVGID_00000043437894728493235670000015853389160504565182_);">
			<defs>
				<rect id="SVGID_00000160880004837529036290000012406454762741517978_" x="676" y="43.6" width="73.8" height="149.7"/>
			</defs>
			<clipPath id="SVGID_00000157267636248538807610000007522719476902610339_">
				<use xlink:href="#SVGID_00000160880004837529036290000012406454762741517978_"  style="overflow:visible;"/>
			</clipPath>
			<path style="clip-path:url(#SVGID_00000157267636248538807610000007522719476902610339_);fill:#FFE1A0;" d="M749.8,115.7v21.6
				v2.4v0.9v0.4v8.5v22.9c-9.1-1.3-18-4.6-26-9.4c-12.9-7.8-23.5-19.5-28.8-33.4c-0.1-0.2-0.1-0.4-0.2-0.5c0,0,0,0,0,0
				c-0.1-0.2-0.2-0.4-0.2-0.7c0,0,0,0,0,0c-0.1-0.1-0.1-0.3-0.2-0.5c-0.1-0.4-0.2-0.7-0.4-1.1c-0.3-0.8-0.5-1.7-0.7-2.5
				c-0.1-0.4-0.2-0.8-0.3-1.2c-0.2-0.8-0.4-1.6-0.5-2.4c-0.1-0.4-0.2-0.8-0.2-1.3v0c-1.6-10.2,0.1-19.7,4.7-27.6
				c6.1-10.4,17-17.9,31.5-19.9c1.7-0.2,3.5-0.4,5.2-0.5c0,0,0,0,0,0c0.7,0,1.4-0.1,2.1-0.1c0.3,0,0.6,0,0.9,0
				c2.1,0,4.2,0.1,6.3,0.4c0.8,0.1,1.5,0.2,2.3,0.3c1.4,0.2,2.8,0.5,4.2,0.8c0.1,0,0.1,0,0.2,0.1v2.9v2.8v2v0.3v8.8v5.3v9.8v0.3
				V115.7z"/>
			<path style="clip-path:url(#SVGID_00000157267636248538807610000007522719476902610339_);fill:none;" d="M751.1,180.9
				c-0.6-0.1-1.3-0.2-2-0.3c-2.6-0.5-5.2-1.1-7.8-1.8c-0.6-0.2-1.3-0.4-1.9-0.6c-1.3-0.4-2.5-0.8-3.8-1.3l0,0
				c-0.6-0.2-1.3-0.5-1.9-0.7s-1.2-0.5-1.9-0.8c-0.6-0.3-1.2-0.5-1.9-0.8c-0.6-0.3-1.2-0.6-1.8-0.8c-0.6-0.3-1.2-0.6-1.8-0.9
				c-0.6-0.3-1.2-0.6-1.8-0.9c-1.2-0.6-2.4-1.3-3.5-2c-0.7-0.4-1.4-0.9-2.1-1.3c-0.7-0.4-1.4-0.9-2.1-1.4c-0.7-0.5-1.4-0.9-2-1.4h0
				c-1.3-1-2.6-2-3.9-3c-0.6-0.5-1.3-1.1-1.9-1.6c-0.6-0.5-1.2-1.1-1.8-1.6c-0.6-0.6-1.2-1.1-1.8-1.7c-5.9-5.8-10.9-12.4-14.7-19.6
				c-0.1-0.2-0.2-0.4-0.3-0.5c-0.3-0.5-0.5-1.1-0.8-1.6c0,0,0,0,0,0c-0.2-0.4-0.4-0.9-0.6-1.3c-0.2-0.4-0.4-0.9-0.6-1.3c0,0,0,0,0,0
				c-0.1-0.3-0.3-0.7-0.4-1c-0.1-0.3-0.3-0.7-0.4-1c0,0,0,0,0,0c-0.1-0.2-0.1-0.3-0.2-0.5c-0.1-0.3-0.2-0.7-0.4-1v0
				c0-0.1-0.1-0.2-0.1-0.3c-0.2-0.6-0.4-1.3-0.6-1.9c-0.1-0.4-0.2-0.8-0.3-1.2c-0.2-0.8-0.5-1.6-0.7-2.4c-0.1-0.3-0.1-0.6-0.2-0.8v0
				c0-0.1,0-0.1-0.1-0.2c0,0,0,0,0,0c0-0.2-0.1-0.3-0.1-0.5c-3-13.2-1-25.7,4.8-35.8v0c0.2-0.4,0.4-0.8,0.7-1.1
				c0.1-0.2,0.2-0.4,0.3-0.5l-1.6,2.5c0,0-0.1,0.2-0.2,0.4c-0.3,0.4-0.5,0.8-0.8,1.3c-5.6,9.6-7.6,21.4-5.2,34
				c0.1,0.3,0.1,0.6,0.2,1c0.1,0.7,0.3,1.4,0.5,2.1c0.1,0.3,0.2,0.7,0.3,1.1c0.5,2,1.2,4,1.9,6c6.1,16.2,18.5,30,33.6,39.1
				c9.7,5.8,20.6,9.8,31.6,11.2V180.9"/>
			<path style="clip-path:url(#SVGID_00000157267636248538807610000007522719476902610339_);fill:#C4A155;" d="M751.1,180.9
				c-0.6-0.1-1.3-0.2-2-0.3c-2.6-0.5-5.2-1.1-7.8-1.8c-0.6-0.2-1.3-0.4-1.9-0.6c-1.3-0.4-2.5-0.8-3.8-1.3l0,0
				c-0.6-0.2-1.3-0.5-1.9-0.7s-1.2-0.5-1.9-0.8c-0.6-0.3-1.2-0.5-1.9-0.8c-0.6-0.3-1.2-0.6-1.8-0.8c-0.6-0.3-1.2-0.6-1.8-0.9
				c-0.6-0.3-1.2-0.6-1.8-0.9c-1.2-0.6-2.4-1.3-3.5-2c-0.7-0.4-1.4-0.9-2.1-1.3c-0.7-0.4-1.4-0.9-2.1-1.4c-0.7-0.5-1.4-0.9-2-1.4h0
				c-1.3-1-2.6-2-3.9-3c-0.6-0.5-1.3-1.1-1.9-1.6c-0.6-0.5-1.2-1.1-1.8-1.6c-0.6-0.6-1.2-1.1-1.8-1.7c-5.9-5.8-10.9-12.4-14.7-19.6
				c-0.1-0.2-0.2-0.4-0.3-0.5c-0.3-0.5-0.5-1.1-0.8-1.6c0,0,0,0,0,0c-0.2-0.4-0.4-0.9-0.6-1.3c-0.2-0.4-0.4-0.9-0.6-1.3c0,0,0,0,0,0
				c-0.1-0.3-0.3-0.7-0.4-1c-0.1-0.3-0.3-0.7-0.4-1c0,0,0,0,0,0c-0.1-0.2-0.1-0.3-0.2-0.5c-0.1-0.3-0.2-0.7-0.4-1v0
				c0-0.1-0.1-0.2-0.1-0.3c-0.2-0.6-0.4-1.3-0.6-1.9c-0.1-0.4-0.2-0.8-0.3-1.2c-0.2-0.8-0.5-1.6-0.7-2.4c-0.1-0.3-0.1-0.6-0.2-0.8v0
				c0-0.1,0-0.1-0.1-0.2c0,0,0,0,0,0c0-0.2-0.1-0.3-0.1-0.5c-3-13.2-1-25.7,4.8-35.8v0c0.2-0.4,0.4-0.8,0.7-1.1
				c0.1-0.2,0.2-0.4,0.3-0.5l-1.6,2.5c0,0-0.1,0.2-0.2,0.4c-1.2,1.9-6.4,10-6.7,10.5c-7.1,12.2-8.4,27.9-2.3,44.2
				c6.1,16.2,18.6,30,33.6,39.1c11.5,6.9,24.5,11.1,37.5,11.7v-9.7V180.9L751.1,180.9z"/>
			<path style="clip-path:url(#SVGID_00000157267636248538807610000007522719476902610339_);fill:#FFE1A0;" d="M747,63.5
				c-0.8-0.1-1.5-0.2-2.3-0.3c-1.1-0.2-2.2-0.3-3.3-0.4c-0.9-0.1-1.8-0.1-2.6-0.2c-0.3,0-0.7,0-1,0c-3.7-0.1-7.4,0.1-11.1,0.6
				c-16.4,2.3-29,10.6-36.2,22.2c-0.2,0.4-0.5,0.8-0.7,1.1v0c-5.9,10.1-7.8,22.6-4.8,35.8c0,0.2,0.1,0.3,0.1,0.5c0,0,0,0,0,0
				c0,0.1,0,0.1,0,0.2h0c0.1,0.3,0.1,0.6,0.2,0.8c0.2,0.8,0.4,1.6,0.7,2.4c0.1,0.4,0.2,0.8,0.4,1.2c0.2,0.6,0.4,1.3,0.6,1.9
				c0,0.1,0.1,0.2,0.1,0.3c0,0,0,0,0,0v0c0.1,0.3,0.2,0.7,0.4,1c0.1,0.2,0.1,0.3,0.2,0.5c0,0,0,0,0,0c0.1,0.3,0.3,0.7,0.4,1
				c0.1,0.3,0.3,0.7,0.4,1c0,0,0,0,0,0c0.2,0.5,0.4,0.9,0.6,1.3c0.2,0.4,0.4,0.9,0.6,1.3c0,0,0,0,0,0c0.2,0.5,0.5,1.1,0.8,1.6
				c0.1,0.2,0.2,0.3,0.3,0.5c3.8,7.2,8.8,13.9,14.7,19.6c0.6,0.6,1.2,1.1,1.8,1.7c0.6,0.6,1.2,1.1,1.8,1.7c0.6,0.5,1.3,1.1,1.9,1.6
				c1.3,1,2.6,2.1,3.9,3h0c0.7,0.5,1.3,1,2,1.4c0.7,0.5,1.4,0.9,2.1,1.4c0.4,0.2,0.7,0.4,1,0.7c0.3,0.2,0.7,0.4,1.1,0.7
				c1.1,0.7,2.3,1.4,3.5,2c0.6,0.3,1.2,0.6,1.8,0.9c0.6,0.3,1.2,0.6,1.8,0.9c0.6,0.3,1.2,0.6,1.8,0.9c0.6,0.3,1.2,0.5,1.8,0.8
				s1.2,0.5,1.9,0.8s1.2,0.5,1.9,0.7l0,0c1.3,0.5,2.5,0.9,3.8,1.3c0.6,0.2,1.3,0.4,1.9,0.6c2.6,0.7,5.2,1.3,7.8,1.8
				c0.7,0.1,1.3,0.2,2,0.3v-8.5c-9.1-1.3-18-4.6-26-9.4c-12.9-7.8-23.5-19.5-28.8-33.4c-0.1-0.2-0.1-0.4-0.2-0.5c0,0,0,0,0,0
				c-0.1-0.2-0.2-0.4-0.2-0.7c0,0,0,0,0,0c-0.1-0.2-0.1-0.3-0.2-0.5c-0.1-0.4-0.2-0.7-0.4-1.1c-0.3-0.8-0.5-1.7-0.7-2.5
				c-0.1-0.4-0.2-0.8-0.3-1.2c-0.2-0.8-0.4-1.6-0.5-2.5c-0.1-0.4-0.2-0.9-0.2-1.3v0c-1.7-10.2,0.1-19.7,4.7-27.6
				c6.1-10.5,17-17.9,31.5-20c1.7-0.2,3.5-0.4,5.2-0.5c0,0,0,0,0,0c0.7,0,1.4-0.1,2.1-0.1c0.3,0,0.6,0,0.9,0c2.1,0,4.2,0.1,6.3,0.4
				c0.8,0.1,1.5,0.2,2.3,0.3c1.4,0.2,2.8,0.5,4.2,0.8c0.1,0,0.1,0,0.2,0v-8.5C749.8,64,748.4,63.8,747,63.5z"/>
			
				<path style="clip-path:url(#SVGID_00000157267636248538807610000007522719476902610339_);fill:none;stroke:#D8B661;stroke-miterlimit:10;" d="
				M751.1,72.8c-0.1,0-0.1,0-0.2-0.1c-1.4-0.3-2.8-0.6-4.2-0.8c-0.8-0.1-1.5-0.2-2.3-0.3c-2.1-0.2-4.2-0.4-6.3-0.4
				c-0.3,0-0.6,0-0.9,0c-0.7,0-1.4,0-2.1,0.1c0,0,0,0,0,0c-1.8,0.1-3.5,0.2-5.2,0.5c-14.5,2-25.5,9.5-31.5,19.9
				c-4.6,7.9-6.4,17.4-4.7,27.6v0c0.1,0.4,0.1,0.8,0.2,1.3c0.2,0.8,0.3,1.6,0.5,2.4c0.1,0.4,0.2,0.8,0.3,1.2
				c0.2,0.8,0.5,1.7,0.7,2.5c0.1,0.4,0.2,0.7,0.4,1.1c0,0.2,0.1,0.3,0.2,0.5c0,0,0,0,0,0c0.1,0.2,0.2,0.4,0.2,0.7c0,0,0,0,0,0
				c0.1,0.2,0.1,0.3,0.2,0.5c5.2,13.9,15.8,25.6,28.8,33.4c8,4.8,16.9,8.1,26,9.4"/>
			<polygon style="clip-path:url(#SVGID_00000157267636248538807610000007522719476902610339_);fill:#C4A155;" points="735.6,96 
				734,98.5 730.9,90.3 732.5,87.8 			"/>
			<g style="clip-path:url(#SVGID_00000157267636248538807610000007522719476902610339_);">
				<defs>
					<path id="SVGID_00000016791300011570223090000010663810527996483006_" d="M734.3,110.8l1.6-2.5c0.6-1,1.7-1.8,3.4-2.4l-1.6,2.5
						C736,109.1,734.9,109.9,734.3,110.8z"/>
				</defs>
				<clipPath id="SVGID_00000106133153106584649140000007708724134768067463_">
					<use xlink:href="#SVGID_00000016791300011570223090000010663810527996483006_"  style="overflow:visible;"/>
				</clipPath>
				<path style="clip-path:url(#SVGID_00000106133153106584649140000007708724134768067463_);fill:#C4A155;" d="M739.3,105.9
					l-1.6,2.5c-1.6,0.7-2.7,1.5-3.4,2.4l1.6-2.5C736.5,107.3,737.7,106.5,739.3,105.9"/>
			</g>
			<polygon style="clip-path:url(#SVGID_00000157267636248538807610000007522719476902610339_);fill:#C4A155;" points="743.2,116.4 
				741.6,118.9 737.7,108.4 739.3,105.9 			"/>
			<g style="clip-path:url(#SVGID_00000157267636248538807610000007522719476902610339_);">
				<defs>
					<path id="SVGID_00000111149343963347002010000017176280214376812183_" d="M722.7,105.5l1.6-2.5c-0.1,0.1-0.1,0.2-0.2,0.3
						c-2,3.4-2.2,7.1-0.7,11.2c1.2,3.3,3.1,5.8,5.5,7.6c2.5,1.8,5.1,3,8.1,3.7c2.9,0.7,6.4,1.2,10.3,1.5l-1.6,2.5
						c-4-0.3-7.4-0.8-10.3-1.5c-2.9-0.7-5.6-1.9-8.1-3.7c-2.5-1.8-4.3-4.3-5.5-7.6c-1.5-4.1-1.3-7.8,0.7-11.2
						C722.6,105.7,722.6,105.6,722.7,105.5z"/>
				</defs>
				<use xlink:href="#SVGID_00000111149343963347002010000017176280214376812183_"  style="overflow:visible;fill:#C4A155;"/>
				<clipPath id="SVGID_00000163763547444893370920000013690248317216391086_">
					<use xlink:href="#SVGID_00000111149343963347002010000017176280214376812183_"  style="overflow:visible;"/>
				</clipPath>
				<g style="clip-path:url(#SVGID_00000163763547444893370920000013690248317216391086_);">
					<defs>
						<rect id="SVGID_00000179633221805950206310000008886093351336421276_" x="720.8" y="103" width="26.5" height="26.9"/>
					</defs>
					<use xlink:href="#SVGID_00000179633221805950206310000008886093351336421276_"  style="overflow:visible;fill:#C4A155;"/>
					<clipPath id="SVGID_00000052804347766909225600000011849494978639417524_">
						<use xlink:href="#SVGID_00000179633221805950206310000008886093351336421276_"  style="overflow:visible;"/>
					</clipPath>
					<path style="clip-path:url(#SVGID_00000052804347766909225600000011849494978639417524_);fill:#C4A155;" d="M747.3,127.3
						l-1.6,2.5c-4-0.3-7.4-0.8-10.3-1.5c-2.9-0.7-5.6-1.9-8.1-3.7c-2.5-1.8-4.3-4.3-5.5-7.6c-1.5-4.1-1.3-7.8,0.7-11.2
						c0.1-0.1,0.1-0.2,0.2-0.3l1.6-2.5c-0.1,0.1-0.1,0.2-0.2,0.3c-2,3.4-2.2,7.1-0.7,11.2c1.2,3.3,3.1,5.8,5.5,7.6
						c2.5,1.8,5.1,3,8.1,3.7C739.9,126.5,743.4,127,747.3,127.3"/>
				</g>
			</g>
			<polygon style="clip-path:url(#SVGID_00000157267636248538807610000007522719476902610339_);fill:#C4A155;" points="751.1,137.3 
				751.1,141.1 750.4,142.2 749.5,139.7 745.7,129.8 747.3,127.3 			"/>
			<g style="clip-path:url(#SVGID_00000157267636248538807610000007522719476902610339_);">
				<defs>
					<path id="SVGID_00000161593616891715748250000007541318159682664105_" d="M751.1,152.1"/>
				</defs>
				<defs>
					<path id="SVGID_00000138575678781869239100000005958794225384554635_" d="M751.1,149.6"/>
				</defs>
				<defs>
					<path id="SVGID_00000050632821309500990390000000275675362158744971_" d="M751.1,152.1c-2.9,0.1-5.8-0.1-8.7-0.6
						c-3.9-0.6-7.1-1.5-9.8-2.8l1.6-2.5c2.7,1.3,6,2.2,9.8,2.8c2.4,0.4,4.7,0.6,7.1,0.6"/>
				</defs>
				<use xlink:href="#SVGID_00000161593616891715748250000007541318159682664105_"  style="overflow:visible;fill:#C4A155;"/>
				<use xlink:href="#SVGID_00000138575678781869239100000005958794225384554635_"  style="overflow:visible;fill:#C4A155;"/>
				<use xlink:href="#SVGID_00000050632821309500990390000000275675362158744971_"  style="overflow:visible;fill:#C4A155;"/>
				<clipPath id="SVGID_00000014607933154320936340000014104233175969433479_">
					<use xlink:href="#SVGID_00000161593616891715748250000007541318159682664105_"  style="overflow:visible;"/>
				</clipPath>
				
					<clipPath id="SVGID_00000179633360032563698930000005947512366500182701_" style="clip-path:url(#SVGID_00000014607933154320936340000014104233175969433479_);">
					<use xlink:href="#SVGID_00000138575678781869239100000005958794225384554635_"  style="overflow:visible;"/>
				</clipPath>
				
					<clipPath id="SVGID_00000039134149913679544690000013169647786795829399_" style="clip-path:url(#SVGID_00000179633360032563698930000005947512366500182701_);">
					<use xlink:href="#SVGID_00000050632821309500990390000000275675362158744971_"  style="overflow:visible;"/>
				</clipPath>
				<g style="clip-path:url(#SVGID_00000039134149913679544690000013169647786795829399_);">
					<defs>
						<rect id="SVGID_00000177446355824520183980000010925311137724208061_" x="732.6" y="146.2" width="23.1" height="5.9"/>
					</defs>
					<use xlink:href="#SVGID_00000177446355824520183980000010925311137724208061_"  style="overflow:visible;fill:#C4A155;"/>
					<clipPath id="SVGID_00000009592004102361003000000012107825963278205099_">
						<use xlink:href="#SVGID_00000177446355824520183980000010925311137724208061_"  style="overflow:visible;"/>
					</clipPath>
					<path style="clip-path:url(#SVGID_00000009592004102361003000000012107825963278205099_);fill:#C4A155;" d="M755.7,149.4
						l-1.6,2.5c-3.9,0.3-7.8,0.2-11.6-0.4c-3.9-0.6-7.1-1.5-9.8-2.8l1.6-2.5c2.7,1.3,6,2.2,9.8,2.8
						C747.9,149.6,751.8,149.7,755.7,149.4"/>
				</g>
			</g>
			<g style="clip-path:url(#SVGID_00000157267636248538807610000007522719476902610339_);">
				<path class="st23" d="M743.2,139c-3-0.6-5.7-1.4-8.2-2.5l-0.8,9.6c2.7,1.3,6,2.2,9.9,2.8c2.3,0.4,4.7,0.6,7.1,0.6v-9.8
					c-0.6,0-1.1,0-1.7,0C747.4,139.7,745.3,139.4,743.2,139z"/>
				<path class="st23" d="M751.1,94.9c-2.5-0.2-5.1-0.3-7.9-0.1l-3-8.1l-7.7,1.1l3.1,8.2c-0.1,0-0.2,0.1-0.4,0.1
					c-0.2,0-0.4,0.1-0.6,0.2c-0.1,0-0.2,0.1-0.4,0.1c-0.3,0.1-0.5,0.2-0.8,0.2c-0.1,0-0.2,0.1-0.2,0.1c-4.4,1.5-7.4,3.7-9.2,6.6
					c-0.7,1.2-1.2,2.4-1.5,3.7c0,0.2-0.1,0.5-0.1,0.7c0,0.3-0.1,0.6-0.1,0.9c0,0.2,0,0.4,0,0.7c0,1.7,0.3,3.4,1,5.2
					c1.2,3.3,3.1,5.8,5.5,7.6c2.5,1.8,5.1,3,8.1,3.7c2.9,0.7,6.3,1.2,10.3,1.5l3.8,10v-21.6l-4.2-11.1c1.4,0,2.8,0,4.2,0.2V94.9z
					 M740.5,115.8L740.5,115.8c-0.9-0.2-1.6-0.5-2.2-0.8c-0.3-0.2-0.7-0.4-0.9-0.6c-0.3-0.2-0.6-0.5-0.8-0.7
					c-0.1-0.1-0.2-0.2-0.3-0.4c-0.2-0.3-0.5-0.7-0.6-1.1c-0.1-0.4-0.2-0.7-0.3-1c0-0.2,0-0.4,0-0.5c0-0.2,0-0.4,0-0.6v0
					c0.1-0.5,0.2-0.9,0.4-1.3c0.2-0.4,0.5-0.8,0.8-1.1c0,0,0.1-0.1,0.1-0.1c0.4-0.4,0.9-0.7,1.5-1c0.3-0.2,0.7-0.3,1.1-0.5l0.2,0.6
					l0.4,1.1l0.1,0.3l0,0.1l0.1,0.2c0,0,0,0,0,0l0.3,0.9c0,0,0,0,0,0l0.3,0.8l0.4,1l2.1,5.5C742.2,116.3,741.3,116.1,740.5,115.8z"
					/>
			</g>
			<polygon style="clip-path:url(#SVGID_00000157267636248538807610000007522719476902610339_);fill:#C4A155;" points="734.2,146.2 
				732.6,148.7 733.4,139 735,136.5 			"/>
			
				<path style="clip-path:url(#SVGID_00000157267636248538807610000007522719476902610339_);fill:none;stroke:#D8B661;stroke-width:0.5;stroke-miterlimit:10;" d="
				M751.1,149.6c-2.4,0-4.7-0.2-7.1-0.6c-3.9-0.6-7.1-1.6-9.9-2.8l0.8-9.6c2.5,1.1,5.2,1.9,8.2,2.5c2.1,0.4,4.2,0.6,6.2,0.7
				c0.5,0,1.1,0,1.7,0 M751.1,137.3l-3.8-10c-4-0.3-7.4-0.8-10.3-1.5c-2.9-0.7-5.6-1.9-8.1-3.7c-2.5-1.8-4.3-4.3-5.5-7.6
				c-0.7-1.8-1-3.5-1-5.2c0-0.2,0-0.4,0-0.7c0-0.3,0-0.6,0.1-0.9c0-0.2,0.1-0.5,0.1-0.7c0.3-1.3,0.8-2.5,1.5-3.7
				c1.7-2.9,4.8-5.1,9.2-6.6c0.1,0,0.2-0.1,0.2-0.1c0.2-0.1,0.5-0.2,0.8-0.2c0.1,0,0.2-0.1,0.4-0.1c0.2-0.1,0.4-0.1,0.6-0.2
				c0.1,0,0.2-0.1,0.4-0.1l-3.1-8.2l7.7-1.1l3,8.1c2.8-0.2,5.4-0.1,7.9,0.1 M751.1,104.7c-1.4-0.2-2.8-0.2-4.2-0.2l4.2,11.1
				 M741.2,110.9l-0.4-1l-0.3-0.8c0,0,0,0,0,0l-0.3-0.9c0,0,0,0,0,0l-0.1-0.2l0-0.1l-0.1-0.3l-0.4-1.1l-0.2-0.6
				c-0.4,0.2-0.7,0.3-1.1,0.5c-0.6,0.3-1.1,0.7-1.5,1c0,0-0.1,0.1-0.1,0.1c-0.4,0.3-0.6,0.7-0.8,1.1c-0.2,0.4-0.3,0.8-0.4,1.3v0
				c0,0.2,0,0.4,0,0.6c0,0.2,0,0.4,0,0.5c0,0.3,0.1,0.7,0.3,1c0.2,0.4,0.4,0.8,0.6,1.1c0.1,0.1,0.2,0.2,0.3,0.4
				c0.2,0.3,0.5,0.5,0.8,0.7c0.3,0.2,0.6,0.4,0.9,0.6c0.6,0.3,1.4,0.6,2.2,0.8h0c0.8,0.2,1.8,0.4,2.8,0.6L741.2,110.9z M740.5,115.8
				L740.5,115.8c0.8,0.2,1.8,0.4,2.8,0.6l-2.1-5.5l-0.4-1l-0.3-0.8c0,0,0,0,0,0l-0.3-0.9c0,0,0,0,0,0l-0.1-0.2l0-0.1l-0.1-0.3
				l-0.4-1.1l-0.2-0.6c-0.4,0.2-0.7,0.3-1.1,0.5c-0.6,0.3-1.1,0.7-1.5,1c0,0-0.1,0.1-0.1,0.1c-0.4,0.3-0.6,0.7-0.8,1.1
				c-0.2,0.4-0.3,0.8-0.4,1.3c0,0,0,0,0,0.1c0,0.2,0,0.4,0,0.6c0,0.2,0,0.4,0.1,0.6c0,0.3,0.1,0.7,0.3,1c0.2,0.4,0.4,0.8,0.6,1.1
				c0.1,0.1,0.2,0.2,0.3,0.4c0.2,0.3,0.5,0.5,0.8,0.7c0.3,0.2,0.6,0.4,0.9,0.6C738.9,115.3,739.6,115.6,740.5,115.8"/>
		</g>
	</g>
</g>
</svg>
