<?xml version="1.0" encoding="utf-8"?>
<!-- Generator: Adobe Illustrator 26.0.3, SVG Export Plug-In . SVG Version: 6.00 Build 0)  -->
<svg version="1.1" id="Layer_1" xmlns="http://www.w3.org/2000/svg" xmlns:xlink="http://www.w3.org/1999/xlink" x="0px" y="0px"
	 viewBox="0 0 512 512" style="enable-background:new 0 0 512 512;" xml:space="preserve">
<style type="text/css">
	.st0{fill:#1C6CDB;}
</style>
<path class="st0" d="M0,256C0,114.6,114.6,0,256,0s256,114.6,256,256S397.4,512,256,512S0,397.4,0,256z M414.3,195.6
	c14.9-14.9,14.9-39.2,0-54.1c-14.9-14.9-39.2-14.9-54.1,0L212.3,289.3l-60.4-60.4c-14.9-14.9-39.2-14.9-54.1,0
	c-14.9,14.9-14.9,39.2,0,54.1l87.5,87.5c14.9,14.9,39.2,14.9,54.1,0L414.3,195.6z"/>
</svg>
