<?xml version="1.0" encoding="UTF-8"?>
<svg id="Layer_2" data-name="Layer 2" xmlns="http://www.w3.org/2000/svg" xmlns:xlink="http://www.w3.org/1999/xlink" viewBox="0 0 297 133.14">
  <defs>
    <style>
      .cls-1 {
        fill: url(#linear-gradient);
      }

      .cls-1, .cls-2, .cls-3, .cls-4, .cls-5, .cls-6 {
        stroke-width: 0px;
      }

      .cls-7 {
        stroke: #1d6cdb;
        stroke-miterlimit: 10;
        stroke-width: .87px;
      }

      .cls-7, .cls-2 {
        fill: none;
      }

      .cls-3 {
        fill: url(#linear-gradient-2);
      }

      .cls-4 {
        fill: url(#linear-gradient-3);
      }

      .cls-5 {
        fill: #1d6cdb;
      }

      .cls-6 {
        fill: url(#linear-gradient-4);
      }
    </style>
    <linearGradient id="linear-gradient" x1="50.11" y1="-1.26" x2="32.98" y2="132.95" gradientUnits="userSpaceOnUse">
      <stop offset="0" stop-color="#fa9f56"/>
      <stop offset=".21" stop-color="#fa9b54"/>
      <stop offset=".38" stop-color="#fa914f"/>
      <stop offset=".53" stop-color="#fb8048"/>
      <stop offset=".68" stop-color="#fc683d"/>
      <stop offset=".82" stop-color="#fe4a2e"/>
      <stop offset=".88" stop-color="#ff3b28"/>
    </linearGradient>
    <linearGradient id="linear-gradient-2" x1="130.65" y1="-4.03" x2="33.56" y2="101.63" gradientUnits="userSpaceOnUse">
      <stop offset="0" stop-color="#1d6cdb"/>
      <stop offset=".22" stop-color="#1d6ad7"/>
      <stop offset=".41" stop-color="#1e64cd"/>
      <stop offset=".58" stop-color="#1f5abc"/>
      <stop offset=".74" stop-color="#214da4"/>
      <stop offset=".89" stop-color="#243b85"/>
      <stop offset="1" stop-color="#272d6b"/>
    </linearGradient>
    <linearGradient id="linear-gradient-3" x1="92.12" y1="4.1" x2="74.99" y2="138.31" gradientUnits="userSpaceOnUse">
      <stop offset="0" stop-color="#fa9f56"/>
      <stop offset=".21" stop-color="#fa9b54"/>
      <stop offset=".38" stop-color="#fa914f"/>
      <stop offset=".53" stop-color="#fb8048"/>
      <stop offset=".68" stop-color="#fc683d"/>
      <stop offset=".82" stop-color="#fe4a2e"/>
      <stop offset=".88" stop-color="#ff3b28"/>
    </linearGradient>
    <linearGradient id="linear-gradient-4" x1="116.44" y1="42.32" x2="113.46" y2="65.62" xlink:href="#linear-gradient-3"/>
  </defs>
  <g id="Layer_4" data-name="Layer 4">
    <g>
      <g>
        <g>
          <path class="cls-1" d="m87.8,27.74c-.98.46-1.95.91-2.91,1.38-1.17.56-2.34,1.13-3.49,1.72-6.29-4.34-13.26-5.95-20.7-4.71-13.17,2.21-24.07,13.02-24.96,18.04l-.56,3.14-3.13-.59c-2.17-.41-4.28-.53-6.29-.36-5.36.43-10.11,2.84-13.73,7.08-5.31,6.22-7.11,15.38-4.46,22.77.6,1.68,1.42,3.24,2.43,4.67,7.08-5.62,41.26-33.99,59.37-40.08-12.47,8.74-30.69,26.49-43.51,40.54-2.24,2.45-4.3,4.79-6.15,6.95-1.57,1.84-2.98,3.55-4.19,5.08-2.66-1.27-5.03-2.84-7.06-4.71-3.08-2.82-5.39-6.28-6.83-10.31-3.44-9.61-1.24-21,5.6-29.01,1.13-1.32,2.35-2.5,3.65-3.55,5.07-4.09,11.36-6.11,18.11-5.78.5.02,1,.06,1.5.11,3.65-8.11,15.99-18,29.19-20.21,7.62-1.28,14.89-.11,21.62,3.46,2.26,1.19,4.43,2.66,6.52,4.38Z"/>
          <path class="cls-3" d="m144.99,0l-24.82,14.14s0,0-.01,0c-.02,0-.03.02-.05.03-.03.02-.04.03-.04.03-9.84,6.3-18.59,12.81-26.37,19.33-1.64,1.37-3.24,2.75-4.8,4.13-21.72,19.23-35.21,38.29-43.22,52.37-1.06,1.87-2.02,3.64-2.89,5.32-.18.34-.35.67-.52,1h-17.1l-.27-.05c-.6-.11-1.2-.23-1.78-.36,1.43-2,2.89-3.97,4.38-5.91,1.49-1.95,3-3.86,4.54-5.75,16.64-20.35,35.9-36.96,53.75-49.89,1.76-1.28,3.52-2.52,5.25-3.72,2.39-1.67,4.75-3.26,7.06-4.79h0c7.53-4.98,14.59-9.22,20.84-12.76l-6.47-6.24L144.99,0Z"/>
          <path class="cls-4" d="m106.6,93.38c1.26,1.18,2.66,2.17,4.19,2.97h-60.89c1.11-1.98,2.33-4.09,3.67-6.32,8.31-13.84,20.95-32.05,38.04-48.92,1.5-1.48,3.03-2.95,4.61-4.41,5.84-5.42,12.17-10.65,18.98-15.48-6.52,6.04-12.16,12.1-17.09,18.13-1.44,1.76-2.81,3.51-4.13,5.25-11.89,15.77-19.23,31.23-25.02,45.43h34.69c.75,1.07,1.62,2.08,2.6,3.04l.1.1s.17.16.24.21Z"/>
          <path class="cls-6" d="m132.66,59.01c-3.06-1.54-6.61-2.32-10.59-2.32-1.7,0-3.3.14-4.76.42-.09,0-.17.03-.26.05-1.31.24-2.58.59-3.78,1.06l-1.12.35s-.23.07-.34.1c.86-7.67-10.4-13.55-14.33-11.73.94-1.32.75-1.02,1.74-2.35.42-.54.84-1.08,1.25-1.63,3.13-.2,5.84.76,8.1,2.16.26.16.5.32.74.49,2.54,1.78,4.41,4.06,5.56,5.69,6.67-.95,13.28,2.49,17.79,7.7Z"/>
        </g>
        <path class="cls-2" d="m120.8,17.41c-.3-.21-.61-.41-.93-.61"/>
        <g>
          <path class="cls-5" d="m161.73,74.54c-.5-1.89-1.08-3.81-1.73-5.76l-9.56-32.94-17.4-.31,19.61,60.43h18.91l18.75-60.43-17.4.31-11.17,38.7Z"/>
          <path class="cls-5" d="m161.73,74.66c-.5-1.89-1.08-3.82-1.73-5.77l-9.56-33.04-17.4-.32,19.61,60.62h18.91l18.75-60.62-17.4.32-11.17,38.82Z"/>
          <path class="cls-5" d="m233.93,37.75c-3.36-1.48-8.27-2.22-14.72-2.22h-25.89v60.62h18.87v-22.03h10.52c6.72,0,12.09-1.78,16.12-5.33,4.03-3.55,6.04-8.22,6.04-13.99,0-3.79-.98-7.21-2.95-10.26-1.97-3.05-4.63-5.31-7.99-6.79Zm-15.79,23.36h-6.22v-11.72h6.84c5.06,0,7.59,1.9,7.59,5.68,0,4.03-2.74,6.04-8.22,6.04Z"/>
          <path class="cls-5" d="m294.02,66.25c-1.99-2.78-4.46-4.75-7.43-5.89-2.97-1.15-7.98-2.47-15.04-3.96-2.56-.55-4.29-1.12-5.19-1.73-.89-.61-1.34-1.45-1.34-2.55,0-2.45,1.97-3.67,5.92-3.67,4.75,0,7.91,1.97,9.46,5.92l14.99-4.54c-3.86-9.65-11.8-14.48-23.81-14.48-7.92,0-13.99,1.84-18.21,5.53-4.22,3.69-6.33,8.31-6.33,13.87,0,4.32,1.47,8.08,4.41,11.28,2.94,3.2,9.58,5.79,19.92,7.77,2.71.55,4.59,1.17,5.64,1.88s1.58,1.69,1.58,2.96c0,2.42-2.28,3.63-6.83,3.63-5.85,0-9.48-2.38-10.89-7.13l-16.81,3.02c3.37,11.98,12.24,17.98,26.62,17.98,7.86,0,14.22-1.85,19.06-5.56,4.84-3.7,7.26-8.54,7.26-14.51,0-3.78-.99-7.06-2.98-9.84Z"/>
        </g>
        <path class="cls-5" d="m141.11,80.62c.03-.87.03-1.54.03-2.04,0-5.95-1.75-10.65-5.27-14.09-3.51-3.46-8.1-5.18-13.8-5.18-1.54,0-3,.12-4.38.39-.03,0-.08,0-.11.02-1.35.24-2.61.62-3.8,1.11-.03.02-.07.03-.1.04-2.16.91-4.07,2.22-5.71,3.93-3.53,3.67-5.28,8.15-5.28,13.47s1.78,9.43,5.35,12.89c.02.02.03.03.06.06.07.06.14.13.21.18,3.54,3.31,8.23,4.95,14.08,4.95h.18c.15,0,.3,0,.44,0,5.09-.09,9.16-1.31,12.2-3.68,3.16-2.45,5.13-5.44,5.89-8.94l-4.81-.32h-.06l-5.28-.36h-.08s-2.78-.19-2.78-.19c-.54,2.92-2.32,4.37-5.35,4.37-2.1,0-3.53-.54-4.27-1.63-.75-1.08-1.15-2.74-1.19-4.98h23.83Zm-23.86-7c0-4.06,1.65-6.09,4.95-6.09,1.39,0,2.56.42,3.5,1.24.94.83,1.43,2.45,1.45,4.85h-9.91Z"/>
      </g>
      <line class="cls-7" y1="108.49" x2="297" y2="108.49"/>
      <g>
        <path class="cls-5" d="m0,132.97v-12.34h2.57v4.92h4.8v-4.92h2.57v12.34h-2.57v-5.19H2.57v5.19H0Z"/>
        <path class="cls-5" d="m17.98,133.14c-1.02,0-1.92-.18-2.7-.54-.78-.36-1.43-.85-1.96-1.45-.53-.61-.92-1.29-1.18-2.04-.26-.76-.39-1.53-.39-2.32s.13-1.56.39-2.31c.26-.75.66-1.43,1.18-2.03.53-.6,1.18-1.08,1.96-1.44.78-.36,1.68-.54,2.7-.54s1.94.18,2.72.54c.78.36,1.43.84,1.95,1.44s.91,1.28,1.18,2.03c.26.75.39,1.52.39,2.31s-.13,1.56-.39,2.32c-.26.76-.65,1.44-1.18,2.04-.52.61-1.17,1.09-1.95,1.45-.78.36-1.68.54-2.72.54Zm0-2.32c.78,0,1.43-.19,1.97-.58.53-.39.93-.89,1.2-1.51s.4-1.26.4-1.94-.13-1.32-.4-1.94-.67-1.11-1.2-1.5-1.19-.58-1.97-.58-1.43.19-1.96.58c-.53.39-.92.89-1.19,1.5-.27.61-.4,1.26-.4,1.94s.13,1.32.4,1.94c.27.62.66,1.12,1.19,1.51.53.39,1.18.58,1.96.58Z"/>
        <path class="cls-5" d="m30.62,133.14c-.8,0-1.48-.1-2.04-.29-.56-.19-1.03-.44-1.4-.75-.37-.31-.67-.63-.89-.97-.22-.34-.39-.66-.49-.97s-.19-.65-.24-1.04h2.6c.1.38.23.69.4.94.17.25.42.47.77.65s.81.27,1.4.27c.72,0,1.26-.15,1.6-.46s.52-.67.52-1.09c0-.38-.13-.68-.39-.9-.26-.22-.66-.39-1.21-.5l-1.65-.32c-.67-.12-1.29-.32-1.86-.58-.57-.27-1.04-.64-1.39-1.11-.36-.47-.53-1.08-.53-1.83s.19-1.41.57-1.98c.38-.56.91-.99,1.59-1.3s1.49-.46,2.41-.46c.87,0,1.59.13,2.16.38.57.25,1.03.56,1.37.92.34.36.59.73.75,1.09.16.37.29.79.39,1.28h-2.54c-.08-.31-.19-.57-.33-.77s-.36-.38-.66-.53-.7-.23-1.21-.23c-.7,0-1.21.15-1.52.46s-.47.64-.47.99.16.65.47.85.72.35,1.22.45l1.75.35c.67.12,1.28.33,1.83.62.56.29,1,.68,1.33,1.16s.49,1.08.49,1.79-.18,1.39-.55,1.98c-.37.58-.91,1.05-1.62,1.38-.71.34-1.58.51-2.62.51Z"/>
        <path class="cls-5" d="m40.09,132.97v-10.11h-3.79v-2.23h10.14v2.23h-3.79v10.11h-2.57Z"/>
        <path class="cls-5" d="m48.23,132.97v-12.34h2.57v12.34h-2.57Z"/>
        <path class="cls-5" d="m53.07,132.97v-12.34h2.35l5.32,7.87v-7.87h2.55v12.34h-2.39l-5.29-7.66v7.66h-2.55Z"/>
        <path class="cls-5" d="m71.29,133.14c-1.03,0-1.94-.18-2.72-.53-.78-.36-1.43-.84-1.94-1.44-.52-.61-.9-1.28-1.16-2.03s-.38-1.52-.38-2.31.13-1.56.39-2.32c.26-.76.65-1.44,1.17-2.04.52-.61,1.17-1.09,1.96-1.45.79-.36,1.71-.54,2.77-.54.82,0,1.53.1,2.13.31.6.21,1.09.47,1.49.8.4.33.72.68.96,1.04.24.37.42.71.55,1.04.13.33.23.7.31,1.11h-2.55c-.13-.4-.3-.74-.5-1.01s-.49-.51-.88-.72c-.38-.21-.89-.31-1.51-.31-.81,0-1.49.2-2.03.59-.54.4-.95.9-1.22,1.52-.27.62-.41,1.26-.41,1.93s.14,1.35.42,1.98.69,1.14,1.23,1.53c.54.4,1.21.59,2.03.59.89,0,1.59-.23,2.11-.68.52-.46.83-1.07.93-1.85h-3.2v-2.02h5.74v.95c0,1.29-.25,2.37-.74,3.24s-1.17,1.53-2.02,1.97c-.85.44-1.82.66-2.91.66Z"/>
        <path class="cls-5" d="m83.37,128.77v-2h6.25v2h-6.25Z"/>
        <path class="cls-5" d="m99.89,132.97l-4.2-12.34h2.7l3.22,9.82,3.2-9.82h2.7l-4.2,12.34h-3.42Z"/>
        <path class="cls-5" d="m108.95,132.97v-12.34h5.09c1.01,0,1.85.2,2.53.6s1.18.91,1.52,1.54c.34.63.51,1.28.51,1.96s-.17,1.36-.51,1.99c-.34.63-.85,1.14-1.52,1.54-.67.4-1.52.6-2.53.6h-2.52v4.1h-2.57Zm5.09-10.09h-2.52v3.75h2.52c.43,0,.79-.09,1.08-.28.29-.18.51-.42.66-.7.15-.28.22-.59.22-.91s-.07-.61-.22-.9-.37-.52-.66-.7c-.29-.18-.65-.27-1.08-.27Z"/>
        <path class="cls-5" d="m124.88,133.14c-.8,0-1.48-.1-2.04-.29-.56-.19-1.03-.44-1.4-.75-.37-.31-.67-.63-.89-.97-.22-.34-.39-.66-.49-.97s-.19-.65-.24-1.04h2.6c.1.38.23.69.4.94.17.25.42.47.77.65s.81.27,1.4.27c.72,0,1.26-.15,1.6-.46s.52-.67.52-1.09c0-.38-.13-.68-.39-.9-.26-.22-.66-.39-1.21-.5l-1.65-.32c-.67-.12-1.29-.32-1.86-.58-.57-.27-1.04-.64-1.39-1.11-.36-.47-.53-1.08-.53-1.83s.19-1.41.57-1.98c.38-.56.91-.99,1.59-1.3s1.49-.46,2.41-.46c.87,0,1.59.13,2.16.38.57.25,1.03.56,1.37.92.34.36.59.73.75,1.09.16.37.29.79.39,1.28h-2.54c-.08-.31-.19-.57-.33-.77s-.36-.38-.66-.53-.7-.23-1.21-.23c-.7,0-1.21.15-1.52.46s-.47.64-.47.99.16.65.47.85.72.35,1.22.45l1.75.35c.67.12,1.28.33,1.83.62.56.29,1,.68,1.33,1.16s.49,1.08.49,1.79-.18,1.39-.55,1.98c-.37.58-.91,1.05-1.62,1.38-.71.34-1.58.51-2.62.51Z"/>
        <path class="cls-5" d="m136.02,128.77v-2h6.25v2h-6.25Z"/>
        <path class="cls-5" d="m149.18,132.97v-12.34h8.51v2.23h-5.94v2.77h5.17v2.15h-5.17v2.95h6.02v2.23h-8.59Z"/>
        <path class="cls-5" d="m159.88,132.97v-12.34h3.47l2.82,6.35,2.9-6.35h3.35v12.34h-2.54v-8.41l-2.53,5.52h-2.39l-2.55-5.55v8.44h-2.54Z"/>
        <path class="cls-5" d="m174.06,132.97l4.2-12.34h3.42l4.2,12.34h-2.7l-.78-2.42h-4.84l-.8,2.42h-2.7Zm4.22-4.65h3.4l-1.7-5.15-1.7,5.15Z"/>
        <path class="cls-5" d="m187.52,132.97v-12.34h2.57v12.34h-2.57Z"/>
        <path class="cls-5" d="m192.35,132.97v-12.34h2.57v10.11h6.04v2.23h-8.61Z"/>
        <path class="cls-5" d="m207.71,128.77v-2h6.25v2h-6.25Z"/>
        <path class="cls-5" d="m223.27,132.97l-3.07-12.34h2.57l2.19,8.96,2.28-8.96h2.62l2.29,8.94,2.17-8.94h2.59l-3.08,12.34h-3.27l-2-7.86-1.98,7.86h-3.28Z"/>
        <path class="cls-5" d="m238.5,132.97v-12.34h8.51v2.23h-5.94v2.77h5.17v2.15h-5.17v2.95h6.02v2.23h-8.59Z"/>
        <path class="cls-5" d="m249.2,132.97v-12.34h5.7c.8,0,1.48.14,2.03.42.55.28.97.65,1.26,1.11.29.46.43.97.43,1.53s-.1,1-.3,1.36-.44.65-.72.87c-.28.22-.56.36-.83.44v.13c.3.07.63.21,1,.43.37.22.68.54.95.95.27.41.4.95.4,1.6,0,.58-.14,1.13-.41,1.67s-.71.97-1.32,1.32c-.61.34-1.39.52-2.36.52h-5.84Zm5.27-10.19h-2.7v2.87h2.7c.58,0,1-.14,1.27-.42.27-.28.4-.62.4-1.02s-.13-.72-.4-1.01c-.27-.28-.69-.43-1.27-.43Zm.2,4.84h-2.9v3.2h2.9c.66,0,1.13-.16,1.43-.48.29-.32.44-.7.44-1.14s-.15-.81-.44-1.12c-.29-.31-.77-.47-1.43-.47Z"/>
        <path class="cls-5" d="m265.63,133.14c-.8,0-1.48-.1-2.04-.29-.56-.19-1.03-.44-1.4-.75-.37-.31-.67-.63-.89-.97-.22-.34-.39-.66-.49-.97s-.19-.65-.24-1.04h2.6c.1.38.23.69.4.94.17.25.42.47.77.65s.81.27,1.4.27c.72,0,1.26-.15,1.6-.46s.52-.67.52-1.09c0-.38-.13-.68-.39-.9-.26-.22-.66-.39-1.21-.5l-1.65-.32c-.67-.12-1.29-.32-1.86-.58-.57-.27-1.04-.64-1.39-1.11-.36-.47-.53-1.08-.53-1.83s.19-1.41.57-1.98c.38-.56.91-.99,1.59-1.3s1.49-.46,2.41-.46c.87,0,1.59.13,2.16.38.57.25,1.03.56,1.37.92.34.36.59.73.75,1.09.16.37.29.79.39,1.28h-2.54c-.08-.31-.19-.57-.33-.77s-.36-.38-.66-.53-.7-.23-1.21-.23c-.7,0-1.21.15-1.52.46s-.47.64-.47.99.16.65.47.85.72.35,1.22.45l1.75.35c.67.12,1.28.33,1.83.62.56.29,1,.68,1.33,1.16s.49,1.08.49,1.79-.18,1.39-.55,1.98c-.37.58-.91,1.05-1.62,1.38-.71.34-1.58.51-2.62.51Z"/>
        <path class="cls-5" d="m272.14,132.97v-12.34h2.57v12.34h-2.57Z"/>
        <path class="cls-5" d="m280.27,132.97v-10.11h-3.79v-2.23h10.14v2.23h-3.79v10.11h-2.57Z"/>
        <path class="cls-5" d="m288.41,132.97v-12.34h8.51v2.23h-5.94v2.77h5.17v2.15h-5.17v2.95h6.02v2.23h-8.59Z"/>
      </g>
    </g>
  </g>
</svg>