<svg xmlns="http://www.w3.org/2000/svg" viewBox="0 0 1058.44 438.99"><defs><style>.cls-1{fill:#ed1a3b;}.cls-2{fill:#0054a6;}</style></defs><g id="Layer_2" data-name="Layer 2"><g id="Layer_1-2" data-name="Layer 1"><path class="cls-1" d="M419.55,199a25.69,25.69,0,0,0-14.9-10c-.19-.06-.38-.08-.56-.14a4.71,4.71,0,0,1-.54-.12l-.56-.12-.55-.14-.56-.12c-.15-.05-.35-.09-.52-.13s-.38-.09-.56-.13a5.29,5.29,0,0,0-.54-.13l-.55-.12a4.42,4.42,0,0,0-.55-.14l-.54-.13a4.9,4.9,0,0,1-.55-.13,5.22,5.22,0,0,0-.57-.11l-.52-.15-.57-.11c-.16-.06-.35-.09-.53-.14a5.48,5.48,0,0,1-.55-.14l-.55-.11c-.19-.06-.37-.09-.55-.14a4.28,4.28,0,0,0-.54-.12c-.17-.07-.38-.08-.55-.16l-.56-.1-.53-.13c-.19-.05-.38-.08-.57-.14l-.54-.12a3.58,3.58,0,0,0-.54-.14c-.19,0-.37-.09-.53-.12l-.56-.14c-.18-.05-.37-.07-.54-.13l-.55-.12c-.18-.05-.38-.08-.55-.12s-.37-.07-.56-.13l-.55-.15a2.55,2.55,0,0,1-.55-.13l-.53-.13a5.35,5.35,0,0,1-.55-.11c-.18,0-.36-.07-.55-.13s-.37-.09-.54-.11-.37-.09-.54-.15a4,4,0,0,1-.55-.13c-.19,0-.39-.07-.58-.13s-.34-.07-.52-.11a3.63,3.63,0,0,0-.57-.13,4.1,4.1,0,0,0-.53-.16l-.55-.1a4,4,0,0,0-.55-.13,4,4,0,0,0-.55-.14,4.54,4.54,0,0,0-.53-.12,4.09,4.09,0,0,0-.56-.13,4.75,4.75,0,0,0-.54-.14l-.56-.13a3.69,3.69,0,0,0-.56-.11c-.18-.07-.36-.09-.52-.15s-.38-.09-.56-.13l-.54-.12c-.18-.06-.36-.09-.56-.14a4.56,4.56,0,0,1-.53-.13,3.65,3.65,0,0,1-.55-.13,3.23,3.23,0,0,1-.54-.11l-.57-.13c-.18-.05-.36-.1-.52-.13s-.38-.07-.58-.13l-.54-.13-.54-.13c-.18-.06-.37-.07-.54-.13l-.56-.13a4.39,4.39,0,0,1-.52-.13c-.22,0-.4-.1-.56-.13s-.39-.08-.55-.13l-.56-.12a3.48,3.48,0,0,0-.56-.12c-.17-.06-.35-.1-.53-.15l-.55-.12a4.44,4.44,0,0,0-.55-.12c-.17-.06-.38-.1-.56-.16l-.52-.12c-.19,0-.39-.08-.56-.1a3.21,3.21,0,0,0-.53-.15l-.56-.12c-.18-.05-.37-.08-.54-.14s-.39-.07-.56-.12l-.56-.14-.53-.11a5.29,5.29,0,0,0-.54-.13c-.2-.06-.38-.09-.56-.15s-.35-.08-.54-.11a5.07,5.07,0,0,0-.56-.13c-.16-.06-.36-.07-.55-.13l-.52-.15a4.8,4.8,0,0,1-.57-.11,3.7,3.7,0,0,1-.55-.14c-.16,0-.36-.09-.54-.12a3.35,3.35,0,0,0-.55-.11l-.55-.15c-.18-.06-.35-.08-.52-.13s-.4-.1-.56-.14l-.54-.1a4.09,4.09,0,0,0-.56-.13l-.56-.15a3.91,3.91,0,0,1-.54-.14l-.54-.11c-.18-.05-.39-.09-.55-.12s-.39-.08-.57-.14l-.54-.12-.53-.13-.54-.14c-.19-.05-.39-.07-.56-.12a4.75,4.75,0,0,1-.54-.14,3.5,3.5,0,0,1-.56-.13l-.54-.11c-.18-.06-.39-.09-.54-.13l-.55-.14a3.13,3.13,0,0,0-.56-.12l-.55-.13c-.19,0-.37-.1-.55-.13s-.36-.07-.53-.13l-.54-.14c-.2,0-.39-.08-.56-.12s-.37-.08-.55-.14a3.45,3.45,0,0,0-.54-.11l-.56-.14c-.17,0-.37-.08-.55-.13a4.46,4.46,0,0,0-.55-.11,5.18,5.18,0,0,0-.53-.14c-.2-.05-.36-.09-.55-.12a5.54,5.54,0,0,0-.55-.14l-.55-.13-.54-.13-.56-.13c-.18,0-.38-.07-.54-.12s-.39-.08-.57-.14-.34-.07-.55-.13a2,2,0,0,0-.54-.1,2.74,2.74,0,0,0-.53-.14c-.19-.06-.38-.1-.56-.14a19.65,19.65,0,0,0-21,30.54,19.86,19.86,0,0,0,7.94,6.4c.17.07.33.12.5.2s.37.13.52.21a4.61,4.61,0,0,0,.51.22l.51.21c.18.09.36.14.53.22l.5.22a4.46,4.46,0,0,1,.53.22,3.77,3.77,0,0,0,.52.21l.51.22c.17.06.35.13.52.21a4,4,0,0,0,.54.22,2.09,2.09,0,0,0,.5.21c.15.09.33.14.49.23a3.74,3.74,0,0,0,.52.19c.17.09.36.16.52.25l.52.2c.16.08.34.15.52.22s.36.14.51.21l.51.23a3.49,3.49,0,0,1,.53.22c.17.09.35.13.5.2l.51.22a5.15,5.15,0,0,0,.52.21l.52.23c.17.09.35.12.54.2a1.63,1.63,0,0,0,.52.22c.15.09.32.15.49.23l.53.2c.16.1.35.15.51.24a5.32,5.32,0,0,1,.5.21c.19.07.35.12.52.2a5.08,5.08,0,0,0,.52.22l.52.23.51.21c.17.09.36.12.52.21s.35.14.51.23.35.13.51.21a4,4,0,0,1,.52.21l.52.21c.18.09.36.15.51.21s.35.15.52.22.35.15.52.22.34.15.52.23a3.52,3.52,0,0,0,.52.2c.15.08.34.15.51.25a3.89,3.89,0,0,1,.52.2,4.53,4.53,0,0,0,.49.2c.17.09.36.15.54.23a4.88,4.88,0,0,0,.51.22c.16.08.34.13.5.2l.53.23c.18.07.34.13.5.21s.36.14.53.21.33.14.5.23a2.35,2.35,0,0,1,.53.23,5.44,5.44,0,0,1,.52.19l.5.23c.19.08.37.13.53.21a3.75,3.75,0,0,1,.5.21l.53.21a5.57,5.57,0,0,0,.53.23,3.72,3.72,0,0,0,.5.2c.17.09.34.15.51.22a4.67,4.67,0,0,0,.51.23,5.46,5.46,0,0,1,.51.2c.17.08.36.15.53.21s.36.15.52.24.35.13.51.22a4,4,0,0,1,.52.21c.16.07.33.13.51.22s.35.13.54.2a5.24,5.24,0,0,0,.48.23,3.44,3.44,0,0,1,.53.21c.16.09.36.14.52.22a3.86,3.86,0,0,0,.51.2,5,5,0,0,1,.52.25c.16.07.34.12.52.2s.34.13.51.2a3.81,3.81,0,0,0,.54.23,5,5,0,0,1,.47.22l.54.2.52.23a2.81,2.81,0,0,1,.51.22,3,3,0,0,0,.52.21c.17.09.35.13.5.2a3.4,3.4,0,0,0,.53.23c.16.09.33.13.51.22s.34.13.5.21.36.13.53.21a4.12,4.12,0,0,0,.5.21,3.76,3.76,0,0,1,.54.25c.16.07.33.12.52.21s.32.12.5.21l.52.21.53.22a4.13,4.13,0,0,1,.49.22c.2.07.35.16.53.21s.35.12.52.22a5.47,5.47,0,0,1,.53.22c.14.08.33.12.49.21s.35.15.52.21a4.68,4.68,0,0,1,.5.22,4.15,4.15,0,0,0,.53.2c.17.1.36.15.52.23s.36.14.51.24l.51.18c.18.1.36.15.54.24s.33.12.51.19.34.15.49.23a4.81,4.81,0,0,0,.53.2l.53.24.51.21a5.44,5.44,0,0,1,.5.22c.18.08.36.13.52.22l.52.21c.17.09.36.14.51.21l.55.21a3.44,3.44,0,0,0,.49.21c.18.09.35.15.5.23s.35.14.53.22l.51.2c.17.1.36.15.51.23l.52.22a4.67,4.67,0,0,1,.51.23l.54.18c.16.1.33.16.49.24a5,5,0,0,1,.53.23l.51.2c.16.08.35.13.5.2l.55.23c.16.07.32.13.5.22s.33.13.52.21a3.92,3.92,0,0,0,.51.22,4.77,4.77,0,0,1,.52.22,2.89,2.89,0,0,1,.52.22A26,26,0,0,0,419.55,199"/><path class="cls-1" d="M329.75,233.33a3.8,3.8,0,0,1-.54.09c-.18.06-.35.09-.52.13s-.36.08-.55.14a4.15,4.15,0,0,0-.53.1,2.53,2.53,0,0,1-.56.11l-.54.14a4,4,0,0,0-.54.11c-.17,0-.33.1-.52.13l-.54.11c-.19,0-.36.1-.54.13s-.36.06-.55.11-.34.09-.53.12l-.52.13c-.18,0-.36.07-.55.09a3.71,3.71,0,0,1-.53.13,2.91,2.91,0,0,1-.53.13l-.54.11c-.19,0-.37.1-.55.13l-.53.14a4.34,4.34,0,0,0-.54.09l-.55.13-.54.12a3.18,3.18,0,0,1-.52.1,4.43,4.43,0,0,1-.55.13,4.56,4.56,0,0,0-.53.13l-.53.11a3.82,3.82,0,0,1-.55.11c-.17.05-.36.08-.53.14l-.54.1-.54.14a3.45,3.45,0,0,0-.54.11c-.19,0-.35.07-.55.12l-.53.12a4.39,4.39,0,0,0-.52.13,2.74,2.74,0,0,0-.55.13,3.2,3.2,0,0,0-.54.09c-.18.06-.36.09-.53.13a3,3,0,0,0-.54.13l-.55.11-.54.12a3.8,3.8,0,0,0-.51.13,4.86,4.86,0,0,0-.55.1c-.18,0-.36.08-.54.14a2.73,2.73,0,0,0-.54.11c-.17,0-.35.07-.53.11s-.36.1-.55.13l-.53.12a4.13,4.13,0,0,0-.53.11c-.21,0-.38.09-.55.12l-.53.12-.54.13a2.93,2.93,0,0,0-.53.12,5.52,5.52,0,0,0-.54.12c-.19,0-.37.09-.55.11a3.18,3.18,0,0,0-.53.14l-.54.1-.53.11c-.18,0-.36.08-.56.14l-.52.11-.54.1-.54.14a3.49,3.49,0,0,0-.54.12,4.87,4.87,0,0,0-.52.12l-.56.13c-.17,0-.36.08-.55.09l-.51.14c-.19,0-.38.09-.56.12a2.51,2.51,0,0,0-.52.1,5.29,5.29,0,0,1-.54.13l-.53.12-.55.12-.53.13-.54.12a2.47,2.47,0,0,1-.53.1l-.56.13a4.71,4.71,0,0,1-.54.12c-.17,0-.35.07-.52.11a5.47,5.47,0,0,1-.55.13l-.52.11-.55.11c-.18,0-.36.1-.54.13l-.53.11c-.2,0-.36.1-.56.14s-.36.09-.52.11-.36.09-.53.13a4.46,4.46,0,0,0-.55.11c-.19,0-.34.09-.52.13s-.37.09-.57.13a3.34,3.34,0,0,0-.51.11c-.19,0-.36.07-.56.11l-.53.11a2.18,2.18,0,0,1-.53.11l-.54.14a4,4,0,0,0-.52.11l-.54.12-.55.12-.54.13a5.29,5.29,0,0,0-.54.13c-.19,0-.34.07-.52.09s-.37.09-.54.13a4.09,4.09,0,0,0-.56.13,4.71,4.71,0,0,0-.54.12l-.5.1c-.2,0-.36.1-.57.14a4.94,4.94,0,0,0-.53.1,4.71,4.71,0,0,1-.54.12l-.54.13-.54.12a3.47,3.47,0,0,1-.53.12c-.16,0-.35.09-.54.13s-.35.08-.55.12l-.53.12a1.42,1.42,0,0,0-.52.12,4.86,4.86,0,0,0-.55.11,3.71,3.71,0,0,0-.53.13,5.35,5.35,0,0,0-.55.11c-.16,0-.36.09-.55.11l-.54.13c-.17,0-.33.08-.52.11l-.53.13a4.12,4.12,0,0,0-.53.12c-.19,0-.36.09-.54.11s-.36.11-.55.13a4.72,4.72,0,0,0-.54.13l-.54.09a3.39,3.39,0,0,1-.55.13c-.15.06-.33.08-.49.13a3.07,3.07,0,0,0-.56.12c-.2,0-.36.07-.53.11l-.55.12a4.54,4.54,0,0,0-.53.12,2.85,2.85,0,0,0-.54.13,4.68,4.68,0,0,0-.54.1c-.19,0-.36.09-.55.12l-.54.13a3,3,0,0,0-.52.13c-.17,0-.37.08-.53.09a5.54,5.54,0,0,1-.55.14c-.19.05-.37.07-.54.11s-.35.09-.55.12a3.21,3.21,0,0,1-.52.11,2.1,2.1,0,0,1-.54.12,3.16,3.16,0,0,1-.53.13l-.56.13-.53.11c-.19,0-.36.1-.53.13l-.54.13a4.68,4.68,0,0,0-.54.1c-.19,0-.36.09-.55.11l-.53.14c-.17,0-.35.06-.55.1l-.52.13a5,5,0,0,0-.53.11l-.56.11c-.18.06-.36.09-.52.13a4.69,4.69,0,0,1-.54.11,26,26,0,1,0,15,49.48c.16-.07.33-.14.5-.23s.34-.16.5-.21l.51-.23.51-.22a4.12,4.12,0,0,1,.5-.21l.52-.22.5-.22a3.82,3.82,0,0,1,.51-.23c.17-.07.34-.14.52-.23s.33-.14.5-.21a5.4,5.4,0,0,0,.49-.23,2.18,2.18,0,0,0,.51-.22c.19-.06.35-.16.52-.21s.34-.15.5-.24l.51-.18a2.36,2.36,0,0,1,.52-.23c.16-.09.32-.16.5-.24l.51-.22c.16-.08.35-.15.5-.23s.35-.13.51-.22a3.75,3.75,0,0,0,.5-.21,5.08,5.08,0,0,0,.52-.22c.17-.05.32-.15.51-.22a2.94,2.94,0,0,0,.51-.23c.16-.07.35-.12.52-.2a3.89,3.89,0,0,1,.5-.24,104.7,104.7,0,0,1,1-.43l.53-.23a4.34,4.34,0,0,0,.5-.2,4.63,4.63,0,0,0,.51-.24l.51-.21c.16-.05.34-.16.51-.22s.33-.17.5-.22l.51-.23c.18-.05.33-.14.52-.21s.34-.16.5-.23l.51-.23a3.74,3.74,0,0,0,.51-.22c.16-.05.32-.15.49-.2l.52-.23.51-.22a3.15,3.15,0,0,0,.49-.22l.53-.22.51-.21.49-.22c.17-.06.35-.15.52-.22s.34-.16.51-.23.33-.14.5-.23a3.15,3.15,0,0,0,.49-.22c.2-.06.36-.15.52-.2s.34-.15.52-.22a2.94,2.94,0,0,1,.51-.23,2.24,2.24,0,0,1,.5-.22l.51-.22.5-.23.51-.23.52-.22.5-.22a3,3,0,0,0,.48-.2l.53-.23.49-.21a2.73,2.73,0,0,0,.52-.23c.18-.06.34-.16.51-.21s.34-.17.51-.24l.5-.19.51-.24.52-.22c.17-.06.34-.16.5-.21l.51-.24a3.72,3.72,0,0,0,.5-.2l.52-.25a2.78,2.78,0,0,0,.49-.21,3.52,3.52,0,0,0,.52-.21l.51-.23.5-.22a3.81,3.81,0,0,0,.5-.23,3.44,3.44,0,0,0,.53-.21c.18-.06.33-.14.51-.21s.33-.15.49-.25a3.7,3.7,0,0,0,.52-.2c.16-.06.33-.15.5-.22a4.49,4.49,0,0,0,.51-.23,4.85,4.85,0,0,0,.51-.2l.49-.23.53-.22c.16-.05.33-.15.51-.21l.51-.24.5-.2a4.74,4.74,0,0,1,.51-.24,4,4,0,0,0,.49-.21,4.67,4.67,0,0,0,.51-.23,4.55,4.55,0,0,0,.51-.21c.19-.06.34-.15.53-.23l.49-.21c.17-.07.35-.16.5-.21a3.38,3.38,0,0,1,.51-.24c.17-.06.32-.14.52-.21l.51-.23.5-.22a3.52,3.52,0,0,1,.52-.2c.16-.1.33-.16.49-.25s.33-.12.49-.2.35-.17.53-.22l.52-.23.49-.22.52-.22.51-.21c.18-.07.32-.15.48-.22a1.86,1.86,0,0,0,.51-.25l.52-.21c.17-.06.35-.16.51-.21a4.61,4.61,0,0,1,.51-.22l.51-.23.49-.22a2.69,2.69,0,0,0,.51-.22,5,5,0,0,0,.53-.23,4.19,4.19,0,0,0,.49-.2l.53-.22a4.4,4.4,0,0,1,.5-.21l.5-.24.51-.23c.18-.06.34-.15.52-.2l.49-.22c.15-.08.34-.15.5-.23a4.88,4.88,0,0,0,.51-.22l.51-.22a3.54,3.54,0,0,0,.53-.23c.15-.05.32-.13.5-.21a5.4,5.4,0,0,0,.49-.23,3.43,3.43,0,0,0,.52-.23,3.47,3.47,0,0,0,.5-.2c.18-.06.34-.15.52-.22a5.4,5.4,0,0,0,.49-.23,2.71,2.71,0,0,0,.52-.22c.17-.06.34-.16.52-.22l.49-.21c.19-.08.33-.15.52-.22l.51-.23a4.25,4.25,0,0,0,.5-.22,3.93,3.93,0,0,0,.5-.22,4.18,4.18,0,0,1,.53-.21l.49-.22c.16-.06.34-.15.5-.23a2.89,2.89,0,0,0,.52-.22c.16-.08.34-.13.5-.22s.35-.16.5-.23l.54-.21c.15-.07.32-.14.48-.23s.35-.15.51-.21.34-.16.51-.24.35-.13.53-.21l.48-.2c.17-.09.34-.15.53-.24a4.51,4.51,0,0,1,.49-.21l.5-.21a17.39,17.39,0,0,0,6-3.93,17.68,17.68,0,0,0-16.31-29.77"/><path class="cls-1" d="M228,13.34c-.09.16-.19.33-.28.46s-.19.33-.29.49-.19.33-.28.48-.2.32-.29.48l-.3.47c-.09.15-.21.32-.29.48l-.29.49a5.06,5.06,0,0,0-.29.48c-.1.15-.18.32-.29.47a4.08,4.08,0,0,0-.28.48c-.1.15-.18.32-.28.46a3.14,3.14,0,0,0-.29.49c-.11.15-.2.32-.29.47a3.48,3.48,0,0,0-.3.48l-.29.48c-.11.15-.2.32-.29.47s-.19.33-.31.48-.17.32-.27.48-.2.33-.3.47-.18.32-.27.48-.21.33-.31.47-.18.32-.3.49a3.49,3.49,0,0,1-.28.48l-.3.48c-.09.15-.17.3-.27.46l-.29.47c-.12.18-.19.32-.3.51a2.71,2.71,0,0,0-.26.48,2.13,2.13,0,0,0-.31.47,4.53,4.53,0,0,0-.27.48,3.46,3.46,0,0,0-.31.47,3.4,3.4,0,0,0-.29.48c-.11.15-.19.3-.3.46s-.19.32-.28.49-.19.32-.29.49-.19.29-.29.48a4.87,4.87,0,0,0-.28.47c-.1.14-.19.29-.3.47a2.73,2.73,0,0,0-.27.47c-.12.17-.2.31-.3.48a4.51,4.51,0,0,0-.28.49c-.11.15-.21.32-.31.46s-.19.31-.28.49a4.48,4.48,0,0,0-.28.47,2.8,2.8,0,0,0-.3.48c-.11.15-.18.33-.29.48l-.29.46c-.1.17-.19.34-.29.49a4.25,4.25,0,0,1-.32.46c-.09.17-.17.34-.26.49s-.19.32-.28.48-.2.32-.3.48-.21.32-.29.47-.19.32-.31.49a5.42,5.42,0,0,0-.26.48c-.11.15-.19.32-.3.49a2.25,2.25,0,0,0-.28.46,2.18,2.18,0,0,0-.29.49,2.43,2.43,0,0,0-.3.46c-.1.15-.19.31-.29.48s-.19.32-.29.46-.18.33-.29.49-.2.32-.28.47a4.71,4.71,0,0,0-.29.48,3,3,0,0,0-.28.49,2.34,2.34,0,0,0-.3.47c-.12.16-.18.33-.29.48s-.2.31-.28.47a4.31,4.31,0,0,0-.29.47c-.1.16-.2.34-.31.49l-.27.46c-.13.17-.21.32-.32.49s-.18.31-.27.49-.19.3-.28.47l-.3.47-.29.5c-.11.15-.18.31-.29.45s-.2.33-.28.49-.2.31-.3.48l-.3.49c-.09.16-.19.31-.27.46s-.2.31-.31.48-.18.32-.27.46-.21.32-.3.49a4.85,4.85,0,0,0-.29.49,4.33,4.33,0,0,0-.28.48,5.45,5.45,0,0,1-.32.45,4.74,4.74,0,0,1-.26.5l-.31.46c-.08.18-.19.32-.28.49s-.19.31-.27.46a3.25,3.25,0,0,0-.3.51,3,3,0,0,0-.3.46c-.09.15-.18.31-.27.49a2.43,2.43,0,0,0-.3.46c-.09.17-.21.31-.29.47s-.2.33-.29.48-.2.32-.29.48a3.36,3.36,0,0,0-.27.49,2.67,2.67,0,0,0-.32.48l-.3.47a5.46,5.46,0,0,0-.27.48c-.11.15-.21.32-.3.47s-.19.29-.28.47-.21.31-.3.47-.19.32-.27.49a3.88,3.88,0,0,0-.3.48,5.4,5.4,0,0,1-.3.47c-.09.15-.18.33-.29.48s-.19.32-.28.47-.19.34-.28.48a5.11,5.11,0,0,0-.29.48l-.28.47c-.13.16-.2.33-.31.49s-.21.32-.3.48-.18.31-.27.47a4.8,4.8,0,0,0-.3.48,4.2,4.2,0,0,1-.3.48l-.27.48a3.38,3.38,0,0,1-.3.47,3.87,3.87,0,0,0-.26.49c-.14.16-.2.31-.32.47l-.3.48c-.09.14-.17.31-.28.46s-.2.33-.26.48-.21.34-.31.49a5.55,5.55,0,0,0-.29.48c-.1.15-.19.32-.28.47s-.21.33-.32.48-.18.31-.29.47-.17.33-.28.49-.19.3-.29.47-.18.32-.28.47a4.36,4.36,0,0,1-.29.48,19.64,19.64,0,0,0,31.09,23.83c.14-.15.23-.3.37-.43l.36-.42a3.91,3.91,0,0,1,.37-.44l.35-.43a4.64,4.64,0,0,1,.38-.39c.11-.14.24-.29.36-.42a5,5,0,0,1,.35-.43c.13-.13.24-.29.36-.43s.22-.28.37-.42.24-.27.36-.42.24-.28.36-.42.25-.28.36-.41.23-.28.37-.43.22-.28.35-.43.25-.28.35-.41.24-.28.39-.41.24-.3.35-.42l.38-.44c.12-.12.22-.28.34-.4s.25-.28.37-.44a2.83,2.83,0,0,1,.37-.4c.12-.15.23-.3.36-.44s.22-.28.34-.42.25-.28.36-.41.24-.28.38-.43l.36-.41a3.73,3.73,0,0,0,.36-.43c.14-.13.23-.27.38-.43a4.47,4.47,0,0,0,.34-.4,5.2,5.2,0,0,0,.37-.43,3.84,3.84,0,0,0,.35-.43,5,5,0,0,0,.38-.41,2.93,2.93,0,0,0,.34-.43,2.83,2.83,0,0,0,.37-.4c.14-.13.24-.28.38-.41a2.89,2.89,0,0,1,.35-.41c.14-.17.24-.32.37-.45s.23-.28.35-.41a5.39,5.39,0,0,1,.39-.43,3.33,3.33,0,0,1,.36-.4c.13-.16.23-.3.34-.46s.24-.28.36-.41a4.47,4.47,0,0,0,.35-.41c.14-.14.25-.28.38-.42s.25-.28.37-.41a3.81,3.81,0,0,1,.37-.43,4.87,4.87,0,0,1,.35-.42c.11-.14.24-.28.37-.42s.24-.3.36-.42.24-.29.35-.44l.37-.4c.12-.15.24-.28.36-.44a4.48,4.48,0,0,0,.36-.4,3.6,3.6,0,0,1,.37-.41,3,3,0,0,1,.36-.43l.36-.43.36-.43a3,3,0,0,0,.36-.43c.13-.12.25-.27.37-.4s.25-.28.36-.42.23-.28.37-.42l.34-.41c.14-.13.24-.3.38-.43a5,5,0,0,0,.36-.42,4.82,4.82,0,0,0,.36-.43c.12-.13.23-.28.36-.41l.37-.43c.13-.12.23-.28.36-.41a3,3,0,0,0,.35-.43c.12-.12.25-.28.37-.41s.24-.29.36-.43.24-.29.36-.42a3.19,3.19,0,0,0,.37-.44c.12-.1.21-.26.37-.38a3.81,3.81,0,0,1,.37-.43,2.35,2.35,0,0,1,.36-.43l.34-.43a4.14,4.14,0,0,0,.38-.43l.38-.39c.11-.14.2-.28.32-.42a4.72,4.72,0,0,0,.37-.43c.14-.13.23-.28.37-.43s.21-.28.36-.43.24-.26.37-.39a2.62,2.62,0,0,1,.39-.43,2.52,2.52,0,0,1,.32-.43,5.14,5.14,0,0,0,.38-.42,1.91,1.91,0,0,0,.33-.42,4,4,0,0,0,.4-.42,2.32,2.32,0,0,0,.34-.41,4.23,4.23,0,0,0,.36-.41c.15-.15.23-.3.37-.45s.22-.28.37-.4.22-.28.36-.43.23-.29.36-.43a2.06,2.06,0,0,0,.35-.42c.13-.12.24-.28.39-.4l.35-.43a1.9,1.9,0,0,0,.33-.43,2.16,2.16,0,0,0,.38-.42,4.83,4.83,0,0,0,.38-.4,3.71,3.71,0,0,1,.35-.42,5.2,5.2,0,0,0,.37-.43c.14-.14.24-.28.37-.43a4.47,4.47,0,0,1,.35-.41c.14-.15.23-.28.36-.41a2.13,2.13,0,0,0,.34-.43,4,4,0,0,0,.4-.42c.13-.14.23-.28.35-.42s.24-.3.35-.42l.36-.44a2.7,2.7,0,0,0,.37-.4c.13-.14.25-.28.37-.43l.36-.41.36-.43a5.48,5.48,0,0,0,.37-.43,4.49,4.49,0,0,1,.36-.39,4.55,4.55,0,0,0,.33-.43,5.11,5.11,0,0,0,.39-.42l.38-.43c.12-.13.2-.28.36-.43a5.41,5.41,0,0,0,.35-.43,3.41,3.41,0,0,0,.37-.39c.11-.13.23-.3.36-.43s.23-.28.35-.43.26-.27.36-.4.25-.31.36-.43.26-.3.38-.43.24-.28.36-.41.22-.28.36-.43.23-.27.36-.41.24-.3.37-.43.24-.27.35-.42a3.81,3.81,0,0,0,.37-.43c.11-.11.25-.24.38-.39a1.78,1.78,0,0,1,.36-.42,26,26,0,1,0-41-31.57,3.73,3.73,0,0,1-.29.49,4.85,4.85,0,0,1-.29.49"/><path class="cls-1" d="M257.15,83.27a17.59,17.59,0,0,0-9.54,14,3.43,3.43,0,0,0-.07.56c0,.18,0,.37,0,.57s0,.37-.07.54a5.53,5.53,0,0,0,0,.56c0,.2,0,.39-.07.57a5.54,5.54,0,0,0-.05.56c0,.18,0,.37-.07.54s0,.39,0,.58-.06.37-.08.55a5.51,5.51,0,0,1-.06.57c0,.18,0,.37,0,.55a2.64,2.64,0,0,0,0,.56,2.15,2.15,0,0,0-.07.56,5,5,0,0,0-.07.56,2.6,2.6,0,0,1-.06.56c0,.18,0,.37,0,.55a5.51,5.51,0,0,1-.06.57,5.1,5.1,0,0,0,0,.57c0,.17,0,.35-.07.54s0,.37,0,.56,0,.39-.06.58,0,.37,0,.56,0,.35-.06.54,0,.37,0,.55a2.78,2.78,0,0,0-.06.58c0,.17,0,.37,0,.56s-.05.36-.07.54,0,.37,0,.56,0,.39,0,.55a5.41,5.41,0,0,0-.07.58,4.69,4.69,0,0,0-.06.54c0,.21,0,.4,0,.58l-.06.56a3.43,3.43,0,0,0-.05.56c0,.19,0,.37-.05.56s0,.37-.06.55a5.51,5.51,0,0,0-.06.57,5.21,5.21,0,0,0,0,.55,1.54,1.54,0,0,0-.07.56c0,.19,0,.37,0,.56s-.05.36-.07.56,0,.35-.07.56,0,.37,0,.55,0,.38-.06.56,0,.39-.05.54,0,.41-.07.58,0,.36,0,.56-.05.37-.07.57,0,.35,0,.54a3.43,3.43,0,0,0-.07.56c0,.18,0,.37,0,.56s0,.37,0,.56,0,.37-.06.55l-.06.56a5.67,5.67,0,0,1,0,.58c0,.17,0,.35-.05.56s0,.35-.07.54,0,.37,0,.57,0,.38-.07.56a3.68,3.68,0,0,1-.06.56,5.27,5.27,0,0,1,0,.56,2.65,2.65,0,0,0-.05.56,3.5,3.5,0,0,0-.05.54c0,.18,0,.39-.06.55a5.46,5.46,0,0,0,0,.58,2.74,2.74,0,0,0-.06.56,3.68,3.68,0,0,0-.06.56c0,.19-.06.35-.07.54a4.18,4.18,0,0,1-.06.56c0,.21,0,.39,0,.56a2.82,2.82,0,0,0-.07.6c0,.16,0,.35,0,.54a5.14,5.14,0,0,1-.06.55c0,.21,0,.37-.05.56s0,.37-.06.56a5.27,5.27,0,0,1,0,.56c0,.19,0,.37-.07.56s0,.37-.05.58,0,.35,0,.54a5.17,5.17,0,0,0-.07.55c0,.19,0,.38-.06.56s0,.38-.05.56a5.27,5.27,0,0,1,0,.56c0,.18,0,.37-.06.56s0,.38-.07.57,0,.36,0,.55a5.35,5.35,0,0,0-.05.55c0,.19,0,.38-.07.57s0,.37-.05.57a4.78,4.78,0,0,0,0,.54,2.61,2.61,0,0,0-.08.56c0,.19-.05.36-.06.56s0,.38,0,.56,0,.37-.06.55a5.22,5.22,0,0,1-.07.57,3.43,3.43,0,0,1-.05.56c0,.19,0,.37,0,.58s0,.34-.05.54,0,.36-.07.56,0,.37,0,.55a4.58,4.58,0,0,1-.07.55,5.09,5.09,0,0,1,0,.56,3.45,3.45,0,0,0,0,.57,5.46,5.46,0,0,0,0,.56,3.33,3.33,0,0,0,0,.56,2.68,2.68,0,0,0-.07.56l-.06.56c0,.18-.05.37-.05.55s0,.38-.06.54,0,.39,0,.58a5.62,5.62,0,0,0-.06.56,5.29,5.29,0,0,1-.05.56c0,.18,0,.37-.06.56s0,.39-.06.55a5.46,5.46,0,0,1,0,.56c0,.21,0,.38-.05.56a2.16,2.16,0,0,0,0,.56,2.81,2.81,0,0,0-.06.56c0,.21,0,.39-.06.58s0,.35-.06.54,0,.37-.06.56,0,.37,0,.57-.06.38-.09.56,0,.38,0,.56a5.62,5.62,0,0,0-.06.56c0,.19,0,.35-.06.56s0,.35-.05.56,0,.37,0,.53,0,.4-.07.56,0,.39,0,.56,0,.38,0,.58,0,.35-.06.54,0,.39,0,.57a3.94,3.94,0,0,0-.07.55,5.23,5.23,0,0,1-.06.57c0,.18,0,.38,0,.57a2,2,0,0,1-.07.54,2.5,2.5,0,0,1,0,.56,5.51,5.51,0,0,0-.06.57c0,.18,0,.36,0,.56s-.05.37-.07.54,0,.39-.06.57,0,.37,0,.55-.06.38-.07.57,0,.36,0,.55-.06.38-.07.56a5.62,5.62,0,0,1-.06.56,3.57,3.57,0,0,0,0,.56,2.28,2.28,0,0,0-.06.56c0,.2,0,.37-.06.55s0,.4-.05.58,0,.38-.06.56,0,.38-.06.54a26,26,0,1,0,51.68,1,5.07,5.07,0,0,1-.05-.56,3.68,3.68,0,0,0-.06-.57,5.32,5.32,0,0,0-.06-.56,4.58,4.58,0,0,0-.06-.56c0-.18,0-.37,0-.55s-.06-.38-.08-.58a3.82,3.82,0,0,0-.06-.56,5.46,5.46,0,0,0,0-.56,5.11,5.11,0,0,1-.05-.55c0-.21,0-.38-.06-.56a4.08,4.08,0,0,0-.06-.58c0-.17,0-.35,0-.56a3.43,3.43,0,0,1-.06-.56c0-.18,0-.35,0-.56a3.73,3.73,0,0,1-.07-.56c0-.18,0-.37-.07-.56s0-.39,0-.56-.06-.39-.07-.58,0-.37,0-.55a4.8,4.8,0,0,0-.06-.56c0-.18,0-.37,0-.56a5.35,5.35,0,0,1-.07-.56c0-.19,0-.38-.05-.57a4.89,4.89,0,0,0-.05-.55,2.78,2.78,0,0,0-.07-.57c0-.18,0-.37,0-.55a5.35,5.35,0,0,1-.07-.56,5.7,5.7,0,0,0-.06-.58,4.75,4.75,0,0,1,0-.56,4.85,4.85,0,0,0-.08-.53c0-.21,0-.4,0-.59s0-.37,0-.55-.05-.38-.06-.56,0-.37-.05-.56,0-.4-.06-.56,0-.39-.05-.58,0-.37-.05-.58a2.52,2.52,0,0,0-.08-.53,4.86,4.86,0,0,0,0-.56,4.92,4.92,0,0,0,0-.56,4.08,4.08,0,0,1-.06-.58c0-.18,0-.38-.07-.56a3.62,3.62,0,0,0-.05-.55c0-.19,0-.37-.05-.56s0-.37-.05-.56l-.06-.58c0-.18,0-.35-.06-.56a5.35,5.35,0,0,0,0-.55c0-.19-.05-.38-.05-.56s0-.37-.05-.56,0-.37-.06-.58a3.82,3.82,0,0,0-.06-.56c0-.18,0-.37,0-.56s0-.39-.07-.55,0-.38-.05-.59,0-.34-.06-.53a3.2,3.2,0,0,0-.06-.56c0-.21,0-.37,0-.58s-.05-.37-.06-.56a5.09,5.09,0,0,1,0-.55,5.23,5.23,0,0,1-.06-.57c0-.18,0-.37-.07-.55a5.27,5.27,0,0,0,0-.57c0-.18,0-.37-.05-.56a5.54,5.54,0,0,1-.05-.56,3.3,3.3,0,0,0-.07-.56c0-.21,0-.39-.05-.55l-.06-.58c0-.19,0-.36,0-.56a5,5,0,0,0-.06-.56,2,2,0,0,0-.07-.56c0-.21,0-.38,0-.56a5.41,5.41,0,0,1-.07-.58c0-.16,0-.35-.05-.56a3.57,3.57,0,0,0-.07-.56c0-.18,0-.35,0-.56s-.05-.37-.06-.55,0-.38,0-.56a4,4,0,0,1-.06-.56c0-.21,0-.39-.06-.57s0-.36-.05-.57,0-.36-.06-.56,0-.37,0-.56,0-.38-.05-.56,0-.36-.05-.56,0-.38-.06-.56,0-.38-.05-.56,0-.37-.05-.56,0-.39-.07-.56a3.89,3.89,0,0,1,0-.58c0-.16-.05-.35-.07-.55a5.62,5.62,0,0,0-.06-.56,5.4,5.4,0,0,1,0-.56c0-.19-.05-.38-.08-.56a5.29,5.29,0,0,0-.05-.56c0-.19,0-.37-.05-.56a4.8,4.8,0,0,0-.06-.56,3.68,3.68,0,0,0,0-.58c0-.18,0-.37,0-.57s0-.36-.07-.54,0-.37-.05-.56,0-.39-.05-.57-.05-.37-.06-.56,0-.38-.06-.56,0-.37,0-.56-.05-.37-.08-.56a3.32,3.32,0,0,0,0-.55c0-.21-.05-.4-.06-.59s0-.37-.06-.55-.05-.37-.06-.54a5.16,5.16,0,0,0-.06-.58,3.52,3.52,0,0,0,0-.56c0-.21,0-.39-.05-.58a4.75,4.75,0,0,1-.05-.53,3,3,0,0,1-.05-.58,5,5,0,0,0-.06-.56c0-.19,0-.37-.07-.58a4.92,4.92,0,0,1,0-.56c0-.17,0-.37-.05-.54s-.05-.37-.06-.56a3.43,3.43,0,0,0-.06-.57c0-.19,0-.38,0-.58a4.34,4.34,0,0,1-.07-.55c0-.18,0-.36-.06-.55l-.06-.55a3.58,3.58,0,0,0-.05-.58,5.16,5.16,0,0,0,0-.54c0-.19,0-.41,0-.57l-.06-.56a5.42,5.42,0,0,0-.06-.58,2.86,2.86,0,0,0-.07-.56c0-.19,0-.36,0-.54s0-.37,0-.58-.05-.37-.07-.56,0-.37-.06-.58,0-.37,0-.56,0-.37-.07-.55,0-.36-.05-.56,0-.37-.05-.56a5.28,5.28,0,0,1,0-.58,4.41,4.41,0,0,1-.07-.54c0-.2,0-.37,0-.56s0-.37-.07-.57a5.14,5.14,0,0,0-.06-.55,5.46,5.46,0,0,0,0-.57c0-.18,0-.39-.06-.55s0-.38,0-.56,0-.37,0-.58a2.47,2.47,0,0,1-.06-.56c0-.18,0-.37-.07-.55a3.4,3.4,0,0,0,0-.57c0-.2,0-.37-.05-.55s-.06-.4-.07-.58a17.49,17.49,0,0,0-1.9-6.89,17.68,17.68,0,0,0-23.78-7.74"/><path class="cls-1" d="M6.55,125.69c.14.15.27.28.38.42a2.88,2.88,0,0,0,.36.4,2.18,2.18,0,0,0,.37.42c.13.16.26.3.36.44a5.14,5.14,0,0,0,.38.42c.1.15.25.3.35.43s.25.28.36.43l.36.4a4.06,4.06,0,0,1,.36.46,4.64,4.64,0,0,1,.38.39c.12.17.26.29.36.42a3.23,3.23,0,0,0,.38.43l.35.45a3.6,3.6,0,0,1,.37.41c.11.14.24.27.36.42a5.37,5.37,0,0,1,.37.44,4.64,4.64,0,0,1,.36.4,3.7,3.7,0,0,0,.37.41,2.25,2.25,0,0,0,.37.43,1.91,1.91,0,0,0,.36.43c.13.15.23.28.36.42s.25.28.36.42l.38.43.35.42.36.43c.13.15.26.28.38.43s.24.26.35.41.24.28.36.42.28.28.39.44.23.26.36.4.24.3.33.44a3.74,3.74,0,0,1,.39.42,5,5,0,0,0,.38.42,2.71,2.71,0,0,0,.36.41,3,3,0,0,0,.36.43,3.08,3.08,0,0,0,.37.42c.11.14.24.27.36.42a4.49,4.49,0,0,1,.35.44l.38.42a3.19,3.19,0,0,1,.34.43,2.42,2.42,0,0,1,.37.42,5.14,5.14,0,0,1,.38.42,3.84,3.84,0,0,1,.35.43c.13.14.25.25.38.41a5,5,0,0,0,.37.42c.11.15.24.28.34.43s.26.27.39.43a4.49,4.49,0,0,0,.37.4,2.78,2.78,0,0,0,.33.42,3.28,3.28,0,0,0,.4.42c.11.16.22.28.35.47a3.5,3.5,0,0,1,.37.39c.11.15.24.28.36.42s.25.28.36.44.23.28.36.4.26.28.38.44.23.28.36.42.24.3.36.44.24.26.36.42a4.86,4.86,0,0,0,.39.42c.1.14.21.26.33.42a4.4,4.4,0,0,1,.36.41l.39.43a2.79,2.79,0,0,0,.35.42c.14.13.24.28.38.43s.23.28.37.43A4.54,4.54,0,0,1,31,154c.11.15.26.28.39.43a4.59,4.59,0,0,0,.36.41,4.83,4.83,0,0,0,.37.42c.12.15.24.28.35.43s.25.28.36.43.25.28.39.43a2.3,2.3,0,0,0,.36.41,2.93,2.93,0,0,0,.38.43,2.55,2.55,0,0,0,.34.41,3.08,3.08,0,0,0,.37.42,4.82,4.82,0,0,0,.36.43,5.44,5.44,0,0,1,.36.43c.11.14.25.28.37.43l.37.41a3.59,3.59,0,0,0,.37.42c.1.16.24.28.34.44l.36.4c.14.17.27.28.38.43s.27.29.38.43a2.69,2.69,0,0,0,.36.42,3.76,3.76,0,0,0,.36.42c.1.14.24.28.36.42s.24.28.36.43.24.28.37.43a2.35,2.35,0,0,0,.36.41c.12.13.23.28.35.43a5.3,5.3,0,0,1,.38.43,4.17,4.17,0,0,1,.35.4c.13.16.27.28.39.43a2.42,2.42,0,0,0,.36.43c.13.13.22.28.36.43s.26.27.36.41L43,168c.1.15.25.28.37.43a3.33,3.33,0,0,0,.36.4c.11.16.23.28.36.44s.24.28.37.42.23.28.34.42.26.28.39.42a2.48,2.48,0,0,0,.37.43c.12.13.23.27.36.43s.23.28.35.4a3.83,3.83,0,0,0,.36.44c.15.14.26.29.38.42a3.58,3.58,0,0,0,.35.41,5.3,5.3,0,0,0,.38.43,3.82,3.82,0,0,0,.37.42,2.42,2.42,0,0,0,.35.44l.36.41c.13.15.24.28.38.42a2.83,2.83,0,0,0,.36.43,2.3,2.3,0,0,0,.36.41,3.73,3.73,0,0,0,.36.43c.12.15.25.3.37.43a2.86,2.86,0,0,0,.36.42c.13.14.26.29.37.43l.36.43.37.4c.13.18.25.3.35.44a3.76,3.76,0,0,1,.38.41,2.48,2.48,0,0,0,.37.43,4.87,4.87,0,0,0,.35.42l.37.42a3.59,3.59,0,0,0,.37.42,3.65,3.65,0,0,0,.36.44c.11.12.23.27.37.4l.34.45a2.25,2.25,0,0,1,.36.41A19.65,19.65,0,0,0,88,160.57a4.62,4.62,0,0,0-.28-.48c-.09-.15-.2-.32-.28-.49a2.52,2.52,0,0,1-.3-.45,3.48,3.48,0,0,0-.3-.48,3.64,3.64,0,0,0-.3-.46,5.42,5.42,0,0,0-.26-.48l-.29-.47c-.09-.18-.2-.34-.29-.49s-.2-.31-.29-.48a4.48,4.48,0,0,1-.28-.47c-.1-.17-.23-.31-.32-.48s-.18-.29-.25-.47-.2-.31-.33-.47l-.27-.47c-.08-.17-.2-.32-.28-.48a3.88,3.88,0,0,0-.29-.45,3.74,3.74,0,0,0-.3-.49,2.68,2.68,0,0,0-.28-.49c-.08-.16-.2-.31-.28-.46s-.2-.33-.28-.49-.21-.31-.31-.47a2.19,2.19,0,0,0-.3-.47,3.14,3.14,0,0,0-.28-.46c-.08-.2-.19-.32-.26-.49s-.2-.32-.31-.48-.2-.31-.28-.47a4.51,4.51,0,0,1-.28-.49l-.3-.46c-.09-.19-.18-.31-.28-.49a2.68,2.68,0,0,1-.29-.47,3.24,3.24,0,0,1-.28-.47c-.08-.16-.21-.3-.3-.46s-.18-.32-.28-.49a4.43,4.43,0,0,1-.29-.46l-.29-.47-.28-.49c-.09-.16-.21-.32-.29-.46s-.21-.32-.3-.49l-.29-.47a4.39,4.39,0,0,1-.27-.47,2.59,2.59,0,0,0-.32-.47c-.07-.17-.19-.31-.28-.48s-.18-.32-.28-.49-.2-.3-.29-.46-.18-.32-.27-.47-.22-.33-.31-.49-.2-.3-.28-.46-.2-.31-.28-.49a3.52,3.52,0,0,1-.28-.46,5,5,0,0,1-.3-.48c-.1-.15-.2-.32-.3-.46a2.18,2.18,0,0,0-.29-.49c-.08-.17-.19-.3-.28-.47s-.19-.32-.28-.48l-.3-.47c-.08-.16-.21-.31-.28-.48a5.35,5.35,0,0,1-.29-.47,5.11,5.11,0,0,0-.29-.48c-.08-.17-.19-.31-.29-.48a2.14,2.14,0,0,0-.3-.44c-.08-.18-.19-.34-.28-.51a2.63,2.63,0,0,1-.27-.47c-.11-.17-.21-.3-.31-.46s-.19-.32-.26-.47-.21-.31-.3-.49l-.3-.48c-.07-.15-.18-.31-.27-.46s-.21-.32-.28-.49-.21-.31-.3-.46-.2-.32-.28-.46-.2-.34-.3-.49-.19-.3-.28-.48l-.3-.47a5.3,5.3,0,0,0-.28-.47l-.28-.48c-.09-.17-.22-.31-.3-.47a5.3,5.3,0,0,0-.28-.47c-.1-.16-.18-.3-.28-.49s-.21-.3-.3-.47-.21-.31-.3-.48-.19-.3-.27-.47a3.82,3.82,0,0,1-.29-.48c-.11-.17-.2-.3-.29-.45s-.2-.33-.3-.5-.18-.3-.27-.46-.2-.32-.28-.49l-.28-.46-.31-.47a2.7,2.7,0,0,1-.27-.5,3.58,3.58,0,0,1-.31-.45c-.07-.16-.2-.32-.29-.49s-.19-.3-.29-.48-.19-.29-.3-.47a4.34,4.34,0,0,0-.28-.46c-.08-.17-.19-.31-.28-.48l-.28-.46c-.08-.17-.21-.34-.3-.49a3.72,3.72,0,0,1-.27-.49c-.1-.14-.2-.3-.31-.44a3.4,3.4,0,0,0-.29-.48c-.07-.17-.2-.33-.27-.49s-.2-.3-.31-.48-.19-.3-.27-.46-.19-.33-.29-.49-.2-.3-.29-.45-.21-.31-.29-.48-.2-.32-.28-.49-.18-.29-.3-.48-.18-.3-.28-.45a3.26,3.26,0,0,0-.3-.48,4.48,4.48,0,0,0-.28-.47,4.55,4.55,0,0,0-.3-.49c-.09-.16-.17-.31-.27-.47s-.2-.32-.28-.47-.2-.34-.29-.48a3.76,3.76,0,0,0-.3-.47c-.09-.19-.19-.32-.27-.48s-.2-.32-.29-.47-.21-.3-.31-.49-.18-.29-.28-.46-.21-.31-.28-.48a2.88,2.88,0,0,1-.3-.47c-.08-.17-.19-.31-.29-.48a3.87,3.87,0,0,0-.28-.47c-.08-.15-.18-.32-.28-.48s-.2-.3-.31-.47-.19-.29-.27-.48-.2-.3-.28-.47a4.45,4.45,0,0,0-.32-.48c-.07-.17-.18-.3-.27-.47s-.19-.31-.28-.48A5,5,0,0,0,50,98l-.27-.48c-.1-.18-.2-.31-.3-.48s-.21-.32-.3-.49a3.88,3.88,0,0,0-.27-.46A26,26,0,1,0,6.22,125.26c.11.15.24.28.33.43"/><path class="cls-1" d="M92.84,133.42l.51.2a2.7,2.7,0,0,0,.53.22,2.78,2.78,0,0,0,.49.22c.16.1.35.15.49.23l.52.22c.16.08.34.15.52.22a5.16,5.16,0,0,0,.49.21l.5.22c.15.08.35.15.52.23l.48.2c.18.09.36.16.51.22s.35.15.52.22.34.16.49.23l.52.22a3.22,3.22,0,0,0,.51.21c.17.07.33.15.52.22l.49.23c.16.08.34.13.49.22l.51.21a2.33,2.33,0,0,0,.49.21c.18.1.35.16.51.25s.33.13.52.21.34.12.53.22.32.13.49.22l.48.21c.17.09.36.15.53.24a2.32,2.32,0,0,1,.48.21,3.66,3.66,0,0,1,.51.21,4.36,4.36,0,0,0,.52.21c.16.09.33.15.51.23s.33.14.49.21a3.54,3.54,0,0,0,.53.23c.13.07.33.14.47.23s.35.15.55.21l.47.24a2.72,2.72,0,0,1,.5.19l.52.23a3.71,3.71,0,0,1,.5.23,3.37,3.37,0,0,1,.49.2l.53.22.51.23a4.53,4.53,0,0,0,.49.2,3.05,3.05,0,0,0,.5.22,4.83,4.83,0,0,0,.52.23c.18.09.34.14.5.22s.34.15.51.22.34.13.49.21a3.67,3.67,0,0,0,.53.22c.15.09.33.15.48.24a4.55,4.55,0,0,0,.51.21c.16.09.34.12.51.22a3.39,3.39,0,0,0,.51.2c.17.1.34.15.49.24a4.86,4.86,0,0,1,.51.23,3.77,3.77,0,0,1,.52.21c.14.07.32.14.49.21l.51.23c.16.07.34.13.5.21s.35.14.51.22l.51.22c.16.08.35.15.51.22a2,2,0,0,0,.51.21c.15.08.31.15.5.23a2.59,2.59,0,0,0,.5.21l.51.23.52.23c.16,0,.32.15.5.22a5.32,5.32,0,0,1,.5.21l.49.21a4.24,4.24,0,0,0,.51.21c.17.09.34.15.51.25a3.48,3.48,0,0,1,.48.21c.2.06.35.14.53.21a3.12,3.12,0,0,1,.49.23,3,3,0,0,1,.52.2c.15.09.33.15.5.24a3.68,3.68,0,0,1,.49.23c.19.07.34.12.52.2l.51.22.51.23a5.27,5.27,0,0,1,.49.22l.5.2a3.61,3.61,0,0,0,.5.23c.17.07.34.15.54.22a3.44,3.44,0,0,0,.49.21c.17.09.33.14.51.24s.32.15.51.22.31.15.48.21.33.14.51.2l.52.22a3.42,3.42,0,0,0,.51.23,3.15,3.15,0,0,0,.49.22l.53.23.5.21.5.23c.17.06.34.14.49.21l.52.22a3.54,3.54,0,0,0,.51.22,4.23,4.23,0,0,1,.48.23,2.62,2.62,0,0,1,.52.22c.15.06.33.11.52.2a5,5,0,0,0,.48.21,5.44,5.44,0,0,0,.5.24,3.54,3.54,0,0,1,.53.23c.16.07.33.12.49.2s.34.13.5.22l.53.23c.14.07.33.14.48.22l.51.22.51.21c.16.07.36.14.51.22s.33.15.48.23.38.14.52.2.33.17.5.24.34.15.54.2l.49.23a5.11,5.11,0,0,1,.48.22c.19.07.36.16.52.23a4.36,4.36,0,0,1,.51.22l.5.2.51.23a3.78,3.78,0,0,1,.5.22,3.86,3.86,0,0,0,.51.2,4.23,4.23,0,0,0,.5.23,3.27,3.27,0,0,0,.51.22,5.11,5.11,0,0,0,.48.22c.18.1.35.13.53.21l.49.22c.19.08.36.17.53.23s.32.14.49.24a2.85,2.85,0,0,1,.51.2l.49.23c.19.1.36.13.51.2a4.61,4.61,0,0,0,.51.22c.19.1.34.15.5.24l.52.21a5.45,5.45,0,0,1,.51.23c.16.05.32.14.5.21s.32.14.48.21.35.15.54.25.31.12.5.2l.5.22c.14.05.34.13.51.21s.31.15.5.22.33.15.49.22.37.15.52.23a5.21,5.21,0,0,0,.5.2c.17.09.32.15.51.23a4.52,4.52,0,0,1,.5.23l.52.21a4.7,4.7,0,0,0,.5.21c.17.09.34.14.49.22l.52.22a4.37,4.37,0,0,1,.49.23c.18.09.36.12.52.22l.49.2a26,26,0,1,0,17-48.82l-.55-.11c-.17,0-.36-.1-.54-.13a4.71,4.71,0,0,0-.54-.11,4.9,4.9,0,0,0-.55-.13l-.54-.12-.53-.12a4.87,4.87,0,0,1-.52-.12c-.2,0-.39-.07-.56-.13a3,3,0,0,1-.54-.1,3.48,3.48,0,0,0-.56-.12,3.52,3.52,0,0,0-.53-.11c-.16-.06-.34-.09-.54-.15s-.36-.06-.52-.11-.37-.07-.55-.12l-.55-.11c-.17-.05-.34-.07-.52-.12a4.22,4.22,0,0,0-.55-.12l-.54-.13a3.43,3.43,0,0,1-.57-.12c-.17,0-.35-.09-.53-.12l-.52-.11c-.2,0-.36-.09-.53-.14l-.56-.1a4,4,0,0,1-.52-.14,5.54,5.54,0,0,1-.56-.11l-.56-.12-.52-.11c-.18-.07-.36-.08-.55-.14l-.51-.11-.55-.11c-.18-.06-.38-.08-.54-.13a1.83,1.83,0,0,1-.56-.13c-.17,0-.34-.08-.54-.11l-.54-.11a5.18,5.18,0,0,1-.53-.14l-.54-.1c-.18,0-.35-.08-.54-.14a5,5,0,0,1-.53-.11l-.55-.11L167,114l-.54-.11a3.58,3.58,0,0,0-.53-.11,3.39,3.39,0,0,0-.55-.13c-.2-.06-.35-.08-.52-.14l-.56-.11-.52-.11a2.71,2.71,0,0,0-.55-.12,4.45,4.45,0,0,1-.55-.14l-.53-.11a4.9,4.9,0,0,1-.55-.13l-.53-.11a3.05,3.05,0,0,1-.54-.14,3.7,3.7,0,0,1-.54-.11l-.54-.09c-.19-.06-.35-.08-.56-.15s-.35-.07-.52-.12-.38-.06-.54-.1a5.66,5.66,0,0,0-.56-.13,3.34,3.34,0,0,1-.52-.14l-.54-.09a5.05,5.05,0,0,0-.56-.12l-.53-.13a5.23,5.23,0,0,1-.54-.12c-.18,0-.38-.07-.54-.12a4.68,4.68,0,0,0-.54-.1,2.59,2.59,0,0,0-.55-.13c-.17,0-.36-.07-.52-.13l-.53-.11c-.19-.06-.38-.1-.56-.14a4.45,4.45,0,0,1-.55-.11,5,5,0,0,0-.53-.12l-.55-.11a2.48,2.48,0,0,0-.54-.12l-.52-.12-.54-.14-.55-.11a4.12,4.12,0,0,0-.57-.11c-.15-.06-.34-.07-.51-.13a4.72,4.72,0,0,1-.54-.13c-.18,0-.35-.08-.54-.1a3.57,3.57,0,0,0-.55-.11c-.17-.07-.35-.09-.53-.15l-.55-.11a5.23,5.23,0,0,1-.54-.12l-.55-.12a5,5,0,0,0-.53-.11l-.53-.14a3.22,3.22,0,0,1-.54-.1,5.17,5.17,0,0,0-.54-.11A4,4,0,0,0,140,108c-.17,0-.37-.07-.55-.12a4.84,4.84,0,0,0-.55-.11c-.14,0-.33-.08-.51-.14s-.37,0-.55-.09l-.54-.15c-.18,0-.35-.06-.55-.11a4,4,0,0,1-.52-.13c-.2,0-.38-.06-.55-.11l-.54-.13-.55-.12-.53-.11a4.71,4.71,0,0,1-.54-.12,3.64,3.64,0,0,0-.53-.12c-.19,0-.36-.09-.54-.11a2.68,2.68,0,0,0-.55-.11,3.17,3.17,0,0,0-.55-.15c-.17,0-.36-.07-.55-.11l-.51-.11-.55-.13a5.18,5.18,0,0,1-.53-.14,3.53,3.53,0,0,1-.55-.1,4.26,4.26,0,0,1-.54-.14,4.34,4.34,0,0,1-.54-.09c-.18-.06-.38-.09-.52-.13a5.78,5.78,0,0,1-.57-.12c-.17,0-.36-.08-.54-.12s-.36-.07-.53-.12a3.27,3.27,0,0,1-.56-.13l-.53-.1-.54-.14-.52-.11c-.19,0-.38-.07-.56-.13a3.27,3.27,0,0,1-.54-.13,4,4,0,0,1-.52-.11,2.67,2.67,0,0,1-.55-.11l-.54-.13a4.85,4.85,0,0,0-.55-.09,2.52,2.52,0,0,0-.54-.14c-.18,0-.38-.07-.55-.12l-.52-.12c-.19,0-.37-.09-.55-.11a5.23,5.23,0,0,0-.54-.12,3,3,0,0,0-.54-.12c-.18-.06-.36-.07-.54-.13a4.23,4.23,0,0,0-.56-.12l-.52-.12-.55-.11c-.18-.05-.36-.08-.52-.14a2.44,2.44,0,0,1-.55-.12L113,102a4.27,4.27,0,0,0-.54-.13,2.86,2.86,0,0,0-.54-.11,2.78,2.78,0,0,0-.55-.13,4.36,4.36,0,0,0-.52-.11,3.16,3.16,0,0,0-.55-.13l-.56-.11c-.17,0-.32-.09-.52-.13l-.53-.12c-.18-.05-.37-.07-.56-.12l-.52-.12c-.19,0-.36-.09-.54-.11a3.86,3.86,0,0,1-.54-.14c-.19,0-.36-.06-.55-.12s-.37-.07-.54-.09-.35-.09-.53-.14a3.82,3.82,0,0,0-.55-.11,17.46,17.46,0,0,0-7.14-.35,17.69,17.69,0,0,0-4.33,33.68"/><path class="cls-1" d="M113.88,305.24a19.64,19.64,0,0,0-10.17-.53,5.54,5.54,0,0,1-.55.14,3.29,3.29,0,0,0-.56.15,4.76,4.76,0,0,0-.52.1c-.21,0-.37.1-.55.14s-.37.09-.56.13-.33.09-.53.13-.37.09-.56.11a2.5,2.5,0,0,1-.54.13c-.18.05-.36.11-.54.15s-.36.09-.54.12a3,3,0,0,0-.55.14l-.54.11a4,4,0,0,1-.55.13l-.54.13-.54.13c-.19,0-.36.1-.54.11l-.54.15a3.65,3.65,0,0,0-.55.13c-.19,0-.37.08-.56.11l-.54.13c-.19,0-.36.1-.55.13a4,4,0,0,1-.55.13,4.61,4.61,0,0,0-.53.15,2,2,0,0,0-.54.11,5.29,5.29,0,0,0-.54.13c-.18,0-.37.1-.54.13l-.56.12a4.77,4.77,0,0,1-.54.15c-.18,0-.37.09-.55.11s-.36.09-.53.13l-.55.13a3.87,3.87,0,0,0-.53.15,5,5,0,0,0-.56.11c-.19,0-.35.09-.55.13s-.36.09-.54.11-.36.09-.54.13a14.49,14.49,0,0,0-1.09.28c-.19,0-.35.09-.55.11s-.35.1-.53.13a5.07,5.07,0,0,0-.56.13l-.54.13a4.86,4.86,0,0,1-.55.11,3.87,3.87,0,0,1-.53.15,3,3,0,0,0-.54.13,3.15,3.15,0,0,0-.55.12c-.18,0-.36.09-.54.13s-.37.09-.56.12L77,311c-.18,0-.36.09-.55.12a5.52,5.52,0,0,1-.54.12c-.2.06-.36.09-.53.15s-.37.09-.56.12-.36.08-.54.14a3.89,3.89,0,0,0-.55.12c-.17,0-.36.08-.54.12a5.35,5.35,0,0,1-.55.11,3.21,3.21,0,0,1-.53.15c-.18,0-.35.09-.54.13s-.36.09-.56.13-.35.09-.54.11a4.72,4.72,0,0,1-.54.13c-.19,0-.36.1-.55.13l-.53.13a5.7,5.7,0,0,0-.55.16,5.3,5.3,0,0,0-.55.1c-.19.06-.37.07-.53.13s-.36.1-.55.13l-.54.13-.56.14c-.18,0-.35.09-.54.12a4.9,4.9,0,0,0-.56.13l-.53.12c-.17,0-.36.09-.54.12a2.76,2.76,0,0,1-.55.14,3.16,3.16,0,0,0-.53.13,2,2,0,0,0-.55.15,2.44,2.44,0,0,0-.54.09,3.65,3.65,0,0,1-.55.13l-.54.15a4.29,4.29,0,0,0-.54.11c-.18,0-.36.1-.56.13l-.56.13c-.16,0-.34.1-.52.13l-.55.13-.55.14-.52.12c-.2,0-.38.09-.55.11l-.54.15a3,3,0,0,0-.55.13,2.78,2.78,0,0,0-.55.14,2.71,2.71,0,0,0-.55.12c-.18,0-.36.08-.56.11s-.33.08-.52.14l-.55.12-.55.14c-.18,0-.34.09-.56.12s-.34.1-.53.12a2.76,2.76,0,0,0-.56.15,4.94,4.94,0,0,0-.53.1l-.53.14-.54.13a5.66,5.66,0,0,0-.56.13c-.18,0-.34.07-.53.11s-.37.1-.55.15a5.35,5.35,0,0,1-.55.11c-.18.05-.36.11-.54.15a3.63,3.63,0,0,0-.57.13l-.52.11-.53.14-.57.12-.52.14c-.18,0-.37.09-.57.12a4.46,4.46,0,0,1-.55.11c-.18,0-.34.12-.52.16l-.54.1-.55.14-.55.13-.54.15a1.62,1.62,0,0,0-.54.11c-.19,0-.38.1-.56.12s-.34.1-.53.14-.35.09-.53.11l-.55.13a2.63,2.63,0,0,1-.57.13,4,4,0,0,1-.52.14l-.56.12-.55.13a4.61,4.61,0,0,0-.53.15c-.16,0-.36.07-.54.11a5.07,5.07,0,0,0-.56.13,2.16,2.16,0,0,0-.53.13,5.23,5.23,0,0,0-.54.12l-.55.14a3.92,3.92,0,0,0-.54.12,26,26,0,0,0-3.31,50.29,25.71,25.71,0,0,0,17.91-.71,4.15,4.15,0,0,0,.53-.2l.51-.23a3.4,3.4,0,0,0,.51-.22,4.48,4.48,0,0,0,.53-.21l.53-.22.51-.22.52-.23a3.65,3.65,0,0,0,.53-.2l.5-.22a4.55,4.55,0,0,0,.51-.21l.53-.22.54-.23a5,5,0,0,0,.49-.22c.18-.08.37-.12.55-.22a2.81,2.81,0,0,0,.48-.21,4,4,0,0,0,.54-.21l.52-.21.51-.23a4.72,4.72,0,0,0,.54-.22l.52-.2c.15-.09.34-.15.5-.23s.35-.15.53-.21l.51-.21.51-.23c.18-.08.35-.14.51-.23a3.65,3.65,0,0,0,.53-.19l.52-.23c.16-.08.35-.15.52-.22s.34-.16.52-.21.35-.16.51-.22.35-.15.53-.21l.52-.24c.17,0,.35-.14.5-.2l.55-.23A4.13,4.13,0,0,0,63,364c.19-.06.36-.15.54-.21l.49-.21.53-.21.51-.23.54-.22.53-.2c.17-.1.33-.16.49-.25a2.33,2.33,0,0,0,.52-.2l.53-.23c.18-.05.35-.14.52-.2s.33-.15.52-.22.33-.14.54-.21l.5-.22a3,3,0,0,0,.51-.24c.16-.07.36-.12.53-.21a5.12,5.12,0,0,0,.5-.22c.18-.06.36-.15.54-.2a3,3,0,0,1,.52-.21,4,4,0,0,1,.51-.23,3.89,3.89,0,0,1,.51-.21,4.87,4.87,0,0,1,.53-.21c.17-.08.33-.17.51-.24s.35-.16.54-.23l.49-.2c.17-.06.36-.15.55-.23a5,5,0,0,0,.49-.2c.18-.09.35-.15.53-.22s.36-.13.51-.22l.52-.23a3.42,3.42,0,0,0,.51-.23,3.7,3.7,0,0,0,.52-.2c.17-.06.36-.15.53-.2s.35-.17.52-.23l.51-.22.54-.23.49-.2.53-.22c.19-.08.36-.13.53-.22a3,3,0,0,0,.52-.24c.17,0,.33-.14.51-.19l.5-.23.54-.2c.16-.08.36-.15.52-.22a4.5,4.5,0,0,1,.51-.2c.15-.08.35-.16.51-.26a2.66,2.66,0,0,0,.53-.21c.18-.06.36-.15.52-.21a4.4,4.4,0,0,1,.5-.21l.55-.21c.16-.09.32-.14.5-.23a3.89,3.89,0,0,0,.53-.21l.51-.23a4.74,4.74,0,0,0,.52-.24,5.09,5.09,0,0,0,.53-.2l.51-.2.52-.23.53-.21.5-.21.52-.23a2.91,2.91,0,0,0,.51-.22c.17-.08.36-.13.53-.2s.32-.16.51-.23l.52-.2c.2-.1.35-.15.52-.25a4.65,4.65,0,0,0,.52-.2c.18-.07.33-.15.53-.22s.33-.15.52-.21.33-.15.5-.22.36-.15.52-.21.35-.16.53-.22.36-.15.53-.22l.49-.22c.19-.08.36-.14.54-.23a5.15,5.15,0,0,0,.52-.21l.5-.22c.19-.06.35-.15.53-.2l.52-.23a5.49,5.49,0,0,1,.51-.21l.52-.23.53-.21.52-.22.51-.22c.17-.05.36-.15.52-.21l.52-.22.53-.23.51-.2c.17-.07.33-.15.52-.22a5.49,5.49,0,0,1,.51-.21c.18-.07.34-.16.52-.24s.34-.13.51-.2.35-.16.53-.23a3.31,3.31,0,0,0,.52-.23,4.45,4.45,0,0,0,.51-.19,2.64,2.64,0,0,1,.54-.21,2.94,2.94,0,0,1,.51-.23l.51-.21c.16-.08.34-.14.52-.23a3.51,3.51,0,0,0,.51-.23,5.62,5.62,0,0,0,.53-.19l.5-.25a19.62,19.62,0,0,0-1-37"/><path class="cls-1" d="M133.38,230.62a3.73,3.73,0,0,1,.39-.4,5,5,0,0,1,.34-.43c.14-.15.24-.28.37-.4a2.86,2.86,0,0,0,.36-.42,2.57,2.57,0,0,0,.34-.4l.39-.42.36-.39.34-.4A25.73,25.73,0,0,0,143,213.62a26,26,0,0,0-47.94-17.46c-.12.15-.18.31-.29.47a2.87,2.87,0,0,0-.28.48c-.09.13-.16.3-.27.46A4.48,4.48,0,0,1,94,198a4.34,4.34,0,0,1-.28.46c-.09.18-.18.32-.27.47s-.18.34-.3.48a4,4,0,0,1-.27.47c-.09.15-.17.32-.26.49s-.19.29-.29.44a4.44,4.44,0,0,0-.25.48,3.3,3.3,0,0,0-.27.47c-.13.17-.21.32-.31.47s-.16.31-.28.48-.19.31-.27.47-.18.31-.28.46-.19.32-.29.48-.18.3-.27.47-.18.32-.28.46l-.26.46c-.11.18-.2.32-.29.49l-.27.49c-.09.14-.17.29-.28.44s-.17.34-.26.49-.2.32-.3.46-.17.33-.27.49-.18.3-.28.44-.19.34-.29.51-.18.29-.28.47l-.28.46a4.46,4.46,0,0,1-.27.45c-.08.16-.16.33-.26.49a5.11,5.11,0,0,0-.28.46c-.1.14-.18.31-.29.48l-.26.46c-.1.16-.19.34-.29.49s-.19.3-.28.44a3,3,0,0,1-.29.48c-.09.15-.16.33-.26.49A3.43,3.43,0,0,0,84,215a2.34,2.34,0,0,0-.28.47l-.28.46c-.09.14-.17.31-.3.48a3.37,3.37,0,0,1-.25.45,3.64,3.64,0,0,1-.28.47l-.28.48c-.1.17-.18.31-.28.46a5.46,5.46,0,0,1-.27.48,4.39,4.39,0,0,0-.27.47c-.11.15-.19.32-.29.46l-.27.49c-.11.15-.19.3-.29.46l-.27.47-.28.49a4.92,4.92,0,0,1-.29.46,4.39,4.39,0,0,1-.27.47c-.09.14-.18.31-.28.47a5.11,5.11,0,0,1-.28.46l-.27.49c-.09.14-.17.3-.28.47l-.28.47-.27.45c-.1.17-.18.34-.28.48s-.18.32-.27.46-.19.35-.28.49-.18.32-.28.47a3.18,3.18,0,0,0-.28.48,5.3,5.3,0,0,0-.28.47c-.1.14-.19.3-.28.44a2.65,2.65,0,0,1-.28.47c-.08.18-.19.34-.26.48l-.3.49a3.37,3.37,0,0,0-.25.46c-.1.15-.19.31-.3.48s-.19.3-.26.46-.19.31-.28.47a4.66,4.66,0,0,0-.27.47c-.11.15-.2.32-.31.49s-.18.31-.27.48a4.68,4.68,0,0,0-.27.44,3.17,3.17,0,0,0-.27.47q-.14.25-.27.48c-.11.15-.2.32-.31.47l-.25.47c-.11.16-.18.33-.29.48s-.18.31-.29.47a3.38,3.38,0,0,1-.27.48c-.08.15-.19.31-.27.45s-.17.33-.29.48l-.26.46a3.9,3.9,0,0,0-.28.49c-.09.13-.19.32-.28.46s-.17.3-.25.47l-.29.46a4.94,4.94,0,0,1-.3.49c-.09.13-.17.32-.27.44s-.18.35-.27.49-.18.32-.28.46-.2.32-.29.49a2.92,2.92,0,0,0-.28.47,3,3,0,0,0-.26.46c-.1.17-.19.31-.28.48a5.26,5.26,0,0,0-.27.47c-.09.13-.19.31-.3.46a5.22,5.22,0,0,1-.26.47,3.77,3.77,0,0,0-.26.48l-.29.46-.29.47c-.1.17-.18.32-.26.47a3.43,3.43,0,0,0-.28.49,1.52,1.52,0,0,0-.28.48c-.12.14-.2.3-.3.44s-.17.33-.26.49-.18.31-.29.46a2.16,2.16,0,0,1-.26.47,2,2,0,0,1-.3.48l-.27.48c-.09.14-.17.28-.27.45l-.28.48c-.1.16-.18.3-.29.45s-.18.34-.28.5-.16.31-.25.45a3.68,3.68,0,0,0-.29.49c-.09.14-.18.32-.28.46s-.18.32-.27.47-.18.32-.26.46-.19.33-.3.49-.19.33-.28.47-.19.3-.26.46a3.3,3.3,0,0,0-.28.49,4.1,4.1,0,0,0-.31.46c-.07.15-.18.31-.26.47a5.3,5.3,0,0,0-.28.47,3,3,0,0,0-.25.47,3.76,3.76,0,0,0-.3.47c-.09.16-.18.31-.28.46s-.19.32-.28.49a3.42,3.42,0,0,0-.26.46l-.29.46a4.87,4.87,0,0,1-.28.47c-.1.17-.18.34-.28.49a2.73,2.73,0,0,0-.27.48c-.08.15-.18.29-.29.46a4.21,4.21,0,0,1-.28.45c-.08.17-.18.32-.27.48a4.15,4.15,0,0,1-.27.47c-.11.17-.18.34-.28.48l-.28.47a3.21,3.21,0,0,1-.29.46,4.76,4.76,0,0,1-.28.49l-.25.46a2.74,2.74,0,0,0-.29.49c-.08.15-.19.3-.29.45s-.17.32-.27.48-.19.31-.27.47a5.3,5.3,0,0,0-.29.49,3.14,3.14,0,0,0-.26.46,4.34,4.34,0,0,0-.28.46,17.67,17.67,0,0,0,28.13,21.2,4.4,4.4,0,0,0,.36-.41,2.33,2.33,0,0,0,.37-.41c.12-.13.24-.28.37-.4a2.73,2.73,0,0,1,.36-.39c.12-.16.24-.28.36-.42a4.58,4.58,0,0,1,.35-.42c.13-.12.24-.26.39-.4l.33-.41c.14-.14.25-.28.37-.41s.22-.28.35-.43l.36-.38.37-.42.37-.41.35-.4.36-.39c.12-.14.23-.28.38-.43s.22-.27.35-.41a2.24,2.24,0,0,0,.34-.4c.12-.12.24-.27.39-.4s.21-.26.33-.41.26-.28.37-.41l.36-.41a3.62,3.62,0,0,1,.38-.41A2.52,2.52,0,0,1,88,282a5,5,0,0,1,.34-.43,2.36,2.36,0,0,0,.36-.42,4.44,4.44,0,0,0,.37-.38c.12-.13.24-.3.37-.43s.24-.24.36-.39.23-.27.34-.41.25-.28.37-.41l.38-.4c.11-.14.23-.27.34-.4a4.32,4.32,0,0,0,.35-.42,2.94,2.94,0,0,0,.36-.42,2.75,2.75,0,0,0,.37-.39c.12-.14.25-.28.37-.4a4.64,4.64,0,0,1,.37-.42l.34-.41a4.86,4.86,0,0,0,.37-.4c.13-.14.23-.26.36-.42a4.44,4.44,0,0,1,.37-.38l.33-.41c.12-.15.26-.28.37-.42s.23-.28.36-.4.24-.28.37-.41l.36-.41.36-.41c.13-.15.23-.28.37-.43a2.52,2.52,0,0,1,.35-.39,4.32,4.32,0,0,0,.34-.39c.13-.15.25-.28.37-.43s.25-.28.37-.39a2.41,2.41,0,0,1,.37-.41,2.88,2.88,0,0,0,.33-.43,2.6,2.6,0,0,0,.36-.39c.15-.14.26-.28.39-.41l.35-.41a4.73,4.73,0,0,1,.38-.41q.15-.19.33-.39c.15-.15.25-.29.37-.43s.25-.26.37-.4l.34-.41c.13-.14.24-.29.37-.42a3.46,3.46,0,0,0,.36-.39c.13-.13.23-.27.37-.4s.23-.29.34-.42.26-.26.38-.4.24-.28.34-.42.25-.26.37-.4l.36-.39c.13-.16.23-.28.36-.42a5,5,0,0,0,.36-.42,2.64,2.64,0,0,0,.35-.4c.13-.14.25-.29.39-.42l.33-.39a4.64,4.64,0,0,0,.37-.42l.37-.39c.11-.14.24-.27.36-.42s.23-.26.36-.4a5,5,0,0,0,.36-.42,2.72,2.72,0,0,1,.37-.39c.12-.13.21-.28.34-.4s.24-.29.36-.44l.36-.39c.13-.12.24-.28.37-.41a5,5,0,0,0,.36-.41c.11-.12.24-.28.36-.4a4.46,4.46,0,0,0,.34-.42,2.69,2.69,0,0,0,.37-.39c.14-.15.24-.28.37-.43s.23-.25.38-.39.21-.28.32-.42a4.55,4.55,0,0,0,.38-.39,5,5,0,0,1,.36-.42c.11-.12.23-.28.35-.4s.24-.28.38-.41.22-.29.35-.42.23-.26.36-.4l.37-.42.34-.38a2.56,2.56,0,0,0,.36-.44,4.59,4.59,0,0,0,.37-.39c.12-.14.25-.28.37-.4a1.42,1.42,0,0,1,.37-.41c.11-.13.21-.26.35-.41s.23-.28.34-.39a3.19,3.19,0,0,0,.37-.44,4.26,4.26,0,0,1,.35-.38c.13-.13.25-.28.37-.41a2.78,2.78,0,0,1,.36-.41,3.7,3.7,0,0,1,.37-.41c.11-.15.24-.28.35-.43s.24-.26.38-.39.2-.27.32-.41a2.53,2.53,0,0,0,.38-.42c.14-.12.23-.27.36-.4s.24-.26.36-.39.23-.28.35-.41l.37-.42a4.64,4.64,0,0,0,.36-.4l.36-.41.37-.41.35-.4c.11-.14.24-.27.37-.41a4.64,4.64,0,0,1,.37-.42,4.47,4.47,0,0,0,.34-.4c.14-.14.25-.28.37-.42s.23-.27.34-.39a4.75,4.75,0,0,0,.38-.4c.11-.12.23-.28.36-.42s.22-.27.34-.4a2.93,2.93,0,0,0,.36-.43,1.87,1.87,0,0,0,.36-.39,2.24,2.24,0,0,0,.37-.41c.13-.14.25-.26.37-.41s.24-.26.37-.4a2.21,2.21,0,0,1,.36-.4c.1-.15.23-.28.34-.43s.23-.28.36-.39.23-.28.37-.41.23-.28.35-.4.24-.27.36-.4a4.56,4.56,0,0,0,.36-.43c.14-.12.25-.28.38-.38s.24-.28.35-.44.25-.28.36-.39l.34-.41A4.86,4.86,0,0,0,133,231a3,3,0,0,0,.34-.4"/><path class="cls-1" d="M291,410.42a5.52,5.52,0,0,1,0-.58c0-.16-.06-.37-.08-.56a5.09,5.09,0,0,0,0-.55,4.93,4.93,0,0,0-.06-.58,2.63,2.63,0,0,0,0-.57c0-.19,0-.38,0-.56s0-.38-.05-.58,0-.37,0-.58,0-.37,0-.56a4.08,4.08,0,0,0-.06-.58l0-.57a4,4,0,0,0-.06-.56c0-.19,0-.39,0-.55a3.56,3.56,0,0,0-.06-.58c0-.19,0-.37,0-.56s0-.37-.07-.58,0-.37,0-.56a4.08,4.08,0,0,1-.06-.58c0-.18,0-.37-.05-.56s0-.37-.05-.57,0-.37,0-.56,0-.39,0-.57,0-.37-.06-.58,0-.36-.05-.56a5.28,5.28,0,0,0,0-.58c0-.19,0-.39-.05-.58s0-.37,0-.54-.07-.39-.07-.58,0-.38,0-.57-.07-.39-.07-.56,0-.36-.06-.57,0-.37,0-.58,0-.37,0-.58a4.86,4.86,0,0,1-.05-.56,3.52,3.52,0,0,1,0-.56c0-.19,0-.39-.07-.56s0-.4,0-.58,0-.38-.05-.57a3.56,3.56,0,0,0,0-.57,5.54,5.54,0,0,1-.05-.56,5158710775108.58,5158710775108.58,0,0,0-.1-1.16c0-.19-.05-.38-.05-.56s0-.37-.05-.57a5.33,5.33,0,0,0,0-.56,2.89,2.89,0,0,1-.06-.56c0-.21,0-.39,0-.58a3.68,3.68,0,0,1-.05-.58,3.28,3.28,0,0,1,0-.56,3.68,3.68,0,0,1-.06-.57,5.07,5.07,0,0,0-.05-.56c0-.21,0-.38-.07-.57a5.59,5.59,0,0,0,0-.57c0-.2,0-.36,0-.57s-.05-.37-.05-.58a3.91,3.91,0,0,0,0-.57c0-.17,0-.36,0-.57a4,4,0,0,0-.06-.57c0-.19,0-.38,0-.58s0-.37-.05-.54a3.66,3.66,0,0,0,0-.57c0-.19,0-.37-.05-.58s0-.37,0-.58A4.66,4.66,0,0,1,288,374a4.52,4.52,0,0,1,0-.58c0-.16,0-.35-.05-.57s0-.36-.07-.54a3.77,3.77,0,0,0,0-.58c0-.18,0-.36,0-.56s0-.39-.07-.55a5,5,0,0,0,0-.58,3,3,0,0,0-.05-.6,3.74,3.74,0,0,0-.05-.55,2.69,2.69,0,0,0,0-.57c0-.19,0-.37-.05-.57s0-.37-.05-.58a4.73,4.73,0,0,1,0-.54c0-.2,0-.39,0-.57s0-.4-.06-.58a3.79,3.79,0,0,0-.05-.58,5.27,5.27,0,0,1,0-.56,5,5,0,0,0,0-.56,4.08,4.08,0,0,1-.06-.58c0-.2,0-.38,0-.57a5.32,5.32,0,0,1-.06-.56,5.1,5.1,0,0,0,0-.57c0-.19-.05-.38-.06-.59s0-.36,0-.57,0-.38-.05-.56a3.53,3.53,0,0,0-.05-.56,3.45,3.45,0,0,0,0-.57,3.58,3.58,0,0,0-.05-.58c0-.18,0-.37-.05-.56a3.38,3.38,0,0,0,0-.55c0-.19,0-.38-.05-.59s0-.39,0-.57,0-.4-.07-.56a4,4,0,0,0,0-.58c0-.17,0-.37,0-.57a5.28,5.28,0,0,0,0-.55c0-.19-.05-.38-.08-.57v-.58a5,5,0,0,1-.07-.56c0-.18,0-.39-.06-.57s0-.4,0-.59,0-.36-.05-.55a5.07,5.07,0,0,0,0-.56c0-.2,0-.37-.05-.58a5.44,5.44,0,0,0,0-.57c0-.21-.06-.37-.06-.56s0-.37,0-.58,0-.37,0-.55,0-.4-.05-.58a5.46,5.46,0,0,1,0-.56c0-.21,0-.39,0-.58a5,5,0,0,1-.06-.57,4.83,4.83,0,0,1-.05-.58c0-.19-.05-.37-.05-.56s0-.37,0-.56-.05-.39-.08-.58a16.37,16.37,0,0,0-.08-1.14,4.91,4.91,0,0,0,0-.55c0-.2,0-.39-.06-.59s0-.37,0-.56a3.8,3.8,0,0,1-.06-.58,3.52,3.52,0,0,0,0-.56c0-.17,0-.37-.05-.58s-.05-.37-.05-.55-.05-.39-.05-.57a2.69,2.69,0,0,0,0-.57c0-.18,0-.39-.05-.58a19.66,19.66,0,0,0-35.52-10.52,19.91,19.91,0,0,0-3.64,9.56c0,.18,0,.37,0,.55s0,.38-.06.58,0,.37,0,.56,0,.37,0,.58a3.75,3.75,0,0,1-.05.56,3.39,3.39,0,0,0,0,.54,2.83,2.83,0,0,0,0,.57,5.7,5.7,0,0,1-.06.58c0,.18,0,.36,0,.57a3.64,3.64,0,0,0-.05.56,2.64,2.64,0,0,0,0,.56,4,4,0,0,0-.05.58,5.16,5.16,0,0,0-.06.58c0,.19,0,.37,0,.54a5.58,5.58,0,0,1-.08.57c0,.21,0,.38,0,.56a3.75,3.75,0,0,0,0,.56,5.46,5.46,0,0,0,0,.57,5,5,0,0,0-.06.56c0,.2,0,.37,0,.58s0,.37,0,.54,0,.39-.07.58a5.09,5.09,0,0,1,0,.55,5.85,5.85,0,0,0,0,.59c0,.18,0,.37,0,.55a2.36,2.36,0,0,0-.07.58c0,.21,0,.37-.06.58a5.43,5.43,0,0,1,0,.56c0,.18,0,.35-.06.55s0,.39,0,.58,0,.37,0,.56,0,.37-.07.55,0,.38,0,.58a5.23,5.23,0,0,0-.06.57c0,.18,0,.39,0,.55a4.93,4.93,0,0,1-.06.58c0,.19,0,.35,0,.56s0,.37-.06.56a2.88,2.88,0,0,1,0,.58c0,.18,0,.37-.06.56a5.06,5.06,0,0,1,0,.55c0,.2,0,.38-.06.57a3.57,3.57,0,0,0,0,.56,3,3,0,0,0-.06.58c0,.19,0,.37,0,.56s0,.37-.07.56,0,.39,0,.55,0,.4,0,.59a5.24,5.24,0,0,0,0,.57,1.81,1.81,0,0,0-.08.56c0,.19,0,.37,0,.56a2.2,2.2,0,0,0-.05.56c0,.2,0,.37-.05.57a2.69,2.69,0,0,0,0,.56c0,.21,0,.41-.06.58a5.09,5.09,0,0,0,0,.56c0,.19,0,.39,0,.58s0,.37-.07.57,0,.38,0,.57a4.87,4.87,0,0,0-.06.55c0,.19,0,.39,0,.56s0,.37-.06.57,0,.37,0,.56a2.71,2.71,0,0,0-.07.58c0,.16,0,.37,0,.56a2.57,2.57,0,0,0-.06.55,3.9,3.9,0,0,0-.05.58c0,.17,0,.36,0,.58a3.2,3.2,0,0,0,0,.54,2.09,2.09,0,0,0-.05.56c0,.21,0,.39-.07.56s0,.39,0,.6a3.12,3.12,0,0,0-.05.55c0,.18,0,.38-.06.56s0,.37,0,.58a3.31,3.31,0,0,0,0,.55c0,.21,0,.38,0,.56a5.65,5.65,0,0,0,0,.58c0,.18,0,.37-.06.56s0,.39,0,.57,0,.38,0,.57a2.16,2.16,0,0,0-.05.57c0,.19,0,.36-.06.54s0,.39,0,.58,0,.37,0,.56,0,.39,0,.55a4,4,0,0,0-.05.58,2.3,2.3,0,0,1-.07.58c0,.18,0,.37,0,.54a2,2,0,0,1-.06.6,3.32,3.32,0,0,1,0,.54,2.83,2.83,0,0,0,0,.57c0,.19-.05.4-.06.56a2.83,2.83,0,0,0,0,.58c0,.19,0,.36,0,.56a2.05,2.05,0,0,0-.05.56,5.62,5.62,0,0,0-.06.56c0,.2,0,.4,0,.58a3.2,3.2,0,0,0-.09.54c0,.21,0,.4,0,.58s0,.37-.06.56,0,.39,0,.58,0,.38-.05.58a5.09,5.09,0,0,0,0,.54c0,.2,0,.4-.06.58s0,.37-.05.57a5.09,5.09,0,0,0,0,.55c0,.21,0,.38,0,.59s0,.35-.06.55a5.12,5.12,0,0,1,0,.56c0,.19,0,.39-.06.56a5.62,5.62,0,0,0,0,.58,2.1,2.1,0,0,0-.07.56,3.38,3.38,0,0,0,0,.56c0,.18,0,.37-.07.58a2.55,2.55,0,0,1,0,.55c0,.19,0,.39-.06.56a3.51,3.51,0,0,1,0,.57,5.29,5.29,0,0,1-.05.56c0,.19,0,.38,0,.56a5.29,5.29,0,0,0-.06.6c0,.16,0,.35,0,.54a2.12,2.12,0,0,0-.07.57c0,.19,0,.38,0,.57s0,.38-.06.57,0,.38,0,.57a4.76,4.76,0,0,0-.07.56,5.52,5.52,0,0,1,0,.57c0,.2,0,.38-.07.55s0,.37,0,.58,0,.37-.05.56,0,.37-.06.55a3.51,3.51,0,0,0,0,.56A26,26,0,1,0,291.09,411c0-.17,0-.35,0-.56"/><path class="cls-1" d="M225.51,353c-.08-.12-.2-.31-.28-.46s-.18-.3-.28-.47-.19-.3-.27-.47a2.92,2.92,0,0,0-.29-.46,5.19,5.19,0,0,0-.25-.47c-.11-.16-.2-.3-.3-.47s-.19-.32-.26-.46-.19-.31-.27-.47a3.33,3.33,0,0,0-.3-.46,3.9,3.9,0,0,0-.28-.49c-.1-.17-.17-.3-.25-.47s-.21-.3-.3-.46a3.64,3.64,0,0,0-.28-.47,3.42,3.42,0,0,0-.26-.46c-.1-.16-.18-.32-.27-.49l-.28-.45c-.09-.16-.18-.33-.28-.48s-.19-.3-.28-.47-.19-.31-.27-.46-.2-.32-.28-.47-.18-.33-.27-.48-.19-.29-.28-.47-.18-.29-.27-.46l-.27-.47c-.11-.17-.19-.31-.3-.46a3.59,3.59,0,0,0-.27-.47c-.09-.16-.19-.31-.27-.48l-.29-.45a3.31,3.31,0,0,0-.29-.47,2.19,2.19,0,0,0-.26-.48,3.67,3.67,0,0,0-.27-.46c-.09-.19-.19-.32-.28-.49a4.68,4.68,0,0,1-.27-.46c-.08-.16-.19-.3-.27-.46l-.29-.45c-.08-.17-.18-.34-.26-.49s-.21-.32-.29-.46a2.58,2.58,0,0,0-.29-.46,2,2,0,0,0-.28-.47,2.39,2.39,0,0,0-.28-.49l-.25-.47c-.09-.16-.19-.3-.28-.46s-.17-.31-.27-.46l-.27-.49a2.75,2.75,0,0,1-.28-.48,3.4,3.4,0,0,1-.28-.45c-.09-.15-.19-.29-.28-.47s-.2-.31-.28-.46a3.64,3.64,0,0,0-.28-.47c-.08-.16-.18-.31-.25-.48s-.19-.29-.3-.45-.18-.31-.26-.48-.18-.31-.28-.46a4,4,0,0,0-.29-.47,4.17,4.17,0,0,0-.26-.46c-.08-.17-.18-.32-.27-.49s-.2-.3-.3-.46a3.68,3.68,0,0,0-.28-.45c-.07-.16-.19-.34-.26-.48a4,4,0,0,0-.29-.47,3.42,3.42,0,0,0-.26-.46c-.07-.15-.2-.33-.28-.49s-.19-.3-.28-.47-.18-.3-.28-.48-.18-.28-.27-.45-.19-.31-.28-.48l-.28-.45c-.09-.16-.19-.33-.26-.48s-.2-.29-.3-.45-.17-.31-.26-.49-.2-.31-.28-.45-.2-.32-.28-.47a3,3,0,0,0-.28-.46,2.73,2.73,0,0,0-.27-.48c-.08-.16-.18-.33-.26-.47s-.2-.3-.29-.47-.19-.32-.28-.47-.18-.31-.27-.46-.18-.32-.27-.49-.19-.29-.28-.46a4.17,4.17,0,0,1-.28-.47c-.08-.16-.2-.3-.27-.44a2.9,2.9,0,0,0-.3-.49,2.2,2.2,0,0,0-.27-.46c-.09-.19-.17-.34-.25-.49l-.31-.46a5.16,5.16,0,0,1-.24-.47c-.09-.17-.19-.3-.29-.46s-.2-.3-.29-.47a4.23,4.23,0,0,1-.25-.47c-.09-.16-.2-.31-.31-.48a3,3,0,0,0-.28-.45,4.13,4.13,0,0,0-.26-.47,4.39,4.39,0,0,0-.27-.47,2.78,2.78,0,0,0-.28-.47,2.69,2.69,0,0,0-.28-.46,2.12,2.12,0,0,0-.27-.49,4.08,4.08,0,0,0-.28-.44c-.07-.18-.19-.32-.28-.51a2.76,2.76,0,0,1-.25-.44,4.57,4.57,0,0,1-.29-.47c-.1-.17-.18-.32-.28-.46s-.19-.33-.28-.47-.17-.32-.26-.47-.21-.31-.29-.46-.18-.33-.28-.49l-.28-.46a4.48,4.48,0,0,0-.28-.47c-.08-.16-.19-.31-.26-.46s-.18-.31-.3-.49-.17-.29-.27-.44l-.27-.49c-.07-.17-.19-.29-.25-.46a4.1,4.1,0,0,1-.3-.47l-.28-.46c-.08-.17-.19-.31-.28-.48s-.16-.3-.27-.47a4.34,4.34,0,0,0-.28-.46c-.1-.18-.17-.32-.27-.47s-.19-.32-.28-.46-.18-.32-.28-.49a4.17,4.17,0,0,1-.26-.46,3.64,3.64,0,0,1-.28-.47c-.08-.17-.19-.32-.28-.48s-.21-.31-.28-.45-.18-.32-.26-.49a3.14,3.14,0,0,1-.28-.46c-.11-.15-.19-.32-.28-.47s-.19-.29-.27-.46l-.29-.49a3.3,3.3,0,0,1-.26-.45,4.32,4.32,0,0,1-.27-.48c-.09-.15-.21-.29-.31-.47s-.17-.28-.27-.46-.19-.31-.26-.45a3.58,3.58,0,0,0-.29-.46,2.6,2.6,0,0,0-.28-.49l-.26-.46-.27-.48c-.09-.15-.2-.3-.29-.47s-.2-.3-.27-.46-.21-.3-.28-.49L186,286c-.09-.16-.19-.32-.27-.49s-.2-.32-.28-.44-.19-.32-.28-.49-.2-.3-.27-.46l-.28-.47-.27-.46c-.09-.17-.2-.32-.28-.47a3.72,3.72,0,0,1-.28-.49l-.28-.46a5.15,5.15,0,0,1-.27-.48,2.8,2.8,0,0,1-.28-.46c-.08-.16-.19-.3-.27-.46s-.2-.31-.28-.46-.2-.33-.28-.48A26,26,0,1,0,139.72,309a3.28,3.28,0,0,1,.36.43l.37.4c.12.16.25.29.35.42s.26.28.38.41l.36.41a4.49,4.49,0,0,0,.36.39c.12.15.23.28.37.43s.25.26.36.41.23.28.36.41a4.79,4.79,0,0,1,.36.41c.13.13.24.28.36.41l.36.41c.12.13.25.25.38.41s.23.28.35.4a3.5,3.5,0,0,0,.37.39,4,4,0,0,0,.35.44,3.55,3.55,0,0,0,.38.4c.1.14.23.26.36.42s.22.25.35.4.24.27.36.41.24.29.37.42.23.28.35.38.25.28.38.44a4.48,4.48,0,0,0,.36.4c.1.13.23.26.36.41a4.23,4.23,0,0,0,.36.41,2.75,2.75,0,0,0,.37.39,2,2,0,0,0,.36.41,2.94,2.94,0,0,0,.36.42c.11.14.24.27.34.42a5.11,5.11,0,0,1,.38.41c.1.15.24.27.33.41s.26.28.4.41.23.28.35.41.25.25.37.41l.35.4a3.6,3.6,0,0,0,.37.41c.12.14.24.26.35.41a4.82,4.82,0,0,1,.36.43,3.24,3.24,0,0,1,.36.38c.13.14.24.29.38.42a3.51,3.51,0,0,0,.34.39,3.66,3.66,0,0,1,.38.43c.1.13.25.27.36.41a2.79,2.79,0,0,0,.37.4,2.94,2.94,0,0,0,.36.42l.36.41a3.33,3.33,0,0,0,.36.39c.13.17.24.28.35.43l.37.41c.12.15.24.26.36.41s.24.25.36.41l.36.39a3,3,0,0,0,.37.41c.12.15.25.3.37.43a4.61,4.61,0,0,0,.37.4,2.79,2.79,0,0,0,.35.42l.37.4c.1.15.24.27.33.41a5.22,5.22,0,0,0,.4.41c.1.13.23.25.33.39s.25.28.37.44l.37.4a3.39,3.39,0,0,1,.35.42l.36.4c.11.13.27.28.38.39a2.86,2.86,0,0,0,.36.41c.12.15.24.3.36.43s.25.27.34.39.25.28.4.42.23.27.33.42.26.28.38.41.22.28.34.41.25.25.37.41a2.94,2.94,0,0,0,.39.4,1.59,1.59,0,0,0,.34.39c.11.17.24.28.35.44a2.22,2.22,0,0,1,.38.42l.35.38c.14.14.26.29.37.42s.24.27.36.43l.38.4a2.91,2.91,0,0,0,.33.4c.14.15.27.28.37.41a3.6,3.6,0,0,1,.37.41,3.52,3.52,0,0,1,.36.41c.12.14.24.26.36.41s.24.26.36.41.24.26.35.39l.38.43.37.41.35.4.36.4c.13.15.26.27.38.43a1.5,1.5,0,0,0,.36.4,162.32,162.32,0,0,0,.72.82c.11.13.24.28.35.39a3.67,3.67,0,0,0,.37.43c.11.13.24.27.35.41s.24.26.36.42a3.4,3.4,0,0,0,.38.38,3.89,3.89,0,0,0,.34.41l.38.44c.11.12.22.27.36.4a3.41,3.41,0,0,0,.37.39c.11.15.23.29.35.43s.24.28.37.41a2.66,2.66,0,0,0,.37.39,3.42,3.42,0,0,0,.36.43c.1.13.22.26.35.41s.24.26.38.41.22.28.34.41l.37.41c.11.13.25.27.36.41s.24.27.36.41a4.35,4.35,0,0,0,.36.38c.13.18.24.28.36.44s.25.28.36.4l.38.44a2.14,2.14,0,0,1,.33.38c.13.14.27.27.38.41s.25.26.37.41l.36.41.35.41c.12.15.24.26.36.41a3.6,3.6,0,0,1,.37.41c.12.14.24.26.37.42s.24.27.36.4.23.26.36.41a4.36,4.36,0,0,1,.35.4c.12.14.25.27.36.42a2.3,2.3,0,0,1,.36.41,4.75,4.75,0,0,1,.38.4l.34.4a5.36,5.36,0,0,0,.39.42c.1.14.23.27.36.42l.37.41a3.87,3.87,0,0,0,.34.41,3.28,3.28,0,0,0,.36.38,3.9,3.9,0,0,0,.36.43c.12.14.26.27.38.41s.24.26.35.41l.36.41c.14.15.23.26.38.4a3.36,3.36,0,0,0,.36.42c.11.13.21.28.34.41s.25.26.36.4a2.3,2.3,0,0,1,.36.42,3.69,3.69,0,0,1,.38.41c.11.13.23.26.34.41l.37.39c.14.17.25.28.36.43a2.86,2.86,0,0,1,.37.41c.11.13.27.26.38.41a4.18,4.18,0,0,0,.36.4,2.23,2.23,0,0,0,.35.4,4.58,4.58,0,0,1,.35.42,17.68,17.68,0,0,0,28.88-20.21c-.1-.16-.2-.33-.28-.49"/><path class="cls-2" d="M928.49,359c-34.44,0-66.74-.78-91.91-2.3V82.3c8.78-.6,35.9-1.17,74.25-2.12,24-.61,47.08.32,65.09,3.19,40.75,6.43,55.91,25.92,62.32,36.6,6.17,10.33,10.26,21.8,9.28,36.71-1.15,17.51-7.16,31.85-25,46l-3.17,2.49,3.61,1.8c12.38,6.26,20.3,16.17,25.72,25.88,6.49,11.74,9.79,25.1,9.79,39.76,0,29.58-10.65,51.63-32.25,66.61-19.13,13.32-52,19.79-97.7,19.79m-27.13-56.73c13.8.83,28.7,1.45,43.68.93,11.63-.41,27-1.33,37.93-12.5a30.51,30.51,0,0,0,4.23-37.28c-6.74-11.44-20.22-17.2-52.93-16.8a306.09,306.09,0,0,0-33,2ZM932.15,132c-6,0-21.58-.21-30.86,1.49v53.82l2.35.22c.13,0,12.86,1.25,27.57,1.25,23.84,0,37.68-2,46-9.34s10.59-19.66,5.36-30.14c-8.25-16.55-34-17.3-50.47-17.3"/><path class="cls-2" d="M773.89,82.3H710.18C704.5,94.05,664.8,176,646.6,222.79l-1.22,3.2h-2.17l-1.24-3.2C623.78,176,584.09,94.05,578.38,82.3h-63.7c-13.77,99.12-20.61,252.41-21.53,274.39H556.6c.58-18.4,4.41-134,7-160l.64-6.57h1.57l2.53,5.82c21.17,48.26,48.44,114.59,52.92,125.56h46c4.48-11,31.75-77.3,52.92-125.56l2.52-5.82h1.56l.64,6.57c2.67,26,6.45,141.63,7,160h63.44c-.93-22-7.77-175.27-21.54-274.39"/></g></g></svg>