<svg xmlns="http://www.w3.org/2000/svg" viewBox="0 0 594 594"><defs><style>.cls-1{fill:#fff;}.cls-2{fill:#ec1a3b;}</style></defs><g id="Layer_2" data-name="Layer 2"><g id="Layer_1-2" data-name="Layer 1"><rect class="cls-1" width="594" height="594"/><rect x="180" y="36" width="18.54" height="18.54"/><rect x="234" y="36" width="18.54" height="18.54"/><rect x="306" y="36" width="18.54" height="18.54"/><rect x="342" y="36" width="18.54" height="18.54"/><rect x="360" y="36" width="18.54" height="18.54"/><rect x="396" y="36" width="18.54" height="18.54"/><rect x="180" y="54" width="18.54" height="18.54"/><rect x="198" y="54" width="18.54" height="18.54"/><rect x="216" y="54" width="18.54" height="18.54"/><rect x="234" y="54" width="18.54" height="18.54"/><rect x="324" y="54" width="18.54" height="18.54"/><rect x="360" y="54" width="18.54" height="18.54"/><rect x="378" y="54" width="18.54" height="18.54"/><rect x="180" y="72" width="18.54" height="18.54"/><rect x="198" y="72" width="18.54" height="18.54"/><rect x="216" y="72" width="18.54" height="18.54"/><rect x="234" y="72" width="18.54" height="18.54"/><rect x="306" y="72" width="18.54" height="18.54"/><rect x="378" y="72" width="18.54" height="18.54"/><rect x="396" y="72" width="18.54" height="18.54"/><rect x="270" y="90" width="18.54" height="18.54"/><rect x="306" y="90" width="18.54" height="18.54"/><rect x="324" y="90" width="18.54" height="18.54"/><rect x="342" y="90" width="18.54" height="18.54"/><rect x="360" y="90" width="18.54" height="18.54"/><rect x="378" y="90" width="18.54" height="18.54"/><rect x="216" y="108" width="18.54" height="18.54"/><rect x="270" y="108" width="18.54" height="18.54"/><rect x="288" y="108" width="18.54" height="18.54"/><rect x="306" y="108" width="18.54" height="18.54"/><rect x="360" y="108" width="18.54" height="18.54"/><rect x="378" y="108" width="18.54" height="18.54"/><rect x="396" y="108" width="18.54" height="18.54"/><rect x="180" y="126" width="18.54" height="18.54"/><rect x="216" y="126" width="18.54" height="18.54"/><rect x="234" y="126" width="18.54" height="18.54"/><rect x="288" y="126" width="18.54" height="18.54"/><rect x="306" y="126" width="18.54" height="18.54"/><rect x="324" y="126" width="18.54" height="18.54"/><rect x="360" y="126" width="18.54" height="18.54"/><rect x="180" y="144" width="18.54" height="18.54"/><rect x="216" y="144" width="18.54" height="18.54"/><rect x="252" y="144" width="18.54" height="18.54"/><rect x="288" y="144" width="18.54" height="18.54"/><rect x="324" y="144" width="18.54" height="18.54"/><rect x="360" y="144" width="18.54" height="18.54"/><rect x="396" y="144" width="18.54" height="18.54"/><rect x="180" y="162" width="18.54" height="18.54"/><rect x="216" y="162" width="18.54" height="18.54"/><rect x="234" y="162" width="18.54" height="18.54"/><rect x="306" y="162" width="18.54" height="18.54"/><rect x="72" y="180" width="18.54" height="18.54"/><rect x="90" y="180" width="18.54" height="18.54"/><rect x="108" y="180" width="18.54" height="18.54"/><rect x="144" y="180" width="18.54" height="18.54"/><rect x="180" y="180" width="18.54" height="18.54"/><rect x="198" y="180" width="18.54" height="18.54"/><rect x="234" y="180" width="18.54" height="18.54"/><rect x="270" y="180" width="18.54" height="18.54"/><rect x="288" y="180" width="18.54" height="18.54"/><rect x="306" y="180" width="18.54" height="18.54"/><rect x="324" y="180" width="18.54" height="18.54"/><rect x="360" y="180" width="18.54" height="18.54"/><rect x="414" y="180" width="18.54" height="18.54"/><rect x="432" y="180" width="18.54" height="18.54"/><rect x="450" y="180" width="18.54" height="18.54"/><rect x="504" y="180" width="18.54" height="18.54"/><rect x="522" y="180" width="18.54" height="18.54"/><rect x="540" y="180" width="18.54" height="18.54"/><rect x="54" y="198" width="18.54" height="18.54"/><rect x="72" y="198" width="18.54" height="18.54"/><rect x="90" y="198" width="18.54" height="18.54"/><rect x="108" y="198" width="18.54" height="18.54"/><rect x="162" y="198" width="18.54" height="18.54"/><rect x="234" y="198" width="18.54" height="18.54"/><rect x="252" y="198" width="18.54" height="18.54"/><rect x="342" y="198" width="18.54" height="18.54"/><rect x="414" y="198" width="18.54" height="18.54"/><rect x="432" y="198" width="18.54" height="18.54"/><rect x="450" y="198" width="18.54" height="18.54"/><rect x="468" y="198" width="18.54" height="18.54"/><rect x="486" y="198" width="18.54" height="18.54"/><rect x="540" y="198" width="18.54" height="18.54"/><rect x="36" y="216" width="18.54" height="18.54"/><rect x="72" y="216" width="18.54" height="18.54"/><rect x="90" y="216" width="18.54" height="18.54"/><rect x="108" y="216" width="18.54" height="18.54"/><rect x="144" y="216" width="18.54" height="18.54"/><rect x="162" y="216" width="18.54" height="18.54"/><rect x="180" y="216" width="18.54" height="18.54"/><rect x="198" y="216" width="18.54" height="18.54"/><rect x="234" y="216" width="18.54" height="18.54"/><rect x="270" y="216" width="18.54" height="18.54"/><rect x="288" y="216" width="18.54" height="18.54"/><rect x="324" y="216" width="18.54" height="18.54"/><rect x="342" y="216" width="18.54" height="18.54"/><rect x="396" y="216" width="18.54" height="18.54"/><rect x="414" y="216" width="18.54" height="18.54"/><rect x="432" y="216" width="18.54" height="18.54"/><rect x="486" y="216" width="18.54" height="18.54"/><rect x="36" y="234" width="18.54" height="18.54"/><rect x="72" y="234" width="18.54" height="18.54"/><rect x="90" y="234" width="18.54" height="18.54"/><rect x="108" y="234" width="18.54" height="18.54"/><rect x="126" y="234" width="18.54" height="18.54"/><rect x="180" y="234" width="18.54" height="18.54"/><rect x="198" y="234" width="18.54" height="18.54"/><rect x="324" y="234" width="18.54" height="18.54"/><rect x="342" y="234" width="18.54" height="18.54"/><rect x="360" y="234" width="18.54" height="18.54"/><rect x="378" y="234" width="18.54" height="18.54"/><rect x="396" y="234" width="18.54" height="18.54"/><rect x="414" y="234" width="18.54" height="18.54"/><rect x="432" y="234" width="18.54" height="18.54"/><rect x="450" y="234" width="18.54" height="18.54"/><rect x="486" y="234" width="18.54" height="18.54"/><rect x="522" y="234" width="18.54" height="18.54"/><rect x="108" y="252" width="18.54" height="18.54"/><rect x="126" y="252" width="18.54" height="18.54"/><rect x="144" y="252" width="18.54" height="18.54"/><rect x="180" y="252" width="18.54" height="18.54"/><rect x="198" y="252" width="18.54" height="18.54"/><rect x="234" y="252" width="18.54" height="18.54"/><rect x="252" y="252" width="18.54" height="18.54"/><rect x="306" y="252" width="18.54" height="18.54"/><rect x="324" y="252" width="18.54" height="18.54"/><rect x="342" y="252" width="18.54" height="18.54"/><rect x="360" y="252" width="18.54" height="18.54"/><rect x="378" y="252" width="18.54" height="18.54"/><rect x="396" y="252" width="18.54" height="18.54"/><rect x="414" y="252" width="18.54" height="18.54"/><rect x="450" y="252" width="18.54" height="18.54"/><rect x="504" y="252" width="18.54" height="18.54"/><rect x="522" y="252" width="18.54" height="18.54"/><rect x="540" y="252" width="18.54" height="18.54"/><rect x="36" y="270" width="18.54" height="18.54"/><rect x="72" y="270" width="18.54" height="18.54"/><rect x="90" y="270" width="18.54" height="18.54"/><rect x="162" y="270" width="18.54" height="18.54"/><rect x="180" y="270" width="18.54" height="18.54"/><rect x="216" y="270" width="18.54" height="18.54"/><rect x="234" y="270" width="18.54" height="18.54"/><rect x="270" y="270" width="18.54" height="18.54"/><rect x="288" y="270" width="18.54" height="18.54"/><rect x="306" y="270" width="18.54" height="18.54"/><rect x="324" y="270" width="18.54" height="18.54"/><rect x="342" y="270" width="18.54" height="18.54"/><rect x="378" y="270" width="18.54" height="18.54"/><rect x="396" y="270" width="18.54" height="18.54"/><rect x="414" y="270" width="18.54" height="18.54"/><rect x="432" y="270" width="18.54" height="18.54"/><rect x="468" y="270" width="18.54" height="18.54"/><rect x="486" y="270" width="18.54" height="18.54"/><rect x="522" y="270" width="18.54" height="18.54"/><rect x="540" y="270" width="18.54" height="18.54"/><rect x="36" y="288" width="18.54" height="18.54"/><rect x="54" y="288" width="18.54" height="18.54"/><rect x="90" y="288" width="18.54" height="18.54"/><rect x="126" y="288" width="18.54" height="18.54"/><rect x="144" y="288" width="18.54" height="18.54"/><rect x="198" y="288" width="18.54" height="18.54"/><rect x="216" y="288" width="18.54" height="18.54"/><rect x="270" y="288" width="18.54" height="18.54"/><rect x="288" y="288" width="18.54" height="18.54"/><rect x="306" y="288" width="18.54" height="18.54"/><rect x="360" y="288" width="18.54" height="18.54"/><rect x="396" y="288" width="18.54" height="18.54"/><rect x="414" y="288" width="18.54" height="18.54"/><rect x="450" y="288" width="18.54" height="18.54"/><rect x="72" y="306" width="18.54" height="18.54"/><rect x="126" y="306" width="18.54" height="18.54"/><rect x="162" y="306" width="18.54" height="18.54"/><rect x="234" y="306" width="18.54" height="18.54"/><rect x="342" y="306" width="18.54" height="18.54"/><rect x="432" y="306" width="18.54" height="18.54"/><rect x="468" y="306" width="18.54" height="18.54"/><rect x="486" y="306" width="18.54" height="18.54"/><rect x="540" y="306" width="18.54" height="18.54"/><rect x="36" y="324" width="18.54" height="18.54"/><rect x="54" y="324" width="18.54" height="18.54"/><rect x="90" y="324" width="18.54" height="18.54"/><rect x="126" y="324" width="18.54" height="18.54"/><rect x="144" y="324" width="18.54" height="18.54"/><rect x="198" y="324" width="18.54" height="18.54"/><rect x="216" y="324" width="18.54" height="18.54"/><rect x="234" y="324" width="18.54" height="18.54"/><rect x="252" y="324" width="18.54" height="18.54"/><rect x="324" y="324" width="18.54" height="18.54"/><rect x="360" y="324" width="18.54" height="18.54"/><rect x="486" y="324" width="18.54" height="18.54"/><rect x="504" y="324" width="18.54" height="18.54"/><rect x="36" y="342" width="18.54" height="18.54"/><rect x="126" y="342" width="18.54" height="18.54"/><rect x="162" y="342" width="18.54" height="18.54"/><rect x="180" y="342" width="18.54" height="18.54"/><rect x="216" y="342" width="18.54" height="18.54"/><rect x="234" y="342" width="18.54" height="18.54"/><rect x="306" y="342" width="18.54" height="18.54"/><rect x="342" y="342" width="18.54" height="18.54"/><rect x="378" y="342" width="18.54" height="18.54"/><rect x="414" y="342" width="18.54" height="18.54"/><rect x="432" y="342" width="18.54" height="18.54"/><rect x="468" y="342" width="18.54" height="18.54"/><rect x="522" y="342" width="18.54" height="18.54"/><rect x="540" y="342" width="18.54" height="18.54"/><rect x="36" y="360" width="18.54" height="18.54"/><rect x="72" y="360" width="18.54" height="18.54"/><rect x="126" y="360" width="18.54" height="18.54"/><rect x="144" y="360" width="18.54" height="18.54"/><rect x="162" y="360" width="18.54" height="18.54"/><rect x="216" y="360" width="18.54" height="18.54"/><rect x="234" y="360" width="18.54" height="18.54"/><rect x="252" y="360" width="18.54" height="18.54"/><rect x="342" y="360" width="18.54" height="18.54"/><rect x="360" y="360" width="18.54" height="18.54"/><rect x="396" y="360" width="18.54" height="18.54"/><rect x="432" y="360" width="18.54" height="18.54"/><rect x="450" y="360" width="18.54" height="18.54"/><rect x="468" y="360" width="18.54" height="18.54"/><rect x="504" y="360" width="18.54" height="18.54"/><rect x="36" y="378" width="18.54" height="18.54"/><rect x="72" y="378" width="18.54" height="18.54"/><rect x="90" y="378" width="18.54" height="18.54"/><rect x="126" y="378" width="18.54" height="18.54"/><rect x="180" y="378" width="18.54" height="18.54"/><rect x="198" y="378" width="18.54" height="18.54"/><rect x="216" y="378" width="18.54" height="18.54"/><rect x="270" y="378" width="18.54" height="18.54"/><rect x="288" y="378" width="18.54" height="18.54"/><rect x="324" y="378" width="18.54" height="18.54"/><rect x="342" y="378" width="18.54" height="18.54"/><rect x="360" y="378" width="18.54" height="18.54"/><rect x="396" y="378" width="18.54" height="18.54"/><rect x="432" y="378" width="18.54" height="18.54"/><rect x="450" y="378" width="18.54" height="18.54"/><rect x="522" y="378" width="18.54" height="18.54"/><rect x="540" y="378" width="18.54" height="18.54"/><rect x="36" y="396" width="18.54" height="18.54"/><rect x="72" y="396" width="18.54" height="18.54"/><rect x="90" y="396" width="18.54" height="18.54"/><rect x="126" y="396" width="18.54" height="18.54"/><rect x="144" y="396" width="18.54" height="18.54"/><rect x="270" y="396" width="18.54" height="18.54"/><rect x="378" y="396" width="18.54" height="18.54"/><rect x="396" y="396" width="18.54" height="18.54"/><rect x="414" y="396" width="18.54" height="18.54"/><rect x="432" y="396" width="18.54" height="18.54"/><rect x="450" y="396" width="18.54" height="18.54"/><rect x="468" y="396" width="18.54" height="18.54"/><rect x="486" y="396" width="18.54" height="18.54"/><rect x="504" y="396" width="18.54" height="18.54"/><rect x="180" y="414" width="18.54" height="18.54"/><rect x="216" y="414" width="18.54" height="18.54"/><rect x="270" y="414" width="18.54" height="18.54"/><rect x="324" y="414" width="18.54" height="18.54"/><rect x="360" y="414" width="18.54" height="18.54"/><rect x="396" y="414" width="18.54" height="18.54"/><rect x="468" y="414" width="18.54" height="18.54"/><rect x="486" y="414" width="18.54" height="18.54"/><rect x="540" y="414" width="18.54" height="18.54"/><rect x="198" y="432" width="18.54" height="18.54"/><rect x="216" y="432" width="18.54" height="18.54"/><rect x="234" y="432" width="18.54" height="18.54"/><rect x="252" y="432" width="18.54" height="18.54"/><rect x="306" y="432" width="18.54" height="18.54"/><rect x="324" y="432" width="18.54" height="18.54"/><rect x="360" y="432" width="18.54" height="18.54"/><rect x="378" y="432" width="18.54" height="18.54"/><rect x="396" y="432" width="18.54" height="18.54"/><rect x="432" y="432" width="18.54" height="18.54"/><rect x="468" y="432" width="18.54" height="18.54"/><rect x="198" y="450" width="18.54" height="18.54"/><rect x="216" y="450" width="18.54" height="18.54"/><rect x="270" y="450" width="18.54" height="18.54"/><rect x="324" y="450" width="18.54" height="18.54"/><rect x="342" y="450" width="18.54" height="18.54"/><rect x="378" y="450" width="18.54" height="18.54"/><rect x="396" y="450" width="18.54" height="18.54"/><rect x="468" y="450" width="18.54" height="18.54"/><rect x="486" y="450" width="18.54" height="18.54"/><rect x="522" y="450" width="18.54" height="18.54"/><rect x="540" y="450" width="18.54" height="18.54"/><rect x="180" y="468" width="18.54" height="18.54"/><rect x="216" y="468" width="18.54" height="18.54"/><rect x="252" y="468" width="18.54" height="18.54"/><rect x="288" y="468" width="18.54" height="18.54"/><rect x="324" y="468" width="18.54" height="18.54"/><rect x="342" y="468" width="18.54" height="18.54"/><rect x="360" y="468" width="18.54" height="18.54"/><rect x="396" y="468" width="18.54" height="18.54"/><rect x="414" y="468" width="18.54" height="18.54"/><rect x="432" y="468" width="18.54" height="18.54"/><rect x="450" y="468" width="18.54" height="18.54"/><rect x="468" y="468" width="18.54" height="18.54"/><rect x="486" y="468" width="18.54" height="18.54"/><rect x="504" y="468" width="18.54" height="18.54"/><rect x="540" y="468" width="18.54" height="18.54"/><rect x="180" y="486" width="18.54" height="18.54"/><rect x="216" y="486" width="18.54" height="18.54"/><rect x="252" y="486" width="18.54" height="18.54"/><rect x="306" y="486" width="18.54" height="18.54"/><rect x="342" y="486" width="18.54" height="18.54"/><rect x="360" y="486" width="18.54" height="18.54"/><rect x="378" y="486" width="18.54" height="18.54"/><rect x="396" y="486" width="18.54" height="18.54"/><rect x="414" y="486" width="18.54" height="18.54"/><rect x="450" y="486" width="18.54" height="18.54"/><rect x="180" y="504" width="18.54" height="18.54"/><rect x="198" y="504" width="18.54" height="18.54"/><rect x="234" y="504" width="18.54" height="18.54"/><rect x="288" y="504" width="18.54" height="18.54"/><rect x="306" y="504" width="18.54" height="18.54"/><rect x="378" y="504" width="18.54" height="18.54"/><rect x="396" y="504" width="18.54" height="18.54"/><rect x="414" y="504" width="18.54" height="18.54"/><rect x="432" y="504" width="18.54" height="18.54"/><rect x="450" y="504" width="18.54" height="18.54"/><rect x="468" y="504" width="18.54" height="18.54"/><rect x="504" y="504" width="18.54" height="18.54"/><rect x="522" y="504" width="18.54" height="18.54"/><rect x="198" y="522" width="18.54" height="18.54"/><rect x="216" y="522" width="18.54" height="18.54"/><rect x="234" y="522" width="18.54" height="18.54"/><rect x="270" y="522" width="18.54" height="18.54"/><rect x="288" y="522" width="18.54" height="18.54"/><rect x="342" y="522" width="18.54" height="18.54"/><rect x="360" y="522" width="18.54" height="18.54"/><rect x="396" y="522" width="18.54" height="18.54"/><rect x="432" y="522" width="18.54" height="18.54"/><rect x="468" y="522" width="18.54" height="18.54"/><rect x="486" y="522" width="18.54" height="18.54"/><rect x="522" y="522" width="18.54" height="18.54"/><rect x="198" y="540" width="18.54" height="18.54"/><rect x="216" y="540" width="18.54" height="18.54"/><rect x="234" y="540" width="18.54" height="18.54"/><rect x="306" y="540" width="18.54" height="18.54"/><rect x="342" y="540" width="18.54" height="18.54"/><rect x="360" y="540" width="18.54" height="18.54"/><rect x="378" y="540" width="18.54" height="18.54"/><rect x="432" y="540" width="18.54" height="18.54"/><rect x="468" y="540" width="18.54" height="18.54"/><rect x="504" y="540" width="18.54" height="18.54"/><path d="M36,36V162H162V36ZM144,144H54V54h90v90Z"/><path d="M432,36V162H558V36ZM540,144H450V54h90v90Z"/><path d="M36,432V558H162V432ZM144,540H54V450h90v90Z"/><rect x="72" y="72" width="54" height="54"/><rect x="468" y="72" width="54" height="54"/><rect x="72" y="468" width="54" height="54"/><path class="cls-1" d="M344.5,303.49a7.37,7.37,0,0,1-3.08-.67l-.22-.1-.12-.05-.14-.06-.13-.05-.12-.05-.28-.12-.11,0-.3-.13-.08,0-.07,0-.19-.09-.12-.05-.09,0-.1,0-.93-.39-.09,0-.23-.1-.22-.09-.21-.09h0l-1-.4-.11-.05-.16-.07-.05,0-.06,0-.13-.06-.07,0-.18-.08-.44-.18-.06,0-.11-.05h0l-.1-.05-.11,0-.12-.06h-.05l-.15-.07-.06,0-.13-.06-.32-.13-.07,0-.22-.08-.16-.07-.05,0-.09,0-.14-.06-.19-.08-.13-.05-.43-.18-.11-.05-.23-.1-.08,0-.13,0-.07,0-.09,0-.34-.14-.11-.05-.13-.06-.18-.07-.36-.15-.08,0-.09,0-.08,0-.12-.05a.25.25,0,0,1-.09,0l-.29-.12h0l-.13-.05-.06,0-.12,0-.18-.08-.2-.09-.21-.08-.15-.06-.18-.08-.25-.1-.17-.08a1.32,1.32,0,0,1-.19-.08l-.06,0-.13-.06-.25-.1-.06,0h0l-.1,0-.08,0-.09,0-.16-.07-.2-.08a6,6,0,0,1,4-11.29h.05l.08,0,.26.07h0l.14,0,.1,0,.27.07.16,0,.11,0,.06,0,.34.07.2.05.07,0,.27.06h.05l.19.05.26.06.11,0,.38.08.14,0,.24.06h0l.13,0,.1,0,.35.08.11,0,.3.07.11,0,.63.15.06,0,.11,0,.24.06.15,0,.26.05.12,0,.08,0h.06l.12,0,.31.08.14,0,.2.05.15,0,.6.15.16,0h.06a1,1,0,0,1,.25.06h.17l.31.1h0l.19,0,.24.06.09,0,.11,0,.11,0,.11,0,.1,0,.13,0,.07,0,.14,0,.15,0,.08,0,.15,0,1,.23.1,0,.27.07h0l.18,0,.23.05.14,0,.46.1.09,0h0l.29.07h0l.51.12.13,0,.1,0,.08,0,.16,0,.1,0,.1,0,.19,0h0l.23.05.15,0a7.3,7.3,0,0,1,5.45,8.22,7.27,7.27,0,0,1-7.21,6.15Zm-3.14-.7h0Zm-3.58-1.5h0Zm-1.9-.8Zm7-1.4.23.1a3.29,3.29,0,0,0,4.05-4.93h0a3.22,3.22,0,0,0-1.88-1.25l-.1,0h0l-.11,0-.19-.05h0l-.61-.14-.08,0h0l-.1,0-.08,0-.43-.1h0l-.17,0-.24-.06h0l-.16,0h-.05l-.83-.19-.05,0-.16,0h-.06l-.23-.06-.19-.05-.1,0a.53.53,0,0,1-.12,0l-.24,0h0l-.1,0-.12,0-1.57-.38h0l-.08,0-.07,0h0l-.5-.12-.18,0-.18,0-.14,0h0l-.11,0-.14,0-.13,0-.68-.17h-.05l-.36-.08-.09,0-.07,0-.07,0-.14,0-.57-.13-.17,0-.11,0-.18,0H335l-.21-.07h0l-.74-.18h0l-.11,0-.15,0h0l-.26-.07-.09,0-.16,0-.1,0-.67-.16h0l-.08,0-.05,0-.46-.1h0l-.06,0-.8-.19-.11,0-.15,0h-.16l-.25-.09a2,2,0,0,0-1.77.29,2,2,0,0,0-.44,2.8,1.91,1.91,0,0,0,.81.65l.07,0,.15.07.21.08.15.07h0a.35.35,0,0,1,.14.06l.83.34h0l.16.07.2.08h0l.16.07.15.06.1,0,.13.06.07,0,.55.24h0l.35.14.08,0,.16.06.09,0,.09,0,.12.05.4.17h0l.26.11h0l.15.07.26.11.16.06h0l.19.08.08,0,.07,0,.14.06.07,0,.1.05.17.07.11,0,.43.18.16.07.11.05h0l.13.05.05,0,.16.07.09,0,.14,0,.19.09.06,0,.19.08.07,0,.06,0,.28.12h0l.1,0,.11.05.14.06.13.05.05,0,.24.1.07,0,.14.05.09,0,.16.07h0l.13.06.11,0,.17.07.24.1.09,0,.3.12,0,0,.2.08.05,0h0l.14.06.08,0h0l.51.21.16.07.06,0,.17.08.1,0,.26.11h0l0,0,.15.06,0,0,.1,0h0l.09,0,.1,0,.2.09.08,0,.13.05h0l.07,0,.13.05.09,0,.21.09ZM340.31,298h0Zm-.9-.38Zm-.48-.2h0Zm-3.73-1.56h0Zm0,0h0l-.08,0Zm-1.85-.78h0Zm6.91-3.28h0Zm-.75-.17.11,0Zm-2.7-.64h0Zm-1.77-.42h0Zm-.68-.15h0Zm-2.45-.58h0Zm-1.39-.33h0Zm11.68-1.36h0Zm-1.95-.46Zm-1.56-.36h0Zm-1.61-.38h0Zm-.41-.1h0Zm-.49-.11h0Zm-.58-.14Zm-.52-.13.06,0Zm-1-.23.1,0Z"/><path class="cls-2" d="M348.78,293.08a5.24,5.24,0,0,0-3-2,.53.53,0,0,1-.12,0l-.11,0-.11,0-.11,0-.12,0-.1,0-.12,0-.11,0-.11,0-.11,0-.11,0-.12,0-.11,0-.11,0-.11,0-.11,0-.11,0-.12,0-.11,0-.11,0a.45.45,0,0,0-.11,0l-.11,0-.11,0-.12,0-.11,0-.11,0-.11,0-.11,0-.11,0-.11,0-.11,0-.12,0-.11,0-.11,0-.11,0-.11,0-.11,0-.12,0-.1,0-.12,0-.12,0-.1,0-.12,0-.1,0-.12,0-.11,0-.11,0-.11,0-.11,0-.11,0-.12,0-.11,0-.11,0-.11,0-.11,0a.53.53,0,0,0-.12,0l-.1,0a.2.2,0,0,1-.11,0l-.12,0-.11,0-.11,0-.12,0-.11,0-.11,0-.11,0-.11,0-.11,0-.11,0-.11,0-.12,0-.11,0-.11,0-.11,0-.11,0-.12,0-.1,0-.12,0-.11,0-.11,0-.11,0-.11,0-.12,0-.11,0-.11,0-.11,0-.11,0-.11,0-.12,0-.1,0-.12,0-.11,0-.11,0-.11,0-.11,0-.11,0-.12,0-.11,0a.35.35,0,0,0-.11,0l-.11,0-.11,0-.11,0-.12,0-.11,0-.11,0-.11,0-.11,0-.11,0a.35.35,0,0,1-.11,0l-.12,0-.11,0-.11,0-.11,0-.11,0-.12,0-.11,0-.11,0a.23.23,0,0,0-.11,0l-.11,0-.11,0-.11,0-.12,0-.11,0-.11,0-.11,0-.11,0-.11,0-.12,0-.1,0-.12,0-.11,0-.11,0-.12,0-.11,0-.11,0-.11,0A4,4,0,0,0,328,295l.1.05.11,0,.1,0,.1,0,.11.05.1,0,.11,0,.11,0,.1.05.11,0,.11,0s.06,0,.1.05l.1,0,.11,0,.1.05.11.05.1,0,.11,0,.1.05.11,0,.1,0,.11.05.1,0,.11,0,.11,0,.1.05.1,0,.11,0,.11.05.1,0,.1,0,.11.05.11.05.1,0,.1,0,.11.05.1,0,.11,0,.1.05.11,0,.1,0,.11,0,.11.05.1,0,.11,0,.1,0,.1,0,.11,0,.11,0,.1,0,.11,0,.1,0,.11.05.1,0,.11,0,.1,0,.1,0,.11,0,.1,0,.11,0,.11.05.1,0,.11.05.1,0,.1,0,.11.05.11,0,.1,0,.11,0,.1.05.11,0,.1,0,.11.05.1,0,.11,0,.1.05.11.05.1,0,.11,0,.1.05.11,0,.1,0,.11.05.1,0,.11,0,.11.05.1.05.1,0,.11,0,.1,0,.11.05.11,0,.1,0,.1,0,.11.05.1,0,.11,0,.11.05.1,0,.1.05.11,0,.1,0,.11,0,.11,0,.1.05.1,0,.12.05.1,0,.1,0a.21.21,0,0,0,.11,0l.1.05.11.05.1,0,.11.05.1,0,.11,0,.11,0,.1.05.1,0,.11.05.1,0,.11,0,.1.05.1.05.11,0,.11.05.1.05.11,0,.1,0,.11.05.1,0,.11,0,.1.05.11,0,.1.05a5.3,5.3,0,0,0,6.57-7.9"/><path class="cls-1" d="M314.36,316.38A7.3,7.3,0,0,1,313,301.92l.19-.05h0l.22-.05h.05l.12,0,.21-.07h.2l.17,0,.66-.15h0l.67-.15.17,0,.13,0,.15,0,.12,0,.36-.08.09,0,.19,0,.09,0a.2.2,0,0,1,.11,0l.4-.1h0l.1,0,.09,0h.07l.24-.06h0l.12,0,.09,0,.22-.05.18,0,.07,0,.1,0,.15,0h.06l.09,0,.17,0,.2-.05.15,0,.23-.05.16,0,.13,0,.2,0,.11,0,.14,0,.11,0,.11,0,.06,0,.15,0,.07,0,.16,0,.18-.05.19,0h0l1-.24.27-.05.35-.11h.05l.42-.09.23-.05.12,0,.22-.05h0l.07,0h.05l.2-.05.2,0,.09,0,.15,0,.2,0,.07,0,.14,0,0,0,.15,0,.28-.06.17,0,.18,0h.09l.17,0h.07l.08,0,.16,0,.16,0,.35-.08.17,0,.64-.14.16,0h0l.52-.11.21-.05.11,0,.24,0,.1,0,.19,0,.09,0,.4-.09a5.6,5.6,0,0,1,3.24,10.68l-.4.17-.1,0-.16.08h0l-.16.07-.09,0-.23.1-.09,0-.09,0-.21.09-.09,0-.11.05-.3.13h0l-.09,0-.12,0-.18.08h0l-.05,0-.09,0-.1,0a.33.33,0,0,1-.12.05l0,0-.2.08-.14.06-.26.11h0l-.08,0h0l-.32.14-.12.06-.51.23-.32.13-.18.07-.36.16h0l-.1,0h0l-.78.34-.05,0-.14.05h0l0,0-.11,0-.08,0-.05,0-.22.1a2.18,2.18,0,0,1-.23.09l-.11.05-.22.1-.14.06-.12.05-.05,0-.16.07-.08,0-.09,0-.11,0-.07,0-.24.11-.1,0-.11.05-.11.05-.06,0-.09,0-.08,0-.25.1-.17.08h0l-.21.09-.09,0-.21.09-.65.28-.2.09h-.05l-.3.13-.17.07-.08,0-.32.14-.91-1.79.81,1.83-.13.05-.1,0-.29.12-.06,0-.06,0-.14.06-.14.06h0l-.16.07-.09,0h0l-.17.08,0,0-.4.17-.11.05-.05,0-.15.06-.78.35-.14.06-.19.08-.54.23h0l0-.13-.83-1.67.77,1.84-.11.06h0l-.07,0A7.6,7.6,0,0,1,314.36,316.38Zm2.5-2.6.65,1.6-.24-.73Zm1.79,1.4h0Zm1-.44h0Zm2.57-1.11h0Zm-8.5-7.78a3.38,3.38,0,0,0-1.69.91,3.3,3.3,0,0,0,3.63,5.36l.14-.06.06,0,.22-.09.12-.05.19-.09.13-.05.69-.3.07,0,.09,0,.65-.28,0,0,.17-.07.08,0,.67-.29.09,0,.11,0,.13-.06.05,0,.37-.16.1-.05.47-.2.15-.06.54-.24h0l.09,0,.22-.1h0l.12-.06.81-.35.12-.06.34-.14.05,0,1.79-.78.1,0,.45-.2h0l.21-.09.11-.05,0,0h0l.19-.09.08,0h0l.09,0,.16-.07.36-.16.08,0,.06,0,.17-.07.05-.05.36-.13.11-.05.11-.05.48-.2.11-.05.1,0,.6-.27.14-.06.17-.07.11,0,.07,0,0,0,.49-.21.06,0,.07,0,.11,0,.09-.05.2-.08.19-.08,1.12-.49.19-.08,0,0a1.65,1.65,0,0,0,.62-.39,1.61,1.61,0,0,0,0-2.27,1.57,1.57,0,0,0-1.47-.43l-.49.11-.1,0-.11,0h-.05l-.16,0-.12,0-.11,0-.07,0-.13,0-.13,0h-.13l-.18,0-.1,0-.12,0-.23,0h0l-.15,0-.19,0-.08,0-.28.06h0l-.88.25-.41,0h0l0-.19-.44-1.74.37,2,.05,0-.05,0h0l-2.21.49-.12,0-.3.07-.1,0-.07,0h0l-.24.05-.11,0-.14,0-.12,0-.12,0h0l-.24.05h0l-.42.09-.14,0-.11,0-.14,0-.12,0h-.05l-.26.06-.11,0-.36.07-.21.05-.26.06-.14,0-.38.09h-.05l-.3.06-.19,0h0l-.21.05h-.07l-.19.05a1,1,0,0,1-.17,0l-.35.1h-.06l-.17.06h-.06l-.09,0h0l-.16,0-.19.05-.12,0-.12,0-.12,0-.1,0h-.07l-.29.07h-.1l-.05-.61-.34-1.33.35,2h0l-.79.17h0l-.34.07h-.06l-.1,0-.15,0-.17,0-.14,0-.26,0-.05,0-.26.05-.13,0-.26.06Zm3.32,5.67h0Zm10.22-.08h0Zm.52-.22h0Zm-9.39-.29h0Zm1.72-.74h0Zm2-.88-.07,0Zm11-.42h0Zm-9.48-.24,0,0Zm2.47-1.08,0,0Zm1.5-.65h0Zm.19-.08h0Zm.08,0h0Zm2.81-1.23h0Zm.34-.14-.07,0Zm-14-.32h0Zm4-.91Zm5.17-1.14h0Zm.81-.18h0Zm.12,0Zm.11,0Zm.19,0h0Zm.75-.16h0Zm-12.06-1.42h0Zm5.54-1.23h0ZM326,299h0Zm1.64-.36h0Zm2-.45-.1,0h0Zm.18,0h0Z"/><path class="cls-2" d="M330.48,300.09l-.11,0-.1,0-.12,0-.1,0-.12,0-.11,0-.11,0-.1,0-.11,0-.11,0a.53.53,0,0,0-.12,0l-.1,0-.11,0-.11,0a.45.45,0,0,1-.11,0l-.11,0-.11,0-.11,0-.11,0-.11,0-.11,0-.11,0-.11,0a.35.35,0,0,1-.11,0l-.11,0-.1,0-.12,0-.1,0-.11,0-.11,0-.11,0-.12,0-.1,0-.11,0-.11,0-.11,0-.11,0a.2.2,0,0,0-.11,0l-.11,0-.11,0-.11,0-.11,0-.11,0-.11,0-.11,0-.11,0-.11,0-.1,0-.12,0-.11,0-.11,0a.19.19,0,0,0-.1,0l-.11,0-.12,0-.1,0-.11,0-.11,0-.12,0-.1,0-.11,0-.11,0-.11,0-.11,0-.11,0-.11,0-.11,0-.11,0-.11,0-.11,0-.11,0-.11,0-.11,0-.11,0-.1,0-.12,0-.11,0-.1,0-.12,0-.1,0-.11,0-.11,0-.11,0-.12,0-.1,0-.11,0-.11,0-.11,0-.11,0-.11,0-.11,0-.11,0-.11,0-.11,0-.11,0-.1,0-.12,0-.11,0-.11,0h-.1l-.11,0-.12,0-.11,0-.1,0-.12,0-.1,0-.11,0-.11,0-.11,0-.11,0-.11,0-.11,0-.11,0-.11,0-.11,0-.11,0-.11,0-.11,0-.11,0-.11,0-.11,0-.1,0-.11,0-.12,0-.1,0-.12,0-.11,0-.1,0-.11,0-.11,0-.11,0-.11,0-.11,0-.11,0-.11,0-.11,0-.11,0-.11,0-.11,0-.11,0-.11,0-.11,0-.11,0-.1,0-.12,0-.11,0-.1,0-.12,0-.11,0-.11,0-.1,0-.12,0-.1,0-.11,0-.11,0-.11,0-.11,0a5.35,5.35,0,0,0-2.76,1.46,5.3,5.3,0,0,0,5.82,8.63l.1-.05.1,0,.11-.05.1-.05.1,0,.11,0,.1-.05.1,0,.11,0,.1-.05.1,0,.1-.05.11,0,.1-.05.11,0,.1,0,.11-.05.1-.05.1,0,.1-.05.11,0,.1,0,.11-.05.1-.05.11,0,.1,0,.1,0,.1,0,.11,0,.1,0,.1-.05.11,0,.1,0,.1,0,.11-.05.1,0,.1-.05.11-.05.1,0,.1,0,.11-.05.1,0,.1-.05.11,0,.1-.05.1,0,.11,0,.1,0,.11-.05.1,0,.1-.05.11,0,.1-.05.1,0,.11-.05.1,0,.1-.05.11,0,.1,0,.1,0,.11,0,.1,0,.1-.05.11,0,.1,0,.1,0,.11-.05.1,0,.1,0,.11-.05.1,0,.11,0,.1-.05.1,0,.11-.05.1,0,.1-.05.11,0,.1,0a.24.24,0,0,0,.1-.05l.11,0,.1,0,.1,0,.11,0,.1-.05.1,0,.11,0,.1-.05.11,0,.1-.05.1,0,.1-.05.11,0,.1-.05.1,0,.11-.05.1,0,.11,0,.1,0,.1,0,.11,0,.1-.05.1,0,.11,0,.1,0,.1-.05.11,0,.1-.05.1,0,.1-.05.11,0,.1,0,.11,0,.1-.05.1,0,.1-.05.11-.05.1,0,.11,0,.1-.05.1,0,.11,0,.1,0,.1-.05.11,0,.1-.05.1,0,.11-.05.1,0,.1-.05.11-.05.1,0,.11,0,.1-.05.1,0,.11,0,.1,0,.11-.05.1,0,.1-.05.1,0,.11,0,.1,0,.1-.05.11,0,.1-.05.1,0,.11-.05.1,0,.1,0,.11,0,.11-.05.09,0,.11,0,.1,0,.1,0a3.59,3.59,0,0,0,1.23-5.9,3.58,3.58,0,0,0-3.33-1"/><path class="cls-1" d="M305.2,276.47a6,6,0,0,1-5-9.27l0-.06.13-.2.06-.11h0l.14-.23.11-.17v0l.22-.36,0-.05.26-.43,0-.07.05-.08.09-.15a.56.56,0,0,1,.05-.08l0-.05a1.4,1.4,0,0,1,.1-.16l.18-.3h0l.09-.14.17-.29,0,0h0l0,0,.19-.31a.88.88,0,0,1,.07-.12l.06-.1,0-.07,0,0,.08-.12a.86.86,0,0,1,.1-.16l0,0a1,1,0,0,1,.09-.15l.08-.13h0l.28-.46h0l.06-.11.06-.09.11-.18.36-.59,0-.05,0-.06a.22.22,0,0,1,0-.08l.1-.18.06-.09.1-.17.06-.1.12-.2.05-.08.07-.11.06-.11,0-.05a1,1,0,0,1,.1-.17l0-.05a.41.41,0,0,1,.05-.09.44.44,0,0,0,.06-.1l.14-.23.11-.19,0,0,.08-.14.06-.1,0-.05.19-.3h0l.08-.13.05-.08.08-.13v0l.16-.26a.43.43,0,0,1,0-.07.56.56,0,0,1,.05-.08l.1-.17v0l.06-.09.08-.14a.41.41,0,0,0,0-.09l.11-.17.1-.17,0-.07s0,0,0,0l.09-.14.06-.11.07-.11.1-.15.53-.89,0-.06.08-.14.15-.24a1.93,1.93,0,0,1,.13-.21h0a.86.86,0,0,1,.1-.16l.12-.2.11-.19.07-.11.22-.37a7.3,7.3,0,1,1,11.55,8.81l-.15.17-.07.09-.16.18-.06.07-.09.11-.1.1,0,0-.12.14-.1.12,0,0-.1.11-.08.09-.07.09-.13.15-.11.12-.05.06-.07.08-.16.19,0,0-.16.18a.76.76,0,0,1-.13.16l-.07.08h0a.86.86,0,0,1-.15.17l-.08.09a1.46,1.46,0,0,1-.16.19h0l-.14.16-.05.06-.13.15-.08.09-.13.16-.06.06-.13.15v0l-.09.1,0,.05-.14.16,0,0-.11.13h0l-.23.25,0,0-.1.12,0,.05-.08.1-.16.18-.07.08-.36.42v0l-.1.11h0l-.07.08-.15.18-.09.1,0,.05-.1.12-.13.15,0,0-.28.32-.11.13-.14.17-.08.1,0,0-.1.12-.06.07-.05.06-.12.14a.6.6,0,0,1-.12.13l-.07.09-.12.15-.08.08,0,0a.39.39,0,0,1-.08.1h0l-.1.13-.45.51,0,0-.06.07a.69.69,0,0,0-.11.13.12.12,0,0,0,0,.05l-.05.06-.06.07h0l-.14.16,0,0-.14.15-.05.06-.08.09,0,.05-.14.16-.19.23h0l-.07.08-.22.25,0,.05-.1.11-.08.1-.06.06-.09.11-.15.18-.06.06-.23.28,0,0-.19.22-.11.13a6,6,0,0,1-2.58,1.66A5.91,5.91,0,0,1,305.2,276.47Zm-1.7-7.07a2,2,0,0,0-.21,1.69,2,2,0,0,0,2.53,1.29,2,2,0,0,0,.86-.57l.08-.09.12-.14.18-.21,0,0,.12-.14,0,0,.1-.12.29-.33.06-.07.24-.28.06-.07.11-.12a1.15,1.15,0,0,1,.14-.17l0-.05.26-.3h0l.18-.21,0,0,.53-.61.05-.06.07-.08.12-.14.07-.08,0,0,.32-.38v0h0l.12-.14h0l.06-.08.08-.09.06-.07.29-.33.07-.09.11-.12.27-.31h0l.16-.2.05-.05.09-.11.3-.35.06-.06.14-.17.09-.1.21-.25,0,0v0l.12-.14.15-.17,0,0,0,0,.07-.09.15-.17h0a1.15,1.15,0,0,1,.14-.17h0l.05-.06.08-.1.36-.41a1.07,1.07,0,0,1,.14-.16l0-.06.09-.1.2-.22,0,0,.3-.34.12-.15.08-.09,0-.06.09-.17.19-.16.06-.06h0l.07-.09.07-.08.13-.15,0,0,.24-.28,0,0,.15-.17.06-.07.12-.13.13-.16.06-.06.35-.41.11-.13.06-.07.08-.1.21-.24a1.29,1.29,0,0,1,.16-.17,3.3,3.3,0,1,0-5.2-4,.75.75,0,0,0-.07.12s0,.09-.08.14l0,.06-.06.1a.75.75,0,0,0-.07.12l-.32.51v0l-.1.18,0,0-.31.51-.05.08a.41.41,0,0,1,0,.09l-.23.37h0l-.1.17L309,260.38h0l-.2.34a1.77,1.77,0,0,1-.12.17.31.31,0,0,1-.07.12l0,.05a.25.25,0,0,0,0,.07l-.09.14h0l-.06.11-.47.75h0l-.08.12-.31.52h0l-.17.27-.05.08-.41.67h0l-.09.16h0a.18.18,0,0,0-.05.07l-.3-.25L305,263l1.68,1.09-.36.6,0,0-.1.17h0l-.69,1.14s0,0,0,0l-.38.61-.06.1a.75.75,0,0,1-.07.12v0l-.1.16-.17.29v0l-.14.21-.1.17-.07.13-.06.14-.12.15h0l-.29.48-.11.18,0,0-.1.17-.12.2Zm5.39-.16h0Zm-4.9-.65v0Zm.14-.22v0Zm1.05-1.73,0,0Zm.16-.26h0Zm.25-.43s0,.05,0,.08S305.58,266,305.59,266Zm.09-.14-.05.08A.35.35,0,0,0,305.68,265.81Zm-4.58-.13,0,0Zm4.74-.14-.1.14a1,1,0,0,0,.09-.13Zm-.06.1v0Zm.06-.1h0l0,0Zm.66-1.08,0,0Zm6.69-.19,0,0,0,0Zm-10.74-.84v0Zm5-.56h0Zm7.06-.17,0,0Zm-6.91-.09v0Zm0,0h0v0h0Zm-4.46-.33h0Zm5-.52,0,.05Zm7.33-.14-.07.09.07-.08h0Zm-7.21-.05,0,.06ZM316,261h0Zm-6.91-.79v0Zm.06-.12Zm.08-.11,0,.07Zm-3-.59.8.42-1-.58Zm3.16.39h0Zm0,0Zm.48-.79,0,0,0,0Zm0,0h0l.06-.1Zm-4.29-.63h0Zm5.12-.74-.05.08A.35.35,0,0,0,310.64,257.63ZM311,257l-.06.1Zm.11-.18,0,0Zm-4.41-.44s0,0,0,0Zm1.43-2.36a.35.35,0,0,1-.05.08Z"/><path class="cls-2" d="M309.74,255.26a.73.73,0,0,1-.05.09l-.06.1-.06.1-.06.1-.06.09-.06.1-.06.1-.06.1a.47.47,0,0,1-.06.09.31.31,0,0,0,0,.1l-.06.1a.33.33,0,0,0-.06.1l-.06.09-.06.1-.06.1-.06.09-.06.1-.06.1-.06.1s0,.06-.05.09a.61.61,0,0,0-.07.1s0,.06-.06.1a.93.93,0,0,1-.05.1l-.06.09-.06.1-.06.09-.06.11a.41.41,0,0,0,0,.09.61.61,0,0,0-.07.1.31.31,0,0,0,0,.1.47.47,0,0,0-.06.09.37.37,0,0,0-.06.1.86.86,0,0,0-.07.1l-.05.1-.06.1-.06.09-.06.1-.06.1a.41.41,0,0,0-.05.09.33.33,0,0,0-.06.1l-.06.1-.07.09a.47.47,0,0,1-.05.1l-.06.1-.06.1-.06.09-.06.1-.06.1-.06.09-.06.1s0,.07-.05.1a.33.33,0,0,0-.06.1.47.47,0,0,0-.06.09.61.61,0,0,1-.07.1.47.47,0,0,1-.05.1l-.06.1a.7.7,0,0,0-.06.09l-.06.1-.06.1-.06.1a.47.47,0,0,1-.06.09s0,.07-.05.1a.47.47,0,0,0-.06.09.53.53,0,0,0-.06.1l-.06.1-.06.1-.06.09a.93.93,0,0,0-.05.1.61.61,0,0,0-.07.1.53.53,0,0,1-.06.1s0,.06-.05.09l-.07.1a.93.93,0,0,1-.05.1l-.06.1-.06.09-.06.1-.06.1-.06.1-.06.09-.06.1,0,.1-.07.1a.73.73,0,0,0,0,.09l-.06.1a.33.33,0,0,0-.06.1l-.06.1-.06.09-.06.1-.06.09-.06.1s0,.07-.05.1a.33.33,0,0,0-.06.1.24.24,0,0,0-.06.09l-.06.1-.06.1-.06.09-.06.1-.06.1,0,.1a.36.36,0,0,0-.07.1.35.35,0,0,1-.06.09l-.06.1-.06.1a.41.41,0,0,1-.05.09.53.53,0,0,0-.06.1l-.06.1-.06.1-.06.09-.06.1-.06.09-.06.1-.05.1-.06.1a.33.33,0,0,0-.06.1.47.47,0,0,0-.06.09l-.06.1-.06.1-.06.1-.06.09a.27.27,0,0,1-.06.1.31.31,0,0,0-.05.1l-.07.09-.06.1s0,.07-.05.1l-.06.1-.06.09-.06.1-.06.1-.06.09-.06.1-.06.1-.06.1-.05.09-.06.1a4,4,0,0,0,6.33,4.86l.08-.09.07-.09.08-.09.07-.08.07-.08.08-.09.07-.09a.27.27,0,0,0,.07-.08l.08-.09a.71.71,0,0,0,.07-.09l.08-.08.07-.08.07-.09.08-.09.07-.08.08-.09.07-.08.08-.09.06-.08.08-.09.07-.09s0-.06.08-.08l.07-.09.07-.08L310,271l.07-.08.08-.09.07-.09.07-.08.08-.09a.71.71,0,0,0,.07-.09l.08-.08.07-.09.07-.08.08-.08.07-.09.08-.09.07-.08a.32.32,0,0,1,.08-.09.27.27,0,0,1,.07-.08l.07-.09.07-.09a.27.27,0,0,0,.07-.08l.08-.09.08-.08.07-.09.07-.08.08-.09.07-.09a.27.27,0,0,0,.07-.08l.08-.09a.71.71,0,0,0,.07-.09.27.27,0,0,0,.07-.08l.08-.08.07-.09.08-.09.07-.08.07-.09.08-.08.07-.09a.6.6,0,0,1,.08-.08l.07-.09.08-.09.07-.08.07-.09.07-.08.08-.09a.5.5,0,0,0,.07-.08l.08-.09.07-.09a.27.27,0,0,0,.07-.08l.08-.09a.31.31,0,0,0,.07-.09l.08-.08.07-.08.08-.09.07-.09.07-.09.08-.07.07-.09.07-.09a.73.73,0,0,0,.08-.09l.07-.08.07-.08.08-.09.07-.09a.6.6,0,0,0,.08-.08l.07-.09.08-.09.07-.08.07-.08.07-.09.08-.09s0-.05.07-.08l.08-.09a.22.22,0,0,0,.07-.09l.08-.08a.5.5,0,0,1,.07-.08l.07-.09.07-.09.08-.08.07-.09a.6.6,0,0,0,.08-.08l.07-.09.07-.08.08-.09a.31.31,0,0,0,.07-.09l.08-.08.07-.09.07-.08.08-.09.07-.08.08-.09a.27.27,0,0,1,.07-.08.71.71,0,0,1,.07-.09l.08-.09a.27.27,0,0,1,.07-.08l.07-.09A.6.6,0,0,0,317,263l.07-.09.08-.09.07-.08.08-.09a.5.5,0,0,1,.07-.08l.07-.09.07-.08.08-.09.07-.09.08-.08.07-.09a.27.27,0,0,0,.07-.08l.08-.09.07-.09.08-.08.07-.08.08-.09a5.3,5.3,0,1,0-8.36-6.43l-.06.1a.53.53,0,0,1-.06.1"/><path class="cls-1" d="M317.33,297.77a7.31,7.31,0,0,1-2.26-.36,7.32,7.32,0,0,1-5-7.87.93.93,0,0,1,0-.13c0-.05,0-.09,0-.13s0-.09,0-.13a.45.45,0,0,0,0-.11c0-.07,0-.13,0-.2s0-.1,0-.16l.05-.59a1.68,1.68,0,0,0,0-.2l0-.43s0-.11,0-.17l0-.23a.18.18,0,0,1,0-.06c0-.05,0-.11,0-.17l.05-.43a.57.57,0,0,1,0-.12l0-.39a.38.38,0,0,0,0-.1l0-.14s0-.1,0-.15,0-.1,0-.15,0-.08,0-.13v-.1c0-.09,0-.15,0-.2v-.11s0-.09,0-.14l0-.39c0-.06,0-.12,0-.18V284a.37.37,0,0,0,0-.11s0-.09,0-.14l0-.21c0-.05,0-.1,0-.15s0-.11,0-.17l0-.38v-.09a.28.28,0,0,0,0-.09l0-.26a.57.57,0,0,1,0-.13l0-.21c0-.05,0-.09,0-.15l0-.22v-.09l0-.3s0,0,0-.08,0-.07,0-.11l0-.25h0s0-.09,0-.13v0c0-.08,0-.14,0-.2v-.14a.13.13,0,0,0,0-.06c0-.06,0-.11,0-.16l0-.35s0-.08,0-.12,0-.08,0-.12v-.08c0-.05,0-.09,0-.14s0-.05,0-.08,0-.1,0-.15l0-.29v-.17c0-.05,0-.1,0-.14l0-.3a.49.49,0,0,0,0-.12l0-.22c0-.05,0-.11,0-.17v0s0-.09,0-.13v-.15h0s0-.08,0-.12,0-.09,0-.14v-.06l0-.31v0c0-.08,0-.16,0-.26a.17.17,0,0,1,0-.07.76.76,0,0,1,0-.15s0-.05,0-.07v-.06l0-.22v-.07s0-.05,0-.09a1.54,1.54,0,0,1,0-.19v0a.34.34,0,0,0,0-.1v-.08c0-.08,0-.14,0-.19a.34.34,0,0,1,0-.09.57.57,0,0,1,0-.13.49.49,0,0,1,0-.12v-.25s0-.1,0-.18v-.13c0-.06,0-.13,0-.18l0-.3a.15.15,0,0,1,0-.07.81.81,0,0,1,0-.15v-.06l0-.25s0-.08,0-.13l0-.29a1,1,0,0,0,0-.11.81.81,0,0,0,0-.16l0-.13c0-.05,0-.1,0-.15s0-.09,0-.14a5.57,5.57,0,0,1,3-4.37h0a5.62,5.62,0,0,1,7.54,2.45,5.68,5.68,0,0,1,.59,2.12l0,.12c0,.07,0,.16,0,.25l0,.3a.28.28,0,0,0,0,.09v.05c0,.09,0,.16,0,.22a.53.53,0,0,1,0,.13l0,.13v.05l0,.28s0,.07,0,.11l0,.28v.08a.28.28,0,0,1,0,.09l0,.44c0,.05,0,.09,0,.14a.28.28,0,0,0,0,.09v.12c0,.05,0,.1,0,.15a.53.53,0,0,1,0,.13l0,.42v0c0,.05,0,.11,0,.18l0,.19a1.65,1.65,0,0,1,0,.21.7.7,0,0,1,0,.13l0,.25h0a.18.18,0,0,0,0,.06.34.34,0,0,0,0,.1.49.49,0,0,0,0,.12v.06a1.1,1.1,0,0,1,0,.18,1.94,1.94,0,0,1,0,.24h0l0,.21c0,.06,0,.11,0,.17l0,.46v0s0,.08,0,.12,0,.09,0,.14l0,.39v.1c0,.06,0,.12,0,.16v.12a.45.45,0,0,0,0,.11l0,.41v0a1,1,0,0,1,0,.18l0,.14c0,.11,0,.18,0,.24v0l0,.2a.62.62,0,0,1,0,.15.17.17,0,0,1,0,.07h0l0,.24,0,.23h0a.61.61,0,0,1,0,.14,1.1,1.1,0,0,1,0,.18l0,.26s0,.12,0,.21l0,.19v.16l.05.49v0s0,.07,0,.1l0,.43h0a.49.49,0,0,1,0,.12l0,.19v0a.19.19,0,0,1,0,.08,1.79,1.79,0,0,1,0,.23l0,.32a1.37,1.37,0,0,1,0,.19l0,.14c0,.07,0,.14,0,.19a.41.41,0,0,1,0,.11.37.37,0,0,1,0,.11l0,.21s0,.09,0,.14,0,.12,0,.2v.11a.54.54,0,0,0,0,.11,1.65,1.65,0,0,1,0,.21v0c0,.06,0,.12,0,.17l0,.21a.76.76,0,0,1,0,.15s0,.1,0,.16l0,.17v.09a1.23,1.23,0,0,1,0,.2.55.55,0,0,1,0,.09v.11h0v0a.34.34,0,0,1,0,.1l0,.2v.11l0,.13c0,.05,0,.1,0,.15a1,1,0,0,1,0,.19c0,.06,0,.11,0,.17s0,.12,0,.17l0,.13v.06s0,.06,0,.09a.25.25,0,0,0,0,.08,2.29,2.29,0,0,1,0,.25,7.3,7.3,0,0,1-7.26,8Zm-3.26-7.87c0,.07,0,.13,0,.19a3.17,3.17,0,0,0,.34,1.87,3.29,3.29,0,0,0,6.22-1.78.49.49,0,0,1,0-.13l-.08-.78a.76.76,0,0,1,0-.15l0-.26h0c0-.07,0-.13,0-.2a2,2,0,0,1,0-.25l0-.15v0a.66.66,0,0,1,0-.14.17.17,0,0,1,0-.07l0-.17v0s0-.08,0-.12l-.05-.49s0-.09,0-.15V287a.54.54,0,0,1,0-.08l0-.33c0-.08,0-.14,0-.2l-.07-.75a.76.76,0,0,1,0-.15l0-.18v-.24a2.4,2.4,0,0,1,0-.28l0-.14v-.08a.25.25,0,0,1,0-.08l0-.32v0l0-.53a.08.08,0,0,1,0,0v-.07l0-.17s0-.06,0-.09l-.12-1.3a.31.31,0,0,1,0-.1.34.34,0,0,1,0-.1l0-.2a1.64,1.64,0,0,1,0-.22,2,2,0,0,1,0-.23l-.09-.94a1.78,1.78,0,0,1,0-.3l0-.14c0-.05,0-.12,0-.18l-.13-1.31v0l-.05-.47a1.8,1.8,0,0,1,0-.22l0-.27s0-.08,0-.11,0-.14,0-.21l0-.18s0-.1,0-.15v-.08s0-.11,0-.18l0-.09v-.06h0l-.09-.87h0l0-.23V275l0-.35h0l0-.37a.53.53,0,0,0,0-.13l-.06-.58v0l0-.31a.25.25,0,0,1,0-.08l0-.29a.28.28,0,0,0,0-.09v-.1a1.74,1.74,0,0,0-.17-.69,1.6,1.6,0,0,0-3,.55l0,.29h0v.06l0,.25v.16a.11.11,0,0,1,0,.05l0,.26h0l0,.51a1.76,1.76,0,0,1,0,.19v.11a.2.2,0,0,1,0,.07v.17s0,0,0,.07,0,.09,0,.14l0,.11h0a.56.56,0,0,1,0,.17v0l-.2,2.07s0,0,0,.06a.53.53,0,0,1,0,.12l0,.29v0l0,.18a2.29,2.29,0,0,1,0,.25l0,.4c0,.15,0,.24,0,.33v0a1.15,1.15,0,0,1,0,.19l0,.22a.62.62,0,0,0,0,.13l-.09.83v.06l0,.36a.69.69,0,0,1,0,.19l0,.13c0,.07,0,.13,0,.2v.07l0,.45h0v.05a1.5,1.5,0,0,1,0,.22s0,.09,0,.16v.06l0,.28a.28.28,0,0,1,0,.09l-.06.63a.2.2,0,0,1,0,.07.49.49,0,0,1,0,.12.49.49,0,0,1,0,.12,1.49,1.49,0,0,1,0,.21v.06a1.56,1.56,0,0,1,0,.2c0,.05,0,.1,0,.14l-.12,1.29a1.36,1.36,0,0,1,0,.2l0,.37v0a1.23,1.23,0,0,1,0,.19l0,.35a.34.34,0,0,1,0,.1l0,.39,0,.19v.21h-.08l-1.92-.07,2,.18,0,.34a1.83,1.83,0,0,1,0,.21c0,.06,0,.11,0,.17l0,.26c0,.05,0,.09,0,.14l-.05.51v0Zm6.46-.57h0ZM314.25,288h0Zm-3.33-.43,1.36,0-1.7-.14Zm-.54-1.14Zm9.8-.79v0Zm4,0Zm-9.63-.86v0Zm5.49-.41h0Zm-9.47,0v0Zm.07-.77v.06h0Zm9.18-1.58v0Zm3-.85-1,.12,1.12-.12Zm-3.14-.8h0Zm-4.69-.05h0Zm0-.11h0l0-.06Zm8.59-1.06a.28.28,0,0,0,0,.09S323.57,279.2,323.57,279.17Zm-4-.21v0Zm0-.15v0Zm0-.17Zm4-.24v0Zm-12.31-.33Zm8.25-.2v0Zm2.63,0-.62.12.89-.12Zm-10.87,0h0Zm4.17-1.53,0,.2Zm7.86-.69v0Zm-7.8,0h0Zm7.77-.38h0Zm-4,0v0h0Zm-.07-.71h0Zm-.14-1.46h0Zm0-.16a.34.34,0,0,0,0,.1h0A.28.28,0,0,1,319,272.93Z"/><path class="cls-2" d="M315.69,269.51a3.6,3.6,0,0,0-1.95,2.86.45.45,0,0,0,0,.12.37.37,0,0,0,0,.11s0,.08,0,.11v.11a.53.53,0,0,0,0,.12.49.49,0,0,0,0,.12s0,.07,0,.11v.11a.5.5,0,0,0,0,.12s0,.07,0,.11,0,.08,0,.11a.49.49,0,0,0,0,.12.41.41,0,0,0,0,.11.49.49,0,0,0,0,.12.22.22,0,0,1,0,.11v.11s0,.08,0,.12v.11s0,.08,0,.11a.49.49,0,0,1,0,.12.49.49,0,0,1,0,.12.45.45,0,0,1,0,.11.45.45,0,0,1,0,.11.45.45,0,0,0,0,.11,237010076810.06,237010076810.06,0,0,1,0,.24s0,.07,0,.11v.11a.45.45,0,0,0,0,.11s0,.08,0,.12a.45.45,0,0,1,0,.11.49.49,0,0,1,0,.12.41.41,0,0,1,0,.11.49.49,0,0,0,0,.12s0,.07,0,.11,0,.08,0,.11a.49.49,0,0,0,0,.12.41.41,0,0,0,0,.11.23.23,0,0,0,0,.11v.12s0,.07,0,.11a.53.53,0,0,1,0,.12.45.45,0,0,1,0,.11.37.37,0,0,1,0,.11s0,.08,0,.11a.57.57,0,0,0,0,.12v.12a.37.37,0,0,0,0,.11.41.41,0,0,0,0,.11s0,.07,0,.12a.45.45,0,0,1,0,.11v.12s0,.07,0,.11v.11a.49.49,0,0,1,0,.12s0,.07,0,.11a.41.41,0,0,0,0,.11s0,.08,0,.12a.41.41,0,0,0,0,.11.5.5,0,0,1,0,.12v.11a.5.5,0,0,0,0,.12.45.45,0,0,1,0,.11s0,.08,0,.11v.12a.36.36,0,0,0,0,.11s0,.08,0,.11,0,.08,0,.11,0,.09,0,.12v.11a.49.49,0,0,0,0,.12s0,.08,0,.11a.49.49,0,0,1,0,.12.41.41,0,0,1,0,.11.37.37,0,0,1,0,.11.49.49,0,0,1,0,.12.41.41,0,0,0,0,.11s0,.08,0,.12a.41.41,0,0,0,0,.11s0,.08,0,.11,0,.08,0,.12a.41.41,0,0,1,0,.11v.12a.37.37,0,0,0,0,.11s0,.08,0,.12a.45.45,0,0,1,0,.11s0,.07,0,.11,0,.08,0,.12,0,.07,0,.11a.41.41,0,0,0,0,.11.49.49,0,0,0,0,.12.41.41,0,0,0,0,.11.49.49,0,0,0,0,.12.37.37,0,0,0,0,.11s0,.08,0,.11a.49.49,0,0,1,0,.12.53.53,0,0,1,0,.12.49.49,0,0,1,0,.11.41.41,0,0,0,0,.11.45.45,0,0,0,0,.11s0,.08,0,.11,0,.08,0,.12a.41.41,0,0,0,0,.11.49.49,0,0,0,0,.12.37.37,0,0,0,0,.11s0,.08,0,.12a.45.45,0,0,1,0,.11s0,.08,0,.11a.37.37,0,0,1,0,.11.45.45,0,0,1,0,.12.49.49,0,0,0,0,.12s0,.07,0,.11a.45.45,0,0,0,0,.11s0,.08,0,.12v.11a.45.45,0,0,0,0,.11s0,.08,0,.12a.37.37,0,0,1,0,.11.49.49,0,0,1,0,.12.45.45,0,0,1,0,.11.45.45,0,0,0,0,.11s0,.08,0,.12a.45.45,0,0,0,0,.11.49.49,0,0,0,0,.12.45.45,0,0,0,0,.11s0,.07,0,.12a.45.45,0,0,1,0,.11.41.41,0,0,1,0,.11.37.37,0,0,1,0,.11.53.53,0,0,0,0,.12.45.45,0,0,0,0,.12s0,.07,0,.11,0,.07,0,.11a.45.45,0,0,0,0,.11s0,.08,0,.12v.12s0,.07,0,.11a.37.37,0,0,1,0,.11.49.49,0,0,1,0,.12s0,.07,0,.11a.37.37,0,0,1,0,.11s0,.08,0,.12,0,.07,0,.11,0,.08,0,.11a.49.49,0,0,0,0,.12.45.45,0,0,0,0,.11s0,.08,0,.12v.11a.45.45,0,0,0,0,.11c0,.05,0,.08,0,.12a.37.37,0,0,1,0,.11s0,.08,0,.12a.37.37,0,0,1,0,.11,5.2,5.2,0,0,0,.54,3.07,5.29,5.29,0,0,0,10-2.86s0-.08,0-.12,0-.08,0-.11,0-.08,0-.12a.36.36,0,0,0,0-.11v-.12s0-.07,0-.11a.49.49,0,0,0,0-.12.45.45,0,0,0,0-.11s0-.08,0-.11,0-.08,0-.12,0-.07,0-.12,0-.07,0-.11a.41.41,0,0,1,0-.11s0-.08,0-.12,0-.07,0-.11a.49.49,0,0,0,0-.12s0-.07,0-.11,0-.08,0-.12,0-.07,0-.11,0-.07,0-.11,0-.08,0-.12a.41.41,0,0,1,0-.11.49.49,0,0,1,0-.12s0-.07,0-.11a.5.5,0,0,0,0-.12V287s0-.08,0-.11a.45.45,0,0,0,0-.12s0-.07,0-.12,0-.07,0-.1,0-.09,0-.12,0-.08,0-.12a.41.41,0,0,1,0-.11s0-.08,0-.11a.57.57,0,0,1,0-.12s0-.08,0-.12a.45.45,0,0,0,0-.11.37.37,0,0,0,0-.11.49.49,0,0,0,0-.12.41.41,0,0,0,0-.11s0-.08,0-.12,0-.08,0-.11,0-.08,0-.12,0-.07,0-.11a.45.45,0,0,1,0-.11s0-.08,0-.12a.53.53,0,0,0,0-.12.45.45,0,0,0,0-.11s0-.08,0-.11,0-.08,0-.12a.41.41,0,0,0,0-.11s0-.08,0-.12,0-.07,0-.11,0-.08,0-.11a.49.49,0,0,1,0-.12.41.41,0,0,1,0-.11c0-.05,0-.08,0-.12v-.11a.5.5,0,0,1,0-.12.41.41,0,0,0,0-.11s0-.08,0-.12,0-.07,0-.11,0-.08,0-.12,0-.07,0-.11,0-.08,0-.11,0-.08,0-.12,0-.08,0-.11v-.12a.41.41,0,0,0,0-.11.49.49,0,0,0,0-.12.37.37,0,0,0,0-.11s0-.08,0-.12,0-.07,0-.11,0-.07,0-.12,0-.07,0-.11a.45.45,0,0,1,0-.12.37.37,0,0,1,0-.11s0-.07,0-.11,0-.08,0-.12a.41.41,0,0,0,0-.11.53.53,0,0,0,0-.12s0-.07,0-.11a.49.49,0,0,1,0-.12s0-.07,0-.11a.45.45,0,0,1,0-.12.37.37,0,0,1,0-.11.41.41,0,0,1,0-.11.49.49,0,0,1,0-.12s0-.08,0-.11v-.12s0-.07,0-.11,0-.08,0-.12a.37.37,0,0,1,0-.11s0-.08,0-.11a.49.49,0,0,1,0-.12V279a.5.5,0,0,0,0-.12.37.37,0,0,0,0-.11v-.12s0-.07,0-.11a.37.37,0,0,0,0-.11.49.49,0,0,0,0-.12s0-.08,0-.12,0-.07,0-.11a.37.37,0,0,0,0-.11.49.49,0,0,1,0-.12s0-.07,0-.11a.49.49,0,0,1,0-.12s0-.08,0-.11,0-.08,0-.11,0-.08,0-.12a.37.37,0,0,0,0-.11c0-.05,0-.08,0-.12s0-.08,0-.11a.49.49,0,0,1,0-.12s0-.08,0-.11a.5.5,0,0,0,0-.12v-.11a.45.45,0,0,1,0-.11c0-.05,0-.08,0-.12a.49.49,0,0,0,0-.12s0-.07,0-.11,0-.08,0-.12a.37.37,0,0,1,0-.11s0-.07,0-.11,0-.08,0-.12,0-.07,0-.11a.45.45,0,0,1,0-.11.49.49,0,0,1,0-.12.5.5,0,0,0,0-.12.45.45,0,0,0,0-.11s0-.07,0-.11a.49.49,0,0,0,0-.12s0-.07,0-.11,0-.08,0-.12,0-.08,0-.11a.49.49,0,0,1,0-.12.41.41,0,0,1,0-.11s0-.08,0-.11a.49.49,0,0,1,0-.12s0-.07,0-.11v-.12s0-.07,0-.11a.49.49,0,0,0,0-.12s0-.07,0-.11a.49.49,0,0,1,0-.12.41.41,0,0,1,0-.11s0-.07,0-.12a.37.37,0,0,1,0-.11s0-.08,0-.11v-.12a.41.41,0,0,1,0-.11.5.5,0,0,1,0-.12,3.43,3.43,0,0,0-.39-1.4,3.59,3.59,0,0,0-4.84-1.58"/><path class="cls-1" d="M277.76,293.27a6,6,0,0,1-4.61-2.15l-.15-.18,0,0h0l-.12-.14-.09-.1,0,0-.1-.12-.07-.08-.17-.2-.1-.12-.07-.08a1.07,1.07,0,0,1-.14-.16l0,0-.09-.1-.1-.11-.08-.1,0,0a.18.18,0,0,1-.05-.07l-.14-.15a.1.1,0,0,0,0-.05l-.09-.11-.07-.08-.07-.08a.87.87,0,0,1-.12-.14l0,0a1.8,1.8,0,0,1-.18-.2l-.08-.09-.16-.2a1.07,1.07,0,0,1-.14-.16h0l0-.05-.08-.09-.08-.09a1.39,1.39,0,0,1-.15-.19.24.24,0,0,1-.08-.09l-.18-.2-.13-.15-.06-.07-.07-.09-.06-.06-.06-.07-.09-.11-.07-.08-.09-.1-.16-.19,0-.05-.05-.05-.08-.1a.32.32,0,0,1-.08-.1l0,0-.13-.15-.07-.08-.05-.07-.11-.12-.19-.22-.08-.09-.08-.1-.14-.16-.06-.07,0,0a1.12,1.12,0,0,1-.17-.2l0,0h0l-.14-.16-.1-.12h0l-.11-.14-.1-.12-.13-.15L267,284l-.11-.09-.15-.22a1,1,0,0,1-.12-.14l-.24-.27,0-.05-.53-.62-.12-.13-.18-.21-.05,0-.18-.22-.06-.07-.1-.11-.1-.12,0,0-.09-.11-.28-.32-.16-.19-.05-.06-.12-.14-.1-.11,0-.05,0,0-.16-.19-.11-.13h0l-.26-.3h0l-.25-.29-.1-.12-.11-.12-.16-.19a7.3,7.3,0,1,1,12-8.22l0,.09.06.1.26.42.1.16.09.17.06.08.07.12.09.15,0,.05.14.23,0,.06a1.3,1.3,0,0,1,.1.15l.09.15.06.1.1.16.05.1a1.05,1.05,0,0,1,.08.13l0,.05a.75.75,0,0,0,.07.12.41.41,0,0,1,0,.09.66.66,0,0,1,.08.13l.06.1.06.09.14.23,0,.06.12.19h0l0,0h0l.16.27,0,0,.13.21a.35.35,0,0,0,.05.08l.07.12a.75.75,0,0,1,.07.12l0,0,.35.59.07.1.12.21.07.11.06.1.16.27a.56.56,0,0,1,0,.08,1.4,1.4,0,0,1,.1.16h0l0,.06.07.11,0,.06.09.14.2.34,0,0,.11.17,0,.07.19.3.09.15a.35.35,0,0,0,.05.08l.07.12.19.31,0,.07,0,0,.1.17,0,.09.05.08.11.18v0l0,.06.08.12.06.1h0a1.11,1.11,0,0,0,.08.12l.05.1a1.64,1.64,0,0,1,.14.22l.05.09a1,1,0,0,1,.09.15l.09.13.15.26.05.08a1,1,0,0,1,.1.17l.09.14.05.09.13.22,0,0,.15.26a1.42,1.42,0,0,1,.11.16l.07.12,0,.07,0,.07.08.12,0,.06a1,1,0,0,1,.1.17.41.41,0,0,1,.05.09h0l.17.28a.41.41,0,0,1,.05.09l.25.41,0,.05,0,.05.07.1.14.24a1.6,1.6,0,0,1,.11.19,6,6,0,0,1-5.23,8.94Zm-4.67-2.22h0Zm3-2.63.11.13a2,2,0,0,0,1.54.72,2,2,0,0,0,2-2,1.92,1.92,0,0,0-.27-1l-.06-.11s0,0,0,0a.86.86,0,0,1-.1-.16l-.22-.36a.41.41,0,0,1-.05-.09.57.57,0,0,1-.08-.13l0,0a1.62,1.62,0,0,1-.1-.18l-.23-.36v0l-.16-.27-.09-.15-.32-.53,0-.07a.41.41,0,0,0-.05-.09l-.11-.18-.08-.13a.41.41,0,0,0-.05-.09l-.08-.13h0s-.07-.11-.11-.19l-.08-.13-.08-.13-.08-.13-.07-.11-.14-.24,0,0a1.74,1.74,0,0,1-.11-.18l0-.06-.07-.13a.74.74,0,0,1-.08-.12l-.07-.11-.06-.11-.15-.25-.06-.09-.08-.14h0l-.06-.1-.09-.15-.2-.32-.07-.12-.1-.17,0,0-.05-.09-.13-.21a.59.59,0,0,1,0-.08.61.61,0,0,1-.07-.1s-.06-.09-.08-.14l-.17-.27-.06-.1-.05-.08-.08-.13h0l-.09-.15-.05-.07-.09-.15,0-.05-.06-.11-.08-.13-.08-.14h0s0,0,0,0l-.06-.11-.09-.14-.07-.11-.08-.13-.06-.1,0-.05-.18-.3h0l-.08-.11,0-.05,0-.06-.29-.48-.09-.14-.07-.12h0s-.05-.09-.08-.14l-.06-.1-.32-.53,0,0-.26-.43-.1-.16h0a.75.75,0,0,0-.07-.12l-.1-.16-.21-.35h0A.75.75,0,0,1,272,274l0,0-.31-.52h0a.44.44,0,0,1-.05-.09l-.1-.15-.06-.1a3.3,3.3,0,1,0-5.41,3.7l.28.32.08.1.15.17.1.12.06.06.06.07.05.06.09.11,0,0,.15.17.11.13,0,.06.08.09a.18.18,0,0,1,0,.07l.28.32.14.16.06.07.07.08.06.08.07.07.09.11,0,0,.14.16,0,.05.06.07.1.11.31.36,0,.06.08.1.09.1.07.09.05.06.09.09.07.09.2.23s0,0,.05.05l.45.53.08.08.07.09.13.15.13.16.09.1.11.13.12.14.23.26.13.15.23.27.07.08.07.08.55.65h0l.27.31.07.08.07.07.09.1.4.47.09.11.06.07.3.34.1.12,1,1.18a.1.1,0,0,1,0,.05l.64.73.1.12.18.21.1.11Zm-.25-.29,0,0Zm-.24-.28v0Zm-5.34-.07.07.08Zm4.77-.56h0Zm-.16-.21.1.13a1,1,0,0,0-.08-.11Zm0,0h0Zm-.2-.24,0,.05Zm4.58-.88v0Zm-5.83-.57v0Zm5.36-.19h0ZM267.88,285v0Zm14.91-1a.05.05,0,0,1,0,0h0Zm-10.93-.51h0l0,0Zm-.27-.31.08.1-.05-.07h0Zm10.58-.21v0Zm-16.09-.07,0,0Zm4.86-.46,0,.05Zm0,0v0Zm-2.35-.35-.33.3.44-.36Zm-3.18.06h0Zm4.79-.56h0Zm0,0h0Zm11-.21Zm-11.53-.42h0Zm-5.57-.34,0,0Zm4.7-.67,0,0Zm-.14-.15h0Zm5.34-2.58s0,0,0,0Zm-7.71-.18.05.07-.05-.06Zm6.84-1.25,0,0,0,0Zm2.7-3.25,0,0h0Z"/><path class="cls-2" d="M264.62,278.15l.08.09.07.08.07.09.08.09.07.08.08.09.07.09.07.08.08.09.07.08.08.09.08.09.07.09.07.08.08.09a.71.71,0,0,1,.07.09l.08.08.07.08a.71.71,0,0,0,.07.09l.08.09.07.08.08.09.07.08.07.09.08.09.08.09.07.08.07.09.08.08.07.09.07.08.08.09.08.09.07.08.07.09a.6.6,0,0,0,.08.08l.07.09.07.09.08.08.07.09.08.09.07.08.08.09.07.08.08.09.07.09.08.08.07.09.07.08a.36.36,0,0,0,.08.09l.07.09.08.08.07.09.07.09a.6.6,0,0,1,.08.08l.07.09.08.09.07.08.07.09.08.09.07.08.07.08.08.09.08.09.07.09.08.08.07.09.08.08.07.09.07.08.07.09.08.09.08.09.07.08.08.09.07.08a.71.71,0,0,0,.07.09l.08.09.07.08.08.09.07.08.08.09a.47.47,0,0,1,.06.09l.08.08.08.09.07.09a.6.6,0,0,0,.08.08l.07.09.07.08.08.09.07.09.08.08.07.09.08.09.07.08.08.09a.18.18,0,0,0,.07.08l.07.09.07.08.08.09.08.09s.05.06.07.08l.07.09.08.09.07.08.08.09.07.09a.6.6,0,0,1,.08.08l.07.09.07.08.08.09.07.08a.34.34,0,0,0,.08.09l.07.09.07.09.08.08.07.09.08.08.07.09.07.08a.73.73,0,0,0,.08.09l.07.09.08.09.07.08.08.08a.35.35,0,0,0,.07.09l.08.09a.27.27,0,0,0,.07.08l.07.09.08.09.07.08.08.09a.27.27,0,0,0,.07.08l.07.09.08.09a4,4,0,0,0,6.57-4.53s0-.06-.06-.1,0-.06-.05-.09a.37.37,0,0,1-.06-.1l-.06-.09a.36.36,0,0,0-.07-.1l-.05-.1-.06-.09-.06-.1-.06-.1a.31.31,0,0,1-.05-.1l-.07-.09a.93.93,0,0,1-.05-.1l-.07-.09a.31.31,0,0,0-.05-.1l-.06-.1a.47.47,0,0,0-.06-.09l-.06-.1a.53.53,0,0,0-.06-.1s0-.06-.05-.09l-.06-.1-.06-.1a.53.53,0,0,0-.06-.1l-.06-.09a.47.47,0,0,1-.05-.1.86.86,0,0,1-.07-.1.47.47,0,0,0-.06-.09s0-.06-.05-.1l-.06-.1-.06-.1-.06-.09-.06-.1a.47.47,0,0,0-.06-.09.31.31,0,0,0,0-.1.33.33,0,0,1-.06-.1.47.47,0,0,1-.06-.09l-.06-.1-.06-.09a.33.33,0,0,0-.06-.1l-.06-.1a.31.31,0,0,1-.05-.1l-.07-.09s0-.06-.06-.1a.47.47,0,0,0-.05-.1.47.47,0,0,1-.06-.09l-.06-.1-.06-.1-.06-.09a.53.53,0,0,0-.06-.1l0-.1-.06-.09-.06-.1-.06-.1-.06-.09-.06-.1-.06-.1-.06-.1s0,0-.06-.09l-.05-.1-.06-.1-.06-.09-.06-.1-.06-.1-.06-.09,0-.09s-.05-.07-.06-.1a.36.36,0,0,0-.07-.1l0-.1-.06-.1-.06-.09a.41.41,0,0,1-.05-.09.86.86,0,0,0-.07-.1.47.47,0,0,0-.05-.1l-.06-.1-.06-.09-.06-.1-.06-.1-.06-.09-.05-.1a.33.33,0,0,1-.06-.1.86.86,0,0,1-.07-.1.41.41,0,0,0,0-.09l-.06-.1-.06-.09-.06-.1a.31.31,0,0,1-.05-.1.33.33,0,0,1-.06-.1l-.06-.09-.06-.1a.33.33,0,0,1-.06-.1l-.06-.09-.06-.1s0-.06-.06-.1l-.06-.09a.33.33,0,0,0-.06-.1.93.93,0,0,1-.05-.1l-.06-.09-.06-.1-.06-.1-.06-.09s0-.06-.06-.1,0-.06-.05-.09a.86.86,0,0,0-.07-.1.93.93,0,0,1-.05-.1l-.06-.1-.06-.09L275,275l-.06-.1a.24.24,0,0,0-.06-.09l-.06-.1a.47.47,0,0,0-.06-.09.31.31,0,0,0-.05-.1l-.06-.1-.06-.1-.06-.09-.06-.1-.06-.09a.93.93,0,0,1-.05-.1s0-.07-.06-.1l-.06-.1-.06-.09s-.05-.07-.06-.1l-.06-.1-.06-.09a.27.27,0,0,0-.06-.1l-.05-.1-.07-.09a.47.47,0,0,0-.05-.1l-.06-.1-.06-.09-.06-.1-.06-.1a.47.47,0,0,0-.06-.09s0-.07-.05-.1l-.06-.09s-.05-.07-.06-.1l-.06-.1a5.3,5.3,0,1,0-8.69,6l.07.08"/><path class="cls-1" d="M300.52,289.21a7.26,7.26,0,0,1-3.06-.68l-.22-.09-.07,0-.14-.07h0l0,0-.12-.05-.23-.1-.07,0-.23-.1h0l-.35-.15h0l-.2-.09-.08,0h0l-.47-.2-.08,0-.19-.08-.4-.18-.2-.08-.07,0-.1,0a.2.2,0,0,0-.08,0l-.73-.32,0,0-.16-.06-.09-.05-.2-.09-.09,0-.34-.15-.13-.06-.08,0-.2-.09-.13-.06h0l-.34-.15-.14-.06-.22-.1-.17-.07-.2-.09-.14-.06h0l-.23-.09-.17-.07,0,0-.11,0-.05,0-.19-.08-.65-.28h0l-1-.44.73-1.87-.83,1.82-.19-.08-.18-.08-.08,0-.05,0-.2-.08-.05,0h0l-.1-.05h0l-.08,0-.33-.15-.12-.05h0l-.18-.08h0l-.23-.11s0,0-.1,0l-.1,0-.06,0-.09,0-.12-.05-1-.44-.14-.06-.09,0-.07,0-.4-.17,0,0-.09,0-.14-.06-.05,0-.17-.07h0l0,0-.19-.08-.05,0,0,0h0l0,0-.1,0h0l-.23-.1-.15-.07h0l-.09,0-.19-.09-.08,0-.06,0-.18-.08-.21-.09h0l-.12-.06-.05,0-.15-.06-.1,0a5.61,5.61,0,0,1,1.38-10.67,5.81,5.81,0,0,1,2.16.08l.23.06h.1l.15,0,.09,0,.32.07.08,0,.16,0h.07l.22.05h.06l.11,0,.13,0,.13,0,.47.11.22.05h0l.14,0h.07l.29.06h0l.16,0,.09,0,.55.12h0l.2.05.09,0,.21,0,.22,0,.62.14h0s0,0,0,0l.13,0,.24.05h0l.09,0,.1,0,.21.05.13,0h0l.18,0,.45.1.27.06.17,0h.05l.14,0h0l.26.06h.05l.11,0,.48.11h0l.72.16.23.05h0a.31.31,0,0,1,.13,0h.08l.19,0,.47.1.07,0a.7.7,0,0,1,.14,0l.12,0,.09,0,.2,0,.1,0,.29.07h.1l.67.14.21.05.2.05h.05l.12,0,.1,0,.74.17h0l.47.1h0l.21.05h0l.13,0,.56.12h0l.51.11.19.05h0l.87.19.11,0h0l.22,0h0l.1,0,.1,0,.15,0a7.3,7.3,0,0,1-.41,14.34A7.43,7.43,0,0,1,300.52,289.21Zm-5-1.52h0Zm-.15-.06h0Zm-.57-.26.09,0h0Zm-1.56-.67h0Zm-1.67-.73.05,0Zm-.35-.15h0Zm7.75-1,.13.06a3.3,3.3,0,1,0,2.17-6.18l-.64-.14-.18,0h0l-.15,0-.39-.09-.07,0-.08,0-.15,0h0l-.12,0-.13,0a2.26,2.26,0,0,1-.3-.08h0l-.27-.06-.16,0-.08,0-.21,0-.06,0h0l-.11,0-.19,0h0a1.22,1.22,0,0,1-.26-.06l-.16,0-.12,0h-.07l-.14,0-.22,0-.1,0-.74-.16-.18,0-.21,0h-.05l-.17,0-.36-.08h0l-.13,0-.12,0-.08,0-.39-.08-.12,0h0l-.37-.09h-.05l-.71-.15-.14,0-.84-.18-.18,0-.68-.15h-.05l-.2-.05H291l-.17-.05-.17,0h-.05l-.13,0-.11,0-.16,0-.21-.05-.56-.13-.19,0h0l-.17,0-.07,0-.21,0-.18,0-.14,0-.16,0-.31-.07h0l-.12,0-.16,0h-.05l-.17,0h0l-.35-.08H287l-.41-.09h0l-.16,0-.35-.08-.15,0-.12,0-.88-.2-.16,0-.21,0-.11,0h0l-.43-.1a1.73,1.73,0,0,0-.64,0,1.6,1.6,0,0,0-.41,3.05l.44.19h0l.85.37h0l.57.25h0l.1.05.2.09h0l.13.05.12.05.17.08h.08l0,0,.08,0,.09,0,.51.22h0l.12,0,.09,0,.12.05.15.06.06,0,.1,0,.62.27.08,0,.11,0,.67.29h0l.49.21.05,0,.8.35.18.08.24.1.05,0,.17.07a.46.46,0,0,0,.1.05l.18.08.23.1-.69,1.88.79-1.84.1.05.13,0,.53.24h0l.52.22h0l.15.07-.08,0,.17.07.08,0,.19.09a.64.64,0,0,1,.16.07l.09,0,.11.05.19.08.15.07.12.05.12.05.13.06.13.06.17.07.06,0,.17.08h0l.64.27.09,0,.12.05.16.07.87.38.18.08h0l.15.06.37.16h0l.39.17.08,0,.18.07.15.07.07,0,.27.11.08,0,.41.18.11.05Zm-10.65-.26.08,0Zm0,0h0l-.06,0Zm-.15-.06h0Zm8.06-.86,0,0ZM288,282.23l-.57,1.31.2-.32Zm-2.9.92h0Zm-.23-.1h0Zm5.29-2.06h0Zm-.81-.35.15.07Zm-1.43-.63Zm-.65-.28h0Zm-.79-.34h0Zm-.53-.23h0Zm-2.25-1,0,0Zm15.84-1.92-.25,1.09.15-.46Zm-4.59,1h0Zm-1.59-.36h0Zm-.24-.07.14.05Zm-.18,0h0Zm-.38-.08h0Zm-.95-.21Zm-1.64-.37h0Zm-3-.67h0Zm-1.84-.41h0Zm-.36-.08h0Zm16.47-.43h0Zm-10.32-1.26-.16,1,.37-1.71Zm7.73.68h0l-.07,0Zm-.64-.14h0Zm-4.58-1h0Zm-.87-.19h0Zm-2.1-.47Zm-.41-.09h0Zm-.69-.15h0Z"/><path class="cls-2" d="M282.2,279.73l.11,0,.11,0,.09.05.11.05.1,0,.11.05.1,0,.1,0,.1.05.1,0,.11.05.1,0,.1.05.11,0,.1,0,.11,0,.1.05.1,0,.1,0,.1.05.11.05.1,0,.11.05.1,0,.1,0,.11.05.09.05.11,0,.1,0,.11.05.1,0,.11.05.09,0,.11.05.1.05a.21.21,0,0,1,.1,0l.11,0,.1.05.1,0,.11,0,.1.05.1,0,.1,0,.11,0,.1.05.1,0,.1.05.11,0,.1.05.1,0,.11.05.1,0,.1.05.11,0,.1.05.1,0,.1,0,.11,0,.1,0,.11.05.1,0,.1.05.1,0,.11,0,.1,0,.11.05.1.05.1,0,.1,0,.1,0,.11,0,.1.05.1,0,.1.05.11,0,.1.05.1,0,.11,0,.1.05.1,0,.11.05.1,0,.1.05.11,0,.1,0a.24.24,0,0,1,.1.05l.11,0,.09,0,.11,0,.1.05.11,0,.1,0,.11.05.1,0,.1.05.1,0,.1,0,.11.05.1,0,.1.05.11,0,.1,0a.24.24,0,0,0,.1.05l.11.05.1,0,.1.05.11,0,.09.05.11,0,.1,0,.11.05.09.05.11,0,.1.05.11,0,.1,0,.1,0,.11,0,.1.05.1,0,.11.05.1,0,.1,0,.1,0,.11.05.1,0,.1,0,.1.05.11,0,.1.05.1,0,.1.05.11,0,.1.05.1,0,.11,0,.1,0,.11,0,.09,0,.11.05.1,0,.11.05.1,0,.1.05.1,0,.11.05.1,0,.11,0,.1.05.1,0,.1.05.1,0,.11.05.1,0,.11.05.1,0a5.22,5.22,0,0,0,3.09.44,5.3,5.3,0,0,0,.36-10.39l-.11,0-.11,0-.11,0-.11,0-.11,0-.11,0-.11,0-.11,0-.11,0-.12,0-.1,0-.11,0-.11,0-.11,0-.11,0-.11,0-.11,0-.11,0a.53.53,0,0,1-.12,0l-.11,0-.1,0-.11,0-.12,0-.1,0-.11,0-.12,0-.11,0-.11,0-.1,0-.11,0-.11,0a.27.27,0,0,1-.12,0l-.11,0-.11,0-.1,0-.12,0-.11,0-.1,0-.11,0-.12,0-.11,0-.11,0a.35.35,0,0,0-.11,0l-.1,0-.12,0-.1,0-.12,0-.11,0-.11,0-.11,0-.11,0-.11,0-.11,0-.11,0-.11,0-.11,0-.11,0-.11,0-.11,0h-.11a.35.35,0,0,0-.11,0l-.11,0-.11,0a.35.35,0,0,1-.11,0l-.11,0-.11,0-.11,0-.1,0-.12,0-.11,0-.11,0-.11,0-.11,0-.11,0-.11,0-.11,0-.12,0-.1,0-.11,0-.11,0-.11,0-.11,0-.11,0-.11,0-.11,0-.11,0-.11,0-.11,0-.11,0-.11,0-.11,0-.12,0-.1,0h-.11l-.11,0-.11,0-.11,0-.11,0-.11,0-.12,0-.1,0-.11,0-.11,0-.11,0-.11,0-.11,0-.12,0-.1,0a.35.35,0,0,1-.11,0l-.11,0a.35.35,0,0,1-.11,0l-.11,0-.11,0-.11,0-.12,0-.11,0-.1,0-.12,0-.11,0-.11,0-.1,0-.12,0-.11,0-.1,0a.35.35,0,0,1-.11,0l-.11,0-.12,0a.35.35,0,0,0-.11,0l-.11,0-.1,0-.12,0-.11,0-.11,0-.11,0-.11,0-.11,0-.11,0-.1,0-.12,0-.11,0-.11,0-.11,0-.11,0-.11,0-.11,0-.11,0-.11,0-.11,0-.11,0-.11,0-.11,0-.11,0-.11,0-.11,0-.11,0-.11,0a3.6,3.6,0,0,0-4.45,4.05,3.62,3.62,0,0,0,2.11,2.74"/><path class="cls-1" d="M270.4,330.67a7.5,7.5,0,0,1-2.25-.35,7.3,7.3,0,0,1,.87-14.11l.1,0,.15,0,.2,0,.15,0,.16,0,.18,0h0l.15,0,.3-.07.17,0h0l.23,0,.12,0,.11,0,.07,0h0a1.28,1.28,0,0,1,.28-.07l.1,0,.31-.08.16,0,.17,0,.18-.05.16,0h.07l.19-.05.09,0,.09,0,.25-.06.14,0,.45-.11h0l.08,0,.14,0,.11,0,.73-.17h.06l.15,0,.11,0,.21,0,.06,0h.06l.08,0,.39-.09.16,0,.13,0,.17,0h0l.28-.06h0l.21,0,.11,0h0l.06,0,.23-.05.15,0h0l.3-.07h0l.14,0,.46-.11.08,0,.21-.05h.06l.17-.05.12,0,.3-.06h0l.2,0,.68-.16h0l.1,0h0l.18-.05.07,0,.15,0,.07,0h.07l.16,0,.13,0,.08,0,.14,0,.41-.1.1,0h0l.09,0,.22-.05.25-.06.15,0h0l.18-.05H283l.39-.09.13,0h0l.22-.05.15,0,.15,0a6,6,0,0,1,3.48,11.44l-.13.06-.13.05h0l-.55.23-.06,0-.16.07-.11.05-.05,0-.13.06-.3.12-.12.05-.13.06-.09,0-.38.16h0l-.35.15-.16.07-.16.06-.22.1-.11,0h0l-.21.09-.07,0-.08,0-.07,0-.25.11-.12.05-.09,0-.1,0h0l-.48.2-.08,0-.11.05-.14.06-.12.05-.34.14,0,0-.11,0-.63.27,0,0-.16.07-.18.07-.54.23-.13.06-.26.1h0l-.14.06-.12,0-.09,0-.05,0-.11.05-.8.34-.13.05-.41.17,0,0-.06,0-.08,0-.25.1-.13.06-.37.15h0l-.16.07-.18.08-.26.11-.11,0,0,0-.09,0h0l-.09,0h0l-.2.08-.61.25-.13.06-.12.05-.15.06,0,0-.21.08-.12.05-.13.06-.09,0-.09,0-.1,0-.13.05-.05,0-.11,0-.1,0-.1,0-.15.06-.07,0-.19.08A7.22,7.22,0,0,1,270.4,330.67Zm5-1.47h0Zm.39-.73.13.23-.12-.4-.6-1.18Zm-2.27-2.58.72,1.63-.72-1.87.51-.21.1,0h0l.56-.24.12-.05,0,0,.1,0,.52-.22.05,0,.08,0h.05l.09.3.71,1.52-.71-1.88.71-.29h0l.12-.05.09,0,.41-.17.09,0,.11,0,.24-.1.05,0,.13-.05.09,0,.07,0,.1,0,.78-.33h0l.16-.07.83,1.82-.73-1.86.69-.29.13-.05.45-.19h0l.22-.09,1.32-.55.13-.05h0l.31-.13.15-.06,0,0,.15-.06h0l.2-.08.12-.06h0l.36-.15.08,0,.63-.27h0l.13-.05.07,0h0l.24-.1.17-.07.15-.07.39-.16.12-.05.11-.05.56-.23a2,2,0,0,0,1.18-1.25,2,2,0,0,0-1.28-2.52h0a2,2,0,0,0-1-.05l-.35.08-.16,0-.26.06-.11,0-.16,0h-.05l-.2.05-.21.05-.24.06h-.05l-.41.09h0l-.09,0-.08,0-.23.09h-.19l-.11,0-.26.06h0l-.09,0-.47.11h-.07l-.09,0-.15,0-.24.06h-.05l-.14,0-.22.05-.07,0-.13,0-.36.08-.06,0-.16,0-.8.18h0l-.2.05a.58.58,0,0,1-.14,0l-.18.05-.13,0-.12,0-.51.12h0l-.09,0-.16,0-.13,0-.19,0-.2.05-.35.08h-.06l-.17.05-.14,0-.11,0-.22.06-.11,0-.13,0-.05,0h-.08l-.84.2-.13,0-.07,0-.11,0-.21.05-.16,0-.06,0-.17,0-.22.06h-.06l-.12,0-.6.14-.06,0h-.07l-.16,0H272l-.06-.6-.36-1.33.43,1.95-.13,0-.22.06-.16,0h0l-.21.05-.24.06-.2,0-1,.23a3.3,3.3,0,0,0-2.34,4.74,3.28,3.28,0,0,0,4.18,1.55l1.27-.52.13-.06.36-.15h0Zm6.29,1.46h0Zm-5.24-.73.31.63-.42-1Zm-.29-1.29,0,0Zm1.12-.46-.06,0Zm11.43-.46-.08,0a.2.2,0,0,0,.08,0Zm0,0h0Zm.24-.1h0Zm-8.81-.64h0Zm.93-.38Zm1.74-.74-.08,0Zm2-.83Zm2.64-1.11h0Zm-14.86-.67-.11,0Zm6.57-1.54h0Zm.17-.05Zm-5.79-.68-.41-2Zm9.79-.26-.07,0ZM283,317h0ZM279.57,315l.19.76-.26-1.39Zm-6,.15h0Zm1.12-.26-.08,0Zm1.93-.46h0Zm3.29-.77Zm1.68-.39h0Z"/><path class="cls-2" d="M286.49,314.74a4.06,4.06,0,0,0-2.07-.1l-.11,0-.12,0-.1,0-.11,0-.12,0-.11,0-.11,0-.11,0-.11,0-.11,0-.11,0-.12,0a.35.35,0,0,1-.11,0l-.11,0a.35.35,0,0,1-.11,0l-.11,0-.11,0-.11,0-.11,0-.11,0-.11,0-.12,0-.11,0-.11,0-.1,0-.11,0-.12,0a.35.35,0,0,1-.11,0l-.11,0-.11,0-.11,0-.11,0-.11,0-.11,0-.12,0-.11,0-.11,0a.23.23,0,0,1-.11,0l-.11,0-.11,0-.11,0-.11,0-.11,0-.11,0a.35.35,0,0,0-.11,0l-.11,0-.11,0-.12,0-.11,0-.11,0-.11,0-.11,0-.11,0-.11,0-.11,0-.11,0-.12,0-.1,0-.12,0-.11,0-.11,0-.11,0-.11,0-.11,0-.11,0-.11,0-.11,0a.35.35,0,0,0-.11,0l-.11,0-.12,0-.11,0-.11,0-.11,0-.11,0-.11,0-.11,0-.11,0h-.11l-.11,0-.11,0-.11,0-.12,0-.11,0-.11,0-.11,0-.11,0-.11,0-.11,0-.11,0-.11,0-.11,0a.27.27,0,0,0-.12,0l-.11,0-.11,0-.11,0-.11,0-.12,0-.1,0-.12,0-.1,0-.11,0-.11,0-.12,0-.11,0-.11,0-.11,0a.45.45,0,0,0-.11,0l-.12,0-.1,0-.11,0-.12,0-.1,0-.12,0-.11,0a.45.45,0,0,1-.11,0l-.11,0-.11,0-.11,0-.11,0-.11,0-.12,0-.1,0-.11,0-.11,0-.12,0a.35.35,0,0,1-.11,0l-.11,0-.11,0-.11,0-.11,0-.11,0-.11,0-.11,0-.11,0-.11,0a5.29,5.29,0,0,0-.68,10.24,5.2,5.2,0,0,0,3.65-.14l.11,0,.1-.05.11,0,.11-.05.1,0,.11-.05.1,0,.11,0,.1-.05.11,0,.1-.05.12,0,.1-.05.11,0,.1,0,.1,0,.11,0,.11,0,.1,0,.11,0,.1-.05.11,0,.11-.05.1,0,.1,0,.11,0,.11,0,.1-.05.11,0,.1-.05.11,0,.11,0,.1,0,.11-.05.1,0,.11,0,.1-.05.11,0,.1,0,.11,0,.11,0,.1,0,.11-.05.1,0,.11,0,.11,0,.11,0,.1,0,.1,0,.11-.05.1,0,.11,0,.11,0,.1-.05.11,0,.1,0,.11-.05.11,0,.1,0,.11-.05.1,0,.11-.05.1,0,.11-.05.1,0,.11,0,.1-.05.11,0,.11-.05.1,0,.11-.05.1,0,.11-.05s.07,0,.11,0l.1,0,.1-.05.11,0,.11-.05.1,0,.11,0,.11,0,.1,0,.1-.05.11,0,.11-.05.1,0,.11,0,.11,0,.1-.05.11,0,.1,0,.11-.05.1,0,.11,0,.1,0,.11,0,.1,0,.11,0,.11-.05.1,0,.11,0,.11,0,.1,0,.1,0,.11,0,.11-.05.1,0,.11,0,.11,0,.1,0,.11,0,.1,0,.11-.05.1,0,.11-.05.11,0,.1-.05.1,0,.11,0,.11-.05.1,0,.11-.05.1,0,.11-.05.1,0,.11,0,.11-.05.1,0,.11,0,.1-.05.11,0,.1-.05.11-.05.11,0,.1-.05a4,4,0,0,0-.2-7.54"/><path class="cls-1" d="M276.78,315.21a6.54,6.54,0,0,1-.89-.07,5.62,5.62,0,0,1-4.66-6.41,5.68,5.68,0,0,1,.77-2.08l.05-.08.06-.1.06-.11.15-.25a1.19,1.19,0,0,1,.09-.15l0,0,.45-.77.1-.17.13-.21v0l.08-.13.09-.16a.54.54,0,0,0,.06-.11.61.61,0,0,1,.07-.1l0-.08.14-.23h0l0,0,.14-.25.05-.08.05-.09.09-.15.11-.19.18-.3.07-.12.33-.56.08-.14.06-.09,0-.07h0l0,0h0l.05-.09h0v0l.09-.16.09-.14.06-.11,0-.05.08-.13c0-.05.06-.11.09-.15l.1-.18,0,0,.11-.2.05-.07.33-.57h0l.18-.31v0l.15-.25a1,1,0,0,1,.12-.21l0-.06.08-.15h0l.07-.11h0l.68-1.15.07-.12.15-.25a.41.41,0,0,1,.07-.11l.37-.65.1-.15.06-.11v0l.12-.2.32-.54.1-.18,0-.05.07-.11.07-.12.08-.13,0,0,.08-.14c0-.05,0-.09.07-.13l.23-.39.11-.19h0l.11-.19,0,0,.11-.2a1.62,1.62,0,0,1,.1-.18l.33-.56.1-.17,0,0,0,0,.08-.14.05-.08.06-.11.28-.46,0-.06h0l0,0a1,1,0,0,0,.08-.14l.07-.11a7.3,7.3,0,1,1,11.58,8.77l-.18.19-.09.1-.14.17-.67.76,0,0-.08.09-.09.1-.08.09-.47.53-.08.09-.1.12-.1.11,0,0a.3.3,0,0,0-.07.08l-.13.14-.34.38a.57.57,0,0,1-.11.12l-.2.24s0,0-.05.05l-.11.13-.41.46-.05.06a1.29,1.29,0,0,1-.16.17l-.24.28-.06.06c0,.07-.11.13-.16.19l-.08.09-.09.1-.17.19h0l-.34.39-.13.15-.11.12-.13.15-.11.13-.08.08-.13.15h0l-.14.16-.15.17-.11.12-.08.1,0,0-.09.1-.1.11-.34.39-.11.12-.1.11h0l-.05,0,0,0-.07.08-.1.12-.06.06-.29.33,0,0,0,0-.14.16-.14.16-.16.18-.12.13-.05.06a.86.86,0,0,1-.13.14l-.1.12,0,0-.34.39-.07.08-.34.38,0,0-.23.26s0,0,0,0v0L283,311l-.13.14-.07.08-.23.26-.07.09-.06.05-.29.33s0,0,0,.06l-.09.1-1.52-1.29,1.45,1.38-.11.11L280.34,311l1.43,1.41-.07.07-.11.13-.46.51-.13.15-.07.09A5.6,5.6,0,0,1,276.78,315.21Zm-1.31-6.55-.06.09a1.6,1.6,0,0,0,2.55,1.92l.19-.22.06-.07.07-.07,0,0,.12-.15.17-.19a.86.86,0,0,1,.13-.14l.3-.34.15-.17.15-.17,0,0,.2-.23.09-.1.05-.06.07-.08.23-.26,0-.05.24-.27h0l.07-.08h0l.11-.2.21-.17.09-.1.1-.11.11-.12v0h0a.76.76,0,0,1,.09-.09l.14-.17a1.44,1.44,0,0,1,.14-.15l.2-.24a1.94,1.94,0,0,1,.16-.17l.12-.14.05-.06L282,306l.14-.1.06-.08.08-.08a.27.27,0,0,1,.07-.08l.25-.29.1-.11.09-.1.11-.13h0l.48-.56.1-.1.39-.44.11-.13.07-.07.09-.11a.46.46,0,0,1,.07-.07l.39-.46.07-.07.05-.05.17-.2.14-.16,0,0,.13-.15.08-.09.06-.07.21-.23a1.07,1.07,0,0,1,.14-.16l0,0,.1-.11c.05-.07.11-.13.16-.19l.13-.15,0,0,.17-.19.07-.09.14-.15.08-.09,0,0,.06-.07,1.28-1.45.11-.12.17-.2,0,0,.15-.17.51-.58h0l.1-.1.09-.12.46-.51a3.19,3.19,0,0,0,.85-1.73,3.3,3.3,0,0,0-6.08-2.23l-.13.23,0,.05-.06.11-.06.09a.22.22,0,0,1,0,.08l-.42.71a.25.25,0,0,1,0,.07l-.08.14h0l-.11.17-.1.18-.18.31,0,.05a.37.37,0,0,1-.06.1L283,296l-.08.12a.22.22,0,0,1-.05.08l-.09.16h0l-.1.17-.09.17,0,0,0,.09-.09.14-.09.15-.06.1-.2.35a1,1,0,0,0-.08.14l0,.06-.1.18,0,.05a1,1,0,0,1-.09.15l-.35.61-.08.13-.06.09c0,.05-.05.09-.07.13l-.28.47a.84.84,0,0,1-.08.14l0,0-.08.13-.18.31-.07.11,0,0s-.05.09-.07.13l-.5.84-.11.19,0,.05-.09.16a.31.31,0,0,0,0,.09h0l-.09.16,0,.07-.08.13-.25.44-.1.16-.1.17v0h0l-.36.61,0,.06-.11.2-1.79-.91,1.7,1h0l-.31.53-.08.15-.1.15-.18.31,0,0s-.05.08-.07.13h0l0,.07-.07.12,0,.09-.05.07-.07.14-.07.1-.27.48-.1.23-.3.42,0,.06-.06.1v0l-.13.23-.05.08a1.74,1.74,0,0,1-.11.18l0,.08,0,.05-.1.16Zm2.73,1.75h0Zm2.52-2,1.09.93L280.36,308h0Zm-1.5.83h0Zm-3.68-.71,0,0Zm4.32,0v0Zm5.46-.13,0,0Zm-4.77-.64-.08.08.08-.08Zm-4.19-.61,0,.05Zm.43-.74h0l0-.05Zm-4.6-.07h0Zm4.92-.46h0Zm-4.63,0h0Zm.28-.46,0,0Zm.17-.3s0,0,0,0Zm10.34-.41,0,0Zm5.6-.31h0Zm.13-.15h0l0,0Zm-4.54-.9,0,0ZM275.17,302l1.44.75-.84-.52-.83-.39Zm-.65.38,0,.06,0-.06Zm10.91-.19h0Zm-6.15-.05v0S279.28,302.19,279.28,302.17Zm.47-.8h0l0-.05Zm.3-.49h0Zm-1.59-1.24,1.69,1.06a.41.41,0,0,0,.05-.09Zm-2.76.75h0Zm.36-.61,0,0Zm11.76-.26,0,0Zm2.65,0-.74-.64Zm-13.54-1.26h0Zm4.7-.08h0Zm-.06-2.52.46.22-1-.6Zm-3.15.1h0Zm0,0h0l.07-.12Zm4.8-.27,0,0Zm-4-1.09v0Z"/><path class="cls-2" d="M290.47,299.54a.3.3,0,0,1,.08-.08.7.7,0,0,1,.06-.09l.08-.08.07-.09a.27.27,0,0,0,.07-.08l.08-.09L291,299l.07-.09a5.17,5.17,0,0,0,1.38-2.8,5.3,5.3,0,0,0-9.77-3.56l-.06.1-.06.1-.05.09-.06.1a.24.24,0,0,1-.06.09.31.31,0,0,1-.05.1l-.06.1a.89.89,0,0,0-.11.19l-.06.09,0,.1-.06.09-.06.1-.06.1a.41.41,0,0,1-.05.09l-.06.1-.06.1a.41.41,0,0,1-.05.09l-.06.1-.05.09-.06.1-.06.1a.41.41,0,0,1-.05.09l-.06.1-.06.09-.05.1-.06.09-.06.1a.93.93,0,0,1-.05.1l-.06.09-.06.1a.41.41,0,0,1,0,.09l-.06.1-.06.1a.41.41,0,0,1-.05.09l-.06.1-.06.09-.05.1-.06.1a.41.41,0,0,0-.05.09.33.33,0,0,0-.06.1l-.06.09a.53.53,0,0,1-.06.1.41.41,0,0,1-.05.09l-.06.1-.06.1L280,297l-.06.1a.41.41,0,0,0-.05.09l-.06.1-.06.1,0,.09-.06.1-.06.1a.41.41,0,0,1-.05.09.53.53,0,0,0-.06.1l-.06.09-.05.1-.06.1s0,.06-.06.09a.93.93,0,0,1-.05.1l-.06.09-.06.1,0,.09-.06.1-.05.1a.47.47,0,0,0-.06.09l-.06.1-.06.09a.47.47,0,0,1-.05.1l-.06.09-.06.1-.05.1-.06.1a.41.41,0,0,0-.05.09l-.06.1a.41.41,0,0,0-.05.09.61.61,0,0,0-.07.1l-.05.1a.7.7,0,0,0-.06.09.41.41,0,0,0-.05.09l-.06.1-.06.1,0,.09-.06.1-.06.1a.24.24,0,0,1-.06.09.26.26,0,0,1-.05.09l-.06.1-.05.1-.06.1-.06.09a.93.93,0,0,1-.05.1l-.06.09-.06.1,0,.09-.06.1-.05.09s-.05.07-.06.1l-.06.1a.41.41,0,0,0-.05.09l-.06.1-.06.1-.06.09a.73.73,0,0,1,0,.09.93.93,0,0,0-.05.1l-.06.1-.06.09-.06.1-.05.1a.33.33,0,0,0-.06.1l-.06.09-.05.1a.47.47,0,0,0-.06.09.53.53,0,0,1-.06.1.24.24,0,0,1-.06.09.47.47,0,0,1,0,.1l-.06.09-.05.1-.06.09-.06.1-.05.1a.33.33,0,0,0-.06.1l-.06.09-.05.1-.06.09a.53.53,0,0,1-.06.1.26.26,0,0,1-.05.09l-.06.1a.31.31,0,0,0-.05.1s0,.06-.07.09a.47.47,0,0,1-.05.1l-.06.09a.47.47,0,0,1-.05.1l-.06.1-.06.09,0,.1a.41.41,0,0,0-.05.09.37.37,0,0,0-.06.1s0,.07-.06.09l-.06.1a.31.31,0,0,0-.05.1l-.06.09-.06.1a.47.47,0,0,1-.06.09.31.31,0,0,1-.05.1l-.06.1s0,.06,0,.09l-.06.1-.06.1a.41.41,0,0,0-.05.09l-.06.1-.06.09a.47.47,0,0,1-.05.1l-.06.09-.06.1-.05.1-.06.09a3.7,3.7,0,0,0-.51,1.37,3.6,3.6,0,0,0,6.25,2.95l.07-.08.07-.08.08-.09.07-.08.07-.08.08-.09.08-.08.06-.08.08-.09.07-.08.07-.08.08-.09.07-.08.08-.08.07-.08.08-.09.07-.08.07-.08.08-.09.06-.08.08-.08a.71.71,0,0,0,.07-.09l.08-.08a.5.5,0,0,1,.07-.08l.07-.09a.27.27,0,0,0,.07-.08l.08-.08.07-.09.08-.08.07-.08.07-.08.08-.09.07-.08.07-.08s.06-.05.08-.09l.07-.08.07-.08.08-.08.07-.09a.6.6,0,0,0,.08-.08l.07-.08a.27.27,0,0,1,.07-.08l.07-.09.08-.08a.27.27,0,0,1,.07-.08l.07-.09.08-.08L283,308l.08-.09.07-.08.07-.08.07-.09.08-.08.07-.08.07-.09a.27.27,0,0,0,.07-.08.3.3,0,0,0,.08-.08l.08-.08.07-.09.07-.08.07-.09a.3.3,0,0,0,.08-.08l.07-.08.08-.09.07-.07.07-.09a.5.5,0,0,0,.07-.08l.08-.08a.71.71,0,0,1,.07-.09l.08-.08a.27.27,0,0,1,.07-.08l.07-.09.08-.08.07-.08.08-.09.06-.08.08-.08.07-.08.08-.09.07-.08.07-.09a.6.6,0,0,0,.08-.08s0-.05.07-.08l.07-.09.08-.08.07-.08.07-.08.08-.09.07-.08.07-.08.08-.09.08-.08.06-.08a.6.6,0,0,1,.08-.08l.07-.09a.27.27,0,0,0,.07-.08l.08-.08.07-.09.08-.08a.27.27,0,0,1,.07-.08l.07-.08.07-.09.08-.08.07-.08a.34.34,0,0,1,.08-.09l.07-.08.07-.08.08-.09a.5.5,0,0,1,.07-.08l.07-.08.08-.08.07-.09.07-.08.08-.09.07-.08a.27.27,0,0,0,.07-.08l.08-.09.07-.08.07-.08.08-.08.07-.09.07-.08.08-.08.07-.09.08-.08a.27.27,0,0,1,.07-.08l.07-.09a.6.6,0,0,0,.08-.08l.06-.08.08-.08.07-.09a.27.27,0,0,0,.07-.08l.08-.09a.27.27,0,0,0,.07-.08.2.2,0,0,0,.08-.08l.07-.08.08-.08.07-.09.07-.08.07-.08.08-.09.07-.08a.27.27,0,0,0,.07-.08L290,300a.6.6,0,0,0,.08-.08l.07-.08.07-.08.07-.09a.6.6,0,0,0,.08-.08.27.27,0,0,1,.07-.08"/><path class="cls-1" d="M317.31,344a7.28,7.28,0,0,1-7.23-8.15,1.94,1.94,0,0,1,0-.24v-.11a.86.86,0,0,1,0-.16v-.07a.77.77,0,0,1,0-.15h0V335a.61.61,0,0,1,0-.14v-.11h0a2.46,2.46,0,0,1,0-.26c0-.08,0-.14,0-.21a.51.51,0,0,1,0-.1l0-.26a.45.45,0,0,1,0-.11v-.12a1.34,1.34,0,0,1,0-.19s0-.07,0-.11a.17.17,0,0,1,0-.07v-.12c0-.06,0-.1,0-.15l0-.2a2,2,0,0,1,0-.23,1,1,0,0,1,0-.17.25.25,0,0,1,0-.08.57.57,0,0,1,0-.13v-.14a.45.45,0,0,1,0-.11l0-.21a.49.49,0,0,1,0-.12v-.06a1.36,1.36,0,0,1,0-.2h0c0-.06,0-.15,0-.24v-.06a.54.54,0,0,1,0-.11l0-.55v-.17s0-.06,0-.11v-.1a.28.28,0,0,1,0-.09.91.91,0,0,1,0-.17s0-.08,0-.12v-.18a.53.53,0,0,1,0-.13v-.08c0-.06,0-.12,0-.17a.76.76,0,0,1,0-.15h0s0-.11,0-.17l0-.21s0-.08,0-.12,0-.11,0-.16v-.06s0-.09,0-.14,0-.07,0-.11v0c0-.07,0-.15,0-.22s0-.1,0-.15v-.17a.31.31,0,0,1,0-.1l0-.27h0v0c0-.07,0-.14,0-.2a.2.2,0,0,1,0-.07.76.76,0,0,1,0-.15v-.07a.66.66,0,0,0,0-.14,1.4,1.4,0,0,1,0-.26.49.49,0,0,1,0-.12v-.09a2.14,2.14,0,0,1,0-.25h0a1.09,1.09,0,0,1,0-.18,1.5,1.5,0,0,1,0-.2v0l0-.18v-.18a1,1,0,0,1,0-.16l0-.31a.45.45,0,0,1,0-.11v-.16a.22.22,0,0,0,0-.08l0-.3v-.25c0-.05,0-.1,0-.16l.05-.66v-.1s0-.08,0-.12a.28.28,0,0,1,0-.09l0-.37h0a.49.49,0,0,1,0-.12v-.05c0-.05,0-.12,0-.18s0-.09,0-.13v-.12c0-.06,0-.13,0-.19s0-.13,0-.19v0l0-.33v-.16a6.11,6.11,0,0,1,1.11-2.9,6,6,0,0,1,10.86,3.2,2.11,2.11,0,0,1,0,.26v0a1,1,0,0,1,0,.17c0,.06,0,.12,0,.19l0,.32a.49.49,0,0,1,0,.13.53.53,0,0,1,0,.13.41.41,0,0,1,0,.11l0,.25v.11l0,.23a1,1,0,0,1,0,.2v.19a.13.13,0,0,1,0,.06s0,.07,0,.11,0,.1,0,.15a.49.49,0,0,1,0,.12s0,.05,0,.08,0,.12,0,.18,0,.07,0,.12,0,0,0,.09l0,.26v.08h0c0,.08,0,.17,0,.25h0c0,.06,0,.11,0,.16l0,.17V325s0,.09,0,.14v.1s0,.05,0,.08,0,.07,0,.11,0,.1,0,.15a.62.62,0,0,1,0,.13,2133090691399.42,2133090691399.42,0,0,1,0,.24l.05.47v.07a1.21,1.21,0,0,1,0,.18v0c0,.06,0,.12,0,.17l0,.27c0,.07,0,.13,0,.18v.3a1.8,1.8,0,0,1,0,.22v0a.49.49,0,0,1,0,.12v.13a.57.57,0,0,1,0,.13l0,.5h0a.17.17,0,0,1,0,.07v.06a1.48,1.48,0,0,1,0,.21v.15a1.94,1.94,0,0,1,0,.24,1.49,1.49,0,0,1,0,.21v0a1.5,1.5,0,0,1,0,.22v0a.77.77,0,0,1,0,.15.41.41,0,0,0,0,.1l0,.4v.13c0,.06,0,.13,0,.19a.71.71,0,0,0,0,.14c0,.05,0,.11,0,.17s0,.12,0,.18,0,.12,0,.2a.66.66,0,0,1,0,.14.13.13,0,0,1,0,.06l0,.33c0,.06,0,.12,0,.18a.2.2,0,0,0,0,.07.34.34,0,0,0,0,.09,2.46,2.46,0,0,1,0,.26s0,.07,0,.1l0,.26v.12a.38.38,0,0,0,0,.1l0,.17v.13l0,.12v.06l0,.33c0,.06,0,.11,0,.17v0c0,.06,0,.13,0,.19a2.12,2.12,0,0,0,0,.24h0c0,.07,0,.13,0,.2a.57.57,0,0,1,0,.13l0,.25v0s0,.09,0,.14,0,.08,0,.12v0l0,.12v.26h0a7.27,7.27,0,0,1-7.28,7.91Zm-3.24-7.93v.2a3.3,3.3,0,0,0,5.94,2.37,3.34,3.34,0,0,0,.61-2.19s0-.08,0-.15v-.07s0-.09,0-.13l-.12-1.47v0l0-.21a.71.71,0,0,1,0-.14v-.2c0-.07,0-.13,0-.19v-.06l0-.52,0-.3a.41.41,0,0,0,0-.11l0-.33s0-.08,0-.12a.66.66,0,0,0,0-.14l0-.17v-.27s0-.11,0-.17l0-.28v-.22a2.29,2.29,0,0,1,0-.25s0-.09,0-.14,0-.08,0-.12a.86.86,0,0,1,0-.16l-.05-.52v0l0-.21v0l-.06-.58V329a.15.15,0,0,1,0-.07l-.05-.45v0l0-.3v-.09l0-.49c0-.1,0-.18,0-.24l0-.27a1.7,1.7,0,0,1,0-.21,1,1,0,0,1,0-.19.28.28,0,0,0,0-.09c0-.06,0-.12,0-.18a2.5,2.5,0,0,1,0-.25h0a.63.63,0,0,1,0-.11l-.06-.6v0l-.13-1.68a1.36,1.36,0,0,1,0-.2l0-.3c0-.07,0-.13,0-.19V323a.41.41,0,0,0,0-.1s0-.1,0-.14,0-.12,0-.18l-.07-.72v0a1,1,0,0,0,0-.17h0c0-.05,0-.1,0-.15s0-.12,0-.18v-.13c0-.07,0-.15,0-.22a2.06,2.06,0,0,0-.83-1.52,2,2,0,0,0-2.8.45,2,2,0,0,0-.36.93c0,.06,0,.13,0,.19v.17a1.5,1.5,0,0,1,0,.29v.14a.53.53,0,0,1,0,.13.61.61,0,0,1,0,.14l-.1,1.27s0,.1,0,.16a.31.31,0,0,1,0,.1v.05l0,.44a1.21,1.21,0,0,1,0,.19l0,.17a1,1,0,0,1,0,.17v.07h0a1.94,1.94,0,0,1,0,.24v0a.45.45,0,0,1,0,.11.31.31,0,0,1,0,.1,1,1,0,0,1,0,.17s0,.13,0,.26,0,.14,0,.2l0,.44c0,.05,0,.09,0,.14v.06s0,.06,0,.09l-.07.82v0l-.06.74a.34.34,0,0,1,0,.09l-.11,1.36v0l0,.49V330s0,.08,0,.12l-.05.58a.92.92,0,0,1,0,.16,1.36,1.36,0,0,1,0,.2c0,.07,0,.15,0,.25v.09l-.08,1s0,0,0,.07a1.77,1.77,0,0,1,0,.19v.08h0l0,.26s0,.06,0,.1l0,.26a.06.06,0,0,1,0,0,1,1,0,0,1,0,.17v.06l0,.43v0c0,.06,0,.12,0,.19v.08l0,.37a1.21,1.21,0,0,1,0,.2l-.05.56a.62.62,0,0,1,0,.13v.12h0l0,.23Zm6.48-.32v0Zm-9.4-.48,1,0-1.81-.17Zm3.21-3.1h0s0,0,0,0Zm5.87-.4v0Zm3.89-1.32v.05A.11.11,0,0,0,324.12,330.45Zm-4.1-1.22v0Zm-9.4.09h0Zm4.08-.85Zm0-.18Zm5.2-.3a.28.28,0,0,0,0,.09h0Zm0-.18h0Zm-.06-.69a.25.25,0,0,1,0,.08A.19.19,0,0,0,319.83,327.12Zm0-.1v0Zm-5-.14h0s0-.08,0-.11Zm4.85-1.67ZM323.5,323v0Zm-4-.34h0v0Zm0-.34v0Zm-.05-.58v0Zm-4.13,0h0s0,0,0-.06Zm.05-.53h0v0Z"/><path class="cls-2" d="M322.59,336.18v-.12s0-.08,0-.11v-.12a.36.36,0,0,0,0-.11.45.45,0,0,0,0-.12v-.12a.37.37,0,0,1,0-.11.49.49,0,0,1,0-.12s0-.08,0-.11,0-.08,0-.12,0-.08,0-.12,0-.08,0-.11,0-.08,0-.12,0-.08,0-.11,0-.08,0-.12,0-.07,0-.12,0-.07,0-.11,0-.08,0-.12,0-.07,0-.11,0-.08,0-.12,0-.08,0-.11,0-.08,0-.12a.49.49,0,0,0,0-.12s0-.07,0-.11a237010076810.06,237010076810.06,0,0,0,0-.24v-.11a.5.5,0,0,1,0-.12v-.11s0-.08,0-.12,0-.07,0-.11a.49.49,0,0,0,0-.12v-.12a.37.37,0,0,1,0-.11.49.49,0,0,1,0-.12s0-.08,0-.11v-.12s0-.08,0-.12,0-.07,0-.11,0-.08,0-.12,0-.08,0-.11,0-.08,0-.12,0-.08,0-.12,0-.07,0-.11a.49.49,0,0,0,0-.12s0-.08,0-.11a.49.49,0,0,0,0-.12s0-.07,0-.12v-.11a.5.5,0,0,1,0-.12.41.41,0,0,0,0-.11s0-.08,0-.12a.41.41,0,0,0,0-.11.45.45,0,0,0,0-.12s0-.08,0-.12a.45.45,0,0,0,0-.11v-.12a.5.5,0,0,0,0-.12v-.12a.34.34,0,0,1,0-.1c0-.05,0-.08,0-.12a.49.49,0,0,1,0-.12s0-.08,0-.12,0-.07,0-.11a.41.41,0,0,1,0-.12s0-.07,0-.12a.37.37,0,0,1,0-.11s0-.08,0-.12,0-.07,0-.11,0-.08,0-.11,0-.08,0-.12a.49.49,0,0,0,0-.12.41.41,0,0,0,0-.11.49.49,0,0,0,0-.12.53.53,0,0,0,0-.12s0-.07,0-.11,0-.08,0-.11a.45.45,0,0,0,0-.12.49.49,0,0,0,0-.12.49.49,0,0,0,0-.12s0-.07,0-.11v-.11a.53.53,0,0,1,0-.12.49.49,0,0,1,0-.12.45.45,0,0,1,0-.11.49.49,0,0,1,0-.12.49.49,0,0,1,0-.12s0-.07,0-.12,0-.07,0-.11,0-.07,0-.11,0-.08,0-.12,0-.08,0-.12,0-.07,0-.11v-.11s0-.08,0-.12,0-.08,0-.12,0-.08,0-.11,0-.08,0-.12,0-.08,0-.12a.41.41,0,0,0,0-.11s0-.08,0-.12v-.12s0-.07,0-.11,0-.08,0-.12,0-.08,0-.12a.45.45,0,0,0,0-.11.37.37,0,0,0,0-.11.49.49,0,0,0,0-.12v-.12s0-.07,0-.11a.49.49,0,0,0,0-.12v-.11a.49.49,0,0,1,0-.12.45.45,0,0,1,0-.11c0-.05,0-.08,0-.12s0-.08,0-.12a.41.41,0,0,1,0-.12s0-.07,0-.11a.37.37,0,0,0,0-.11.49.49,0,0,1,0-.12s0-.08,0-.12,0-.08,0-.12,0-.07,0-.11a.49.49,0,0,1,0-.12s0-.07,0-.11a.49.49,0,0,1,0-.12.41.41,0,0,0,0-.11s0-.08,0-.12,0-.08,0-.11,0-.08,0-.12a.49.49,0,0,0,0-.12.41.41,0,0,0,0-.11,4,4,0,0,0-7.24-2.15,4.14,4.14,0,0,0-.74,1.95v.11s0,.08,0,.12,0,.08,0,.11v.12s0,.08,0,.12a.37.37,0,0,0,0,.11.45.45,0,0,0,0,.11s0,.08,0,.12a.49.49,0,0,1,0,.12.45.45,0,0,0,0,.11.49.49,0,0,0,0,.12.45.45,0,0,0,0,.11.49.49,0,0,0,0,.12.37.37,0,0,1,0,.11.49.49,0,0,1,0,.12s0,.07,0,.11a.49.49,0,0,1,0,.12v.11s0,.08,0,.12a.53.53,0,0,1,0,.12v.11s0,.07,0,.11a.49.49,0,0,1,0,.12v.12a.37.37,0,0,0,0,.11.49.49,0,0,0,0,.12s0,.07,0,.11v.12a.41.41,0,0,0,0,.11.49.49,0,0,0,0,.12.37.37,0,0,0,0,.11.49.49,0,0,0,0,.12.41.41,0,0,1,0,.11.49.49,0,0,0,0,.12.37.37,0,0,1,0,.11.49.49,0,0,1,0,.12.41.41,0,0,1,0,.11.53.53,0,0,0,0,.12.37.37,0,0,1,0,.11.49.49,0,0,1,0,.12.37.37,0,0,1,0,.11.49.49,0,0,1,0,.12v.11a.53.53,0,0,0,0,.12.45.45,0,0,0,0,.11s0,.08,0,.12v.11s0,.08,0,.12v.12s0,.07,0,.11v.11a.53.53,0,0,0,0,.12.45.45,0,0,0,0,.12.41.41,0,0,0,0,.11.49.49,0,0,0,0,.12.37.37,0,0,0,0,.11.49.49,0,0,1,0,.12s0,.08,0,.12a.45.45,0,0,1,0,.11.37.37,0,0,1,0,.11.49.49,0,0,1,0,.12.53.53,0,0,1,0,.12.45.45,0,0,1,0,.11s0,.08,0,.12v.11a.45.45,0,0,0,0,.11s0,.08,0,.12a.49.49,0,0,1,0,.12v.11a.45.45,0,0,0,0,.11c0,.05,0,.08,0,.12V329a.37.37,0,0,0,0,.11.49.49,0,0,0,0,.12.45.45,0,0,0,0,.12.37.37,0,0,0,0,.11s0,.07,0,.11a.49.49,0,0,0,0,.12.41.41,0,0,0,0,.11.49.49,0,0,0,0,.12.53.53,0,0,1,0,.12.37.37,0,0,0,0,.11.41.41,0,0,1,0,.11.49.49,0,0,1,0,.12.37.37,0,0,1,0,.11.49.49,0,0,1,0,.12.45.45,0,0,0,0,.11.45.45,0,0,1,0,.12.37.37,0,0,1,0,.11.45.45,0,0,1,0,.12.37.37,0,0,1,0,.11.45.45,0,0,1,0,.12.37.37,0,0,1,0,.11v.12a.49.49,0,0,0,0,.12.37.37,0,0,0,0,.11.45.45,0,0,0,0,.11.57.57,0,0,0,0,.12.45.45,0,0,0,0,.11.57.57,0,0,0,0,.12.49.49,0,0,0,0,.12.45.45,0,0,0,0,.11.49.49,0,0,0,0,.12.45.45,0,0,0,0,.11.53.53,0,0,0,0,.12.49.49,0,0,1,0,.12.37.37,0,0,0,0,.11s0,.08,0,.12a.45.45,0,0,1,0,.11.49.49,0,0,1,0,.12.41.41,0,0,1,0,.11v.12a.2.2,0,0,0,0,.11v.12s0,.07,0,.11a.49.49,0,0,1,0,.12.41.41,0,0,1,0,.11.49.49,0,0,1,0,.12v.11a.49.49,0,0,0,0,.12.41.41,0,0,0,0,.12.37.37,0,0,0,0,.11.37.37,0,0,0,0,.11,237010076810.09,237010076810.09,0,0,1,0,.24.37.37,0,0,0,0,.11.45.45,0,0,0,0,.12.41.41,0,0,1,0,.11.49.49,0,0,1,0,.12.45.45,0,0,1,0,.11.49.49,0,0,1,0,.12.45.45,0,0,1,0,.11V336a5.29,5.29,0,1,0,10.52.29.45.45,0,0,0,0-.11"/><path class="cls-1" d="M306.18,332a5.52,5.52,0,0,1-2.53-.61,5.63,5.63,0,0,1-1.77-1.41l0,0a.75.75,0,0,1-.12-.14l-.06-.07L301,329l0,0-.23-.26-.15-.17-.11-.12-.07-.08-.07-.09-.14-.15-.68-.77-.08-.09-.14-.16h0l0,0-.36-.41-.09-.1-.28-.33-.07-.06-.08-.1-.07-.08-.08-.08-.12-.15-.07-.07-.17-.19-.06-.07-.1-.12-.11-.13a1.42,1.42,0,0,1-.12-.13l-.05-.05-.09-.11,0,0-.17-.2-.28-.31-.14-.15-.11-.13-.16-.18-.14-.16-.11-.12-.09-.11-.25-.28-.06-.06-.1-.12-.06-.06-.08-.1-.09-.1-.07-.08-.15-.16,0,0v0l-.07-.08a.6.6,0,0,1-.08-.08l-.22-.26a1.42,1.42,0,0,1-.12-.13l-.27-.3-.09-.11h0l0,0,0,0,0,0a.75.75,0,0,1-.12-.14l-.09-.1,0,0a.69.69,0,0,1-.11-.13l-.08-.08-.15-.17-.11-.12-.12-.14-.07-.08-.12-.14,0,0-.23-.27-.15-.16-.08-.1-.06-.06-.33-.37,0-.06-.1-.11,0,0-.17-.19-.11-.12-.12-.14a.92.92,0,0,1-.14-.16h0l-.07-.08-.23-.26,0,0h0l-.43-.48-.1-.11-.23-.26,1.44-1.4-1.51,1.32-.08-.09,0,0-.12-.14,0,0a7.29,7.29,0,1,1,11.9-8.29l0,0,.06.12.05.07.14.26h0l.11.19a.75.75,0,0,0,.07.12l.07.13a1,1,0,0,1,.08.14.7.7,0,0,1,.1.16l.14.23,0,.07,0,.08.07.11h0l.06.08h0l0,.05a.54.54,0,0,1,.07.13l.08.12.05.09,0,.05.08.14.17.28,0,.05.18.31.05.08.09.15.1.18,0,0,.05.09.08.14a1.16,1.16,0,0,1,.09.14l.07.13,0,0,.2.34h0a.35.35,0,0,0,.05.08.75.75,0,0,0,.07.12l.05.1.08.13,0,0a1.09,1.09,0,0,1,.08.15,1.45,1.45,0,0,1,.12.19l.26.44v0l0,.05a.76.76,0,0,1,.09.16.1.1,0,0,1,0,.05l.08.14a.31.31,0,0,1,.05.1l.1.16a.79.79,0,0,1,.08.13l0,.08,0,.05a1.6,1.6,0,0,1,.13.21.56.56,0,0,0,.05.08l.07.13a.56.56,0,0,1,.05.08l.07.12.06.1.23.39,0,.07.1.17.07.11.07.12,0,.08.39.66h0l.1.16h0a.75.75,0,0,1,.07.12h0l.06.11.07.11v0l.06.09.09.15.06.1,0,.05.05.1c0,.05.06.1.09.14v0l0,0,.14.24.07.13.24.39s0,.09.07.13l.09.15,0,0v0l.3.52h0a1,1,0,0,1,.08.14l.15.24.08.14,0,0,.12.22a.15.15,0,0,1,0,.06l.15.24L308,322.38l1.74-1a1,1,0,0,1,.1.17l.09.14.05.09,0,0,0,0,.14.25.08.13s.05.08.07.13l.1.16,0,.05.12.2.19.32.06.11.06.09.08.15.06.09-1.77.94,1.77-.94a5.6,5.6,0,0,1-3.09,8.19A5.75,5.75,0,0,1,306.18,332Zm-5.08-2.92,0,0h0Zm3.88-1.63a1.61,1.61,0,0,0,2.64-.32,1.59,1.59,0,0,0-.05-1.54l-.05-.1a.83.83,0,0,1-.08-.12l-.05-.1,0,0-.16-.26,0-.05-.07-.14,0,0-.14-.24,0-.06-.09-.13-.07-.13-.08-.14-.17-.28,0-.05h0l0,0a1.09,1.09,0,0,1-.08-.15v0a.15.15,0,0,0,0,.05l-.32-.53,0-.06-.29-.49h0s-.05-.08-.07-.13a.16.16,0,0,1,0-.07l-.1-.16,0,0-.22-.32-.22-.43-.08-.14,0-.06-.07-.12-.46-.79h0l-.38-.63h0c0-.05,0-.1-.08-.14l0-.05-.06-.11a.21.21,0,0,1,0-.06l-.06-.1,0-.07-.08-.12-.05-.09,0-.07-.05-.07h0l-.05-.09-.14-.25a1.32,1.32,0,0,1-.12-.19l-.08-.15h0s0,0,0-.07l-.05-.08-.07-.12-.06-.1-.26-.44,0-.06-.05-.08-.07-.11s0,0,0-.08l-.1-.12-.39-.7h0l-.06-.1a1.42,1.42,0,0,1-.11-.18l-.08-.13-.13-.22-.16-.27,0-.06-.36-.61,0,0-.29-.49-.08-.13c0-.05-.05-.09-.07-.14l0-.06-.06-.1a.56.56,0,0,0,0-.08l-.16-.28h0a1.51,1.51,0,0,1-.12-.2l0,0-.07-.11-.08-.13v0l-.23-.4-.08-.13-.07-.12-.06-.1,0,0-.09-.16-.07-.13h0l0,0-.07-.11-.09-.17a.56.56,0,0,1-.05-.08L299,311l-.08-.13a1,1,0,0,1-.09-.15s-.05-.08-.07-.13l-.12-.19a3.17,3.17,0,0,0-1.38-1.33,3.27,3.27,0,0,0-2.51-.2,3.3,3.3,0,0,0-1.47,5.3l.08.09.18.2.08.1.14.16.15.16.11.13,1.44,1.63,0,0,.12.14.17.19.14.16.07.07.12.14,0,0,.13.15.11.12.11.12.06.07.12.13.05.05.17.21,0,0,.07.07.08.1.67.75.11.13.05.07a1,1,0,0,1,.14.15l.28.31,0,.05h0l.32.36,0,0,.27.3a.36.36,0,0,1,.08.09l0,0,.12.14,0,0,.19.22h0l.11.12.07.09.09.09.06.08.08.09.06.07.23.25.08.08.38.44.06.07.12.1.86,1,.08.08.33.38h0l.16.17.08.09.07.08h0v0l-.17.12-1.27,1.23,1.51-1.31.09.11.15.17.07.08h0l.08.09.15.17h0l.1.11.06.07.09.1.11.12,0,0,.45.52h0l.26.3,0,0,.14.16.11.13.15.17.09.1.11.13.17.19Zm-.88-1h0Zm-.58-.65,0,0Zm3.22-1.61,0,.05h0Zm0-.06v0Zm-.51-.87h0l0,0Zm-5.49-.63,0,0Zm4.7-.7h0Zm-.31-.52,0,.06Zm-5.8-.37,0,0Zm5.49-.16h0Zm-11.08-.14h0Zm0,0h0Zm10.83-.31v0Zm-11.32-.24h0Zm5.18-.18h0Zm10-.94.08.13h0Zm-10.71.1h0Zm-.37-.41Zm-6.24-1h0Zm5.23-.11.06.06Zm6.52-.15v0Zm-.42-.69,0,.07Zm-7-.14h0Zm6.32-1h0Zm-.06-.1a.93.93,0,0,1,.05.1Zm-.09-.15Zm-7.71-.53,0,0Zm-.19-.22v0Zm11.61-.82,0,0Zm-.73-1.25h0Zm-.75-1.26h0Zm-.73-1-1.59,1,.86-.49Zm-1.33-.95-1,.66,1.69-1Zm.6-.52,0,.05Z"/><path class="cls-2" d="M309.24,324.48l-.06-.09a.31.31,0,0,0-.05-.1l-.06-.1A.89.89,0,0,1,309,324l-.06-.09,0-.1-.06-.09-.06-.1s0-.06-.06-.1l-.05-.09-.06-.1-.06-.09a.26.26,0,0,0-.05-.09l-.05-.1-.06-.1-.06-.09s0-.06-.06-.1a.41.41,0,0,0-.05-.09l-.06-.1-.05-.1-.06-.09-.05-.1-.06-.09-.06-.1a.41.41,0,0,1-.05-.09l-.06-.1-.06-.09-.06-.1-.05-.1s0-.06-.06-.09a.47.47,0,0,0-.05-.1l-.06-.09a.93.93,0,0,1-.05-.1l-.06-.09-.06-.1a.41.41,0,0,1,0-.09l-.06-.09-.06-.1a.33.33,0,0,0-.06-.1.93.93,0,0,0-.05-.1l-.06-.09a.41.41,0,0,0-.05-.09l-.06-.1a.31.31,0,0,1-.05-.1.47.47,0,0,1-.06-.09l-.06-.1a.41.41,0,0,1,0-.09l-.06-.1a.31.31,0,0,1-.05-.1l-.06-.09-.06-.1a.41.41,0,0,0-.05-.09l-.06-.1-.06-.09a.93.93,0,0,0-.05-.1L306,319,306,319a.93.93,0,0,0-.05-.1l-.06-.1s0-.06-.05-.09a.53.53,0,0,1-.06-.1l-.06-.1s0-.06-.05-.09l-.06-.1-.06-.1a.36.36,0,0,1,0-.09l-.06-.09-.06-.09-.05-.11-.06-.09a.41.41,0,0,1-.05-.09l-.06-.1-.06-.1a.41.41,0,0,0-.05-.09l-.06-.1a.47.47,0,0,0-.06-.09l0-.1-.06-.1a.36.36,0,0,1-.05-.09l-.06-.09a.35.35,0,0,0-.06-.09.21.21,0,0,0-.06-.1.47.47,0,0,0-.05-.1l-.05-.1-.07-.09-.05-.1a.41.41,0,0,0,0-.09l-.06-.1a.41.41,0,0,1-.05-.09.86.86,0,0,0-.07-.1l-.05-.09-.06-.1-.05-.09-.06-.1a.47.47,0,0,0-.06-.09.31.31,0,0,0-.05-.1l-.06-.09a.6.6,0,0,0-.06-.11l-.05-.09-.06-.09-.05-.1-.06-.09a.93.93,0,0,0-.05-.1.47.47,0,0,1-.06-.09l-.06-.1a.47.47,0,0,0-.06-.09.31.31,0,0,0,0-.1l-.06-.09a.33.33,0,0,0-.06-.1.26.26,0,0,0-.05-.09l-.06-.1s0-.06-.05-.1l-.06-.09-.06-.1-.05-.1-.06-.09a.93.93,0,0,1,0-.1.47.47,0,0,1-.06-.09l-.06-.09-.05-.1-.06-.1a.41.41,0,0,1-.05-.09l-.06-.1-.06-.09-.05-.1-.06-.1-.06-.09,0-.1-.06-.1a.26.26,0,0,1-.05-.09l-.06-.09-.06-.1a.47.47,0,0,0-.06-.09.93.93,0,0,0-.05-.1l-.06-.09a.33.33,0,0,0-.06-.1.41.41,0,0,0,0-.09.93.93,0,0,1-.05-.1l-.06-.1-.06-.09s0-.06-.06-.1a.41.41,0,0,0-.05-.09l-.06-.1a.73.73,0,0,0-.05-.09l-.06-.1a.7.7,0,0,0-.06-.09l0-.1-.06-.09-.05-.1-.06-.1-.06-.09a.31.31,0,0,1-.05-.1l-.06-.09-.06-.1s0-.06-.05-.09l-.06-.1a5.3,5.3,0,1,0-8.64,6l.07.09.08.08.07.08.08.09.07.08.07.08.08.09.07.08.07.08.08.09.07.08.07.09.08.08.07.08.08.08.07.09.08.08.07.09.07.08.07.08.08.09.07.07.08.09.07.09.07.08.08.08.07.08.08.09a.27.27,0,0,0,.07.08l.07.09.08.08.07.08.08.09.07.08.07.08.07.09.08.08.07.08.07.09a.3.3,0,0,1,.08.08.3.3,0,0,0,.08.08.19.19,0,0,0,.07.08l.07.09.08.08a.31.31,0,0,0,.07.09l.07.08s.05.06.08.08a.27.27,0,0,0,.07.08l.07.09.08.09.07.08.07.08.08.08a.71.71,0,0,0,.07.09l.08.08.07.09.07.08.08.08.07.09.08.08.07.08.07.09.08.08a.71.71,0,0,1,.07.09l.07.08.08.08.07.08.08.09.07.08.08.08a.28.28,0,0,0,.07.09l.07.08.07.09a.6.6,0,0,1,.08.08.3.3,0,0,0,.08.08.24.24,0,0,0,.06.08l.08.09a.71.71,0,0,1,.07.09l.08.07.07.09a.71.71,0,0,1,.07.09l.08.08.07.08.07.08.08.09.07.08.08.08.07.09.07.08.08.08.07.09.08.08.07.08.08.09s0,.05.07.08l.07.08.08.09.07.08.07.08.07.09.08.08a.3.3,0,0,0,.08.08.27.27,0,0,0,.07.08.35.35,0,0,0,.07.09l.07.08a.59.59,0,0,0,.08.08.71.71,0,0,0,.07.09l.08.09.07.07a.34.34,0,0,0,.08.09l.07.09.08.08.06.08.08.09.07.08.08.08a.27.27,0,0,0,.07.08l.07.09a.6.6,0,0,0,.08.08l.07.09.07.08.08.08.07.09.08.08.07.08.07.09.08.08a.71.71,0,0,1,.07.09l.08.08.07.08.07.08.07.09a.3.3,0,0,1,.08.08l.08.08.06.09.08.08.08.09.07.08.07.08.08.08.07.09a.6.6,0,0,0,.08.08l.07.09.07.08.08.08.07.09.07.08.07.08a.32.32,0,0,1,.08.09l.07.08.07.08.08.08.07.09.08.08.07.09a.6.6,0,0,0,.08.08.27.27,0,0,0,.07.08l.07.09a3.61,3.61,0,0,0,5.89-4.12l-.06-.1"/></g></g></svg>