<svg xmlns="http://www.w3.org/2000/svg" viewBox="0 0 594 594"><defs><style>.cls-1,.cls-2{fill:#fff;}.cls-2,.cls-3{fill-rule:evenodd;}.cls-3{fill:#ed1c24;}</style></defs><g id="Layer_2" data-name="Layer 2"><g id="Layer_1-2" data-name="Layer 1"><rect class="cls-1" width="594" height="594"/><rect x="180" y="36" width="18.54" height="18.54"/><rect x="234" y="36" width="18.54" height="18.54"/><rect x="306" y="36" width="18.54" height="18.54"/><rect x="342" y="36" width="18.54" height="18.54"/><rect x="360" y="36" width="18.54" height="18.54"/><rect x="396" y="36" width="18.54" height="18.54"/><rect x="180" y="54" width="18.54" height="18.54"/><rect x="198" y="54" width="18.54" height="18.54"/><rect x="216" y="54" width="18.54" height="18.54"/><rect x="234" y="54" width="18.54" height="18.54"/><rect x="324" y="54" width="18.54" height="18.54"/><rect x="360" y="54" width="18.54" height="18.54"/><rect x="378" y="54" width="18.54" height="18.54"/><rect x="180" y="72" width="18.54" height="18.54"/><rect x="198" y="72" width="18.54" height="18.54"/><rect x="216" y="72" width="18.54" height="18.54"/><rect x="234" y="72" width="18.54" height="18.54"/><rect x="306" y="72" width="18.54" height="18.54"/><rect x="378" y="72" width="18.54" height="18.54"/><rect x="396" y="72" width="18.54" height="18.54"/><rect x="270" y="90" width="18.54" height="18.54"/><rect x="306" y="90" width="18.54" height="18.54"/><rect x="324" y="90" width="18.54" height="18.54"/><rect x="342" y="90" width="18.54" height="18.54"/><rect x="360" y="90" width="18.54" height="18.54"/><rect x="378" y="90" width="18.54" height="18.54"/><rect x="216" y="108" width="18.54" height="18.54"/><rect x="270" y="108" width="18.54" height="18.54"/><rect x="288" y="108" width="18.54" height="18.54"/><rect x="306" y="108" width="18.54" height="18.54"/><rect x="360" y="108" width="18.54" height="18.54"/><rect x="378" y="108" width="18.54" height="18.54"/><rect x="396" y="108" width="18.54" height="18.54"/><rect x="180" y="126" width="18.54" height="18.54"/><rect x="216" y="126" width="18.54" height="18.54"/><rect x="234" y="126" width="18.54" height="18.54"/><rect x="288" y="126" width="18.54" height="18.54"/><rect x="306" y="126" width="18.54" height="18.54"/><rect x="324" y="126" width="18.54" height="18.54"/><rect x="360" y="126" width="18.54" height="18.54"/><rect x="180" y="144" width="18.54" height="18.54"/><rect x="216" y="144" width="18.54" height="18.54"/><rect x="252" y="144" width="18.54" height="18.54"/><rect x="288" y="144" width="18.54" height="18.54"/><rect x="324" y="144" width="18.54" height="18.54"/><rect x="360" y="144" width="18.54" height="18.54"/><rect x="396" y="144" width="18.54" height="18.54"/><rect x="180" y="162" width="18.54" height="18.54"/><rect x="216" y="162" width="18.54" height="18.54"/><rect x="234" y="162" width="18.54" height="18.54"/><rect x="306" y="162" width="18.54" height="18.54"/><rect x="72" y="180" width="18.54" height="18.54"/><rect x="90" y="180" width="18.54" height="18.54"/><rect x="108" y="180" width="18.54" height="18.54"/><rect x="144" y="180" width="18.54" height="18.54"/><rect x="180" y="180" width="18.54" height="18.54"/><rect x="198" y="180" width="18.54" height="18.54"/><rect x="234" y="180" width="18.54" height="18.54"/><rect x="270" y="180" width="18.54" height="18.54"/><rect x="288" y="180" width="18.54" height="18.54"/><rect x="306" y="180" width="18.54" height="18.54"/><rect x="324" y="180" width="18.54" height="18.54"/><rect x="360" y="180" width="18.54" height="18.54"/><rect x="414" y="180" width="18.54" height="18.54"/><rect x="432" y="180" width="18.54" height="18.54"/><rect x="450" y="180" width="18.54" height="18.54"/><rect x="504" y="180" width="18.54" height="18.54"/><rect x="522" y="180" width="18.54" height="18.54"/><rect x="540" y="180" width="18.54" height="18.54"/><rect x="54" y="198" width="18.54" height="18.54"/><rect x="72" y="198" width="18.54" height="18.54"/><rect x="90" y="198" width="18.54" height="18.54"/><rect x="108" y="198" width="18.54" height="18.54"/><rect x="162" y="198" width="18.54" height="18.54"/><rect x="234" y="198" width="18.54" height="18.54"/><rect x="252" y="198" width="18.54" height="18.54"/><rect x="342" y="198" width="18.54" height="18.54"/><rect x="414" y="198" width="18.54" height="18.54"/><rect x="432" y="198" width="18.54" height="18.54"/><rect x="450" y="198" width="18.54" height="18.54"/><rect x="468" y="198" width="18.54" height="18.54"/><rect x="486" y="198" width="18.54" height="18.54"/><rect x="540" y="198" width="18.54" height="18.54"/><rect x="36" y="216" width="18.54" height="18.54"/><rect x="72" y="216" width="18.54" height="18.54"/><rect x="90" y="216" width="18.54" height="18.54"/><rect x="108" y="216" width="18.54" height="18.54"/><rect x="144" y="216" width="18.54" height="18.54"/><rect x="162" y="216" width="18.54" height="18.54"/><rect x="180" y="216" width="18.54" height="18.54"/><rect x="198" y="216" width="18.54" height="18.54"/><rect x="234" y="216" width="18.54" height="18.54"/><rect x="270" y="216" width="18.54" height="18.54"/><rect x="288" y="216" width="18.54" height="18.54"/><rect x="324" y="216" width="18.54" height="18.54"/><rect x="342" y="216" width="18.54" height="18.54"/><rect x="396" y="216" width="18.54" height="18.54"/><rect x="414" y="216" width="18.54" height="18.54"/><rect x="432" y="216" width="18.54" height="18.54"/><rect x="486" y="216" width="18.54" height="18.54"/><rect x="36" y="234" width="18.54" height="18.54"/><rect x="72" y="234" width="18.54" height="18.54"/><rect x="90" y="234" width="18.54" height="18.54"/><rect x="108" y="234" width="18.54" height="18.54"/><rect x="126" y="234" width="18.54" height="18.54"/><rect x="180" y="234" width="18.54" height="18.54"/><rect x="198" y="234" width="18.54" height="18.54"/><rect x="324" y="234" width="18.54" height="18.54"/><rect x="342" y="234" width="18.54" height="18.54"/><rect x="360" y="234" width="18.54" height="18.54"/><rect x="378" y="234" width="18.54" height="18.54"/><rect x="396" y="234" width="18.54" height="18.54"/><rect x="414" y="234" width="18.54" height="18.54"/><rect x="432" y="234" width="18.54" height="18.54"/><rect x="450" y="234" width="18.54" height="18.54"/><rect x="486" y="234" width="18.54" height="18.54"/><rect x="522" y="234" width="18.54" height="18.54"/><rect x="108" y="252" width="18.54" height="18.54"/><rect x="126" y="252" width="18.54" height="18.54"/><rect x="144" y="252" width="18.54" height="18.54"/><rect x="180" y="252" width="18.54" height="18.54"/><rect x="198" y="252" width="18.54" height="18.54"/><rect x="234" y="252" width="18.54" height="18.54"/><rect x="252" y="252" width="18.54" height="18.54"/><rect x="306" y="252" width="18.54" height="18.54"/><rect x="324" y="252" width="18.54" height="18.54"/><rect x="342" y="252" width="18.54" height="18.54"/><rect x="360" y="252" width="18.54" height="18.54"/><rect x="378" y="252" width="18.54" height="18.54"/><rect x="396" y="252" width="18.54" height="18.54"/><rect x="414" y="252" width="18.54" height="18.54"/><rect x="450" y="252" width="18.54" height="18.54"/><rect x="504" y="252" width="18.54" height="18.54"/><rect x="522" y="252" width="18.54" height="18.54"/><rect x="540" y="252" width="18.54" height="18.54"/><rect x="36" y="270" width="18.54" height="18.54"/><rect x="72" y="270" width="18.54" height="18.54"/><rect x="90" y="270" width="18.54" height="18.54"/><rect x="162" y="270" width="18.54" height="18.54"/><rect x="180" y="270" width="18.54" height="18.54"/><rect x="216" y="270" width="18.54" height="18.54"/><rect x="234" y="270" width="18.54" height="18.54"/><rect x="270" y="270" width="18.54" height="18.54"/><rect x="288" y="270" width="18.54" height="18.54"/><rect x="306" y="270" width="18.54" height="18.54"/><rect x="324" y="270" width="18.54" height="18.54"/><rect x="342" y="270" width="18.54" height="18.54"/><rect x="378" y="270" width="18.54" height="18.54"/><rect x="396" y="270" width="18.54" height="18.54"/><rect x="414" y="270" width="18.54" height="18.54"/><rect x="432" y="270" width="18.54" height="18.54"/><rect x="468" y="270" width="18.54" height="18.54"/><rect x="486" y="270" width="18.54" height="18.54"/><rect x="522" y="270" width="18.54" height="18.54"/><rect x="540" y="270" width="18.54" height="18.54"/><rect x="36" y="288" width="18.54" height="18.54"/><rect x="54" y="288" width="18.54" height="18.54"/><rect x="90" y="288" width="18.54" height="18.54"/><rect x="126" y="288" width="18.54" height="18.54"/><rect x="144" y="288" width="18.54" height="18.54"/><rect x="198" y="288" width="18.54" height="18.54"/><rect x="216" y="288" width="18.54" height="18.54"/><rect x="270" y="288" width="18.54" height="18.54"/><rect x="288" y="288" width="18.54" height="18.54"/><rect x="306" y="288" width="18.54" height="18.54"/><rect x="360" y="288" width="18.54" height="18.54"/><rect x="396" y="288" width="18.54" height="18.54"/><rect x="414" y="288" width="18.54" height="18.54"/><rect x="450" y="288" width="18.54" height="18.54"/><rect x="72" y="306" width="18.54" height="18.54"/><rect x="126" y="306" width="18.54" height="18.54"/><rect x="162" y="306" width="18.54" height="18.54"/><rect x="234" y="306" width="18.54" height="18.54"/><rect x="342" y="306" width="18.54" height="18.54"/><rect x="432" y="306" width="18.54" height="18.54"/><rect x="468" y="306" width="18.54" height="18.54"/><rect x="486" y="306" width="18.54" height="18.54"/><rect x="540" y="306" width="18.54" height="18.54"/><rect x="36" y="324" width="18.54" height="18.54"/><rect x="54" y="324" width="18.54" height="18.54"/><rect x="90" y="324" width="18.54" height="18.54"/><rect x="126" y="324" width="18.54" height="18.54"/><rect x="144" y="324" width="18.54" height="18.54"/><rect x="198" y="324" width="18.54" height="18.54"/><rect x="216" y="324" width="18.54" height="18.54"/><rect x="234" y="324" width="18.54" height="18.54"/><rect x="252" y="324" width="18.54" height="18.54"/><rect x="324" y="324" width="18.54" height="18.54"/><rect x="360" y="324" width="18.54" height="18.54"/><rect x="486" y="324" width="18.54" height="18.54"/><rect x="504" y="324" width="18.54" height="18.54"/><rect x="36" y="342" width="18.54" height="18.54"/><rect x="126" y="342" width="18.54" height="18.54"/><rect x="162" y="342" width="18.54" height="18.54"/><rect x="180" y="342" width="18.54" height="18.54"/><rect x="216" y="342" width="18.54" height="18.54"/><rect x="234" y="342" width="18.54" height="18.54"/><rect x="306" y="342" width="18.54" height="18.54"/><rect x="342" y="342" width="18.54" height="18.54"/><rect x="378" y="342" width="18.54" height="18.54"/><rect x="414" y="342" width="18.54" height="18.54"/><rect x="432" y="342" width="18.54" height="18.54"/><rect x="468" y="342" width="18.54" height="18.54"/><rect x="522" y="342" width="18.54" height="18.54"/><rect x="540" y="342" width="18.54" height="18.54"/><rect x="36" y="360" width="18.54" height="18.54"/><rect x="72" y="360" width="18.54" height="18.54"/><rect x="126" y="360" width="18.54" height="18.54"/><rect x="144" y="360" width="18.54" height="18.54"/><rect x="162" y="360" width="18.54" height="18.54"/><rect x="216" y="360" width="18.54" height="18.54"/><rect x="234" y="360" width="18.54" height="18.54"/><rect x="252" y="360" width="18.54" height="18.54"/><rect x="342" y="360" width="18.54" height="18.54"/><rect x="360" y="360" width="18.54" height="18.54"/><rect x="396" y="360" width="18.54" height="18.54"/><rect x="432" y="360" width="18.54" height="18.54"/><rect x="450" y="360" width="18.54" height="18.54"/><rect x="468" y="360" width="18.54" height="18.54"/><rect x="504" y="360" width="18.54" height="18.54"/><rect x="36" y="378" width="18.54" height="18.54"/><rect x="72" y="378" width="18.54" height="18.54"/><rect x="90" y="378" width="18.54" height="18.54"/><rect x="126" y="378" width="18.54" height="18.54"/><rect x="180" y="378" width="18.54" height="18.54"/><rect x="198" y="378" width="18.54" height="18.54"/><rect x="216" y="378" width="18.54" height="18.54"/><rect x="270" y="378" width="18.54" height="18.54"/><rect x="288" y="378" width="18.54" height="18.54"/><rect x="324" y="378" width="18.54" height="18.54"/><rect x="342" y="378" width="18.54" height="18.54"/><rect x="360" y="378" width="18.54" height="18.54"/><rect x="396" y="378" width="18.54" height="18.54"/><rect x="432" y="378" width="18.54" height="18.54"/><rect x="450" y="378" width="18.54" height="18.54"/><rect x="522" y="378" width="18.54" height="18.54"/><rect x="540" y="378" width="18.54" height="18.54"/><rect x="36" y="396" width="18.54" height="18.54"/><rect x="72" y="396" width="18.54" height="18.54"/><rect x="90" y="396" width="18.54" height="18.54"/><rect x="126" y="396" width="18.54" height="18.54"/><rect x="144" y="396" width="18.54" height="18.54"/><rect x="270" y="396" width="18.54" height="18.54"/><rect x="378" y="396" width="18.54" height="18.54"/><rect x="396" y="396" width="18.54" height="18.54"/><rect x="414" y="396" width="18.54" height="18.54"/><rect x="432" y="396" width="18.54" height="18.54"/><rect x="450" y="396" width="18.54" height="18.54"/><rect x="468" y="396" width="18.54" height="18.54"/><rect x="486" y="396" width="18.54" height="18.54"/><rect x="504" y="396" width="18.54" height="18.54"/><rect x="180" y="414" width="18.54" height="18.54"/><rect x="216" y="414" width="18.54" height="18.54"/><rect x="270" y="414" width="18.54" height="18.54"/><rect x="324" y="414" width="18.54" height="18.54"/><rect x="360" y="414" width="18.54" height="18.54"/><rect x="396" y="414" width="18.54" height="18.54"/><rect x="468" y="414" width="18.54" height="18.54"/><rect x="486" y="414" width="18.54" height="18.54"/><rect x="540" y="414" width="18.54" height="18.54"/><rect x="198" y="432" width="18.54" height="18.54"/><rect x="216" y="432" width="18.54" height="18.54"/><rect x="234" y="432" width="18.54" height="18.54"/><rect x="252" y="432" width="18.54" height="18.54"/><rect x="306" y="432" width="18.54" height="18.54"/><rect x="324" y="432" width="18.54" height="18.54"/><rect x="360" y="432" width="18.54" height="18.54"/><rect x="378" y="432" width="18.54" height="18.54"/><rect x="396" y="432" width="18.54" height="18.54"/><rect x="432" y="432" width="18.54" height="18.54"/><rect x="468" y="432" width="18.54" height="18.54"/><rect x="198" y="450" width="18.54" height="18.54"/><rect x="216" y="450" width="18.54" height="18.54"/><rect x="270" y="450" width="18.54" height="18.54"/><rect x="324" y="450" width="18.54" height="18.54"/><rect x="342" y="450" width="18.54" height="18.54"/><rect x="378" y="450" width="18.54" height="18.54"/><rect x="396" y="450" width="18.54" height="18.54"/><rect x="468" y="450" width="18.54" height="18.54"/><rect x="486" y="450" width="18.54" height="18.54"/><rect x="522" y="450" width="18.54" height="18.54"/><rect x="540" y="450" width="18.54" height="18.54"/><rect x="180" y="468" width="18.54" height="18.54"/><rect x="216" y="468" width="18.54" height="18.54"/><rect x="252" y="468" width="18.54" height="18.54"/><rect x="288" y="468" width="18.54" height="18.54"/><rect x="324" y="468" width="18.54" height="18.54"/><rect x="342" y="468" width="18.54" height="18.54"/><rect x="360" y="468" width="18.54" height="18.54"/><rect x="396" y="468" width="18.54" height="18.54"/><rect x="414" y="468" width="18.54" height="18.54"/><rect x="432" y="468" width="18.54" height="18.54"/><rect x="450" y="468" width="18.54" height="18.54"/><rect x="468" y="468" width="18.54" height="18.54"/><rect x="486" y="468" width="18.54" height="18.54"/><rect x="504" y="468" width="18.54" height="18.54"/><rect x="540" y="468" width="18.54" height="18.54"/><rect x="180" y="486" width="18.54" height="18.54"/><rect x="216" y="486" width="18.54" height="18.54"/><rect x="252" y="486" width="18.54" height="18.54"/><rect x="306" y="486" width="18.54" height="18.54"/><rect x="342" y="486" width="18.54" height="18.54"/><rect x="360" y="486" width="18.54" height="18.54"/><rect x="378" y="486" width="18.54" height="18.54"/><rect x="396" y="486" width="18.54" height="18.54"/><rect x="414" y="486" width="18.54" height="18.54"/><rect x="450" y="486" width="18.54" height="18.54"/><rect x="180" y="504" width="18.54" height="18.54"/><rect x="198" y="504" width="18.54" height="18.54"/><rect x="234" y="504" width="18.54" height="18.54"/><rect x="288" y="504" width="18.54" height="18.54"/><rect x="306" y="504" width="18.54" height="18.54"/><rect x="378" y="504" width="18.54" height="18.54"/><rect x="396" y="504" width="18.54" height="18.54"/><rect x="414" y="504" width="18.54" height="18.54"/><rect x="432" y="504" width="18.54" height="18.54"/><rect x="450" y="504" width="18.54" height="18.54"/><rect x="468" y="504" width="18.54" height="18.54"/><rect x="504" y="504" width="18.54" height="18.54"/><rect x="522" y="504" width="18.54" height="18.54"/><rect x="198" y="522" width="18.54" height="18.54"/><rect x="216" y="522" width="18.54" height="18.54"/><rect x="234" y="522" width="18.54" height="18.54"/><rect x="270" y="522" width="18.54" height="18.54"/><rect x="288" y="522" width="18.54" height="18.54"/><rect x="342" y="522" width="18.54" height="18.54"/><rect x="360" y="522" width="18.54" height="18.54"/><rect x="396" y="522" width="18.54" height="18.54"/><rect x="432" y="522" width="18.54" height="18.54"/><rect x="468" y="522" width="18.54" height="18.54"/><rect x="486" y="522" width="18.54" height="18.54"/><rect x="522" y="522" width="18.54" height="18.54"/><rect x="198" y="540" width="18.54" height="18.54"/><rect x="216" y="540" width="18.54" height="18.54"/><rect x="234" y="540" width="18.54" height="18.54"/><rect x="306" y="540" width="18.54" height="18.54"/><rect x="342" y="540" width="18.54" height="18.54"/><rect x="360" y="540" width="18.54" height="18.54"/><rect x="378" y="540" width="18.54" height="18.54"/><rect x="432" y="540" width="18.54" height="18.54"/><rect x="468" y="540" width="18.54" height="18.54"/><rect x="504" y="540" width="18.54" height="18.54"/><path d="M36,36V162H162V36ZM144,144H54V54h90v90Z"/><path d="M432,36V162H558V36ZM540,144H450V54h90v90Z"/><path d="M36,432V558H162V432ZM144,540H54V450h90v90Z"/><rect x="72" y="72" width="54" height="54"/><rect x="468" y="72" width="54" height="54"/><rect x="72" y="468" width="54" height="54"/><path class="cls-2" d="M239.05,298l40.43-40.43L297,275.18l17.64-17.64L354.94,298l-40.29,40.28L297,320.72l-17.53,17.54Zm58,12.5L309.51,298,297,285.46,284.59,298Z"/><path class="cls-3" d="M297,280.32,279.47,298,297,315.6l-17.53,17.53L244.19,298l35.28-35.28L297,280.32M349.81,298l-35.17-35.28L297,280.32,314.64,298,297,315.6l17.64,17.53Z"/></g></g></svg>