<svg xmlns="http://www.w3.org/2000/svg" xmlns:xlink="http://www.w3.org/1999/xlink" viewBox="0 0 594 594"><defs><style>.cls-1,.cls-178,.cls-179,.cls-2,.cls-3{fill:none;}.cls-2{clip-path:url(#clip-path);}.cls-3{clip-path:url(#clip-path-2);}.cls-4{fill:#fff;}.cls-5{clip-path:url(#clip-path-3);}.cls-6{fill:#13592f;}.cls-10,.cls-100,.cls-101,.cls-102,.cls-103,.cls-104,.cls-105,.cls-106,.cls-107,.cls-108,.cls-109,.cls-11,.cls-110,.cls-111,.cls-112,.cls-113,.cls-114,.cls-115,.cls-116,.cls-117,.cls-118,.cls-119,.cls-12,.cls-120,.cls-121,.cls-122,.cls-123,.cls-124,.cls-125,.cls-126,.cls-127,.cls-128,.cls-129,.cls-13,.cls-130,.cls-131,.cls-132,.cls-133,.cls-134,.cls-135,.cls-136,.cls-137,.cls-138,.cls-139,.cls-14,.cls-140,.cls-141,.cls-142,.cls-143,.cls-144,.cls-145,.cls-146,.cls-147,.cls-148,.cls-149,.cls-15,.cls-150,.cls-151,.cls-152,.cls-153,.cls-154,.cls-155,.cls-156,.cls-157,.cls-158,.cls-159,.cls-16,.cls-160,.cls-161,.cls-162,.cls-163,.cls-164,.cls-165,.cls-166,.cls-167,.cls-168,.cls-169,.cls-17,.cls-170,.cls-171,.cls-172,.cls-173,.cls-174,.cls-175,.cls-176,.cls-18,.cls-181,.cls-182,.cls-183,.cls-184,.cls-185,.cls-186,.cls-187,.cls-188,.cls-189,.cls-19,.cls-190,.cls-191,.cls-192,.cls-193,.cls-194,.cls-195,.cls-196,.cls-197,.cls-198,.cls-199,.cls-20,.cls-200,.cls-201,.cls-202,.cls-203,.cls-204,.cls-205,.cls-206,.cls-207,.cls-208,.cls-209,.cls-21,.cls-210,.cls-211,.cls-212,.cls-213,.cls-214,.cls-215,.cls-216,.cls-217,.cls-218,.cls-219,.cls-22,.cls-220,.cls-221,.cls-222,.cls-223,.cls-224,.cls-225,.cls-226,.cls-227,.cls-228,.cls-229,.cls-23,.cls-230,.cls-231,.cls-232,.cls-233,.cls-234,.cls-235,.cls-236,.cls-237,.cls-238,.cls-239,.cls-24,.cls-240,.cls-241,.cls-242,.cls-243,.cls-244,.cls-245,.cls-246,.cls-247,.cls-248,.cls-249,.cls-25,.cls-250,.cls-251,.cls-252,.cls-253,.cls-254,.cls-255,.cls-256,.cls-257,.cls-258,.cls-259,.cls-26,.cls-260,.cls-261,.cls-262,.cls-263,.cls-264,.cls-265,.cls-266,.cls-267,.cls-268,.cls-269,.cls-27,.cls-270,.cls-271,.cls-272,.cls-273,.cls-274,.cls-275,.cls-276,.cls-28,.cls-29,.cls-30,.cls-31,.cls-32,.cls-33,.cls-34,.cls-35,.cls-36,.cls-37,.cls-38,.cls-39,.cls-40,.cls-41,.cls-42,.cls-43,.cls-44,.cls-45,.cls-46,.cls-47,.cls-48,.cls-49,.cls-50,.cls-51,.cls-52,.cls-53,.cls-54,.cls-55,.cls-56,.cls-57,.cls-58,.cls-59,.cls-6,.cls-60,.cls-61,.cls-62,.cls-63,.cls-64,.cls-65,.cls-66,.cls-67,.cls-68,.cls-69,.cls-7,.cls-70,.cls-71,.cls-72,.cls-73,.cls-74,.cls-75,.cls-76,.cls-77,.cls-78,.cls-79,.cls-8,.cls-80,.cls-81,.cls-82,.cls-83,.cls-84,.cls-85,.cls-86,.cls-87,.cls-88,.cls-89,.cls-9,.cls-90,.cls-91,.cls-92,.cls-93,.cls-94,.cls-95,.cls-96,.cls-97,.cls-98,.cls-99{fill-rule:evenodd;}.cls-7{fill:#14592f;}.cls-8{fill:#145a2f;}.cls-9{fill:#155a2f;}.cls-10{fill:#155b2f;}.cls-11{fill:#165b2f;}.cls-12{fill:#165c2f;}.cls-13{fill:#175c2f;}.cls-14{fill:#185d2f;}.cls-15{fill:#195e2f;}.cls-16{fill:#1a5f2f;}.cls-17{fill:#1b5f30;}.cls-18{fill:#1c6030;}.cls-19{fill:#1d6130;}.cls-20{fill:#1e6230;}.cls-21{fill:#1f6330;}.cls-22{fill:#206330;}.cls-23{fill:#206430;}.cls-24{fill:#216430;}.cls-25{fill:#216530;}.cls-26{fill:#226530;}.cls-27{fill:#226630;}.cls-28{fill:#236630;}.cls-29{fill:#246630;}.cls-30{fill:#246731;}.cls-31{fill:#256731;}.cls-32{fill:#256831;}.cls-33{fill:#266831;}.cls-34{fill:#266931;}.cls-35{fill:#276931;}.cls-36{fill:#286a31;}.cls-37{fill:#296b31;}.cls-38{fill:#2a6b31;}.cls-39{fill:#2a6c31;}.cls-40{fill:#2b6c31;}.cls-41{fill:#2b6d31;}.cls-42{fill:#2c6d31;}.cls-43{fill:#2d6e32;}.cls-44{fill:#2e6f32;}.cls-45{fill:#2f7032;}.cls-46{fill:#307132;}.cls-47{fill:#317132;}.cls-48{fill:#317232;}.cls-49{fill:#327232;}.cls-50{fill:#337332;}.cls-51{fill:#347432;}.cls-52{fill:#357433;}.cls-53{fill:#357533;}.cls-54{fill:#367533;}.cls-55{fill:#377633;}.cls-56{fill:#377733;}.cls-57{fill:#387733;}.cls-58{fill:#397833;}.cls-59{fill:#3a7933;}.cls-60{fill:#3b7933;}.cls-61{fill:#3b7a33;}.cls-62{fill:#3c7a33;}.cls-63{fill:#3d7b34;}.cls-64{fill:#3e7c34;}.cls-65{fill:#3f7c34;}.cls-66{fill:#3f7d34;}.cls-67{fill:#407d34;}.cls-68{fill:#417e34;}.cls-69{fill:#417f34;}.cls-70{fill:#427f34;}.cls-71{fill:#438034;}.cls-72{fill:#448134;}.cls-73{fill:#458135;}.cls-74{fill:#458235;}.cls-75{fill:#468235;}.cls-76{fill:#478335;}.cls-77{fill:#488435;}.cls-78{fill:#498435;}.cls-79{fill:#498535;}.cls-80{fill:#4a8635;}.cls-81{fill:#4b8635;}.cls-82{fill:#4b8735;}.cls-83{fill:#4c8735;}.cls-84{fill:#4c8836;}.cls-85{fill:#4d8836;}.cls-86{fill:#4e8936;}.cls-87{fill:#4f8a36;}.cls-88{fill:#508a36;}.cls-89{fill:#508b36;}.cls-90{fill:#518b36;}.cls-91{fill:#528c36;}.cls-92{fill:#528d36;}.cls-93{fill:#538d36;}.cls-94{fill:#548e36;}.cls-95{fill:#548e37;}.cls-96{fill:#558f37;}.cls-97{fill:#568f37;}.cls-98{fill:#569037;}.cls-99{fill:#579037;}.cls-100{fill:#589137;}.cls-101{fill:#599237;}.cls-102{fill:#5a9237;}.cls-103{fill:#5a9337;}.cls-104{fill:#5b9337;}.cls-105{fill:#5c9437;}.cls-106{fill:#5c9538;}.cls-107{fill:#5d9538;}.cls-108{fill:#5e9638;}.cls-109{fill:#5f9738;}.cls-110{fill:#609738;}.cls-111{fill:#609838;}.cls-112{fill:#619838;}.cls-113{fill:#629938;}.cls-114{fill:#639a38;}.cls-115{fill:#649a38;}.cls-116{fill:#649b39;}.cls-117{fill:#659c39;}.cls-118{fill:#669c39;}.cls-119{fill:#669d39;}.cls-120{fill:#679d39;}.cls-121{fill:#689e39;}.cls-122{fill:#699f39;}.cls-123{fill:#6a9f39;}.cls-124{fill:#6aa039;}.cls-125{fill:#6ba039;}.cls-126{fill:#6ca139;}.cls-127{fill:#6ca13a;}.cls-128{fill:#6da23a;}.cls-129{fill:#6ea23a;}.cls-130{fill:#6ea33a;}.cls-131{fill:#6fa43a;}.cls-132{fill:#70a53a;}.cls-133{fill:#71a53a;}.cls-134{fill:#71a63a;}.cls-135{fill:#72a63a;}.cls-136{fill:#73a73a;}.cls-137{fill:#74a83b;}.cls-138{fill:#75a83b;}.cls-139{fill:#75a93b;}.cls-140{fill:#76a93b;}.cls-141{fill:#77aa3b;}.cls-142{fill:#77ab3b;}.cls-143{fill:#78ab3b;}.cls-144{fill:#79ac3b;}.cls-145{fill:#7aad3b;}.cls-146{fill:#7bad3b;}.cls-147{fill:#7bae3b;}.cls-148{fill:#7cae3c;}.cls-149{fill:#7daf3c;}.cls-150{fill:#7eb03c;}.cls-151{fill:#7fb03c;}.cls-152{fill:#7fb13c;}.cls-153{fill:#80b13c;}.cls-154{fill:#81b23c;}.cls-155{fill:#81b33c;}.cls-156{fill:#82b33c;}.cls-157{fill:#83b43c;}.cls-158{fill:#84b53d;}.cls-159{fill:#85b53d;}.cls-160{fill:#85b63d;}.cls-161{fill:#86b63d;}.cls-162{fill:#87b73d;}.cls-163{fill:#88b83d;}.cls-164{fill:#89b83d;}.cls-165{fill:#89b93d;}.cls-166{fill:#8ab93d;}.cls-167{fill:#8aba3d;}.cls-168{fill:#8bba3d;}.cls-169{fill:#8cbb3d;}.cls-170{fill:#8dbc3e;}.cls-171{fill:#8ebd3e;}.cls-172{fill:#8fbe3e;}.cls-173{fill:#90be3e;}.cls-174{fill:#90bf3e;}.cls-175{fill:#91bf3e;}.cls-176,.cls-177{fill:#92c03e;}.cls-178,.cls-179{stroke:#fff;stroke-miterlimit:10;}.cls-178{stroke-width:2.18px;}.cls-179{stroke-width:2.18px;}.cls-180{clip-path:url(#clip-path-5);}.cls-181{fill:#8dbc3d;}.cls-182{fill:#8bbb3d;}.cls-183{fill:#85b53c;}.cls-184{fill:#84b53c;}.cls-185{fill:#80b23c;}.cls-186{fill:#7caf3c;}.cls-187{fill:#7cae3b;}.cls-188{fill:#7aac3b;}.cls-189{fill:#73a73b;}.cls-190{fill:#6fa33a;}.cls-191{fill:#6ba03a;}.cls-192{fill:#6aa03a;}.cls-193{fill:#639a39;}.cls-194{fill:#629a39;}.cls-195{fill:#629939;}.cls-196{fill:#5b9438;}.cls-197{fill:#5a9338;}.cls-198{fill:#599238;}.cls-199{fill:#589238;}.cls-200{fill:#579137;}.cls-201{fill:#538d37;}.cls-202{fill:#528c37;}.cls-203{fill:#518c37;}.cls-204{fill:#508b37;}.cls-205{fill:#4f8a37;}.cls-206{fill:#4e8a36;}.cls-207{fill:#4b8736;}.cls-208{fill:#4a8636;}.cls-209{fill:#498536;}.cls-210{fill:#488536;}.cls-211{fill:#488436;}.cls-212{fill:#468335;}.cls-213{fill:#448135;}.cls-214{fill:#438135;}.cls-215{fill:#428035;}.cls-216{fill:#417f35;}.cls-217{fill:#417e35;}.cls-218{fill:#407e35;}.cls-219{fill:#3d7c34;}.cls-220{fill:#3c7b34;}.cls-221{fill:#3b7a34;}.cls-222{fill:#3a7934;}.cls-223{fill:#397834;}.cls-224{fill:#387734;}.cls-225{fill:#377734;}.cls-226{fill:#367633;}.cls-227{fill:#347433;}.cls-228{fill:#337333;}.cls-229{fill:#327333;}.cls-230{fill:#317233;}.cls-231{fill:#307133;}.cls-232{fill:#2f7033;}.cls-233{fill:#2e7032;}.cls-234{fill:#2c6e32;}.cls-235{fill:#2b6d32;}.cls-236{fill:#2a6c32;}.cls-237{fill:#296c32;}.cls-238{fill:#286b32;}.cls-239{fill:#286a32;}.cls-240{fill:#276932;}.cls-241{fill:#236731;}.cls-242{fill:#226631;}.cls-243{fill:#226531;}.cls-244{fill:#216531;}.cls-245{fill:#206431;}.cls-246{fill:#1f6331;}.cls-247{fill:#1d6230;}.cls-248{fill:#1c6130;}.cls-249{fill:#1b6030;}.cls-250{fill:#1a5f30;}.cls-251{fill:#195e30;}.cls-252{fill:#185e30;}.cls-253{fill:#185d30;}.cls-254{fill:#175d30;}.cls-255{fill:#12592f;}.cls-256{fill:#12582f;}.cls-257{fill:#11582f;}.cls-258{fill:#10572f;}.cls-259{fill:#10562f;}.cls-260{fill:#0f562e;}.cls-261{fill:#0e552e;}.cls-262{fill:#0d552e;}.cls-263{fill:#0d542e;}.cls-264{fill:#0c542e;}.cls-265{fill:#0b532e;}.cls-266{fill:#0b522e;}.cls-267{fill:#0a522e;}.cls-268{fill:#09512e;}.cls-269{fill:#08502e;}.cls-270{fill:#07502d;}.cls-271{fill:#074f2d;}.cls-272{fill:#064e2d;}.cls-273{fill:#054e2d;}.cls-274{fill:#054d2d;}.cls-275{fill:#044d2d;}.cls-276{fill:#034c2d;}</style><clipPath id="clip-path"><rect class="cls-1" x="276.65" y="256.77" width="59.25" height="33.36" transform="translate(-0.71 0.8) rotate(-0.15)"/></clipPath><clipPath id="clip-path-2"><rect class="cls-1" x="240.71" y="240.47" width="112.58" height="113.05" transform="translate(-121.32 334.7) rotate(-50.15)"/></clipPath><clipPath id="clip-path-3"><path class="cls-2" d="M285.14,257.87h0m15-1a98.72,98.72,0,0,0-15.07,1h0c-5.68,1.06-6.89,4.24-6.89,4.24-1.48,3,1.33,11,7,20.61a142,142,0,0,1,21.61-1.33c10.37.23,16.38,1.52,19,3.13s1.84,4.67,1.51,5.52c1.94-3.43,6.05-11.57,7.29-16.48s.17-7.07-.05-7.6a8.38,8.38,0,0,0-3.85-4.36c-5.64-2.81-14.74-3.9-20.69-4.37-3.07-.25-6.26-.4-9.53-.4Z"/></clipPath><clipPath id="clip-path-5"><path class="cls-3" d="M285.1,257.88h-.17c-16,2.19-22.92,7.1-25.65,9.83a10.43,10.43,0,0,0-3.08,7.76c.22,6.17,4,14.74,5.69,18.22A126.86,126.86,0,0,0,272,310.27a106.73,106.73,0,0,0,12.61,14.34c3.82,3.51,9.07,8,13.4,10.21a13,13,0,0,0,5.63,1.29,11.68,11.68,0,0,0,7.64-3.14c4.05-3.66,8-10.66,10.78-15.31a139.39,139.39,0,0,0,9.42-20.1c1.31-3.39,4.92-13.89,6-21.55a16,16,0,0,0-1.07-8.47,11.69,11.69,0,0,0-2.29-3.55,10.56,10.56,0,0,0-1.76-1.51,11.67,11.67,0,0,0-1.55-.85A8.4,8.4,0,0,1,334.6,266c.22.55,1.28,2.7,0,7.6s-5.31,13-7.26,16.44l0,0c-.47.84-11.65,20.52-17,20.47s-17.12-15.77-20-19.86c-1.93-2.73-3.64-5.39-5.15-7.95-5.68-9.56-8.49-17.64-7-20.61,0,0,1.22-3.18,6.92-4.24Z"/></clipPath></defs><g id="Layer_2" data-name="Layer 2"><g id="Layer_1-2" data-name="Layer 1"><rect class="cls-4" width="594" height="594"/><rect x="180" y="36" width="18.54" height="18.54"/><rect x="234" y="36" width="18.54" height="18.54"/><rect x="306" y="36" width="18.54" height="18.54"/><rect x="342" y="36" width="18.54" height="18.54"/><rect x="360" y="36" width="18.54" height="18.54"/><rect x="396" y="36" width="18.54" height="18.54"/><rect x="180" y="54" width="18.54" height="18.54"/><rect x="198" y="54" width="18.54" height="18.54"/><rect x="216" y="54" width="18.54" height="18.54"/><rect x="234" y="54" width="18.54" height="18.54"/><rect x="324" y="54" width="18.54" height="18.54"/><rect x="360" y="54" width="18.54" height="18.54"/><rect x="378" y="54" width="18.54" height="18.54"/><rect x="180" y="72" width="18.54" height="18.54"/><rect x="198" y="72" width="18.54" height="18.54"/><rect x="216" y="72" width="18.54" height="18.54"/><rect x="234" y="72" width="18.54" height="18.54"/><rect x="306" y="72" width="18.54" height="18.54"/><rect x="378" y="72" width="18.54" height="18.54"/><rect x="396" y="72" width="18.54" height="18.54"/><rect x="270" y="90" width="18.54" height="18.54"/><rect x="306" y="90" width="18.54" height="18.54"/><rect x="324" y="90" width="18.54" height="18.54"/><rect x="342" y="90" width="18.54" height="18.54"/><rect x="360" y="90" width="18.54" height="18.54"/><rect x="378" y="90" width="18.54" height="18.54"/><rect x="216" y="108" width="18.54" height="18.54"/><rect x="270" y="108" width="18.54" height="18.54"/><rect x="288" y="108" width="18.54" height="18.54"/><rect x="306" y="108" width="18.54" height="18.54"/><rect x="360" y="108" width="18.54" height="18.54"/><rect x="378" y="108" width="18.54" height="18.54"/><rect x="396" y="108" width="18.54" height="18.54"/><rect x="180" y="126" width="18.54" height="18.54"/><rect x="216" y="126" width="18.54" height="18.54"/><rect x="234" y="126" width="18.54" height="18.54"/><rect x="288" y="126" width="18.54" height="18.54"/><rect x="306" y="126" width="18.54" height="18.54"/><rect x="324" y="126" width="18.54" height="18.54"/><rect x="360" y="126" width="18.54" height="18.54"/><rect x="180" y="144" width="18.54" height="18.54"/><rect x="216" y="144" width="18.54" height="18.54"/><rect x="252" y="144" width="18.54" height="18.54"/><rect x="288" y="144" width="18.54" height="18.54"/><rect x="324" y="144" width="18.54" height="18.54"/><rect x="360" y="144" width="18.54" height="18.54"/><rect x="396" y="144" width="18.54" height="18.54"/><rect x="180" y="162" width="18.54" height="18.54"/><rect x="216" y="162" width="18.54" height="18.54"/><rect x="234" y="162" width="18.54" height="18.54"/><rect x="306" y="162" width="18.54" height="18.54"/><rect x="72" y="180" width="18.54" height="18.54"/><rect x="90" y="180" width="18.54" height="18.54"/><rect x="108" y="180" width="18.54" height="18.54"/><rect x="144" y="180" width="18.54" height="18.54"/><rect x="180" y="180" width="18.54" height="18.54"/><rect x="198" y="180" width="18.54" height="18.54"/><rect x="234" y="180" width="18.54" height="18.54"/><rect x="270" y="180" width="18.54" height="18.54"/><rect x="288" y="180" width="18.54" height="18.54"/><rect x="306" y="180" width="18.54" height="18.54"/><rect x="324" y="180" width="18.54" height="18.54"/><rect x="360" y="180" width="18.54" height="18.54"/><rect x="414" y="180" width="18.54" height="18.54"/><rect x="432" y="180" width="18.54" height="18.54"/><rect x="450" y="180" width="18.54" height="18.54"/><rect x="504" y="180" width="18.54" height="18.54"/><rect x="522" y="180" width="18.54" height="18.54"/><rect x="540" y="180" width="18.54" height="18.54"/><rect x="54" y="198" width="18.54" height="18.54"/><rect x="72" y="198" width="18.54" height="18.54"/><rect x="90" y="198" width="18.54" height="18.54"/><rect x="108" y="198" width="18.54" height="18.54"/><rect x="162" y="198" width="18.54" height="18.54"/><rect x="234" y="198" width="18.54" height="18.54"/><rect x="252" y="198" width="18.54" height="18.54"/><rect x="342" y="198" width="18.54" height="18.54"/><rect x="414" y="198" width="18.54" height="18.54"/><rect x="432" y="198" width="18.54" height="18.54"/><rect x="450" y="198" width="18.54" height="18.54"/><rect x="468" y="198" width="18.54" height="18.54"/><rect x="486" y="198" width="18.54" height="18.54"/><rect x="540" y="198" width="18.54" height="18.54"/><rect x="36" y="216" width="18.54" height="18.54"/><rect x="72" y="216" width="18.54" height="18.54"/><rect x="90" y="216" width="18.54" height="18.54"/><rect x="108" y="216" width="18.54" height="18.54"/><rect x="144" y="216" width="18.54" height="18.54"/><rect x="162" y="216" width="18.54" height="18.54"/><rect x="180" y="216" width="18.54" height="18.54"/><rect x="198" y="216" width="18.54" height="18.54"/><rect x="234" y="216" width="18.54" height="18.54"/><rect x="270" y="216" width="18.54" height="18.54"/><rect x="288" y="216" width="18.54" height="18.54"/><rect x="324" y="216" width="18.54" height="18.54"/><rect x="342" y="216" width="18.54" height="18.54"/><rect x="396" y="216" width="18.54" height="18.54"/><rect x="414" y="216" width="18.54" height="18.54"/><rect x="432" y="216" width="18.54" height="18.54"/><rect x="486" y="216" width="18.54" height="18.54"/><rect x="36" y="234" width="18.54" height="18.54"/><rect x="72" y="234" width="18.54" height="18.54"/><rect x="90" y="234" width="18.54" height="18.54"/><rect x="108" y="234" width="18.54" height="18.54"/><rect x="126" y="234" width="18.54" height="18.54"/><rect x="180" y="234" width="18.54" height="18.54"/><rect x="198" y="234" width="18.54" height="18.54"/><rect x="324" y="234" width="18.54" height="18.54"/><rect x="342" y="234" width="18.54" height="18.54"/><rect x="360" y="234" width="18.54" height="18.54"/><rect x="378" y="234" width="18.54" height="18.54"/><rect x="396" y="234" width="18.54" height="18.54"/><rect x="414" y="234" width="18.54" height="18.54"/><rect x="432" y="234" width="18.54" height="18.54"/><rect x="450" y="234" width="18.54" height="18.54"/><rect x="486" y="234" width="18.54" height="18.54"/><rect x="522" y="234" width="18.54" height="18.54"/><rect x="108" y="252" width="18.54" height="18.54"/><rect x="126" y="252" width="18.54" height="18.54"/><rect x="144" y="252" width="18.54" height="18.54"/><rect x="180" y="252" width="18.54" height="18.54"/><rect x="198" y="252" width="18.54" height="18.54"/><rect x="234" y="252" width="18.54" height="18.54"/><rect x="252" y="252" width="18.54" height="18.54"/><rect x="306" y="252" width="18.54" height="18.54"/><rect x="324" y="252" width="18.54" height="18.54"/><rect x="342" y="252" width="18.54" height="18.54"/><rect x="360" y="252" width="18.54" height="18.54"/><rect x="378" y="252" width="18.54" height="18.54"/><rect x="396" y="252" width="18.54" height="18.54"/><rect x="414" y="252" width="18.54" height="18.54"/><rect x="450" y="252" width="18.54" height="18.54"/><rect x="504" y="252" width="18.54" height="18.54"/><rect x="522" y="252" width="18.54" height="18.54"/><rect x="540" y="252" width="18.54" height="18.54"/><rect x="36" y="270" width="18.54" height="18.54"/><rect x="72" y="270" width="18.54" height="18.54"/><rect x="90" y="270" width="18.54" height="18.54"/><rect x="162" y="270" width="18.54" height="18.54"/><rect x="180" y="270" width="18.54" height="18.54"/><rect x="216" y="270" width="18.54" height="18.54"/><rect x="234" y="270" width="18.54" height="18.54"/><rect x="270" y="270" width="18.54" height="18.54"/><rect x="288" y="270" width="18.54" height="18.54"/><rect x="306" y="270" width="18.54" height="18.54"/><rect x="324" y="270" width="18.54" height="18.54"/><rect x="342" y="270" width="18.54" height="18.54"/><rect x="378" y="270" width="18.54" height="18.54"/><rect x="396" y="270" width="18.54" height="18.54"/><rect x="414" y="270" width="18.54" height="18.54"/><rect x="432" y="270" width="18.54" height="18.54"/><rect x="468" y="270" width="18.54" height="18.54"/><rect x="486" y="270" width="18.54" height="18.54"/><rect x="522" y="270" width="18.54" height="18.54"/><rect x="540" y="270" width="18.54" height="18.54"/><rect x="36" y="288" width="18.54" height="18.54"/><rect x="54" y="288" width="18.54" height="18.54"/><rect x="90" y="288" width="18.54" height="18.54"/><rect x="126" y="288" width="18.54" height="18.54"/><rect x="144" y="288" width="18.54" height="18.54"/><rect x="198" y="288" width="18.54" height="18.54"/><rect x="216" y="288" width="18.54" height="18.54"/><rect x="270" y="288" width="18.54" height="18.54"/><rect x="288" y="288" width="18.54" height="18.54"/><rect x="306" y="288" width="18.54" height="18.54"/><rect x="360" y="288" width="18.54" height="18.54"/><rect x="396" y="288" width="18.54" height="18.54"/><rect x="414" y="288" width="18.54" height="18.54"/><rect x="450" y="288" width="18.54" height="18.54"/><rect x="72" y="306" width="18.54" height="18.54"/><rect x="126" y="306" width="18.54" height="18.54"/><rect x="162" y="306" width="18.54" height="18.54"/><rect x="234" y="306" width="18.54" height="18.54"/><rect x="342" y="306" width="18.54" height="18.54"/><rect x="432" y="306" width="18.54" height="18.54"/><rect x="468" y="306" width="18.54" height="18.54"/><rect x="486" y="306" width="18.54" height="18.54"/><rect x="540" y="306" width="18.54" height="18.54"/><rect x="36" y="324" width="18.54" height="18.54"/><rect x="54" y="324" width="18.54" height="18.54"/><rect x="90" y="324" width="18.54" height="18.54"/><rect x="126" y="324" width="18.54" height="18.54"/><rect x="144" y="324" width="18.54" height="18.54"/><rect x="198" y="324" width="18.54" height="18.54"/><rect x="216" y="324" width="18.54" height="18.54"/><rect x="234" y="324" width="18.54" height="18.54"/><rect x="252" y="324" width="18.54" height="18.54"/><rect x="324" y="324" width="18.54" height="18.54"/><rect x="360" y="324" width="18.54" height="18.54"/><rect x="486" y="324" width="18.54" height="18.54"/><rect x="504" y="324" width="18.54" height="18.54"/><rect x="36" y="342" width="18.54" height="18.54"/><rect x="126" y="342" width="18.54" height="18.54"/><rect x="162" y="342" width="18.54" height="18.54"/><rect x="180" y="342" width="18.54" height="18.54"/><rect x="216" y="342" width="18.54" height="18.54"/><rect x="234" y="342" width="18.54" height="18.54"/><rect x="306" y="342" width="18.54" height="18.54"/><rect x="342" y="342" width="18.54" height="18.54"/><rect x="378" y="342" width="18.54" height="18.54"/><rect x="414" y="342" width="18.54" height="18.54"/><rect x="432" y="342" width="18.54" height="18.54"/><rect x="468" y="342" width="18.54" height="18.54"/><rect x="522" y="342" width="18.54" height="18.54"/><rect x="540" y="342" width="18.54" height="18.54"/><rect x="36" y="360" width="18.54" height="18.54"/><rect x="72" y="360" width="18.54" height="18.54"/><rect x="126" y="360" width="18.54" height="18.54"/><rect x="144" y="360" width="18.54" height="18.54"/><rect x="162" y="360" width="18.54" height="18.54"/><rect x="216" y="360" width="18.54" height="18.54"/><rect x="234" y="360" width="18.54" height="18.54"/><rect x="252" y="360" width="18.54" height="18.54"/><rect x="342" y="360" width="18.54" height="18.54"/><rect x="360" y="360" width="18.54" height="18.54"/><rect x="396" y="360" width="18.54" height="18.54"/><rect x="432" y="360" width="18.54" height="18.54"/><rect x="450" y="360" width="18.54" height="18.54"/><rect x="468" y="360" width="18.54" height="18.54"/><rect x="504" y="360" width="18.54" height="18.54"/><rect x="36" y="378" width="18.54" height="18.54"/><rect x="72" y="378" width="18.54" height="18.54"/><rect x="90" y="378" width="18.54" height="18.54"/><rect x="126" y="378" width="18.54" height="18.54"/><rect x="180" y="378" width="18.54" height="18.54"/><rect x="198" y="378" width="18.54" height="18.54"/><rect x="216" y="378" width="18.54" height="18.54"/><rect x="270" y="378" width="18.54" height="18.54"/><rect x="288" y="378" width="18.54" height="18.54"/><rect x="324" y="378" width="18.54" height="18.54"/><rect x="342" y="378" width="18.54" height="18.54"/><rect x="360" y="378" width="18.54" height="18.54"/><rect x="396" y="378" width="18.54" height="18.54"/><rect x="432" y="378" width="18.54" height="18.54"/><rect x="450" y="378" width="18.54" height="18.54"/><rect x="522" y="378" width="18.54" height="18.54"/><rect x="540" y="378" width="18.54" height="18.54"/><rect x="36" y="396" width="18.54" height="18.54"/><rect x="72" y="396" width="18.54" height="18.54"/><rect x="90" y="396" width="18.54" height="18.54"/><rect x="126" y="396" width="18.54" height="18.54"/><rect x="144" y="396" width="18.54" height="18.54"/><rect x="270" y="396" width="18.54" height="18.54"/><rect x="378" y="396" width="18.54" height="18.54"/><rect x="396" y="396" width="18.54" height="18.54"/><rect x="414" y="396" width="18.54" height="18.54"/><rect x="432" y="396" width="18.54" height="18.54"/><rect x="450" y="396" width="18.54" height="18.54"/><rect x="468" y="396" width="18.54" height="18.54"/><rect x="486" y="396" width="18.54" height="18.54"/><rect x="504" y="396" width="18.54" height="18.54"/><rect x="180" y="414" width="18.54" height="18.54"/><rect x="216" y="414" width="18.54" height="18.54"/><rect x="270" y="414" width="18.54" height="18.54"/><rect x="324" y="414" width="18.54" height="18.54"/><rect x="360" y="414" width="18.54" height="18.54"/><rect x="396" y="414" width="18.54" height="18.54"/><rect x="468" y="414" width="18.54" height="18.54"/><rect x="486" y="414" width="18.54" height="18.54"/><rect x="540" y="414" width="18.54" height="18.54"/><rect x="198" y="432" width="18.54" height="18.54"/><rect x="216" y="432" width="18.54" height="18.54"/><rect x="234" y="432" width="18.54" height="18.54"/><rect x="252" y="432" width="18.54" height="18.54"/><rect x="306" y="432" width="18.54" height="18.54"/><rect x="324" y="432" width="18.54" height="18.54"/><rect x="360" y="432" width="18.54" height="18.54"/><rect x="378" y="432" width="18.54" height="18.54"/><rect x="396" y="432" width="18.54" height="18.54"/><rect x="432" y="432" width="18.54" height="18.54"/><rect x="468" y="432" width="18.54" height="18.54"/><rect x="198" y="450" width="18.54" height="18.54"/><rect x="216" y="450" width="18.54" height="18.54"/><rect x="270" y="450" width="18.54" height="18.54"/><rect x="324" y="450" width="18.54" height="18.54"/><rect x="342" y="450" width="18.54" height="18.54"/><rect x="378" y="450" width="18.54" height="18.54"/><rect x="396" y="450" width="18.54" height="18.54"/><rect x="468" y="450" width="18.54" height="18.54"/><rect x="486" y="450" width="18.54" height="18.54"/><rect x="522" y="450" width="18.54" height="18.54"/><rect x="540" y="450" width="18.54" height="18.54"/><rect x="180" y="468" width="18.54" height="18.54"/><rect x="216" y="468" width="18.54" height="18.54"/><rect x="252" y="468" width="18.54" height="18.54"/><rect x="288" y="468" width="18.54" height="18.54"/><rect x="324" y="468" width="18.54" height="18.54"/><rect x="342" y="468" width="18.54" height="18.54"/><rect x="360" y="468" width="18.54" height="18.54"/><rect x="396" y="468" width="18.54" height="18.54"/><rect x="414" y="468" width="18.54" height="18.54"/><rect x="432" y="468" width="18.54" height="18.54"/><rect x="450" y="468" width="18.54" height="18.54"/><rect x="468" y="468" width="18.54" height="18.54"/><rect x="486" y="468" width="18.54" height="18.54"/><rect x="504" y="468" width="18.54" height="18.54"/><rect x="540" y="468" width="18.54" height="18.54"/><rect x="180" y="486" width="18.54" height="18.54"/><rect x="216" y="486" width="18.54" height="18.54"/><rect x="252" y="486" width="18.54" height="18.54"/><rect x="306" y="486" width="18.54" height="18.54"/><rect x="342" y="486" width="18.54" height="18.54"/><rect x="360" y="486" width="18.54" height="18.54"/><rect x="378" y="486" width="18.54" height="18.54"/><rect x="396" y="486" width="18.54" height="18.54"/><rect x="414" y="486" width="18.54" height="18.54"/><rect x="450" y="486" width="18.54" height="18.54"/><rect x="180" y="504" width="18.54" height="18.54"/><rect x="198" y="504" width="18.54" height="18.54"/><rect x="234" y="504" width="18.54" height="18.54"/><rect x="288" y="504" width="18.54" height="18.54"/><rect x="306" y="504" width="18.54" height="18.54"/><rect x="378" y="504" width="18.54" height="18.54"/><rect x="396" y="504" width="18.54" height="18.54"/><rect x="414" y="504" width="18.54" height="18.54"/><rect x="432" y="504" width="18.54" height="18.54"/><rect x="450" y="504" width="18.54" height="18.54"/><rect x="468" y="504" width="18.54" height="18.54"/><rect x="504" y="504" width="18.54" height="18.54"/><rect x="522" y="504" width="18.54" height="18.54"/><rect x="198" y="522" width="18.54" height="18.54"/><rect x="216" y="522" width="18.54" height="18.54"/><rect x="234" y="522" width="18.54" height="18.54"/><rect x="270" y="522" width="18.54" height="18.54"/><rect x="288" y="522" width="18.54" height="18.54"/><rect x="342" y="522" width="18.54" height="18.54"/><rect x="360" y="522" width="18.54" height="18.54"/><rect x="396" y="522" width="18.54" height="18.54"/><rect x="432" y="522" width="18.54" height="18.54"/><rect x="468" y="522" width="18.54" height="18.54"/><rect x="486" y="522" width="18.54" height="18.54"/><rect x="522" y="522" width="18.54" height="18.54"/><rect x="198" y="540" width="18.54" height="18.54"/><rect x="216" y="540" width="18.54" height="18.54"/><rect x="234" y="540" width="18.54" height="18.54"/><rect x="306" y="540" width="18.54" height="18.54"/><rect x="342" y="540" width="18.54" height="18.54"/><rect x="360" y="540" width="18.54" height="18.54"/><rect x="378" y="540" width="18.54" height="18.54"/><rect x="432" y="540" width="18.54" height="18.54"/><rect x="468" y="540" width="18.54" height="18.54"/><rect x="504" y="540" width="18.54" height="18.54"/><path d="M36,36V162H162V36ZM144,144H54V54h90v90Z"/><path d="M432,36V162H558V36ZM540,144H450V54h90v90Z"/><path d="M36,432V558H162V432ZM144,540H54V450h90v90Z"/><rect x="72" y="72" width="54" height="54"/><rect x="468" y="72" width="54" height="54"/><rect x="72" y="468" width="54" height="54"/><g class="cls-5"><polygon class="cls-6" points="277.86 290.2 277.78 256.8 277.55 256.8 277.63 290.2 277.86 290.2"/><polygon class="cls-7" points="278.09 290.2 278.01 256.8 277.78 256.8 277.86 290.2 278.09 290.2"/><polygon class="cls-8" points="278.32 290.2 278.24 256.8 278.01 256.8 278.09 290.2 278.32 290.2"/><polygon class="cls-9" points="278.56 290.2 278.48 256.8 278.24 256.8 278.32 290.2 278.56 290.2"/><polygon class="cls-10" points="278.79 290.2 278.71 256.8 278.48 256.8 278.56 290.2 278.79 290.2"/><polygon class="cls-11" points="279.02 290.2 278.94 256.8 278.71 256.8 278.79 290.2 279.02 290.2"/><polygon class="cls-12" points="279.25 290.2 279.17 256.8 278.94 256.8 279.02 290.2 279.25 290.2"/><polygon class="cls-13" points="279.48 290.19 279.4 256.79 279.17 256.8 279.25 290.2 279.48 290.19"/><polygon class="cls-14" points="279.71 290.19 279.63 256.79 279.4 256.79 279.48 290.19 279.71 290.19"/><polygon class="cls-14" points="279.94 290.19 279.86 256.79 279.63 256.79 279.71 290.19 279.94 290.19"/><polygon class="cls-15" points="280.18 290.19 280.1 256.79 279.86 256.79 279.94 290.19 280.18 290.19"/><polygon class="cls-15" points="280.41 290.19 280.33 256.79 280.1 256.79 280.18 290.19 280.41 290.19"/><polygon class="cls-16" points="280.64 290.19 280.56 256.79 280.33 256.79 280.41 290.19 280.64 290.19"/><polygon class="cls-16" points="280.88 290.19 280.79 256.79 280.56 256.79 280.64 290.19 280.88 290.19"/><polygon class="cls-17" points="281.11 290.19 281.02 256.79 280.79 256.79 280.88 290.19 281.11 290.19"/><polygon class="cls-18" points="281.33 290.19 281.25 256.79 281.02 256.79 281.11 290.19 281.33 290.19"/><polygon class="cls-18" points="281.56 290.19 281.48 256.79 281.25 256.79 281.33 290.19 281.56 290.19"/><polygon class="cls-19" points="281.8 290.19 281.71 256.79 281.48 256.79 281.56 290.19 281.8 290.19"/><polygon class="cls-19" points="282.03 290.19 281.95 256.79 281.71 256.79 281.8 290.19 282.03 290.19"/><polygon class="cls-20" points="282.25 290.18 282.17 256.79 281.95 256.79 282.03 290.19 282.25 290.18"/><polygon class="cls-20" points="282.49 290.18 282.4 256.79 282.17 256.79 282.25 290.18 282.49 290.18"/><polygon class="cls-21" points="282.73 290.18 282.64 256.79 282.4 256.79 282.49 290.18 282.73 290.18"/><polygon class="cls-22" points="282.96 290.18 282.88 256.79 282.64 256.79 282.73 290.18 282.96 290.18"/><polygon class="cls-23" points="283.19 290.18 283.1 256.79 282.88 256.79 282.96 290.18 283.19 290.18"/><polygon class="cls-24" points="283.42 290.18 283.33 256.79 283.1 256.79 283.19 290.18 283.42 290.18"/><polygon class="cls-25" points="283.65 290.18 283.57 256.79 283.33 256.79 283.42 290.18 283.65 290.18"/><polygon class="cls-26" points="283.88 290.18 283.8 256.79 283.57 256.79 283.65 290.18 283.88 290.18"/><polygon class="cls-27" points="284.11 290.18 284.02 256.79 283.8 256.79 283.88 290.18 284.11 290.18"/><polygon class="cls-28" points="284.34 290.18 284.26 256.79 284.02 256.79 284.11 290.18 284.34 290.18"/><polygon class="cls-29" points="284.57 290.18 284.49 256.79 284.26 256.79 284.34 290.18 284.57 290.18"/><polygon class="cls-30" points="284.81 290.18 284.72 256.79 284.49 256.79 284.57 290.18 284.81 290.18"/><polygon class="cls-31" points="285.04 290.18 284.95 256.79 284.72 256.79 284.81 290.18 285.04 290.18"/><polygon class="cls-32" points="285.27 290.18 285.19 256.78 284.95 256.79 285.04 290.18 285.27 290.18"/><polygon class="cls-33" points="285.5 290.18 285.42 256.78 285.19 256.78 285.27 290.18 285.5 290.18"/><polygon class="cls-34" points="285.74 290.18 285.65 256.78 285.42 256.78 285.5 290.18 285.74 290.18"/><polygon class="cls-35" points="285.96 290.18 285.88 256.78 285.65 256.78 285.74 290.18 285.96 290.18"/><polygon class="cls-36" points="286.19 290.18 286.11 256.78 285.88 256.78 285.96 290.18 286.19 290.18"/><polygon class="cls-36" points="286.43 290.18 286.34 256.78 286.11 256.78 286.19 290.18 286.43 290.18"/><polygon class="cls-37" points="286.66 290.18 286.57 256.78 286.34 256.78 286.43 290.18 286.66 290.18"/><polygon class="cls-38" points="286.89 290.18 286.81 256.78 286.57 256.78 286.66 290.18 286.89 290.18"/><polygon class="cls-39" points="287.12 290.18 287.04 256.78 286.81 256.78 286.89 290.18 287.12 290.18"/><polygon class="cls-40" points="287.36 290.18 287.27 256.78 287.04 256.78 287.12 290.18 287.36 290.18"/><polygon class="cls-41" points="287.59 290.18 287.5 256.78 287.27 256.78 287.36 290.18 287.59 290.18"/><polygon class="cls-42" points="287.81 290.18 287.73 256.78 287.5 256.78 287.59 290.18 287.81 290.18"/><polygon class="cls-43" points="288.05 290.17 287.96 256.77 287.73 256.78 287.81 290.18 288.05 290.17"/><polygon class="cls-43" points="288.28 290.17 288.19 256.77 287.96 256.77 288.05 290.17 288.28 290.17"/><polygon class="cls-44" points="288.51 290.17 288.43 256.77 288.19 256.77 288.28 290.17 288.51 290.17"/><polygon class="cls-45" points="288.74 290.17 288.66 256.77 288.43 256.77 288.51 290.17 288.74 290.17"/><polygon class="cls-45" points="288.98 290.17 288.89 256.77 288.66 256.77 288.74 290.17 288.98 290.17"/><polygon class="cls-46" points="289.21 290.17 289.13 256.77 288.89 256.77 288.98 290.17 289.21 290.17"/><polygon class="cls-47" points="289.44 290.17 289.36 256.77 289.13 256.77 289.21 290.17 289.44 290.17"/><polygon class="cls-48" points="289.67 290.17 289.58 256.77 289.36 256.77 289.44 290.17 289.67 290.17"/><polygon class="cls-49" points="289.9 290.17 289.81 256.77 289.58 256.77 289.67 290.17 289.9 290.17"/><polygon class="cls-50" points="290.13 290.17 290.05 256.77 289.81 256.77 289.9 290.17 290.13 290.17"/><polygon class="cls-50" points="290.36 290.17 290.28 256.77 290.05 256.77 290.13 290.17 290.36 290.17"/><polygon class="cls-51" points="290.59 290.17 290.5 256.77 290.28 256.77 290.36 290.17 290.59 290.17"/><polygon class="cls-52" points="290.83 290.16 290.75 256.76 290.5 256.77 290.59 290.17 290.83 290.16"/><polygon class="cls-53" points="291.06 290.16 290.98 256.76 290.75 256.76 290.83 290.16 291.06 290.16"/><polygon class="cls-54" points="291.29 290.16 291.21 256.76 290.98 256.76 291.06 290.16 291.29 290.16"/><polygon class="cls-55" points="291.52 290.16 291.44 256.76 291.21 256.76 291.29 290.16 291.52 290.16"/><polygon class="cls-56" points="291.75 290.16 291.67 256.76 291.44 256.76 291.52 290.16 291.75 290.16"/><polygon class="cls-57" points="291.98 290.16 291.9 256.76 291.67 256.76 291.75 290.16 291.98 290.16"/><polygon class="cls-58" points="292.21 290.16 292.13 256.76 291.9 256.76 291.98 290.16 292.21 290.16"/><polygon class="cls-58" points="292.44 290.16 292.36 256.76 292.13 256.76 292.21 290.16 292.44 290.16"/><polygon class="cls-59" points="292.67 290.16 292.59 256.76 292.36 256.76 292.44 290.16 292.67 290.16"/><polygon class="cls-60" points="292.9 290.16 292.82 256.76 292.59 256.76 292.67 290.16 292.9 290.16"/><polygon class="cls-61" points="293.14 290.16 293.06 256.76 292.82 256.76 292.9 290.16 293.14 290.16"/><polygon class="cls-62" points="293.37 290.16 293.29 256.76 293.06 256.76 293.14 290.16 293.37 290.16"/><polygon class="cls-63" points="293.6 290.16 293.52 256.76 293.29 256.76 293.37 290.16 293.6 290.16"/><polygon class="cls-63" points="293.83 290.15 293.75 256.75 293.52 256.76 293.6 290.16 293.83 290.15"/><polygon class="cls-64" points="294.07 290.15 293.99 256.75 293.75 256.75 293.83 290.15 294.07 290.15"/><polygon class="cls-65" points="294.29 290.15 294.21 256.75 293.99 256.75 294.07 290.15 294.29 290.15"/><polygon class="cls-66" points="294.52 290.15 294.44 256.75 294.21 256.75 294.29 290.15 294.52 290.15"/><polygon class="cls-67" points="294.76 290.15 294.68 256.75 294.44 256.75 294.52 290.15 294.76 290.15"/><polygon class="cls-68" points="294.99 290.15 294.91 256.75 294.68 256.75 294.76 290.15 294.99 290.15"/><polygon class="cls-69" points="295.22 290.15 295.14 256.75 294.91 256.75 294.99 290.15 295.22 290.15"/><polygon class="cls-70" points="295.45 290.15 295.37 256.75 295.14 256.75 295.22 290.15 295.45 290.15"/><polygon class="cls-71" points="295.69 290.15 295.61 256.75 295.37 256.75 295.45 290.15 295.69 290.15"/><polygon class="cls-71" points="295.92 290.15 295.84 256.75 295.61 256.75 295.69 290.15 295.92 290.15"/><polygon class="cls-72" points="296.14 290.15 296.06 256.75 295.84 256.75 295.92 290.15 296.14 290.15"/><polygon class="cls-73" points="296.38 290.15 296.3 256.75 296.06 256.75 296.14 290.15 296.38 290.15"/><polygon class="cls-74" points="296.61 290.14 296.53 256.75 296.3 256.75 296.38 290.15 296.61 290.14"/><polygon class="cls-75" points="296.84 290.14 296.76 256.75 296.53 256.75 296.61 290.14 296.84 290.14"/><polygon class="cls-76" points="297.07 290.14 296.99 256.75 296.76 256.75 296.84 290.14 297.07 290.14"/><polygon class="cls-76" points="297.31 290.14 297.23 256.75 296.99 256.75 297.07 290.14 297.31 290.14"/><polygon class="cls-77" points="297.54 290.14 297.46 256.75 297.23 256.75 297.31 290.14 297.54 290.14"/><polygon class="cls-78" points="297.76 290.14 297.68 256.75 297.46 256.75 297.54 290.14 297.76 290.14"/><polygon class="cls-79" points="298 290.14 297.92 256.75 297.68 256.75 297.76 290.14 298 290.14"/><polygon class="cls-80" points="298.23 290.14 298.15 256.75 297.92 256.75 298 290.14 298.23 290.14"/><polygon class="cls-81" points="298.46 290.14 298.38 256.75 298.15 256.75 298.23 290.14 298.46 290.14"/><polygon class="cls-82" points="298.69 290.14 298.61 256.75 298.38 256.75 298.46 290.14 298.69 290.14"/><polygon class="cls-83" points="298.93 290.14 298.85 256.75 298.61 256.75 298.69 290.14 298.93 290.14"/><polygon class="cls-84" points="299.16 290.14 299.08 256.75 298.85 256.75 298.93 290.14 299.16 290.14"/><polygon class="cls-85" points="299.39 290.14 299.31 256.75 299.08 256.75 299.16 290.14 299.39 290.14"/><polygon class="cls-86" points="299.62 290.14 299.54 256.74 299.31 256.75 299.39 290.14 299.62 290.14"/><polygon class="cls-86" points="299.85 290.14 299.77 256.74 299.54 256.74 299.62 290.14 299.85 290.14"/><polygon class="cls-87" points="300.08 290.14 300 256.74 299.77 256.74 299.85 290.14 300.08 290.14"/><polygon class="cls-88" points="300.31 290.14 300.23 256.74 300 256.74 300.08 290.14 300.31 290.14"/><polygon class="cls-89" points="300.54 290.14 300.46 256.74 300.23 256.74 300.31 290.14 300.54 290.14"/><polygon class="cls-90" points="300.77 290.14 300.69 256.74 300.46 256.74 300.54 290.14 300.77 290.14"/><polygon class="cls-91" points="301 290.14 300.92 256.74 300.69 256.74 300.77 290.14 301 290.14"/><polygon class="cls-92" points="301.24 290.14 301.15 256.74 300.92 256.74 301 290.14 301.24 290.14"/><polygon class="cls-93" points="301.47 290.14 301.39 256.74 301.15 256.74 301.24 290.14 301.47 290.14"/><polygon class="cls-94" points="301.7 290.14 301.62 256.74 301.39 256.74 301.47 290.14 301.7 290.14"/><polygon class="cls-95" points="301.94 290.14 301.85 256.74 301.62 256.74 301.7 290.14 301.94 290.14"/><polygon class="cls-96" points="302.17 290.14 302.08 256.74 301.85 256.74 301.94 290.14 302.17 290.14"/><polygon class="cls-97" points="302.39 290.13 302.31 256.73 302.08 256.74 302.17 290.14 302.39 290.13"/><polygon class="cls-98" points="302.63 290.13 302.54 256.73 302.31 256.73 302.39 290.13 302.63 290.13"/><polygon class="cls-99" points="302.86 290.13 302.77 256.73 302.54 256.73 302.63 290.13 302.86 290.13"/><polygon class="cls-100" points="303.09 290.13 303.01 256.73 302.77 256.73 302.86 290.13 303.09 290.13"/><polygon class="cls-100" points="303.32 290.13 303.24 256.73 303.01 256.73 303.09 290.13 303.32 290.13"/><polygon class="cls-101" points="303.56 290.13 303.47 256.73 303.24 256.73 303.32 290.13 303.56 290.13"/><polygon class="cls-102" points="303.79 290.13 303.7 256.73 303.47 256.73 303.56 290.13 303.79 290.13"/><polygon class="cls-103" points="304.02 290.13 303.94 256.73 303.7 256.73 303.79 290.13 304.02 290.13"/><polygon class="cls-104" points="304.25 290.13 304.16 256.73 303.94 256.73 304.02 290.13 304.25 290.13"/><polygon class="cls-105" points="304.48 290.13 304.39 256.73 304.16 256.73 304.25 290.13 304.48 290.13"/><polygon class="cls-106" points="304.71 290.13 304.63 256.73 304.39 256.73 304.48 290.13 304.71 290.13"/><polygon class="cls-107" points="304.94 290.13 304.86 256.73 304.63 256.73 304.71 290.13 304.94 290.13"/><polygon class="cls-108" points="305.18 290.12 305.09 256.73 304.86 256.73 304.94 290.13 305.18 290.12"/><polygon class="cls-108" points="305.41 290.12 305.32 256.73 305.09 256.73 305.18 290.12 305.41 290.12"/><polygon class="cls-109" points="305.64 290.12 305.56 256.73 305.32 256.73 305.41 290.12 305.64 290.12"/><polygon class="cls-110" points="305.87 290.12 305.79 256.73 305.56 256.73 305.64 290.12 305.87 290.12"/><polygon class="cls-111" points="306.1 290.12 306.01 256.73 305.79 256.73 305.87 290.12 306.1 290.12"/><polygon class="cls-112" points="306.33 290.12 306.25 256.73 306.01 256.73 306.1 290.12 306.33 290.12"/><polygon class="cls-113" points="306.56 290.12 306.48 256.73 306.25 256.73 306.33 290.12 306.56 290.12"/><polygon class="cls-113" points="306.8 290.12 306.71 256.73 306.48 256.73 306.56 290.12 306.8 290.12"/><polygon class="cls-114" points="307.02 290.12 306.94 256.73 306.71 256.73 306.8 290.12 307.02 290.12"/><polygon class="cls-115" points="307.26 290.12 307.18 256.73 306.94 256.73 307.02 290.12 307.26 290.12"/><polygon class="cls-116" points="307.49 290.12 307.41 256.73 307.18 256.73 307.26 290.12 307.49 290.12"/><polygon class="cls-117" points="307.73 290.12 307.64 256.73 307.41 256.73 307.49 290.12 307.73 290.12"/><polygon class="cls-118" points="307.95 290.12 307.87 256.73 307.64 256.73 307.73 290.12 307.95 290.12"/><polygon class="cls-119" points="308.18 290.12 308.1 256.72 307.87 256.73 307.95 290.12 308.18 290.12"/><polygon class="cls-120" points="308.42 290.12 308.33 256.72 308.1 256.72 308.18 290.12 308.42 290.12"/><polygon class="cls-121" points="308.65 290.12 308.56 256.72 308.33 256.72 308.42 290.12 308.65 290.12"/><polygon class="cls-121" points="308.87 290.12 308.79 256.72 308.56 256.72 308.65 290.12 308.87 290.12"/><polygon class="cls-122" points="309.11 290.12 309.02 256.72 308.79 256.72 308.87 290.12 309.11 290.12"/><polygon class="cls-123" points="309.34 290.12 309.25 256.72 309.02 256.72 309.11 290.12 309.34 290.12"/><polygon class="cls-124" points="309.58 290.12 309.5 256.72 309.25 256.72 309.34 290.12 309.58 290.12"/><polygon class="cls-125" points="309.8 290.12 309.72 256.72 309.5 256.72 309.58 290.12 309.8 290.12"/><polygon class="cls-126" points="310.04 290.12 309.95 256.72 309.72 256.72 309.8 290.12 310.04 290.12"/><polygon class="cls-127" points="310.27 290.12 310.19 256.72 309.95 256.72 310.04 290.12 310.27 290.12"/><polygon class="cls-128" points="310.5 290.12 310.42 256.72 310.19 256.72 310.27 290.12 310.5 290.12"/><polygon class="cls-129" points="310.73 290.12 310.64 256.72 310.42 256.72 310.5 290.12 310.73 290.12"/><polygon class="cls-130" points="310.96 290.11 310.88 256.71 310.64 256.72 310.73 290.12 310.96 290.11"/><polygon class="cls-131" points="311.19 290.11 311.11 256.71 310.88 256.71 310.96 290.11 311.19 290.11"/><polygon class="cls-131" points="311.42 290.11 311.34 256.71 311.11 256.71 311.19 290.11 311.42 290.11"/><polygon class="cls-132" points="311.65 290.11 311.57 256.71 311.34 256.71 311.42 290.11 311.65 290.11"/><polygon class="cls-133" points="311.89 290.11 311.81 256.71 311.57 256.71 311.65 290.11 311.89 290.11"/><polygon class="cls-134" points="312.12 290.11 312.04 256.71 311.81 256.71 311.89 290.11 312.12 290.11"/><polygon class="cls-135" points="312.35 290.11 312.27 256.71 312.04 256.71 312.12 290.11 312.35 290.11"/><polygon class="cls-136" points="312.58 290.11 312.5 256.71 312.27 256.71 312.35 290.11 312.58 290.11"/><polygon class="cls-136" points="312.81 290.11 312.73 256.71 312.5 256.71 312.58 290.11 312.81 290.11"/><polygon class="cls-137" points="313.04 290.11 312.96 256.71 312.73 256.71 312.81 290.11 313.04 290.11"/><polygon class="cls-138" points="313.27 290.11 313.19 256.71 312.96 256.71 313.04 290.11 313.27 290.11"/><polygon class="cls-139" points="313.51 290.11 313.43 256.71 313.19 256.71 313.27 290.11 313.51 290.11"/><polygon class="cls-140" points="313.74 290.1 313.66 256.71 313.43 256.71 313.51 290.11 313.74 290.1"/><polygon class="cls-141" points="313.97 290.1 313.89 256.7 313.66 256.71 313.74 290.1 313.97 290.1"/><polygon class="cls-142" points="314.2 290.1 314.12 256.7 313.89 256.7 313.97 290.1 314.2 290.1"/><polygon class="cls-143" points="314.43 290.1 314.35 256.7 314.12 256.7 314.2 290.1 314.43 290.1"/><polygon class="cls-144" points="314.66 290.1 314.58 256.7 314.35 256.7 314.43 290.1 314.66 290.1"/><polygon class="cls-144" points="314.89 290.1 314.81 256.7 314.58 256.7 314.66 290.1 314.89 290.1"/><polygon class="cls-145" points="315.13 290.1 315.05 256.7 314.81 256.7 314.89 290.1 315.13 290.1"/><polygon class="cls-146" points="315.36 290.1 315.28 256.7 315.05 256.7 315.13 290.1 315.36 290.1"/><polygon class="cls-147" points="315.59 290.1 315.51 256.7 315.28 256.7 315.36 290.1 315.59 290.1"/><polygon class="cls-148" points="315.82 290.1 315.74 256.7 315.51 256.7 315.59 290.1 315.82 290.1"/><polygon class="cls-149" points="316.06 290.1 315.98 256.7 315.74 256.7 315.82 290.1 316.06 290.1"/><polygon class="cls-149" points="316.28 290.1 316.2 256.7 315.98 256.7 316.06 290.1 316.28 290.1"/><polygon class="cls-150" points="316.51 290.1 316.43 256.7 316.2 256.7 316.28 290.1 316.51 290.1"/><polygon class="cls-151" points="316.75 290.09 316.67 256.69 316.43 256.7 316.51 290.1 316.75 290.09"/><polygon class="cls-152" points="316.98 290.09 316.9 256.69 316.67 256.69 316.75 290.09 316.98 290.09"/><polygon class="cls-153" points="317.2 290.09 317.12 256.69 316.9 256.69 316.98 290.09 317.2 290.09"/><polygon class="cls-154" points="317.44 290.09 317.36 256.69 317.12 256.69 317.2 290.09 317.44 290.09"/><polygon class="cls-155" points="317.67 290.09 317.59 256.69 317.36 256.69 317.44 290.09 317.67 290.09"/><polygon class="cls-156" points="317.91 290.09 317.83 256.69 317.59 256.69 317.67 290.09 317.91 290.09"/><polygon class="cls-157" points="318.13 290.09 318.05 256.69 317.83 256.69 317.91 290.09 318.13 290.09"/><polygon class="cls-157" points="318.37 290.09 318.29 256.69 318.05 256.69 318.13 290.09 318.37 290.09"/><polygon class="cls-158" points="318.6 290.09 318.52 256.69 318.29 256.69 318.37 290.09 318.6 290.09"/><polygon class="cls-159" points="318.83 290.09 318.75 256.69 318.52 256.69 318.6 290.09 318.83 290.09"/><polygon class="cls-160" points="319.06 290.09 318.98 256.69 318.75 256.69 318.83 290.09 319.06 290.09"/><polygon class="cls-161" points="319.29 290.09 319.21 256.69 318.98 256.69 319.06 290.09 319.29 290.09"/><polygon class="cls-162" points="319.52 290.08 319.44 256.69 319.21 256.69 319.29 290.09 319.52 290.08"/><polygon class="cls-162" points="319.75 290.08 319.67 256.69 319.44 256.69 319.52 290.08 319.75 290.08"/><polygon class="cls-163" points="319.99 290.08 319.9 256.69 319.67 256.69 319.75 290.08 319.99 290.08"/><polygon class="cls-164" points="320.22 290.08 320.14 256.69 319.9 256.69 319.99 290.08 320.22 290.08"/><polygon class="cls-165" points="320.45 290.08 320.37 256.69 320.14 256.69 320.22 290.08 320.45 290.08"/><polygon class="cls-166" points="320.69 290.08 320.6 256.69 320.37 256.69 320.45 290.08 320.69 290.08"/><polygon class="cls-167" points="320.91 290.08 320.83 256.69 320.6 256.69 320.69 290.08 320.91 290.08"/><polygon class="cls-168" points="321.14 290.08 321.06 256.69 320.83 256.69 320.91 290.08 321.14 290.08"/><polygon class="cls-169" points="321.38 290.08 321.29 256.69 321.06 256.69 321.14 290.08 321.38 290.08"/><polygon class="cls-169" points="321.61 290.08 321.52 256.69 321.29 256.69 321.38 290.08 321.61 290.08"/><polygon class="cls-170" points="321.84 290.08 321.76 256.69 321.52 256.69 321.61 290.08 321.84 290.08"/><polygon class="cls-171" points="322.07 290.08 321.99 256.69 321.76 256.69 321.84 290.08 322.07 290.08"/><polygon class="cls-171" points="322.31 290.08 322.22 256.69 321.99 256.69 322.07 290.08 322.31 290.08"/><polygon class="cls-172" points="322.54 290.08 322.45 256.68 322.22 256.69 322.31 290.08 322.54 290.08"/><polygon class="cls-173" points="322.76 290.08 322.68 256.68 322.45 256.68 322.54 290.08 322.76 290.08"/><polygon class="cls-174" points="323 290.08 322.91 256.68 322.68 256.68 322.76 290.08 323 290.08"/><polygon class="cls-175" points="323.23 290.08 323.14 256.68 322.91 256.68 323 290.08 323.23 290.08"/><polygon class="cls-176" points="323.46 290.08 323.38 256.68 323.14 256.68 323.23 290.08 323.46 290.08"/><polygon class="cls-176" points="323.93 290.08 323.84 256.68 323.38 256.68 323.46 290.08 323.93 290.08"/><polygon class="cls-176" points="324.85 290.08 324.76 256.68 323.84 256.68 323.93 290.08 324.85 290.08"/><polygon class="cls-176" points="328.55 290.06 328.47 256.67 324.76 256.68 324.85 290.08 328.55 290.06"/><rect class="cls-177" x="328.51" y="256.66" width="7.4" height="33.4" transform="translate(-0.67 0.82) rotate(-0.14)"/></g><g class="cls-5"><rect class="cls-178" x="276.65" y="256.77" width="59.25" height="33.36" transform="translate(-0.71 0.8) rotate(-0.15)"/></g><path class="cls-179" d="M285.14,257.87h0m15-1a98.72,98.72,0,0,0-15.07,1h0c-5.68,1.06-6.89,4.24-6.89,4.24-1.48,3,1.33,11,7,20.61a142,142,0,0,1,21.61-1.33c10.37.23,16.38,1.52,19,3.13s1.84,4.67,1.51,5.52c1.94-3.43,6.05-11.57,7.29-16.48s.17-7.07-.05-7.6a8.61,8.61,0,0,0-1.55-2.52,8.52,8.52,0,0,0-2.3-1.84c-5.64-2.81-14.74-3.9-20.69-4.37-3.07-.25-6.26-.4-9.53-.4Z"/><g class="cls-180"><rect class="cls-177" x="202.89" y="258.31" width="112.4" height="14.11" transform="translate(-110.65 294.21) rotate(-50.15)"/><rect class="cls-177" x="209.66" y="269.25" width="112.4" height="3.52" transform="translate(-112.56 301.43) rotate(-50.15)"/><polygon class="cls-176" points="231.54 315.57 303.56 229.28 303.23 228.99 231.19 315.28 231.54 315.57"/><polygon class="cls-175" points="231.87 315.84 303.88 229.56 303.56 229.28 231.54 315.57 231.87 315.84"/><polygon class="cls-173" points="232.22 316.13 304.25 229.84 303.88 229.56 231.87 315.84 232.22 316.13"/><polygon class="cls-172" points="232.54 316.41 304.57 230.13 304.25 229.84 232.22 316.13 232.54 316.41"/><polygon class="cls-171" points="232.89 316.69 304.9 230.4 304.57 230.13 232.54 316.41 232.89 316.69"/><polygon class="cls-181" points="233.24 316.98 305.25 230.69 304.9 230.4 232.89 316.69 233.24 316.98"/><polygon class="cls-169" points="233.56 317.26 305.6 230.97 305.25 230.69 233.24 316.98 233.56 317.26"/><polygon class="cls-182" points="233.91 317.55 305.93 231.26 305.6 230.97 233.56 317.26 233.91 317.55"/><polygon class="cls-167" points="234.24 317.82 306.25 231.54 305.93 231.26 233.91 317.55 234.24 317.82"/><polygon class="cls-165" points="234.59 318.11 306.62 231.82 306.25 231.54 234.24 317.82 234.59 318.11"/><polygon class="cls-164" points="234.91 318.39 306.94 232.11 306.62 231.82 234.59 318.11 234.91 318.39"/><polygon class="cls-163" points="235.26 318.67 307.27 232.38 306.94 232.11 234.91 318.39 235.26 318.67"/><polygon class="cls-162" points="235.6 318.96 307.62 232.67 307.27 232.38 235.26 318.67 235.6 318.96"/><polygon class="cls-161" points="235.94 319.24 307.96 232.95 307.62 232.67 235.6 318.96 235.94 319.24"/><polygon class="cls-183" points="236.26 319.52 308.3 233.23 307.96 232.95 235.94 319.24 236.26 319.52"/><polygon class="cls-184" points="236.61 319.8 308.63 233.52 308.3 233.23 236.26 319.52 236.61 319.8"/><polygon class="cls-157" points="236.96 320.09 308.99 233.8 308.63 233.52 236.61 319.8 236.96 320.09"/><polygon class="cls-156" points="237.28 320.37 309.31 234.08 308.99 233.8 236.96 320.09 237.28 320.37"/><polygon class="cls-154" points="237.63 320.65 309.64 234.36 309.31 234.08 237.28 320.37 237.63 320.65"/><polygon class="cls-185" points="237.97 320.93 309.99 234.64 309.64 234.36 237.63 320.65 237.97 320.93"/><polygon class="cls-152" points="238.31 321.21 310.33 234.93 309.99 234.64 237.97 320.93 238.31 321.21"/><polygon class="cls-150" points="238.63 321.5 310.67 235.21 310.33 234.93 238.31 321.21 238.63 321.5"/><polygon class="cls-149" points="238.98 321.78 311 235.49 310.67 235.21 238.63 321.5 238.98 321.78"/><polygon class="cls-186" points="239.32 322.06 311.34 235.77 311 235.49 238.98 321.78 239.32 322.06"/><polygon class="cls-187" points="239.66 322.34 311.69 236.05 311.34 235.77 239.32 322.06 239.66 322.34"/><polygon class="cls-146" points="240 322.62 312.01 236.34 311.69 236.05 239.66 322.34 240 322.62"/><polygon class="cls-188" points="240.33 322.91 312.35 236.62 312.01 236.34 240 322.62 240.33 322.91"/><polygon class="cls-144" points="240.68 323.19 312.7 236.9 312.35 236.62 240.33 322.91 240.68 323.19"/><polygon class="cls-143" points="241 323.47 313.04 237.18 312.7 236.9 240.68 323.19 241 323.47"/><polygon class="cls-141" points="241.35 323.76 313.37 237.47 313.04 237.18 241 323.47 241.35 323.76"/><polygon class="cls-140" points="241.69 324.03 313.71 237.75 313.37 237.47 241.35 323.76 241.69 324.03"/><polygon class="cls-139" points="242.03 324.32 314.06 238.03 313.71 237.75 241.69 324.03 242.03 324.32"/><polygon class="cls-137" points="242.35 324.6 314.38 238.31 314.06 238.03 242.03 324.32 242.35 324.6"/><polygon class="cls-189" points="242.7 324.88 314.71 238.59 314.38 238.31 242.35 324.6 242.7 324.88"/><polygon class="cls-135" points="243.04 325.17 315.07 238.88 314.71 238.59 242.7 324.88 243.04 325.17"/><polygon class="cls-134" points="243.38 325.44 315.4 239.16 315.07 238.88 243.04 325.17 243.38 325.44"/><polygon class="cls-132" points="243.72 325.73 315.74 239.44 315.4 239.16 243.38 325.44 243.72 325.73"/><polygon class="cls-131" points="244.06 326.01 316.08 239.73 315.74 239.44 243.72 325.73 244.06 326.01"/><polygon class="cls-190" points="244.4 326.29 316.43 240 316.08 239.73 244.06 326.01 244.4 326.29"/><polygon class="cls-130" points="244.72 326.58 316.75 240.29 316.43 240 244.4 326.29 244.72 326.58"/><polygon class="cls-128" points="245.07 326.86 317.08 240.57 316.75 240.29 244.72 326.58 245.07 326.86"/><polygon class="cls-127" points="245.41 327.15 317.44 240.86 317.08 240.57 245.07 326.86 245.41 327.15"/><polygon class="cls-191" points="245.75 327.42 317.77 241.14 317.44 240.86 245.41 327.15 245.75 327.42"/><polygon class="cls-192" points="246.09 327.71 318.11 241.42 317.77 241.14 245.75 327.42 246.09 327.71"/><polygon class="cls-122" points="246.44 327.99 318.45 241.71 318.11 241.42 246.09 327.71 246.44 327.99"/><polygon class="cls-121" points="246.76 328.27 318.8 241.98 318.45 241.71 246.44 327.99 246.76 328.27"/><polygon class="cls-120" points="247.09 328.56 319.13 242.27 318.8 241.98 246.76 328.27 247.09 328.56"/><polygon class="cls-119" points="247.44 328.84 319.45 242.55 319.13 242.27 247.09 328.56 247.44 328.84"/><polygon class="cls-117" points="247.78 329.12 319.8 242.83 319.45 242.55 247.44 328.84 247.78 329.12"/><polygon class="cls-116" points="248.12 329.4 320.14 243.12 319.8 242.83 247.78 329.12 248.12 329.4"/><polygon class="cls-193" points="248.46 329.69 320.48 243.4 320.14 243.12 248.12 329.4 248.46 329.69"/><polygon class="cls-194" points="248.79 329.97 320.81 243.68 320.48 243.4 248.46 329.69 248.79 329.97"/><polygon class="cls-195" points="249.13 330.25 321.17 243.96 320.81 243.68 248.79 329.97 249.13 330.25"/><polygon class="cls-112" points="249.47 330.54 321.5 244.25 321.17 243.96 249.13 330.25 249.47 330.54"/><polygon class="cls-111" points="249.81 330.81 321.82 244.53 321.5 244.25 249.47 330.54 249.81 330.81"/><polygon class="cls-109" points="250.16 331.1 322.17 244.81 321.82 244.53 249.81 330.81 250.16 331.1"/><polygon class="cls-108" points="250.49 331.38 322.51 245.1 322.17 244.81 250.16 331.1 250.49 331.38"/><polygon class="cls-107" points="250.81 331.66 322.85 245.37 322.51 245.1 250.49 331.38 250.81 331.66"/><polygon class="cls-106" points="251.16 331.95 323.18 245.66 322.85 245.37 250.81 331.66 251.16 331.95"/><polygon class="cls-196" points="251.5 332.23 323.54 245.94 323.18 245.66 251.16 331.95 251.5 332.23"/><polygon class="cls-197" points="251.84 332.51 323.87 246.22 323.54 245.94 251.5 332.23 251.84 332.51"/><polygon class="cls-198" points="252.18 332.79 324.19 246.51 323.87 246.22 251.84 332.51 252.18 332.79"/><polygon class="cls-199" points="252.53 333.08 324.54 246.79 324.19 246.51 252.18 332.79 252.53 333.08"/><polygon class="cls-200" points="252.85 333.36 324.88 247.07 324.54 246.79 252.53 333.08 252.85 333.36"/><polygon class="cls-98" points="253.19 333.64 325.21 247.35 324.88 247.07 252.85 333.36 253.19 333.64"/><polygon class="cls-96" points="253.53 333.93 325.55 247.64 325.21 247.35 253.19 333.64 253.53 333.93"/><polygon class="cls-96" points="253.88 334.2 325.89 247.92 325.55 247.64 253.53 333.93 253.88 334.2"/><polygon class="cls-95" points="254.21 334.49 326.24 248.2 325.89 247.92 253.88 334.2 254.21 334.49"/><polygon class="cls-201" points="254.55 334.77 326.56 248.49 326.24 248.2 254.21 334.49 254.55 334.77"/><polygon class="cls-202" points="254.88 335.05 326.89 248.76 326.56 248.49 254.55 334.77 254.88 335.05"/><polygon class="cls-203" points="255.22 335.34 327.25 249.05 326.89 248.76 254.88 335.05 255.22 335.34"/><polygon class="cls-204" points="255.56 335.61 327.58 249.33 327.25 249.05 255.22 335.34 255.56 335.61"/><polygon class="cls-205" points="255.9 335.9 327.92 249.61 327.58 249.33 255.56 335.61 255.9 335.9"/><polygon class="cls-206" points="256.25 336.18 328.26 249.9 327.92 249.61 255.9 335.9 256.25 336.18"/><polygon class="cls-86" points="256.57 336.46 328.61 250.17 328.26 249.9 256.25 336.18 256.57 336.46"/><polygon class="cls-85" points="256.92 336.75 328.94 250.46 328.61 250.17 256.57 336.46 256.92 336.75"/><polygon class="cls-84" points="257.25 337.02 329.26 250.74 328.94 250.46 256.92 336.75 257.25 337.02"/><polygon class="cls-207" points="257.6 337.31 329.63 251.02 329.26 250.74 257.25 337.02 257.6 337.31"/><polygon class="cls-208" points="257.93 337.59 329.95 251.31 329.63 251.02 257.6 337.31 257.93 337.59"/><polygon class="cls-209" points="258.27 337.87 330.29 251.58 329.95 251.31 257.93 337.59 258.27 337.87"/><polygon class="cls-210" points="258.62 338.16 330.63 251.87 330.29 251.58 258.27 337.87 258.62 338.16"/><polygon class="cls-211" points="258.94 338.44 330.98 252.15 330.63 251.87 258.62 338.16 258.94 338.44"/><polygon class="cls-76" points="259.27 338.72 331.31 252.43 330.98 252.15 258.94 338.44 259.27 338.72"/><polygon class="cls-212" points="259.62 339 331.63 252.72 331.31 252.43 259.27 338.72 259.62 339"/><polygon class="cls-74" points="259.96 339.29 332 253 331.63 252.72 259.62 339 259.96 339.29"/><polygon class="cls-213" points="260.3 339.57 332.32 253.28 332 253 259.96 339.29 260.3 339.57"/><polygon class="cls-214" points="260.64 339.85 332.65 253.56 332.32 253.28 260.3 339.57 260.64 339.85"/><polygon class="cls-215" points="260.99 340.14 333 253.85 332.65 253.56 260.64 339.85 260.99 340.14"/><polygon class="cls-216" points="261.31 340.41 333.35 254.13 333 253.85 260.99 340.14 261.31 340.41"/><polygon class="cls-217" points="261.64 340.7 333.68 254.41 333.35 254.13 261.31 340.41 261.64 340.7"/><polygon class="cls-218" points="261.99 340.98 334 254.7 333.68 254.41 261.64 340.7 261.99 340.98"/><polygon class="cls-66" points="262.33 341.26 334.35 254.97 334 254.7 261.99 340.98 262.33 341.26"/><polygon class="cls-64" points="262.67 341.55 334.69 255.26 334.35 254.97 262.33 341.26 262.67 341.55"/><polygon class="cls-219" points="263.01 341.83 335.02 255.54 334.69 255.26 262.67 341.55 263.01 341.83"/><polygon class="cls-220" points="263.34 342.11 335.36 255.82 335.02 255.54 263.01 341.83 263.34 342.11"/><polygon class="cls-221" points="263.69 342.39 335.71 256.11 335.36 255.82 263.34 342.11 263.69 342.39"/><polygon class="cls-221" points="264.01 342.68 336.05 256.39 335.71 256.11 263.69 342.39 264.01 342.68"/><polygon class="cls-222" points="264.36 342.96 336.38 256.67 336.05 256.39 264.01 342.68 264.36 342.96"/><polygon class="cls-223" points="264.7 343.24 336.72 256.95 336.38 256.67 264.36 342.96 264.7 343.24"/><polygon class="cls-224" points="265.04 343.53 337.06 257.24 336.72 256.95 264.7 343.24 265.04 343.53"/><polygon class="cls-225" points="265.37 343.8 337.39 257.52 337.06 257.24 265.04 343.53 265.37 343.8"/><polygon class="cls-226" points="265.71 344.09 337.73 257.8 337.39 257.52 265.37 343.8 265.71 344.09"/><polygon class="cls-53" points="266.06 344.37 338.08 258.09 337.73 257.8 265.71 344.09 266.06 344.37"/><polygon class="cls-53" points="266.38 344.65 338.42 258.36 338.08 258.09 266.06 344.37 266.38 344.65"/><polygon class="cls-227" points="266.73 344.94 338.75 258.65 338.42 258.36 266.38 344.65 266.73 344.94"/><polygon class="cls-228" points="267.07 345.22 339.09 258.93 338.75 258.65 266.73 344.94 267.07 345.22"/><polygon class="cls-229" points="267.4 345.51 339.44 259.22 339.09 258.93 267.07 345.22 267.4 345.51"/><polygon class="cls-230" points="267.74 345.78 339.76 259.5 339.44 259.22 267.4 345.51 267.74 345.78"/><polygon class="cls-231" points="268.08 346.07 340.1 259.78 339.76 259.5 267.74 345.78 268.08 346.07"/><polygon class="cls-232" points="268.43 346.35 340.45 260.07 340.1 259.78 268.08 346.07 268.43 346.35"/><polygon class="cls-233" points="268.75 346.63 340.79 260.34 340.45 260.07 268.43 346.35 268.75 346.63"/><polygon class="cls-44" points="269.1 346.92 341.12 260.63 340.79 260.34 268.75 346.63 269.1 346.92"/><polygon class="cls-43" points="269.44 347.2 341.46 260.91 341.12 260.63 269.1 346.92 269.44 347.2"/><polygon class="cls-234" points="269.77 347.48 341.81 261.19 341.46 260.91 269.44 347.2 269.77 347.48"/><polygon class="cls-235" points="270.11 347.76 342.13 261.48 341.81 261.19 269.77 347.48 270.11 347.76"/><polygon class="cls-236" points="270.45 348.05 342.46 261.76 342.13 261.48 270.11 347.76 270.45 348.05"/><polygon class="cls-237" points="270.8 348.33 342.81 262.04 342.46 261.76 270.45 348.05 270.8 348.33"/><polygon class="cls-238" points="271.13 348.61 343.15 262.32 342.81 262.04 270.8 348.33 271.13 348.61"/><polygon class="cls-239" points="271.47 348.89 343.49 262.6 343.15 262.32 271.13 348.61 271.47 348.89"/><polygon class="cls-240" points="271.8 349.17 343.81 262.89 343.49 262.6 271.47 348.89 271.8 349.17"/><polygon class="cls-34" points="272.14 349.46 344.18 263.17 343.81 262.89 271.8 349.17 272.14 349.46"/><polygon class="cls-32" points="272.48 349.74 344.5 263.45 344.18 263.17 272.14 349.46 272.48 349.74"/><polygon class="cls-30" points="272.82 350.02 344.83 263.73 344.5 263.45 272.48 349.74 272.82 350.02"/><polygon class="cls-241" points="273.17 350.3 345.18 264.01 344.83 263.73 272.82 350.02 273.17 350.3"/><polygon class="cls-242" points="273.5 350.58 345.52 264.3 345.18 264.01 273.17 350.3 273.5 350.58"/><polygon class="cls-243" points="273.82 350.87 345.86 264.58 345.52 264.3 273.5 350.58 273.82 350.87"/><polygon class="cls-244" points="274.17 351.15 346.19 264.86 345.86 264.58 273.82 350.87 274.17 351.15"/><polygon class="cls-245" points="274.51 351.43 346.55 265.14 346.19 264.86 274.17 351.15 274.51 351.43"/><polygon class="cls-246" points="274.85 351.72 346.88 265.43 346.55 265.14 274.51 351.43 274.85 351.72"/><polygon class="cls-20" points="275.19 351.99 347.2 265.71 346.88 265.43 274.85 351.72 275.19 351.99"/><polygon class="cls-247" points="275.54 352.28 347.55 265.99 347.2 265.71 275.19 351.99 275.54 352.28"/><polygon class="cls-248" points="275.87 352.56 347.89 266.27 347.55 265.99 275.54 352.28 275.87 352.56"/><polygon class="cls-249" points="276.19 352.84 348.23 266.55 347.89 266.27 275.87 352.56 276.19 352.84"/><polygon class="cls-249" points="276.54 353.13 348.56 266.84 348.23 266.55 276.19 352.84 276.54 353.13"/><polygon class="cls-250" points="276.88 353.4 348.9 267.12 348.56 266.84 276.54 353.13 276.88 353.4"/><polygon class="cls-251" points="277.21 353.69 349.25 267.4 348.9 267.12 276.88 353.4 277.21 353.69"/><polygon class="cls-252" points="277.56 353.97 349.57 267.69 349.25 267.4 277.21 353.69 277.56 353.97"/><polygon class="cls-253" points="277.89 354.25 349.9 267.96 349.57 267.69 277.56 353.97 277.89 354.25"/><polygon class="cls-254" points="278.24 354.54 350.26 268.25 349.9 267.96 277.89 354.25 278.24 354.54"/><polygon class="cls-12" points="278.56 354.82 350.6 268.53 350.26 268.25 278.24 354.54 278.56 354.82"/><polygon class="cls-12" points="278.91 355.11 350.93 268.82 350.6 268.53 278.56 354.82 278.91 355.11"/><polygon class="cls-10" points="279.25 355.38 351.27 269.1 350.93 268.82 278.91 355.11 279.25 355.38"/><polygon class="cls-8" points="279.58 355.67 351.62 269.38 351.27 269.1 279.25 355.38 279.58 355.67"/><polygon class="cls-8" points="279.93 355.95 351.94 269.67 351.62 269.38 279.58 355.67 279.93 355.95"/><polygon class="cls-6" points="280.26 356.23 352.27 269.94 351.94 269.67 279.93 355.95 280.26 356.23"/><polygon class="cls-255" points="280.61 356.52 352.63 270.23 352.27 269.94 280.26 356.23 280.61 356.52"/><polygon class="cls-256" points="280.94 356.8 352.96 270.51 352.63 270.23 280.61 356.52 280.94 356.8"/><polygon class="cls-257" points="281.28 357.08 353.3 270.79 352.96 270.51 280.94 356.8 281.28 357.08"/><polygon class="cls-258" points="281.63 357.36 353.64 271.08 353.3 270.79 281.28 357.08 281.63 357.36"/><polygon class="cls-259" points="281.95 357.65 353.99 271.36 353.64 271.08 281.63 357.36 281.95 357.65"/><polygon class="cls-260" points="282.29 357.93 354.31 271.64 353.99 271.36 281.95 357.65 282.29 357.93"/><polygon class="cls-261" points="282.63 358.21 354.64 271.92 354.31 271.64 282.29 357.93 282.63 358.21"/><polygon class="cls-262" points="282.98 358.5 355 272.21 354.64 271.92 282.63 358.21 282.98 358.5"/><polygon class="cls-263" points="283.31 358.77 355.33 272.49 355 272.21 282.98 358.5 283.31 358.77"/><polygon class="cls-264" points="283.65 359.06 355.67 272.77 355.33 272.49 283.31 358.77 283.65 359.06"/><polygon class="cls-265" points="284 359.34 356.01 273.06 355.67 272.77 283.65 359.06 284 359.34"/><polygon class="cls-266" points="284.32 359.62 356.36 273.33 356.01 273.06 284 359.34 284.32 359.62"/><polygon class="cls-267" points="284.65 359.91 356.69 273.62 356.36 273.33 284.32 359.62 284.65 359.91"/><polygon class="cls-268" points="285 360.19 357.01 273.9 356.69 273.62 284.65 359.91 285 360.19"/><polygon class="cls-268" points="285.35 360.47 357.36 274.18 357.01 273.9 285 360.19 285.35 360.47"/><polygon class="cls-269" points="285.68 360.75 357.7 274.47 357.36 274.18 285.35 360.47 285.68 360.75"/><polygon class="cls-270" points="286.02 361.04 358.04 274.75 357.7 274.47 285.68 360.75 286.02 361.04"/><polygon class="cls-271" points="286.35 361.32 358.37 275.03 358.04 274.75 286.02 361.04 286.35 361.32"/><polygon class="cls-272" points="286.69 361.6 358.73 275.31 358.37 275.03 286.35 361.32 286.69 361.6"/><polygon class="cls-273" points="287.02 361.89 359.06 275.6 358.73 275.31 286.69 361.6 287.02 361.89"/><polygon class="cls-274" points="287.36 362.16 359.38 275.88 359.06 275.6 287.02 361.89 287.36 362.16"/><polygon class="cls-275" points="287.71 362.45 359.73 276.16 359.38 275.88 287.36 362.16 287.71 362.45"/><polygon class="cls-276" points="288.05 362.73 360.07 276.45 359.73 276.16 287.71 362.45 288.05 362.73"/><polygon class="cls-276" points="293.46 367.25 365.48 280.96 360.07 276.45 288.05 362.73 293.46 367.25"/><polygon class="cls-276" points="304.27 376.29 376.31 290 365.48 280.96 293.46 367.25 304.27 376.29"/></g><g class="cls-180"><rect class="cls-178" x="240.71" y="240.47" width="112.58" height="113.05" transform="translate(-121.32 334.7) rotate(-50.15)"/></g><path class="cls-179" d="M285.1,257.88h-.17c-16,2.19-22.92,7.1-25.65,9.83a10.68,10.68,0,0,0-2.32,3.57,10.92,10.92,0,0,0-.76,4.19c.22,6.17,4,14.74,5.69,18.22A126.86,126.86,0,0,0,272,310.27a106.73,106.73,0,0,0,12.61,14.34c3.82,3.51,9.07,8,13.4,10.21a13,13,0,0,0,5.63,1.29,12.3,12.3,0,0,0,4.1-.89,12,12,0,0,0,3.54-2.25c4.05-3.66,8-10.66,10.78-15.31a139.39,139.39,0,0,0,9.42-20.1c1.31-3.39,4.92-13.89,6-21.55a16,16,0,0,0-1.07-8.47,11.69,11.69,0,0,0-2.29-3.55,10.56,10.56,0,0,0-1.76-1.51,11.67,11.67,0,0,0-1.55-.85,8.45,8.45,0,0,1,2.31,1.85A8.69,8.69,0,0,1,334.6,266c.22.55,1.28,2.7,0,7.6s-5.31,13-7.26,16.44l0,0c-.47.84-11.65,20.52-17,20.47s-17.12-15.77-20-19.86c-1.93-2.73-3.64-5.39-5.15-7.95-5.68-9.56-8.49-17.64-7-20.61,0,0,1.22-3.18,6.92-4.24Z"/></g></g></svg>